<svg width="29" height="17" viewBox="0 0 29 17" fill="none" xmlns="http://www.w3.org/2000/svg">
<path d="M20.8681 12.6003C20.2223 12.6003 19.697 12.0745 19.697 11.4288C19.697 10.783 20.2223 10.2577 20.8681 10.2577C21.5139 10.2577 22.0392 10.7829 22.0392 11.4288C22.0392 12.0746 21.5139 12.6003 20.8681 12.6003ZM7.92345 12.6003C7.27769 12.6003 6.7524 12.0745 6.7524 11.4288C6.7524 10.783 7.27758 10.2577 7.92345 10.2577C8.56921 10.2577 9.0945 10.7829 9.0945 11.4288C9.0945 12.0746 8.56932 12.6003 7.92345 12.6003ZM21.2881 5.54566L23.6287 1.49188C23.6931 1.38001 23.7106 1.24715 23.6771 1.12244C23.6437 0.997743 23.5622 0.891391 23.4505 0.826723C23.3386 0.762323 23.2057 0.744922 23.081 0.778335C22.9563 0.811749 22.85 0.893249 22.7853 1.00496L20.4154 5.10997C18.603 4.28296 16.5677 3.8222 14.3958 3.8222C12.2238 3.8222 10.1885 4.28296 8.37618 5.10997L6.0062 1.00496C5.94152 0.893249 5.83516 0.811749 5.71047 0.778335C5.58578 0.744922 5.45292 0.762323 5.34104 0.826723C5.22924 0.891331 5.14767 0.997684 5.11424 1.12241C5.08082 1.24714 5.09829 1.38003 5.1628 1.49188L7.50341 5.54566C3.48425 7.7316 0.735393 11.8005 0.333252 16.6076H28.4583C28.0558 11.8006 25.3069 7.7316 21.2881 5.54555" fill="#3DDB85"/>
</svg>
