<svg width="29" height="29" viewBox="0 0 29 29" fill="none" xmlns="http://www.w3.org/2000/svg">
<path d="M8.59272 12.3074C8.59272 12.6535 8.63013 12.9341 8.69561 13.1399C8.77044 13.3457 8.86399 13.5702 8.99494 13.8134C9.04171 13.8883 9.06042 13.9631 9.06042 14.0286C9.06042 14.1221 9.0043 14.2157 8.88269 14.3092L8.29339 14.7021C8.2092 14.7582 8.12501 14.7863 8.05018 14.7863C7.95664 14.7863 7.8631 14.7395 7.76956 14.6553C7.6386 14.515 7.52635 14.3653 7.43281 14.2157C7.33927 14.0566 7.24573 13.8789 7.14283 13.6638C6.41321 14.5243 5.49651 14.9546 4.39273 14.9546C3.60699 14.9546 2.98026 14.7301 2.52191 14.2811C2.06356 13.8321 1.82971 13.2335 1.82971 12.4852C1.82971 11.6901 2.11033 11.0446 2.68093 10.5582C3.25153 10.0718 4.00921 9.8286 4.97269 9.8286C5.29072 9.8286 5.61812 9.85666 5.96422 9.90343C6.31032 9.9502 6.66578 10.025 7.03994 10.1092V9.42637C7.03994 8.71546 6.89027 8.2197 6.6003 7.92972C6.30097 7.63975 5.79584 7.49943 5.07558 7.49943C4.74819 7.49943 4.41144 7.53685 4.06534 7.62104C3.71924 7.70522 3.38249 7.80812 3.0551 7.93908C2.90543 8.00455 2.79318 8.04197 2.7277 8.06068C2.66223 8.07939 2.61546 8.08874 2.57804 8.08874C2.44708 8.08874 2.3816 7.9952 2.3816 7.79876V7.34042C2.3816 7.19075 2.40031 7.0785 2.44708 7.01302C2.49385 6.94754 2.57804 6.88207 2.709 6.81659C3.03639 6.64821 3.42926 6.5079 3.88761 6.39565C4.34596 6.27405 4.83237 6.21793 5.34685 6.21793C6.45998 6.21793 7.27379 6.47049 7.79762 6.97561C8.31209 7.48073 8.57401 8.24776 8.57401 9.27671V12.3074H8.59272ZM4.79496 13.7292C5.10364 13.7292 5.42168 13.6731 5.75843 13.5609C6.09518 13.4486 6.39451 13.2428 6.64707 12.9622C6.79673 12.7845 6.90898 12.588 6.96511 12.3635C7.02123 12.1391 7.05865 11.8678 7.05865 11.5497V11.1569C6.78738 11.0914 6.4974 11.0353 6.19807 10.9979C5.89874 10.9604 5.60876 10.9417 5.31879 10.9417C4.69206 10.9417 4.23371 11.0633 3.92503 11.3159C3.61634 11.5685 3.46668 11.9239 3.46668 12.3916C3.46668 12.8313 3.57893 13.1586 3.81278 13.3831C4.03728 13.617 4.36467 13.7292 4.79496 13.7292ZM12.3063 14.7395C12.1379 14.7395 12.0257 14.7114 11.9508 14.6459C11.876 14.5898 11.8105 14.4589 11.7544 14.2811L9.55619 7.05044C9.50006 6.86336 9.472 6.74175 9.472 6.67628C9.472 6.52661 9.54683 6.44242 9.6965 6.44242H10.6132C10.7909 6.44242 10.9125 6.47049 10.978 6.53597C11.0528 6.59209 11.109 6.72305 11.1651 6.90077L12.7366 13.0932L14.1958 6.90077C14.2426 6.71369 14.2987 6.59209 14.3735 6.53597C14.4484 6.47984 14.5793 6.44242 14.7477 6.44242H15.496C15.6738 6.44242 15.7954 6.47049 15.8702 6.53597C15.945 6.59209 16.0105 6.72305 16.0479 6.90077L17.5259 13.168L19.1441 6.90077C19.2003 6.71369 19.2657 6.59209 19.3312 6.53597C19.406 6.47984 19.5276 6.44242 19.696 6.44242H20.5659C20.7156 6.44242 20.7998 6.51726 20.7998 6.67628C20.7998 6.72305 20.7904 6.76982 20.7811 6.82594C20.7717 6.88207 20.753 6.9569 20.7156 7.05979L18.4613 14.2905C18.4052 14.4776 18.3397 14.5992 18.2648 14.6553C18.19 14.7114 18.0684 14.7488 17.9094 14.7488H17.1049C16.9272 14.7488 16.8056 14.7208 16.7308 14.6553C16.6559 14.5898 16.5905 14.4682 16.553 14.2811L15.1032 8.24776L13.6626 14.2718C13.6159 14.4589 13.5597 14.5805 13.4849 14.6459C13.4101 14.7114 13.2791 14.7395 13.1107 14.7395H12.3063ZM24.3263 14.992C23.8399 14.992 23.3535 14.9359 22.8858 14.8237C22.4181 14.7114 22.0532 14.5898 21.81 14.4495C21.6604 14.3653 21.5575 14.2718 21.5201 14.1876C21.4826 14.1034 21.4639 14.0099 21.4639 13.9257V13.4486C21.4639 13.2522 21.5388 13.1586 21.6791 13.1586C21.7352 13.1586 21.7913 13.168 21.8475 13.1867C21.9036 13.2054 21.9878 13.2428 22.0813 13.2802C22.3993 13.4206 22.7455 13.5328 23.1103 13.6076C23.4844 13.6825 23.8492 13.7199 24.2234 13.7199C24.8127 13.7199 25.2711 13.617 25.5891 13.4112C25.9071 13.2054 26.0755 12.9061 26.0755 12.5226C26.0755 12.2607 25.9913 12.0455 25.8229 11.8678C25.6546 11.6901 25.3365 11.531 24.8782 11.3814L23.5218 10.9604C22.839 10.7453 22.3339 10.4273 22.0252 10.0063C21.7165 9.59475 21.5575 9.1364 21.5575 8.64998C21.5575 8.25711 21.6417 7.91101 21.81 7.61168C21.9784 7.31235 22.2029 7.05044 22.4835 6.84465C22.7642 6.62951 23.0822 6.47049 23.4564 6.35824C23.8305 6.24599 24.2234 6.19922 24.635 6.19922C24.8408 6.19922 25.0559 6.20857 25.2617 6.23664C25.4768 6.2647 25.6733 6.30211 25.8697 6.33953C26.0568 6.3863 26.2345 6.43307 26.4029 6.48919C26.5713 6.54532 26.7022 6.60144 26.7958 6.65757C26.9267 6.7324 27.0203 6.80723 27.0764 6.89142C27.1325 6.96625 27.1606 7.06915 27.1606 7.2001V7.63975C27.1606 7.83618 27.0857 7.93908 26.9454 7.93908C26.8706 7.93908 26.749 7.90166 26.59 7.82683C26.0568 7.58362 25.4581 7.46202 24.794 7.46202C24.2608 7.46202 23.8399 7.5462 23.5499 7.72393C23.2599 7.90166 23.1103 8.17293 23.1103 8.55644C23.1103 8.81836 23.2038 9.04286 23.3909 9.22058C23.578 9.39831 23.9241 9.57604 24.4198 9.73506L25.7481 10.156C26.4216 10.3711 26.908 10.6705 27.198 11.054C27.488 11.4375 27.6283 11.8771 27.6283 12.3635C27.6283 12.7658 27.5441 13.1306 27.3851 13.4486C27.2167 13.7667 26.9922 14.0473 26.7022 14.2718C26.4123 14.5056 26.0662 14.674 25.6639 14.7956C25.243 14.9266 24.8033 14.992 24.3263 14.992Z" fill="#252F3E"/>
<path fill-rule="evenodd" clip-rule="evenodd" d="M26.0941 19.5373C23.0166 21.8104 18.5454 23.017 14.7009 23.017C9.31291 23.017 4.45814 21.0246 0.791346 17.7133C0.50137 17.4514 0.763284 17.0959 1.10938 17.3017C5.07551 19.6028 9.9677 20.9966 15.0283 20.9966C18.4425 20.9966 22.1935 20.2856 25.6451 18.8264C26.1596 18.5926 26.5992 19.1632 26.0941 19.5373Z" fill="#FF9900"/>
<path fill-rule="evenodd" clip-rule="evenodd" d="M27.3756 18.0781C26.9827 17.573 24.7752 17.8349 23.7743 17.9565C23.475 17.9939 23.4282 17.732 23.6995 17.5355C25.458 16.3008 28.3484 16.6563 28.6852 17.0678C29.0219 17.4888 28.5916 20.3792 26.9453 21.7636C26.6928 21.9787 26.4496 21.8665 26.5618 21.5858C26.936 20.6598 27.7685 18.5738 27.3756 18.0781Z" fill="#FF9900"/>
</svg>
