<svg width="29" height="28" viewBox="0 0 29 28" fill="none" xmlns="http://www.w3.org/2000/svg">
<path d="M9.66805 0.8757H17.9534L9.35233 26.3748C9.30834 26.5051 9.24434 26.6276 9.16261 26.7382C9.08106 26.8488 8.9827 26.9457 8.87104 27.0259C8.75939 27.106 8.63618 27.1683 8.50527 27.2103C8.37436 27.2523 8.23785 27.274 8.10064 27.274H1.65252C1.4432 27.274 1.23669 27.2243 1.05048 27.1284C0.864066 27.0328 0.703153 26.8941 0.581095 26.7238C0.458956 26.5535 0.379054 26.3567 0.347979 26.1494C0.316827 25.9422 0.335728 25.7304 0.402583 25.532L8.41601 1.77421C8.45977 1.644 8.52382 1.52149 8.60573 1.41088C8.68728 1.30028 8.78599 1.20332 8.89729 1.12317C9.00895 1.04301 9.13216 0.980707 9.26307 0.938704C9.39398 0.896701 9.53049 0.875 9.6677 0.875V0.87535L9.66805 0.8757Z" fill="url(#paint0_linear_550_2643)"/>
<path d="M24.9417 27.2734H17.5019C17.419 27.2734 17.336 27.2657 17.2541 27.2499C17.1726 27.2345 17.0924 27.2114 17.015 27.181C16.9377 27.1505 16.8635 27.1127 16.7931 27.0686C16.7229 27.0242 16.6569 26.9734 16.5961 26.9167L8.15352 19.0321C8.06422 18.9487 8.00203 18.8404 7.975 18.7213C7.948 18.6021 7.9575 18.4776 8.00227 18.3639C8.04703 18.2502 8.12498 18.1526 8.22597 18.0839C8.32713 18.0153 8.44648 17.9785 8.56864 17.9785H21.7071L24.941 27.2737L24.9417 27.2734Z" fill="#0078D4"/>
<path d="M17.9832 0.875016L12.1833 17.9803L21.6598 17.9782L24.9105 27.2734H17.4987C17.4221 27.2727 17.3454 27.2657 17.2698 27.2521C17.1942 27.2384 17.12 27.2185 17.0479 27.1919C16.9033 27.1392 16.7688 27.0621 16.6503 26.964L10.9512 21.645L9.3558 26.3501C9.31449 26.4677 9.25779 26.5793 9.18709 26.6819C9.04537 26.8882 8.85154 27.0533 8.6253 27.1604C8.51266 27.2136 8.39342 27.2517 8.27072 27.2734H1.65634C1.44493 27.2741 1.23631 27.2237 1.04835 27.1264C0.860361 27.0292 0.69854 26.8881 0.57657 26.7152C0.4546 26.5422 0.376066 26.3424 0.347606 26.1327C0.319248 25.9229 0.341696 25.7093 0.41306 25.51L8.41353 1.79138C8.45519 1.65872 8.51784 1.53376 8.59905 1.42105C8.6799 1.30835 8.77861 1.20894 8.89062 1.12703C9.00262 1.04513 9.12723 0.981423 9.25919 0.938721C9.39115 0.896018 9.52941 0.874316 9.66837 0.875016H17.9835H17.9832Z" fill="url(#paint1_linear_550_2643)"/>
<path d="M28.2641 25.5313C28.331 25.7299 28.3498 25.9415 28.319 26.1488C28.2879 26.3559 28.2082 26.5528 28.0863 26.7232C27.9642 26.8933 27.8033 27.032 27.617 27.1277C27.4307 27.2234 27.2243 27.2733 27.0149 27.2734H17.7805C17.9899 27.2734 18.1964 27.2233 18.3829 27.1278C18.5691 27.0322 18.7302 26.8933 18.8523 26.7232C18.9745 26.553 19.0543 26.356 19.0854 26.1488C19.1166 25.9416 19.0977 25.7298 19.0308 25.5313L11.017 1.77281C10.9288 1.51109 10.7607 1.28363 10.5365 1.12247C10.4251 1.04231 10.3019 0.980357 10.1714 0.938354C10.0408 0.896351 9.90432 0.875 9.76746 0.875H19.0014C19.1386 0.875 19.2748 0.896351 19.4057 0.938354C19.5363 0.980357 19.6595 1.04266 19.7711 1.12247C19.8824 1.20262 19.9808 1.29958 20.0623 1.40984C20.1439 1.52009 20.2076 1.6426 20.2517 1.77281L28.2655 25.5313H28.2641Z" fill="url(#paint2_linear_550_2643)"/>
<defs>
<linearGradient id="paint0_linear_550_2643" x1="12.6919" y1="2.83233" x2="4.08136" y2="28.2685" gradientUnits="userSpaceOnUse">
<stop stop-color="#114A8B"/>
<stop offset="1" stop-color="#0669BC"/>
</linearGradient>
<linearGradient id="paint1_linear_550_2643" x1="15.3765" y1="14.6834" x2="13.3849" y2="15.359" gradientUnits="userSpaceOnUse">
<stop stop-opacity="0.3"/>
<stop offset="0.1" stop-opacity="0.2"/>
<stop offset="0.3" stop-opacity="0.1"/>
<stop offset="0.6" stop-opacity="0.1"/>
<stop offset="1" stop-opacity="0"/>
</linearGradient>
<linearGradient id="paint2_linear_550_2643" x1="14.2775" y1="2.08958" x2="23.7281" y2="27.2667" gradientUnits="userSpaceOnUse">
<stop stop-color="#3CCBF4"/>
<stop offset="1" stop-color="#2892DF"/>
</linearGradient>
</defs>
</svg>
