<svg width="24" height="24" viewBox="0 0 24 24" fill="none" xmlns="http://www.w3.org/2000/svg">
<g id="Back-End Development">
<g id="Group 1000002736">
<path id="Vector" fill-rule="evenodd" clip-rule="evenodd" d="M4.37557 4.52065C5.28432 3.5457 6.57848 3 8.10661 3H15.8925C17.4242 3 18.7189 3.54539 19.6273 4.52091C20.5304 5.49084 21 6.82974 21 8.33204V15.6679C21 17.1702 20.5304 18.5092 19.6271 19.4791C18.7186 20.4546 17.4236 21 15.8916 21H8.10661C6.57489 21 5.28035 20.4546 4.37222 19.479C3.46931 18.5091 3 17.1702 3 15.6679V8.33204C3 6.82898 3.47185 5.49019 4.37557 4.52065ZM5.38842 5.46473C4.7633 6.13538 4.38462 7.11647 4.38462 8.33204V15.6679C4.38462 16.8844 4.76179 17.8653 5.3857 18.5356C6.00438 19.2003 6.91699 19.6154 8.10661 19.6154H15.8916C17.0817 19.6154 17.9948 19.2002 18.6138 18.5355C19.238 17.8652 19.6154 16.8843 19.6154 15.6679V8.33204C19.6154 7.1157 19.238 6.13474 18.6139 5.46447C17.995 4.79977 17.0821 4.38462 15.8925 4.38462H8.10661C6.92149 4.38462 6.0085 4.79947 5.38842 5.46473Z" fill="#EC4702"/>
<path id="Vector_2" fill-rule="evenodd" clip-rule="evenodd" d="M13.4541 8.06633C13.4541 7.68398 13.7641 7.37402 14.1464 7.37402C14.5791 7.37402 14.9691 7.44782 15.3003 7.62493C15.6431 7.80826 15.875 8.07675 16.0216 8.37923C16.2716 8.89484 16.2706 9.52874 16.2699 9.96839C16.2699 9.99082 16.2699 10.0128 16.2699 10.0341C16.2699 10.5777 16.2843 10.8889 16.3794 11.085C16.4116 11.1515 16.4481 11.1904 16.5078 11.2223C16.5791 11.2605 16.7259 11.3096 17.0088 11.3096C17.3911 11.3096 17.7011 11.6195 17.7011 12.0019C17.7011 12.3843 17.3911 12.6942 17.0088 12.6942C16.7259 12.6942 16.5791 12.7434 16.5077 12.7815C16.4481 12.8135 16.4116 12.8524 16.3794 12.9189C16.2843 13.1147 16.2699 13.4258 16.2699 13.9692C16.2699 13.9907 16.2699 14.0126 16.2699 14.0351C16.2706 14.4745 16.2716 15.1084 16.0216 15.624C15.875 15.9263 15.6431 16.1948 15.3002 16.3781C14.969 16.5552 14.5791 16.6289 14.1464 16.6289C13.7641 16.6289 13.4541 16.319 13.4541 15.9366C13.4541 15.5543 13.7641 15.2443 14.1464 15.2443C14.4293 15.2443 14.5761 15.1952 14.6475 15.1571C14.7071 15.1251 14.7435 15.0862 14.7758 15.0197C14.8707 14.8238 14.8852 14.5127 14.8852 13.9692C14.8852 13.9479 14.8852 13.926 14.8852 13.9035C14.8845 13.464 14.8835 12.8302 15.1335 12.3146C15.1866 12.2051 15.251 12.1 15.3277 12.0019C15.251 11.9037 15.1866 11.7986 15.1335 11.6891C14.8835 11.1734 14.8845 10.5395 14.8852 10.0999C14.8852 10.0774 14.8852 10.0555 14.8852 10.0341C14.8852 9.49061 14.8707 9.17931 14.7758 8.98332C14.7435 8.91683 14.707 8.87784 14.6474 8.84595C14.576 8.80783 14.4293 8.75864 14.1464 8.75864C13.7641 8.75864 13.4541 8.44868 13.4541 8.06633Z" fill="#EC4702"/>
<path id="Vector_3" fill-rule="evenodd" clip-rule="evenodd" d="M8.70012 7.62493C9.03134 7.44782 9.42127 7.37402 9.85396 7.37402C10.2363 7.37402 10.5463 7.68398 10.5463 8.06633C10.5463 8.44868 10.2363 8.75864 9.85396 8.75864C9.57106 8.75864 9.42431 8.80783 9.35301 8.84595C9.29336 8.87784 9.25687 8.91683 9.22463 8.98332C9.1296 9.17931 9.1151 9.49061 9.1151 10.0341C9.1151 10.0555 9.11513 10.0774 9.11517 10.0999C9.11585 10.5395 9.11684 11.1734 8.86684 11.6891C8.81372 11.7986 8.74943 11.9037 8.67273 12.0019C8.74941 12.1 8.8137 12.2051 8.86681 12.3146C9.11684 12.8302 9.11585 13.464 9.11517 13.9035C9.11513 13.926 9.1151 13.9479 9.1151 13.9692C9.1151 14.5127 9.12961 14.8238 9.2246 15.0197C9.25683 15.0862 9.29329 15.1251 9.35296 15.1571C9.42427 15.1952 9.57104 15.2443 9.85396 15.2443C10.2363 15.2443 10.5463 15.5543 10.5463 15.9366C10.5463 16.319 10.2363 16.6289 9.85396 16.6289C9.42129 16.6289 9.03137 16.5552 8.70017 16.3781C8.35733 16.1948 8.12545 15.9263 7.97877 15.624C7.72874 15.1084 7.72973 14.4745 7.73042 14.0351C7.73045 14.0126 7.73048 13.9907 7.73048 13.9692C7.73048 13.4258 7.71598 13.1147 7.62098 12.9189C7.58876 12.8524 7.55229 12.8135 7.49263 12.7815C7.42132 12.7434 7.27454 12.6942 6.99162 12.6942C6.60928 12.6942 6.29932 12.3843 6.29932 12.0019C6.29932 11.6195 6.60928 11.3096 6.99162 11.3096C7.27452 11.3096 7.42127 11.2605 7.49257 11.2223C7.55223 11.1904 7.58871 11.1515 7.62095 11.085C7.71598 10.8889 7.73048 10.5777 7.73048 10.0341C7.73048 10.0128 7.73045 9.99082 7.73042 9.96839C7.72973 9.52874 7.72874 8.89484 7.97874 8.37923C8.1254 8.07675 8.35725 7.80826 8.70012 7.62493Z" fill="#EC4702"/>
</g>
</g>
</svg>
