<svg width="21" height="20" viewBox="0 0 21 20" fill="none" xmlns="http://www.w3.org/2000/svg">
<path d="M5.94599 5.60742H13.9506C15.7491 5.60742 16.8687 6.87753 16.8687 8.67453V13.5229C16.8687 15.3199 15.7491 16.5901 13.9498 16.5901H5.94599C4.14748 16.5901 3.02856 15.3199 3.02856 13.5229V8.67453C3.02856 6.87753 4.15272 5.60742 5.94599 5.60742Z" stroke="white" stroke-width="0.923077" stroke-linecap="round" stroke-linejoin="round"/>
<path d="M12.5324 5.5956V5.1166C12.5324 4.17432 11.7683 3.41016 10.826 3.41016H9.07244C8.13013 3.41016 7.36597 4.17432 7.36597 5.1166V5.5956" stroke="white" stroke-width="0.923077" stroke-linecap="round" stroke-linejoin="round"/>
<path d="M11.4631 9.04492H8.43567" stroke="white" stroke-width="0.923077" stroke-linecap="round" stroke-linejoin="round"/>
<path d="M16.8717 10.623C12.2568 12.3744 7.64115 12.3744 3.02551 10.623" stroke="white" stroke-width="0.923077" stroke-linecap="round" stroke-linejoin="round"/>
</svg>
