<svg width="3198" height="2912" viewBox="0 0 3198 2912" fill="none" xmlns="http://www.w3.org/2000/svg">
<g filter="url(#filter0_f_3319_334)">
<ellipse cx="1599" cy="1456" rx="659" ry="516" fill="#FF4D02" fill-opacity="0.4"/>
</g>
<g opacity="0.6" clip-path="url(#clip0_3319_334)">
<rect opacity="0.03" x="945" y="1287" width="114" height="114" fill="url(#paint0_linear_3319_334)"/>
<rect opacity="0.03" x="945" y="1516" width="114" height="114" fill="url(#paint1_linear_3319_334)"/>
<rect opacity="0.03" x="945" y="1745" width="114" height="114" fill="url(#paint2_linear_3319_334)"/>
<rect opacity="0.03" x="1857" y="1402" width="114" height="114" fill="url(#paint3_linear_3319_334)"/>
<path fill-rule="evenodd" clip-rule="evenodd" d="M1059.5 1515V1402H1172.5V1515H1059.5ZM1058.5 1515V1402H568V1401H1058.5V1288H568V1287H1058.5L1058.5 1174H568V1173H1058.5V1080H1059.5V1173H1172.5V1080H1173.5V1173H1286.5V1080H1287.5V1173H1400.5V1080H1401.5V1173H1514.5V1080H1515.5V1173H1628.5V1080H1629.5V1173H1742.5V1080H1743.5V1173H1856.5V1080H1857.5V1173H1970.5V1080H1971.5V1173H2289.5V1174H1971.5V1287H2289.5V1288H1971.5V1401H2289.5V1402H1971.5V1515H2289.5V1516H1971.5V1629H2289.5V1630H1971.5V1743H2289.5V1744H1971.5V1857H2289.5V1858H1971.5V1948H1970.5V1858H1857.5V1948H1856.5V1858H1743.5V1948H1742.5V1858H1629.5V1948H1628.5V1858H1515.5V1948H1514.5V1858H1401.5V1948H1400.5V1858H1287.5V1948H1286.5V1858H1173.5V1948H1172.5V1858H1059.5V1948H1058.5V1858H568V1857H1058.5V1744H568V1743H1058.5V1630H568V1629H1058.5V1516H568V1515H1058.5ZM1059.5 1857H1172.5V1744H1059.5V1857ZM1173.5 1857H1286.5V1744H1173.5V1857ZM1287.5 1857H1400.5V1744H1287.5V1857ZM1401.5 1857H1514.5V1744H1401.5V1857ZM1515.5 1857H1628.5V1744H1515.5V1857ZM1629.5 1857H1742.5V1744H1629.5V1857ZM1743.5 1857H1856.5V1744H1743.5V1857ZM1857.5 1857H1970.5V1744H1857.5V1857ZM1970.5 1630V1743H1857.5V1630H1970.5ZM1856.5 1630V1743H1743.5V1630H1856.5ZM1742.5 1630V1743H1629.5V1630H1742.5ZM1628.5 1630V1743H1515.5V1630H1628.5ZM1514.5 1630V1743H1401.5V1630H1514.5ZM1400.5 1630V1743H1287.5V1630H1400.5ZM1286.5 1630V1743H1173.5V1630H1286.5ZM1172.5 1630V1743H1059.5V1630H1172.5ZM1059.5 1629H1172.5V1516H1059.5V1629ZM1173.5 1629H1286.5V1516H1173.5V1629ZM1287.5 1629H1400.5V1516H1287.5V1629ZM1401.5 1629H1514.5V1516H1401.5V1629ZM1515.5 1629H1628.5V1516H1515.5V1629ZM1629.5 1629H1742.5V1516H1629.5V1629ZM1743.5 1629H1856.5V1516H1743.5V1629ZM1857.5 1629H1970.5V1516H1857.5V1629ZM1059.5 1287L1059.5 1174H1172.5L1172.5 1287H1059.5ZM1173.5 1287L1173.5 1174H1286.5L1286.5 1287H1173.5ZM1287.5 1287L1287.5 1174H1400.5L1400.5 1287H1287.5ZM1401.5 1287L1401.5 1174H1514.5L1514.5 1287H1401.5ZM1515.5 1287L1515.5 1174H1628.5V1287H1515.5ZM1629.5 1287V1174H1742.5V1287H1629.5ZM1743.5 1287V1174H1856.5V1287H1743.5ZM1857.5 1287V1174H1970.5V1287H1857.5ZM1970.5 1288H1857.5V1401H1970.5V1288ZM1856.5 1288H1743.5V1401H1856.5V1288ZM1742.5 1288H1629.5V1401H1742.5V1288ZM1628.5 1288H1515.5V1401H1628.5V1288ZM1514.5 1288H1401.5V1401H1514.5V1288ZM1400.5 1288H1287.5V1401H1400.5V1288ZM1286.5 1288H1173.5V1401H1286.5V1288ZM1172.5 1288H1059.5V1401H1172.5V1288ZM1173.5 1515V1402H1286.5V1515H1173.5ZM1287.5 1515V1402H1400.5V1515H1287.5ZM1401.5 1515V1402H1514.5V1515H1401.5ZM1515.5 1515V1402H1628.5V1515H1515.5ZM1629.5 1515V1402H1742.5V1515H1629.5ZM1743.5 1515V1402H1856.5V1515H1743.5ZM1857.5 1515V1402H1970.5V1515H1857.5Z" fill="url(#paint4_radial_3319_334)"/>
<rect opacity="0.5" x="1173" y="1400" width="114" height="2" fill="url(#paint5_linear_3319_334)"/>
<rect opacity="0.5" x="1629" y="1628" width="114" height="2" fill="url(#paint6_linear_3319_334)"/>
<rect x="1400" y="1626" width="114" height="2" transform="rotate(-90 1400 1626)" fill="url(#paint7_linear_3319_334)"/>
<rect opacity="0.3" x="1628" y="1402" width="114" height="2" transform="rotate(-90 1628 1402)" fill="url(#paint8_linear_3319_334)"/>
<rect opacity="0.2" x="1287" y="1515" width="114" height="114" fill="white"/>
</g>
<defs>
<filter id="filter0_f_3319_334" x="0" y="0" width="3198" height="2912" filterUnits="userSpaceOnUse" color-interpolation-filters="sRGB">
<feFlood flood-opacity="0" result="BackgroundImageFix"/>
<feBlend mode="normal" in="SourceGraphic" in2="BackgroundImageFix" result="shape"/>
<feGaussianBlur stdDeviation="470" result="effect1_foregroundBlur_3319_334"/>
</filter>
<linearGradient id="paint0_linear_3319_334" x1="1059" y1="1346" x2="945" y2="1344" gradientUnits="userSpaceOnUse">
<stop stop-color="white"/>
<stop offset="1" stop-color="white" stop-opacity="0"/>
</linearGradient>
<linearGradient id="paint1_linear_3319_334" x1="1059" y1="1575" x2="945" y2="1573" gradientUnits="userSpaceOnUse">
<stop stop-color="white"/>
<stop offset="1" stop-color="white" stop-opacity="0"/>
</linearGradient>
<linearGradient id="paint2_linear_3319_334" x1="1059" y1="1804" x2="945" y2="1802" gradientUnits="userSpaceOnUse">
<stop stop-color="white"/>
<stop offset="1" stop-color="white" stop-opacity="0"/>
</linearGradient>
<linearGradient id="paint3_linear_3319_334" x1="1971" y1="1461" x2="1857" y2="1459" gradientUnits="userSpaceOnUse">
<stop stop-color="white" stop-opacity="0"/>
<stop offset="1" stop-color="white"/>
</linearGradient>
<radialGradient id="paint4_radial_3319_334" cx="0" cy="0" r="1" gradientUnits="userSpaceOnUse" gradientTransform="translate(1428.75 1514) rotate(89.9536) scale(309 612.838)">
<stop stop-color="white" stop-opacity="0.2"/>
<stop offset="1" stop-color="white" stop-opacity="0"/>
</radialGradient>
<linearGradient id="paint5_linear_3319_334" x1="1173" y1="1401" x2="1287" y2="1401" gradientUnits="userSpaceOnUse">
<stop stop-color="white" stop-opacity="0"/>
<stop offset="0.5027" stop-color="white"/>
<stop offset="1" stop-color="white" stop-opacity="0"/>
</linearGradient>
<linearGradient id="paint6_linear_3319_334" x1="1629" y1="1629" x2="1743" y2="1629" gradientUnits="userSpaceOnUse">
<stop stop-color="white" stop-opacity="0"/>
<stop offset="0.5027" stop-color="white"/>
<stop offset="1" stop-color="white" stop-opacity="0"/>
</linearGradient>
<linearGradient id="paint7_linear_3319_334" x1="1400" y1="1627" x2="1514" y2="1627" gradientUnits="userSpaceOnUse">
<stop stop-color="white" stop-opacity="0"/>
<stop offset="0.5027" stop-color="white"/>
<stop offset="1" stop-color="white" stop-opacity="0"/>
</linearGradient>
<linearGradient id="paint8_linear_3319_334" x1="1628" y1="1403" x2="1742" y2="1403" gradientUnits="userSpaceOnUse">
<stop stop-color="white" stop-opacity="0"/>
<stop offset="0.5027" stop-color="white"/>
<stop offset="1" stop-color="white" stop-opacity="0"/>
</linearGradient>
<clipPath id="clip0_3319_334">
<rect width="1288" height="868" fill="white" transform="translate(814 1080)"/>
</clipPath>
</defs>
</svg>
