<svg width="1920" height="2912" viewBox="0 0 1920 2912" fill="none" xmlns="http://www.w3.org/2000/svg">
<g filter="url(#filter0_f_559_13199)">
<ellipse cx="1571" cy="1456" rx="659" ry="516" fill="#FF4D02" fill-opacity="0.4"/>
</g>
<g opacity="0.6" clip-path="url(#clip0_559_13199)">
<rect opacity="0.03" x="917" y="1287" width="114" height="114" fill="url(#paint0_linear_559_13199)"/>
<rect opacity="0.03" x="917" y="1516" width="114" height="114" fill="url(#paint1_linear_559_13199)"/>
<rect opacity="0.03" x="917" y="1745" width="114" height="114" fill="url(#paint2_linear_559_13199)"/>
<rect opacity="0.03" x="1829" y="1402" width="114" height="114" fill="url(#paint3_linear_559_13199)"/>
<path fill-rule="evenodd" clip-rule="evenodd" d="M1031.5 1515V1402H1144.5V1515H1031.5ZM1030.5 1515V1402H540V1401H1030.5V1288H540V1287H1030.5L1030.5 1174H540V1173H1030.5V1080H1031.5V1173H1144.5V1080H1145.5V1173H1258.5V1080H1259.5V1173H1372.5V1080H1373.5V1173H1486.5V1080H1487.5V1173H1600.5V1080H1601.5V1173H1714.5V1080H1715.5V1173H1828.5V1080H1829.5V1173H1942.5V1080H1943.5V1173H2261.5V1174H1943.5V1287H2261.5V1288H1943.5V1401H2261.5V1402H1943.5V1515H2261.5V1516H1943.5V1629H2261.5V1630H1943.5V1743H2261.5V1744H1943.5V1857H2261.5V1858H1943.5V1948H1942.5V1858H1829.5V1948H1828.5V1858H1715.5V1948H1714.5V1858H1601.5V1948H1600.5V1858H1487.5V1948H1486.5V1858H1373.5V1948H1372.5V1858H1259.5V1948H1258.5V1858H1145.5V1948H1144.5V1858H1031.5V1948H1030.5V1858H540V1857H1030.5V1744H540V1743H1030.5V1630H540V1629H1030.5V1516H540V1515H1030.5ZM1031.5 1857H1144.5V1744H1031.5V1857ZM1145.5 1857H1258.5V1744H1145.5V1857ZM1259.5 1857H1372.5V1744H1259.5V1857ZM1373.5 1857H1486.5V1744H1373.5V1857ZM1487.5 1857H1600.5V1744H1487.5V1857ZM1601.5 1857H1714.5V1744H1601.5V1857ZM1715.5 1857H1828.5V1744H1715.5V1857ZM1829.5 1857H1942.5V1744H1829.5V1857ZM1942.5 1630V1743H1829.5V1630H1942.5ZM1828.5 1630V1743H1715.5V1630H1828.5ZM1714.5 1630V1743H1601.5V1630H1714.5ZM1600.5 1630V1743H1487.5V1630H1600.5ZM1486.5 1630V1743H1373.5V1630H1486.5ZM1372.5 1630V1743H1259.5V1630H1372.5ZM1258.5 1630V1743H1145.5V1630H1258.5ZM1144.5 1630V1743H1031.5V1630H1144.5ZM1031.5 1629H1144.5V1516H1031.5V1629ZM1145.5 1629H1258.5V1516H1145.5V1629ZM1259.5 1629H1372.5V1516H1259.5V1629ZM1373.5 1629H1486.5V1516H1373.5V1629ZM1487.5 1629H1600.5V1516H1487.5V1629ZM1601.5 1629H1714.5V1516H1601.5V1629ZM1715.5 1629H1828.5V1516H1715.5V1629ZM1829.5 1629H1942.5V1516H1829.5V1629ZM1031.5 1287L1031.5 1174H1144.5L1144.5 1287H1031.5ZM1145.5 1287L1145.5 1174H1258.5L1258.5 1287H1145.5ZM1259.5 1287L1259.5 1174H1372.5L1372.5 1287H1259.5ZM1373.5 1287L1373.5 1174H1486.5L1486.5 1287H1373.5ZM1487.5 1287L1487.5 1174H1600.5V1287H1487.5ZM1601.5 1287V1174H1714.5V1287H1601.5ZM1715.5 1287V1174H1828.5V1287H1715.5ZM1829.5 1287V1174H1942.5V1287H1829.5ZM1942.5 1288H1829.5V1401H1942.5V1288ZM1828.5 1288H1715.5V1401H1828.5V1288ZM1714.5 1288H1601.5V1401H1714.5V1288ZM1600.5 1288H1487.5V1401H1600.5V1288ZM1486.5 1288H1373.5V1401H1486.5V1288ZM1372.5 1288H1259.5V1401H1372.5V1288ZM1258.5 1288H1145.5V1401H1258.5V1288ZM1144.5 1288H1031.5V1401H1144.5V1288ZM1145.5 1515V1402H1258.5V1515H1145.5ZM1259.5 1515V1402H1372.5V1515H1259.5ZM1373.5 1515V1402H1486.5V1515H1373.5ZM1487.5 1515V1402H1600.5V1515H1487.5ZM1601.5 1515V1402H1714.5V1515H1601.5ZM1715.5 1515V1402H1828.5V1515H1715.5ZM1829.5 1515V1402H1942.5V1515H1829.5Z" fill="url(#paint4_radial_559_13199)"/>
<rect opacity="0.5" x="1145" y="1400" width="114" height="2" fill="url(#paint5_linear_559_13199)"/>
<rect opacity="0.5" x="1601" y="1628" width="114" height="2" fill="url(#paint6_linear_559_13199)"/>
<rect x="1372" y="1626" width="114" height="2" transform="rotate(-90 1372 1626)" fill="url(#paint7_linear_559_13199)"/>
<rect opacity="0.3" x="1600" y="1402" width="114" height="2" transform="rotate(-90 1600 1402)" fill="url(#paint8_linear_559_13199)"/>
<rect opacity="0.2" x="1259" y="1515" width="114" height="114" fill="white"/>
</g>
<defs>
<filter id="filter0_f_559_13199" x="-28" y="0" width="3198" height="2912" filterUnits="userSpaceOnUse" color-interpolation-filters="sRGB">
<feFlood flood-opacity="0" result="BackgroundImageFix"/>
<feBlend mode="normal" in="SourceGraphic" in2="BackgroundImageFix" result="shape"/>
<feGaussianBlur stdDeviation="470" result="effect1_foregroundBlur_559_13199"/>
</filter>
<linearGradient id="paint0_linear_559_13199" x1="1031" y1="1346" x2="917" y2="1344" gradientUnits="userSpaceOnUse">
<stop stop-color="white"/>
<stop offset="1" stop-color="white" stop-opacity="0"/>
</linearGradient>
<linearGradient id="paint1_linear_559_13199" x1="1031" y1="1575" x2="917" y2="1573" gradientUnits="userSpaceOnUse">
<stop stop-color="white"/>
<stop offset="1" stop-color="white" stop-opacity="0"/>
</linearGradient>
<linearGradient id="paint2_linear_559_13199" x1="1031" y1="1804" x2="917" y2="1802" gradientUnits="userSpaceOnUse">
<stop stop-color="white"/>
<stop offset="1" stop-color="white" stop-opacity="0"/>
</linearGradient>
<linearGradient id="paint3_linear_559_13199" x1="1943" y1="1461" x2="1829" y2="1459" gradientUnits="userSpaceOnUse">
<stop stop-color="white" stop-opacity="0"/>
<stop offset="1" stop-color="white"/>
</linearGradient>
<radialGradient id="paint4_radial_559_13199" cx="0" cy="0" r="1" gradientUnits="userSpaceOnUse" gradientTransform="translate(1400.75 1514) rotate(89.9536) scale(309 612.838)">
<stop stop-color="white" stop-opacity="0.2"/>
<stop offset="1" stop-color="white" stop-opacity="0"/>
</radialGradient>
<linearGradient id="paint5_linear_559_13199" x1="1145" y1="1401" x2="1259" y2="1401" gradientUnits="userSpaceOnUse">
<stop stop-color="white" stop-opacity="0"/>
<stop offset="0.5027" stop-color="white"/>
<stop offset="1" stop-color="white" stop-opacity="0"/>
</linearGradient>
<linearGradient id="paint6_linear_559_13199" x1="1601" y1="1629" x2="1715" y2="1629" gradientUnits="userSpaceOnUse">
<stop stop-color="white" stop-opacity="0"/>
<stop offset="0.5027" stop-color="white"/>
<stop offset="1" stop-color="white" stop-opacity="0"/>
</linearGradient>
<linearGradient id="paint7_linear_559_13199" x1="1372" y1="1627" x2="1486" y2="1627" gradientUnits="userSpaceOnUse">
<stop stop-color="white" stop-opacity="0"/>
<stop offset="0.5027" stop-color="white"/>
<stop offset="1" stop-color="white" stop-opacity="0"/>
</linearGradient>
<linearGradient id="paint8_linear_559_13199" x1="1600" y1="1403" x2="1714" y2="1403" gradientUnits="userSpaceOnUse">
<stop stop-color="white" stop-opacity="0"/>
<stop offset="0.5027" stop-color="white"/>
<stop offset="1" stop-color="white" stop-opacity="0"/>
</linearGradient>
<clipPath id="clip0_559_13199">
<rect width="1288" height="868" fill="white" transform="translate(786 1080)"/>
</clipPath>
</defs>
</svg>
