<svg width="366" height="54" viewBox="0 0 366 54" fill="none" xmlns="http://www.w3.org/2000/svg">
<path d="M3.048 4.878V13.726H7.5V15H1.676V4.878H3.048ZM10.7685 15.168C9.29845 15.168 8.43045 14.342 8.43045 13.096C8.43045 11.836 9.36845 11.052 10.9785 10.926L13.1345 10.758V10.562C13.1345 9.414 12.4485 9.008 11.5245 9.008C10.4185 9.008 9.78845 9.498 9.78845 10.324H8.64045C8.64045 8.896 9.81645 7.958 11.5805 7.958C13.2745 7.958 14.4225 8.854 14.4225 10.702V15H13.3025L13.1625 13.894C12.8125 14.678 11.8745 15.168 10.7685 15.168ZM11.1465 14.146C12.3925 14.146 13.1485 13.334 13.1485 12.046V11.682L11.3985 11.822C10.2365 11.934 9.76045 12.382 9.76045 13.054C9.76045 13.782 10.2925 14.146 11.1465 14.146ZM17.561 15H16.245V8.154H17.435L17.575 9.204C18.009 8.42 18.877 7.958 19.843 7.958C21.649 7.958 22.475 9.064 22.475 10.814V15H21.159V11.108C21.159 9.722 20.515 9.162 19.507 9.162C18.275 9.162 17.561 10.044 17.561 11.374V15ZM23.8637 11.402C23.8637 9.47 25.1097 7.958 27.0977 7.958C28.2037 7.958 29.0577 8.462 29.4917 9.316L29.5897 8.154H30.7657V14.72C30.7657 16.876 29.4357 18.248 27.3357 18.248C25.4737 18.248 24.1997 17.198 23.9477 15.462H25.2637C25.4317 16.47 26.1877 17.058 27.3357 17.058C28.6237 17.058 29.4637 16.218 29.4637 14.916V13.544C29.0157 14.342 28.1197 14.818 27.0417 14.818C25.0957 14.818 23.8637 13.32 23.8637 11.402ZM25.1797 11.374C25.1797 12.662 25.9777 13.67 27.2657 13.67C28.5957 13.67 29.4077 12.718 29.4077 11.374C29.4077 10.058 28.6237 9.106 27.2797 9.106C25.9637 9.106 25.1797 10.114 25.1797 11.374ZM37.3969 8.154H38.6989V15H37.5229L37.3829 13.964C36.9909 14.678 36.0809 15.168 35.0729 15.168C33.4769 15.168 32.5809 14.09 32.5809 12.41V8.154H33.8969V11.976C33.8969 13.446 34.5269 14.006 35.5349 14.006C36.7389 14.006 37.3969 13.236 37.3969 11.766V8.154ZM42.6103 15.168C41.1403 15.168 40.2723 14.342 40.2723 13.096C40.2723 11.836 41.2103 11.052 42.8203 10.926L44.9763 10.758V10.562C44.9763 9.414 44.2903 9.008 43.3663 9.008C42.2603 9.008 41.6303 9.498 41.6303 10.324H40.4823C40.4823 8.896 41.6583 7.958 43.4223 7.958C45.1163 7.958 46.2643 8.854 46.2643 10.702V15H45.1443L45.0043 13.894C44.6543 14.678 43.7163 15.168 42.6103 15.168ZM42.9883 14.146C44.2343 14.146 44.9903 13.334 44.9903 12.046V11.682L43.2403 11.822C42.0783 11.934 41.6023 12.382 41.6023 13.054C41.6023 13.782 42.1343 14.146 42.9883 14.146ZM47.6528 11.402C47.6528 9.47 48.8988 7.958 50.8868 7.958C51.9928 7.958 52.8468 8.462 53.2808 9.316L53.3788 8.154H54.5548V14.72C54.5548 16.876 53.2248 18.248 51.1248 18.248C49.2628 18.248 47.9888 17.198 47.7368 15.462H49.0528C49.2208 16.47 49.9768 17.058 51.1248 17.058C52.4128 17.058 53.2528 16.218 53.2528 14.916V13.544C52.8048 14.342 51.9088 14.818 50.8308 14.818C48.8848 14.818 47.6528 13.32 47.6528 11.402ZM48.9688 11.374C48.9688 12.662 49.7668 13.67 51.0548 13.67C52.3848 13.67 53.1968 12.718 53.1968 11.374C53.1968 10.058 52.4128 9.106 51.0688 9.106C49.7528 9.106 48.9688 10.114 48.9688 11.374ZM59.408 15.168C57.392 15.168 56.006 13.712 56.006 11.584C56.006 9.442 57.364 7.958 59.352 7.958C61.298 7.958 62.572 9.302 62.572 11.332V11.822L57.28 11.836C57.378 13.278 58.134 14.076 59.436 14.076C60.458 14.076 61.13 13.656 61.354 12.872H62.586C62.25 14.342 61.102 15.168 59.408 15.168ZM59.352 9.064C58.204 9.064 57.476 9.75 57.308 10.954H61.256C61.256 9.82 60.514 9.064 59.352 9.064ZM72.028 11.388H69.466V15H68.094V4.878H72.028C74.016 4.878 75.29 6.18 75.29 8.126C75.29 10.016 74.002 11.388 72.028 11.388ZM71.79 6.11H69.466V10.156H71.734C73.092 10.156 73.848 9.358 73.848 8.112C73.848 6.838 73.078 6.11 71.79 6.11ZM80.54 8.098V9.302H79.952C78.706 9.302 77.936 10.058 77.936 11.374V15H76.62V8.168H77.852L77.936 9.204C78.216 8.49 78.902 8.014 79.84 8.014C80.078 8.014 80.274 8.042 80.54 8.098ZM81.0802 11.57C81.0802 9.456 82.5922 7.972 84.6502 7.972C86.6942 7.972 88.2062 9.456 88.2062 11.57C88.2062 13.684 86.6942 15.168 84.6502 15.168C82.5922 15.168 81.0802 13.684 81.0802 11.57ZM82.4102 11.57C82.4102 12.998 83.3202 13.992 84.6502 13.992C85.9662 13.992 86.8902 12.998 86.8902 11.57C86.8902 10.142 85.9662 9.148 84.6502 9.148C83.3202 9.148 82.4102 10.142 82.4102 11.57ZM94.2559 15V9.26H91.2179V15H89.9019V9.26H88.8939V8.154H89.9019V7.062C89.9019 5.382 90.8119 4.696 92.0019 4.696C92.2539 4.696 92.5619 4.71 92.8139 4.752V5.886H92.2259C91.4279 5.886 91.2179 6.32 91.2179 7.062V8.154H95.5719V15H94.2559ZM94.9139 6.474C94.4379 6.474 94.0739 6.11 94.0739 5.634C94.0739 5.158 94.4379 4.794 94.9139 4.794C95.3759 4.794 95.7399 5.158 95.7399 5.634C95.7399 6.11 95.3759 6.474 94.9139 6.474ZM96.9942 11.584C96.9942 9.442 98.3522 7.958 100.354 7.958C102.076 7.958 103.28 8.938 103.518 10.464H102.202C101.978 9.596 101.278 9.134 100.396 9.134C99.1502 9.134 98.2962 10.086 98.2962 11.57C98.2962 13.04 99.0942 13.992 100.34 13.992C101.278 13.992 101.978 13.502 102.216 12.69H103.532C103.266 14.174 101.992 15.168 100.34 15.168C98.3242 15.168 96.9942 13.74 96.9942 11.584ZM105.565 6.53C105.089 6.53 104.697 6.138 104.697 5.662C104.697 5.172 105.089 4.794 105.565 4.794C106.041 4.794 106.433 5.172 106.433 5.662C106.433 6.138 106.041 6.53 105.565 6.53ZM104.921 15V8.154H106.237V15H104.921ZM111.101 15.168C109.085 15.168 107.699 13.712 107.699 11.584C107.699 9.442 109.057 7.958 111.045 7.958C112.991 7.958 114.265 9.302 114.265 11.332V11.822L108.973 11.836C109.071 13.278 109.827 14.076 111.129 14.076C112.151 14.076 112.823 13.656 113.047 12.872H114.279C113.943 14.342 112.795 15.168 111.101 15.168ZM111.045 9.064C109.897 9.064 109.169 9.75 109.001 10.954H112.949C112.949 9.82 112.207 9.064 111.045 9.064ZM117.051 15H115.735V8.154H116.925L117.065 9.204C117.499 8.42 118.367 7.958 119.333 7.958C121.139 7.958 121.965 9.064 121.965 10.814V15H120.649V11.108C120.649 9.722 120.005 9.162 118.997 9.162C117.765 9.162 117.051 10.044 117.051 11.374V15ZM123.34 11.584C123.34 9.442 124.698 7.958 126.7 7.958C128.422 7.958 129.626 8.938 129.864 10.464H128.548C128.324 9.596 127.624 9.134 126.742 9.134C125.496 9.134 124.642 10.086 124.642 11.57C124.642 13.04 125.44 13.992 126.686 13.992C127.624 13.992 128.324 13.502 128.562 12.69H129.878C129.612 14.174 128.338 15.168 126.686 15.168C124.67 15.168 123.34 13.74 123.34 11.584ZM130.472 18.066V16.988H131.354C131.984 16.988 132.488 16.89 132.81 16.022L133.048 15.364L130.29 8.154H131.676L133.664 13.67L135.694 8.154H137.052L133.818 16.54C133.356 17.716 132.67 18.206 131.62 18.206C131.186 18.206 130.822 18.15 130.472 18.066Z" fill="white"/>
<path d="M1.088 46.668C1.088 43.98 2.48 42.156 4.664 42.156C6.836 42.156 8.228 43.98 8.228 46.668C8.228 49.368 6.896 51.156 4.664 51.156C2.42 51.156 1.088 49.368 1.088 46.668ZM2.252 46.668C2.252 48.804 3.14 50.1 4.664 50.1C6.188 50.1 7.064 48.804 7.064 46.668C7.064 44.508 6.188 43.212 4.664 43.212C3.14 43.212 2.252 44.508 2.252 46.668Z" fill="white"/>
<path d="M354.744 43.38H352.92V42.324H355.872V51H354.744V43.38ZM357.459 46.668C357.459 43.98 358.851 42.156 361.035 42.156C363.207 42.156 364.599 43.98 364.599 46.668C364.599 49.368 363.267 51.156 361.035 51.156C358.791 51.156 357.459 49.368 357.459 46.668ZM358.623 46.668C358.623 48.804 359.511 50.1 361.035 50.1C362.559 50.1 363.435 48.804 363.435 46.668C363.435 44.508 362.559 43.212 361.035 43.212C359.511 43.212 358.623 44.508 358.623 46.668Z" fill="white"/>
<rect x="0.5" y="28" width="365" height="6" rx="3" fill="#D9D9D9"/>
<rect x="0.5" y="28" width="344" height="6" rx="3" fill="#00C9D3"/>
<rect x="326.5" width="32" height="20" rx="3" fill="#00C9D3"/>
<path d="M341.244 23.1271C341.643 23.5876 342.357 23.5876 342.756 23.1271L345.897 19.5H338.103L341.244 23.1271Z" fill="#00C9D3"/>
<path d="M338.909 11.99L336.697 15H334.653L337.103 11.738C336.851 11.808 336.585 11.85 336.333 11.85C334.219 11.85 332.791 10.366 332.791 8.294C332.791 6.11 334.415 4.584 336.599 4.584C338.811 4.584 340.463 6.208 340.463 8.308C340.463 9.54 340.057 10.436 338.909 11.99ZM338.629 8.294C338.629 7.048 337.803 6.18 336.599 6.18C335.423 6.18 334.597 7.048 334.597 8.294C334.597 9.526 335.423 10.38 336.599 10.38C337.817 10.38 338.629 9.526 338.629 8.294ZM342.493 15.168C341.877 15.168 341.359 14.664 341.359 14.062C341.359 13.446 341.877 12.942 342.493 12.942C343.109 12.942 343.627 13.446 343.627 14.062C343.627 14.664 343.109 15.168 342.493 15.168ZM348.448 15.168C346.306 15.168 344.892 13.796 344.892 11.724H346.67C346.67 12.886 347.356 13.572 348.49 13.572C349.694 13.572 350.464 12.788 350.464 11.542C350.464 10.352 349.75 9.54 348.518 9.54C347.734 9.54 347.02 9.932 346.656 10.464L345.074 10.128L346.334 4.766H351.668V6.418H347.622L347.076 8.546C347.566 8.224 348.182 8.042 348.882 8.042C350.926 8.042 352.284 9.428 352.284 11.444C352.284 13.656 350.73 15.168 348.448 15.168Z" fill="white"/>
</svg>
