<svg width="1920" height="729" viewBox="0 0 1920 729" fill="none" xmlns="http://www.w3.org/2000/svg">
<g clip-path="url(#clip0_87_2941)">
<rect width="1920" height="728" transform="translate(0 0.5)" fill="white"/>
<g filter="url(#filter0_f_87_2941)">
<circle cx="337" cy="635.5" r="437" fill="#FFBD96"/>
</g>
<g filter="url(#filter1_f_87_2941)">
<circle cx="1723" cy="237.5" r="437" fill="#FFA58C"/>
</g>
<g filter="url(#filter2_f_87_2941)">
<circle cx="147" cy="-22.5" r="437" fill="#FFB49D"/>
</g>
<g filter="url(#filter3_f_87_2941)">
<circle cx="960" cy="306.5" r="437" fill="#FFC7AF"/>
</g>
<g opacity="0.4" clip-path="url(#clip1_87_2941)">
<path d="M2078.23 700.691C2078.46 700.691 2078.91 700.691 2078.91 700.467C2078.91 700.242 2078.91 700.017 2078.68 700.017L983.44 325.423C983.215 325.423 982.99 325.423 982.99 325.648C982.99 325.873 982.99 326.097 983.215 326.097L2078.23 700.691Z" fill="url(#paint0_linear_87_2941)"/>
<path d="M2078.46 653.951C2078.68 653.951 2078.91 653.951 2078.91 653.726C2078.91 653.502 2078.91 653.277 2078.68 653.277L983.44 325.423C983.215 325.423 982.99 325.423 982.99 325.648C982.99 325.872 982.99 326.097 983.215 326.097L2078.46 653.951Z" fill="url(#paint1_linear_87_2941)"/>
<path d="M2078.46 606.986C2078.68 606.986 2078.91 606.986 2078.91 606.762C2078.91 606.537 2078.91 606.312 2078.68 606.312L983.44 325.198C983.215 325.198 982.99 325.198 982.99 325.423C982.99 325.648 982.99 325.872 983.215 325.872L2078.46 606.986Z" fill="url(#paint2_linear_87_2941)"/>
<path d="M2078.46 560.246C2078.68 560.246 2078.91 560.246 2078.91 560.021C2078.91 559.797 2078.91 559.572 2078.68 559.572L983.44 325.423C983.215 325.423 982.99 325.423 982.99 325.647C982.99 325.872 982.99 326.097 983.215 326.097C982.99 326.097 2078.46 560.246 2078.46 560.246Z" fill="url(#paint3_linear_87_2941)"/>
<path d="M2078.46 513.281C2078.68 513.281 2078.91 513.057 2078.91 512.832C2078.91 512.607 2078.68 512.382 2078.46 512.382L983.215 324.973C982.99 324.973 982.766 325.198 982.766 325.422C982.766 325.647 982.99 325.872 983.215 325.872L2078.46 513.281Z" fill="url(#paint4_linear_87_2941)"/>
<path d="M2078.46 466.541C2078.68 466.541 2078.91 466.316 2078.91 466.092C2078.91 465.867 2078.68 465.642 2078.46 465.642L983.215 325.198C982.99 325.198 982.766 325.422 982.766 325.647C982.766 325.872 982.99 326.096 983.215 326.096L2078.46 466.541Z" fill="url(#paint5_linear_87_2941)"/>
<path d="M2078.46 419.578C2078.68 419.578 2078.91 419.353 2078.91 419.129C2078.91 418.904 2078.68 418.679 2078.46 418.679L983.215 324.975C982.99 324.975 982.766 325.199 982.766 325.424C982.766 325.649 982.99 325.873 983.215 325.873L2078.46 419.578Z" fill="url(#paint6_linear_87_2941)"/>
<path d="M2078.46 372.836C2078.68 372.836 2078.91 372.611 2078.91 372.386C2078.91 372.162 2078.68 371.937 2078.46 371.937L983.215 325.197C982.99 325.197 982.766 325.422 982.766 325.647C982.766 325.871 982.99 326.096 983.215 326.096L2078.46 372.836Z" fill="url(#paint7_linear_87_2941)"/>
<path d="M2078.46 326.098C2078.68 326.098 2078.91 325.873 2078.91 325.648C2078.91 325.424 2078.68 325.199 2078.46 325.199L983.215 325.199C982.99 325.199 982.766 325.424 982.766 325.648C982.766 325.873 982.99 326.098 983.215 326.098L2078.46 326.098Z" fill="url(#paint8_linear_87_2941)"/>
<path d="M2078.68 -48.7222C2078.91 -48.7222 2079.13 -48.9469 2078.91 -49.1716C2078.91 -49.3963 2078.68 -49.621 2078.46 -49.3963L982.99 325.198C982.765 325.198 982.541 325.422 982.766 325.647C982.766 325.872 982.99 326.096 983.215 325.872L2078.68 -48.7222Z" fill="url(#paint9_linear_87_2941)"/>
<path d="M2078.68 -1.75754C2078.91 -1.75754 2079.13 -1.98221 2078.91 -2.20692C2078.91 -2.43163 2078.68 -2.65636 2078.46 -2.43165L982.99 325.198C982.765 325.198 982.541 325.422 982.766 325.647C982.766 325.872 982.99 326.096 983.215 325.872L2078.68 -1.75754Z" fill="url(#paint10_linear_87_2941)"/>
<path d="M2078.68 44.9825C2078.91 44.9825 2079.13 44.7578 2078.91 44.5331C2078.91 44.3084 2078.68 44.0836 2078.46 44.3084L982.99 325.198C982.765 325.198 982.541 325.422 982.766 325.647C982.766 325.872 982.99 326.096 983.215 325.872L2078.68 44.9825Z" fill="url(#paint11_linear_87_2941)"/>
<path d="M2078.46 91.9472C2078.68 91.9472 2078.91 91.7225 2078.68 91.4978C2078.46 91.273 2078.46 91.0483 2078.23 91.273L982.99 325.198C982.765 325.198 982.541 325.422 982.766 325.647C982.766 325.872 982.99 326.096 983.215 325.872C983.215 326.096 2078.46 91.9472 2078.46 91.9472Z" fill="url(#paint12_linear_87_2941)"/>
<path d="M2078.46 138.688C2078.68 138.688 2078.91 138.464 2078.91 138.239C2078.91 138.014 2078.68 137.789 2078.46 137.789L983.215 325.199C982.99 325.199 982.766 325.424 982.766 325.648C982.766 325.873 982.99 326.098 983.215 326.098L2078.46 138.688Z" fill="url(#paint13_linear_87_2941)"/>
<path d="M2078.46 185.428C2078.68 185.428 2078.91 185.204 2078.91 184.979C2078.91 184.754 2078.68 184.53 2078.46 184.53L983.215 324.974C982.99 324.974 982.766 325.199 982.766 325.424C982.766 325.648 982.99 325.873 983.215 325.873L2078.46 185.428Z" fill="url(#paint14_linear_87_2941)"/>
<path d="M2078.46 232.393C2078.68 232.393 2078.91 232.168 2078.91 231.944C2078.91 231.719 2078.68 231.494 2078.46 231.494L983.215 325.199C982.99 325.199 982.766 325.424 982.766 325.648C982.766 325.873 982.99 326.098 983.215 326.098L2078.46 232.393Z" fill="url(#paint15_linear_87_2941)"/>
<path d="M2078.46 279.133C2078.68 279.133 2078.91 278.908 2078.91 278.684C2078.91 278.459 2078.68 278.234 2078.46 278.234L983.215 324.974C982.99 324.974 982.766 325.199 982.766 325.424C982.766 325.648 982.99 325.873 983.215 325.873L2078.46 279.133Z" fill="url(#paint16_linear_87_2941)"/>
</g>
<g opacity="0.7" clip-path="url(#clip2_87_2941)">
<path d="M-172.234 700.691C-172.458 700.691 -172.908 700.691 -172.908 700.467C-172.908 700.242 -172.908 700.017 -172.683 700.017L922.56 325.423C922.785 325.423 923.01 325.423 923.01 325.648C923.01 325.873 923.01 326.097 922.785 326.097L-172.234 700.691Z" fill="url(#paint17_linear_87_2941)"/>
<path d="M-172.458 653.951C-172.683 653.951 -172.908 653.951 -172.908 653.726C-172.908 653.502 -172.908 653.277 -172.683 653.277L922.56 325.423C922.785 325.423 923.01 325.423 923.01 325.648C923.01 325.872 923.01 326.097 922.785 326.097L-172.458 653.951Z" fill="url(#paint18_linear_87_2941)"/>
<path d="M-172.458 606.986C-172.683 606.986 -172.908 606.986 -172.908 606.762C-172.908 606.537 -172.908 606.312 -172.683 606.312L922.56 325.198C922.785 325.198 923.01 325.198 923.01 325.423C923.01 325.648 923.01 325.872 922.785 325.872L-172.458 606.986Z" fill="url(#paint19_linear_87_2941)"/>
<path d="M-172.458 560.246C-172.683 560.246 -172.908 560.246 -172.908 560.021C-172.908 559.797 -172.908 559.572 -172.683 559.572L922.561 325.423C922.785 325.423 923.01 325.423 923.01 325.647C923.01 325.872 923.01 326.097 922.785 326.097C923.01 326.097 -172.458 560.246 -172.458 560.246Z" fill="url(#paint20_linear_87_2941)"/>
<path d="M-172.458 513.281C-172.683 513.281 -172.908 513.057 -172.908 512.832C-172.908 512.607 -172.683 512.382 -172.458 512.382L922.785 324.973C923.01 324.973 923.235 325.198 923.235 325.422C923.235 325.647 923.01 325.872 922.785 325.872L-172.458 513.281Z" fill="url(#paint21_linear_87_2941)"/>
<path d="M-172.458 466.541C-172.683 466.541 -172.908 466.316 -172.908 466.092C-172.908 465.867 -172.683 465.642 -172.458 465.642L922.785 325.198C923.01 325.198 923.235 325.422 923.235 325.647C923.235 325.872 923.01 326.096 922.785 326.096L-172.458 466.541Z" fill="url(#paint22_linear_87_2941)"/>
<path d="M-172.458 419.578C-172.683 419.578 -172.908 419.353 -172.908 419.129C-172.908 418.904 -172.683 418.679 -172.458 418.679L922.785 324.975C923.01 324.975 923.235 325.199 923.235 325.424C923.235 325.649 923.01 325.873 922.785 325.873L-172.458 419.578Z" fill="url(#paint23_linear_87_2941)"/>
<path d="M-172.458 372.836C-172.683 372.836 -172.908 372.611 -172.908 372.386C-172.908 372.162 -172.683 371.937 -172.458 371.937L922.785 325.197C923.01 325.197 923.235 325.422 923.235 325.647C923.235 325.871 923.01 326.096 922.785 326.096L-172.458 372.836Z" fill="url(#paint24_linear_87_2941)"/>
<path d="M-172.458 326.098C-172.683 326.098 -172.908 325.873 -172.908 325.648C-172.908 325.424 -172.683 325.199 -172.458 325.199L922.785 325.199C923.01 325.199 923.235 325.424 923.235 325.648C923.235 325.873 923.01 326.098 922.785 326.098L-172.458 326.098Z" fill="url(#paint25_linear_87_2941)"/>
<path d="M-172.683 -48.7222C-172.908 -48.7222 -173.132 -48.9469 -172.908 -49.1716C-172.908 -49.3963 -172.683 -49.621 -172.458 -49.3963L923.01 325.198C923.235 325.198 923.459 325.422 923.234 325.647C923.234 325.872 923.01 326.096 922.785 325.872L-172.683 -48.7222Z" fill="url(#paint26_linear_87_2941)"/>
<path d="M-172.683 -1.75754C-172.908 -1.75754 -173.132 -1.98221 -172.908 -2.20692C-172.908 -2.43163 -172.683 -2.65636 -172.458 -2.43165L923.01 325.198C923.235 325.198 923.459 325.422 923.234 325.647C923.234 325.872 923.01 326.096 922.785 325.872L-172.683 -1.75754Z" fill="url(#paint27_linear_87_2941)"/>
<path d="M-172.683 44.9825C-172.908 44.9825 -173.132 44.7578 -172.908 44.5331C-172.908 44.3084 -172.683 44.0836 -172.458 44.3084L923.01 325.198C923.235 325.198 923.459 325.422 923.234 325.647C923.234 325.872 923.01 326.096 922.785 325.872L-172.683 44.9825Z" fill="url(#paint28_linear_87_2941)"/>
<path d="M-172.458 91.9472C-172.683 91.9472 -172.908 91.7225 -172.683 91.4978C-172.458 91.273 -172.458 91.0483 -172.234 91.273L923.01 325.198C923.235 325.198 923.459 325.422 923.234 325.647C923.234 325.872 923.01 326.096 922.785 325.872C922.785 326.096 -172.458 91.9472 -172.458 91.9472Z" fill="url(#paint29_linear_87_2941)"/>
<path d="M-172.458 138.688C-172.683 138.688 -172.908 138.464 -172.908 138.239C-172.908 138.014 -172.683 137.789 -172.458 137.789L922.785 325.199C923.01 325.199 923.235 325.424 923.235 325.648C923.235 325.873 923.01 326.098 922.785 326.098L-172.458 138.688Z" fill="url(#paint30_linear_87_2941)"/>
<path d="M-172.458 185.428C-172.683 185.428 -172.908 185.204 -172.908 184.979C-172.908 184.754 -172.683 184.53 -172.458 184.53L922.785 324.974C923.01 324.974 923.235 325.199 923.235 325.424C923.235 325.648 923.01 325.873 922.785 325.873L-172.458 185.428Z" fill="url(#paint31_linear_87_2941)"/>
<path d="M-172.458 232.393C-172.683 232.393 -172.908 232.168 -172.908 231.944C-172.908 231.719 -172.683 231.494 -172.458 231.494L922.785 325.199C923.01 325.199 923.235 325.424 923.235 325.648C923.235 325.873 923.01 326.098 922.785 326.098L-172.458 232.393Z" fill="url(#paint32_linear_87_2941)"/>
<path d="M-172.458 279.133C-172.683 279.133 -172.908 278.908 -172.908 278.684C-172.908 278.459 -172.683 278.234 -172.458 278.234L922.785 324.974C923.01 324.974 923.235 325.199 923.235 325.424C923.235 325.648 923.01 325.873 922.785 325.873L-172.458 279.133Z" fill="url(#paint33_linear_87_2941)"/>
</g>
</g>
<defs>
<filter id="filter0_f_87_2941" x="-614" y="-315.5" width="1902" height="1902" filterUnits="userSpaceOnUse" color-interpolation-filters="sRGB">
<feFlood flood-opacity="0" result="BackgroundImageFix"/>
<feBlend mode="normal" in="SourceGraphic" in2="BackgroundImageFix" result="shape"/>
<feGaussianBlur stdDeviation="257" result="effect1_foregroundBlur_87_2941"/>
</filter>
<filter id="filter1_f_87_2941" x="772" y="-713.5" width="1902" height="1902" filterUnits="userSpaceOnUse" color-interpolation-filters="sRGB">
<feFlood flood-opacity="0" result="BackgroundImageFix"/>
<feBlend mode="normal" in="SourceGraphic" in2="BackgroundImageFix" result="shape"/>
<feGaussianBlur stdDeviation="257" result="effect1_foregroundBlur_87_2941"/>
</filter>
<filter id="filter2_f_87_2941" x="-804" y="-973.5" width="1902" height="1902" filterUnits="userSpaceOnUse" color-interpolation-filters="sRGB">
<feFlood flood-opacity="0" result="BackgroundImageFix"/>
<feBlend mode="normal" in="SourceGraphic" in2="BackgroundImageFix" result="shape"/>
<feGaussianBlur stdDeviation="257" result="effect1_foregroundBlur_87_2941"/>
</filter>
<filter id="filter3_f_87_2941" x="9" y="-644.5" width="1902" height="1902" filterUnits="userSpaceOnUse" color-interpolation-filters="sRGB">
<feFlood flood-opacity="0" result="BackgroundImageFix"/>
<feBlend mode="normal" in="SourceGraphic" in2="BackgroundImageFix" result="shape"/>
<feGaussianBlur stdDeviation="257" result="effect1_foregroundBlur_87_2941"/>
</filter>
<linearGradient id="paint0_linear_87_2941" x1="2078.91" y1="513.057" x2="982.99" y2="513.057" gradientUnits="userSpaceOnUse">
<stop stop-color="#FEFEFE" stop-opacity="0.2"/>
<stop offset="1" stop-color="white"/>
</linearGradient>
<linearGradient id="paint1_linear_87_2941" x1="2078.91" y1="489.687" x2="982.99" y2="489.687" gradientUnits="userSpaceOnUse">
<stop stop-color="#FEFEFE" stop-opacity="0.2"/>
<stop offset="1" stop-color="white"/>
</linearGradient>
<linearGradient id="paint2_linear_87_2941" x1="2078.91" y1="466.092" x2="982.99" y2="466.092" gradientUnits="userSpaceOnUse">
<stop stop-color="#FEFEFE" stop-opacity="0.2"/>
<stop offset="1" stop-color="white"/>
</linearGradient>
<linearGradient id="paint3_linear_87_2941" x1="2078.91" y1="442.834" x2="982.99" y2="442.834" gradientUnits="userSpaceOnUse">
<stop stop-color="#FEFEFE" stop-opacity="0.2"/>
<stop offset="1" stop-color="white"/>
</linearGradient>
<linearGradient id="paint4_linear_87_2941" x1="2078.91" y1="419.127" x2="982.766" y2="419.127" gradientUnits="userSpaceOnUse">
<stop stop-color="#FEFEFE" stop-opacity="0.2"/>
<stop offset="1" stop-color="white"/>
</linearGradient>
<linearGradient id="paint5_linear_87_2941" x1="2078.91" y1="395.869" x2="982.766" y2="395.869" gradientUnits="userSpaceOnUse">
<stop stop-color="#FEFEFE" stop-opacity="0.2"/>
<stop offset="1" stop-color="white"/>
</linearGradient>
<linearGradient id="paint6_linear_87_2941" x1="2078.91" y1="372.276" x2="982.766" y2="372.276" gradientUnits="userSpaceOnUse">
<stop stop-color="#FEFEFE" stop-opacity="0.2"/>
<stop offset="1" stop-color="white"/>
</linearGradient>
<linearGradient id="paint7_linear_87_2941" x1="2078.91" y1="349.017" x2="982.766" y2="349.017" gradientUnits="userSpaceOnUse">
<stop stop-color="#FEFEFE" stop-opacity="0.2"/>
<stop offset="1" stop-color="white"/>
</linearGradient>
<linearGradient id="paint8_linear_87_2941" x1="2078.91" y1="325.648" x2="982.766" y2="325.648" gradientUnits="userSpaceOnUse">
<stop stop-color="#FEFEFE" stop-opacity="0.2"/>
<stop offset="1" stop-color="white"/>
</linearGradient>
<linearGradient id="paint9_linear_87_2941" x1="2079" y1="138.238" x2="982.672" y2="138.238" gradientUnits="userSpaceOnUse">
<stop stop-color="#FEFEFE" stop-opacity="0.2"/>
<stop offset="1" stop-color="white"/>
</linearGradient>
<linearGradient id="paint10_linear_87_2941" x1="2079" y1="161.72" x2="982.672" y2="161.72" gradientUnits="userSpaceOnUse">
<stop stop-color="#FEFEFE" stop-opacity="0.2"/>
<stop offset="1" stop-color="white"/>
</linearGradient>
<linearGradient id="paint11_linear_87_2941" x1="2079" y1="185.09" x2="982.672" y2="185.09" gradientUnits="userSpaceOnUse">
<stop stop-color="#FEFEFE" stop-opacity="0.2"/>
<stop offset="1" stop-color="white"/>
</linearGradient>
<linearGradient id="paint12_linear_87_2941" x1="2078.78" y1="208.572" x2="982.672" y2="208.572" gradientUnits="userSpaceOnUse">
<stop stop-color="#FEFEFE" stop-opacity="0.2"/>
<stop offset="1" stop-color="white"/>
</linearGradient>
<linearGradient id="paint13_linear_87_2941" x1="2078.91" y1="231.944" x2="982.766" y2="231.944" gradientUnits="userSpaceOnUse">
<stop stop-color="#FEFEFE" stop-opacity="0.2"/>
<stop offset="1" stop-color="white"/>
</linearGradient>
<linearGradient id="paint14_linear_87_2941" x1="2078.91" y1="255.201" x2="982.766" y2="255.201" gradientUnits="userSpaceOnUse">
<stop stop-color="#FEFEFE" stop-opacity="0.2"/>
<stop offset="1" stop-color="white"/>
</linearGradient>
<linearGradient id="paint15_linear_87_2941" x1="2078.91" y1="278.796" x2="982.766" y2="278.796" gradientUnits="userSpaceOnUse">
<stop stop-color="#FEFEFE" stop-opacity="0.2"/>
<stop offset="1" stop-color="white"/>
</linearGradient>
<linearGradient id="paint16_linear_87_2941" x1="2078.91" y1="302.054" x2="982.766" y2="302.054" gradientUnits="userSpaceOnUse">
<stop stop-color="#FEFEFE" stop-opacity="0.2"/>
<stop offset="1" stop-color="white"/>
</linearGradient>
<linearGradient id="paint17_linear_87_2941" x1="-172.908" y1="513.057" x2="923.01" y2="513.057" gradientUnits="userSpaceOnUse">
<stop stop-color="#FEFEFE" stop-opacity="0.2"/>
<stop offset="1" stop-color="white"/>
</linearGradient>
<linearGradient id="paint18_linear_87_2941" x1="-172.908" y1="489.687" x2="923.01" y2="489.687" gradientUnits="userSpaceOnUse">
<stop stop-color="#FEFEFE" stop-opacity="0.2"/>
<stop offset="1" stop-color="white"/>
</linearGradient>
<linearGradient id="paint19_linear_87_2941" x1="-172.908" y1="466.092" x2="923.01" y2="466.092" gradientUnits="userSpaceOnUse">
<stop stop-color="#FEFEFE" stop-opacity="0.2"/>
<stop offset="1" stop-color="white"/>
</linearGradient>
<linearGradient id="paint20_linear_87_2941" x1="-172.908" y1="442.834" x2="923.01" y2="442.834" gradientUnits="userSpaceOnUse">
<stop stop-color="#FEFEFE" stop-opacity="0.2"/>
<stop offset="1" stop-color="white"/>
</linearGradient>
<linearGradient id="paint21_linear_87_2941" x1="-172.908" y1="419.127" x2="923.235" y2="419.127" gradientUnits="userSpaceOnUse">
<stop stop-color="#FEFEFE" stop-opacity="0.2"/>
<stop offset="1" stop-color="white"/>
</linearGradient>
<linearGradient id="paint22_linear_87_2941" x1="-172.908" y1="395.869" x2="923.235" y2="395.869" gradientUnits="userSpaceOnUse">
<stop stop-color="#FEFEFE" stop-opacity="0.2"/>
<stop offset="1" stop-color="white"/>
</linearGradient>
<linearGradient id="paint23_linear_87_2941" x1="-172.908" y1="372.276" x2="923.235" y2="372.276" gradientUnits="userSpaceOnUse">
<stop stop-color="#FEFEFE" stop-opacity="0.2"/>
<stop offset="1" stop-color="white"/>
</linearGradient>
<linearGradient id="paint24_linear_87_2941" x1="-172.908" y1="349.017" x2="923.235" y2="349.017" gradientUnits="userSpaceOnUse">
<stop stop-color="#FEFEFE" stop-opacity="0.2"/>
<stop offset="1" stop-color="white"/>
</linearGradient>
<linearGradient id="paint25_linear_87_2941" x1="-172.908" y1="325.648" x2="923.235" y2="325.648" gradientUnits="userSpaceOnUse">
<stop stop-color="#FEFEFE" stop-opacity="0.2"/>
<stop offset="1" stop-color="white"/>
</linearGradient>
<linearGradient id="paint26_linear_87_2941" x1="-173.001" y1="138.238" x2="923.328" y2="138.238" gradientUnits="userSpaceOnUse">
<stop stop-color="#FEFEFE" stop-opacity="0.2"/>
<stop offset="1" stop-color="white"/>
</linearGradient>
<linearGradient id="paint27_linear_87_2941" x1="-173.001" y1="161.72" x2="923.328" y2="161.72" gradientUnits="userSpaceOnUse">
<stop stop-color="#FEFEFE" stop-opacity="0.2"/>
<stop offset="1" stop-color="white"/>
</linearGradient>
<linearGradient id="paint28_linear_87_2941" x1="-173.001" y1="185.09" x2="923.328" y2="185.09" gradientUnits="userSpaceOnUse">
<stop stop-color="#FEFEFE" stop-opacity="0.2"/>
<stop offset="1" stop-color="white"/>
</linearGradient>
<linearGradient id="paint29_linear_87_2941" x1="-172.776" y1="208.572" x2="923.328" y2="208.572" gradientUnits="userSpaceOnUse">
<stop stop-color="#FEFEFE" stop-opacity="0.2"/>
<stop offset="1" stop-color="white"/>
</linearGradient>
<linearGradient id="paint30_linear_87_2941" x1="-172.908" y1="231.944" x2="923.235" y2="231.944" gradientUnits="userSpaceOnUse">
<stop stop-color="#FEFEFE" stop-opacity="0.2"/>
<stop offset="1" stop-color="white"/>
</linearGradient>
<linearGradient id="paint31_linear_87_2941" x1="-172.908" y1="255.201" x2="923.235" y2="255.201" gradientUnits="userSpaceOnUse">
<stop stop-color="#FEFEFE" stop-opacity="0.2"/>
<stop offset="1" stop-color="white"/>
</linearGradient>
<linearGradient id="paint32_linear_87_2941" x1="-172.908" y1="278.796" x2="923.235" y2="278.796" gradientUnits="userSpaceOnUse">
<stop stop-color="#FEFEFE" stop-opacity="0.2"/>
<stop offset="1" stop-color="white"/>
</linearGradient>
<linearGradient id="paint33_linear_87_2941" x1="-172.908" y1="302.054" x2="923.235" y2="302.054" gradientUnits="userSpaceOnUse">
<stop stop-color="#FEFEFE" stop-opacity="0.2"/>
<stop offset="1" stop-color="white"/>
</linearGradient>
<clipPath id="clip0_87_2941">
<rect width="1920" height="728" fill="white" transform="translate(0 0.5)"/>
</clipPath>
<clipPath id="clip1_87_2941">
<rect width="750.179" height="1096.33" fill="white" transform="matrix(0 -1 -1 0 2076 700.691)"/>
</clipPath>
<clipPath id="clip2_87_2941">
<rect width="750.179" height="1096.33" fill="white" transform="matrix(0 -1 1 0 -170 700.691)"/>
</clipPath>
</defs>
</svg>
