<svg width="1920" height="1795" viewBox="0 0 1920 1795" fill="none" xmlns="http://www.w3.org/2000/svg">
<g opacity="0.8">
<g filter="url(#filter0_f_2623_1043)">
<ellipse cx="1073" cy="339" rx="659" ry="516" fill="#FF4D02" fill-opacity="0.4"/>
</g>
<g opacity="0.6" clip-path="url(#clip0_2623_1043)">
<rect opacity="0.03" x="419" y="170" width="114" height="114" fill="url(#paint0_linear_2623_1043)"/>
<rect opacity="0.03" x="419" y="399" width="114" height="114" fill="url(#paint1_linear_2623_1043)"/>
<rect opacity="0.03" x="419" y="628" width="114" height="114" fill="url(#paint2_linear_2623_1043)"/>
<rect opacity="0.03" x="1331" y="285" width="114" height="114" fill="url(#paint3_linear_2623_1043)"/>
<path fill-rule="evenodd" clip-rule="evenodd" d="M533.5 398V285H646.5V398H533.5ZM532.5 398V285H42V284H532.5V171H42V170H532.5L532.5 57H42V56H532.5V-37H533.5V56H646.5V-37H647.5V56H760.5V-37H761.5V56H874.5V-37H875.5V56H988.5V-37H989.5V56H1102.5V-37H1103.5V56H1216.5V-37H1217.5V56H1330.5V-37H1331.5V56H1444.5V-37H1445.5V56H1763.5V57H1445.5V170H1763.5V171H1445.5V284H1763.5V285H1445.5V398H1763.5V399H1445.5V512H1763.5V513H1445.5V626H1763.5V627H1445.5V740H1763.5V741H1445.5V831H1444.5V741H1331.5V831H1330.5V741H1217.5V831H1216.5V741H1103.5V831H1102.5V741H989.5V831H988.5V741H875.5V831H874.5V741H761.5V831H760.5V741H647.5V831H646.5V741H533.5V831H532.5V741H42V740H532.5V627H42V626H532.5V513H42V512H532.5V399H42V398H532.5ZM533.5 740H646.5V627H533.5V740ZM647.5 740H760.5V627H647.5V740ZM761.5 740H874.5V627H761.5V740ZM875.5 740H988.5V627H875.5V740ZM989.5 740H1102.5V627H989.5V740ZM1103.5 740H1216.5V627H1103.5V740ZM1217.5 740H1330.5V627H1217.5V740ZM1331.5 740H1444.5V627H1331.5V740ZM1444.5 513V626H1331.5V513H1444.5ZM1330.5 513V626H1217.5V513H1330.5ZM1216.5 513V626H1103.5V513H1216.5ZM1102.5 513V626H989.5V513H1102.5ZM988.5 513V626H875.5V513H988.5ZM874.5 513V626H761.5V513H874.5ZM760.5 513V626H647.5V513H760.5ZM646.5 513V626H533.5V513H646.5ZM533.5 512H646.5V399H533.5V512ZM647.5 512H760.5V399H647.5V512ZM761.5 512H874.5V399H761.5V512ZM875.5 512H988.5V399H875.5V512ZM989.5 512H1102.5V399H989.5V512ZM1103.5 512H1216.5V399H1103.5V512ZM1217.5 512H1330.5V399H1217.5V512ZM1331.5 512H1444.5V399H1331.5V512ZM533.5 170L533.5 57H646.5L646.5 170H533.5ZM647.5 170L647.5 57H760.5L760.5 170H647.5ZM761.5 170L761.5 57H874.5L874.5 170H761.5ZM875.5 170L875.5 57H988.5L988.5 170H875.5ZM989.5 170L989.5 57H1102.5V170H989.5ZM1103.5 170V57H1216.5V170H1103.5ZM1217.5 170V57H1330.5V170H1217.5ZM1331.5 170V57H1444.5V170H1331.5ZM1444.5 171H1331.5V284H1444.5V171ZM1330.5 171H1217.5V284H1330.5V171ZM1216.5 171H1103.5V284H1216.5V171ZM1102.5 171H989.5V284H1102.5V171ZM988.5 171H875.5V284H988.5V171ZM874.5 171H761.5V284H874.5V171ZM760.5 171H647.5V284H760.5V171ZM646.5 171H533.5V284H646.5V171ZM647.5 398V285H760.5V398H647.5ZM761.5 398V285H874.5V398H761.5ZM875.5 398V285H988.5V398H875.5ZM989.5 398V285H1102.5V398H989.5ZM1103.5 398V285H1216.5V398H1103.5ZM1217.5 398V285H1330.5V398H1217.5ZM1331.5 398V285H1444.5V398H1331.5Z" fill="url(#paint4_radial_2623_1043)"/>
<rect opacity="0.5" x="647" y="283" width="114" height="2" fill="url(#paint5_linear_2623_1043)"/>
<rect opacity="0.5" x="1103" y="511" width="114" height="2" fill="url(#paint6_linear_2623_1043)"/>
<rect x="874" y="509" width="114" height="2" transform="rotate(-90 874 509)" fill="url(#paint7_linear_2623_1043)"/>
<rect opacity="0.3" x="1102" y="285" width="114" height="2" transform="rotate(-90 1102 285)" fill="url(#paint8_linear_2623_1043)"/>
<rect opacity="0.2" x="761" y="398" width="114" height="114" fill="white"/>
</g>
</g>
<defs>
<filter id="filter0_f_2623_1043" x="-526" y="-1117" width="3198" height="2912" filterUnits="userSpaceOnUse" color-interpolation-filters="sRGB">
<feFlood flood-opacity="0" result="BackgroundImageFix"/>
<feBlend mode="normal" in="SourceGraphic" in2="BackgroundImageFix" result="shape"/>
<feGaussianBlur stdDeviation="470" result="effect1_foregroundBlur_2623_1043"/>
</filter>
<filter id="filter1_if_2623_1043" x="846.5" y="118" width="226" height="150" filterUnits="userSpaceOnUse" color-interpolation-filters="sRGB">
<feFlood flood-opacity="0" result="BackgroundImageFix"/>
<feBlend mode="normal" in="SourceGraphic" in2="BackgroundImageFix" result="shape"/>
<feColorMatrix in="SourceAlpha" type="matrix" values="0 0 0 0 0 0 0 0 0 0 0 0 0 0 0 0 0 0 127 0" result="hardAlpha"/>
<feOffset/>
<feGaussianBlur stdDeviation="35"/>
<feComposite in2="hardAlpha" operator="arithmetic" k2="-1" k3="1"/>
<feColorMatrix type="matrix" values="0 0 0 0 0.215686 0 0 0 0 0.364706 0 0 0 0 0.984314 0 0 0 0.25 0"/>
<feBlend mode="normal" in2="shape" result="effect1_innerShadow_2623_1043"/>
<feGaussianBlur stdDeviation="14" result="effect2_foregroundBlur_2623_1043"/>
</filter>
<linearGradient id="paint0_linear_2623_1043" x1="533" y1="229" x2="419" y2="227" gradientUnits="userSpaceOnUse">
<stop stop-color="white"/>
<stop offset="1" stop-color="white" stop-opacity="0"/>
</linearGradient>
<linearGradient id="paint1_linear_2623_1043" x1="533" y1="458" x2="419" y2="456" gradientUnits="userSpaceOnUse">
<stop stop-color="white"/>
<stop offset="1" stop-color="white" stop-opacity="0"/>
</linearGradient>
<linearGradient id="paint2_linear_2623_1043" x1="533" y1="687" x2="419" y2="685" gradientUnits="userSpaceOnUse">
<stop stop-color="white"/>
<stop offset="1" stop-color="white" stop-opacity="0"/>
</linearGradient>
<linearGradient id="paint3_linear_2623_1043" x1="1445" y1="344" x2="1331" y2="342" gradientUnits="userSpaceOnUse">
<stop stop-color="white" stop-opacity="0"/>
<stop offset="1" stop-color="white"/>
</linearGradient>
<radialGradient id="paint4_radial_2623_1043" cx="0" cy="0" r="1" gradientUnits="userSpaceOnUse" gradientTransform="translate(902.75 397) rotate(89.9536) scale(309 612.838)">
<stop stop-color="white" stop-opacity="0.2"/>
<stop offset="1" stop-color="white" stop-opacity="0"/>
</radialGradient>
<linearGradient id="paint5_linear_2623_1043" x1="647" y1="284" x2="761" y2="284" gradientUnits="userSpaceOnUse">
<stop stop-color="white" stop-opacity="0"/>
<stop offset="0.5027" stop-color="white"/>
<stop offset="1" stop-color="white" stop-opacity="0"/>
</linearGradient>
<linearGradient id="paint6_linear_2623_1043" x1="1103" y1="512" x2="1217" y2="512" gradientUnits="userSpaceOnUse">
<stop stop-color="white" stop-opacity="0"/>
<stop offset="0.5027" stop-color="white"/>
<stop offset="1" stop-color="white" stop-opacity="0"/>
</linearGradient>
<linearGradient id="paint7_linear_2623_1043" x1="874" y1="510" x2="988" y2="510" gradientUnits="userSpaceOnUse">
<stop stop-color="white" stop-opacity="0"/>
<stop offset="0.5027" stop-color="white"/>
<stop offset="1" stop-color="white" stop-opacity="0"/>
</linearGradient>
<linearGradient id="paint8_linear_2623_1043" x1="1102" y1="286" x2="1216" y2="286" gradientUnits="userSpaceOnUse">
<stop stop-color="white" stop-opacity="0"/>
<stop offset="0.5027" stop-color="white"/>
<stop offset="1" stop-color="white" stop-opacity="0"/>
</linearGradient>
<radialGradient id="paint9_radial_2623_1043" cx="0" cy="0" r="1" gradientUnits="userSpaceOnUse" gradientTransform="translate(959.5 240) scale(85 47)">
<stop stop-color="#E45012"/>
<stop offset="1" stop-color="#E45012" stop-opacity="0"/>
</radialGradient>
<linearGradient id="paint10_linear_2623_1043" x1="909.661" y1="170" x2="1004.03" y2="198.151" gradientUnits="userSpaceOnUse">
<stop stop-color="#EE500C"/>
<stop offset="1" stop-color="#4D1903"/>
</linearGradient>
<linearGradient id="paint11_linear_2623_1043" x1="858.29" y1="413.358" x2="951.48" y2="551.979" gradientUnits="userSpaceOnUse">
<stop stop-color="#FF4D02"/>
<stop offset="1" stop-color="#BC3800"/>
</linearGradient>
<clipPath id="clip0_2623_1043">
<rect width="1288" height="868" fill="white" transform="translate(288 -37)"/>
</clipPath>
<clipPath id="clip1_2623_1043">
<rect x="905" y="170" width="110" height="32" rx="16" fill="white"/>
</clipPath>
</defs>
</svg>
