<svg width="64" height="65" viewBox="0 0 64 65" fill="none" xmlns="http://www.w3.org/2000/svg">
<path opacity="0.4" fill-rule="evenodd" clip-rule="evenodd" d="M49.108 34.3432C48.0889 34.3432 47.2619 33.5162 47.2619 32.4971C47.2619 31.478 48.0889 30.6509 49.108 30.6509H53.4339C53.8647 30.6509 54.2049 30.2829 54.1566 29.8549C52.9369 19.0743 44.3668 10.5044 33.5841 9.28487C33.156 9.23645 32.788 9.57674 32.788 10.0074V14.3335C32.788 15.3526 31.9609 16.1796 30.9419 16.1796C29.9228 16.1796 29.0957 15.3526 29.0957 14.3335V10.0074C29.0957 9.57674 28.7275 9.23648 28.2996 9.2849C17.5189 10.5045 8.9468 19.0744 7.72703 29.8549C7.67861 30.2829 8.0189 30.6509 8.44957 30.6509H12.7806C13.7996 30.6509 14.6267 31.478 14.6267 32.4971C14.6267 33.5162 13.7996 34.3432 12.7806 34.3432H8.44954C8.01887 34.3432 7.67861 34.7115 7.72701 35.1393C8.9467 45.9223 17.5188 54.4924 28.2996 55.7119C28.7275 55.7603 29.0957 55.4202 29.0957 54.9894V50.6632C29.0957 49.6442 29.9228 48.8171 30.9419 48.8171C31.9609 48.8171 32.788 49.6442 32.788 50.6632V54.9894C32.788 55.4202 33.156 55.7603 33.5841 55.7119C44.3671 54.4924 52.9369 45.9223 54.1566 35.1393C54.2049 34.7115 53.8647 34.3432 53.4342 34.3432H49.108Z" fill="#403023"/>
<path fill-rule="evenodd" clip-rule="evenodd" d="M39.5353 39.7758C39.1882 40.3543 38.5778 40.6743 37.9501 40.6743C37.6276 40.6743 37.3002 40.5906 37.0024 40.4109L29.187 35.734C28.6307 35.4017 28.291 34.7986 28.291 34.1488V24.0835C28.291 23.0619 29.1181 22.2373 30.1372 22.2373C31.1562 22.2373 31.9833 23.0619 31.9833 24.0835V32.6839C31.9833 32.9436 32.1197 33.1841 32.3425 33.3175L38.9002 37.2429C39.7741 37.7672 40.0596 38.902 39.5353 39.7758Z" fill="#403023"/>
</svg>
