<svg width="32" height="32" viewBox="0 0 32 32" fill="none" xmlns="http://www.w3.org/2000/svg">
<g id="Clock dash 4">
<g id="Group 1410098120">
<path id="Vector" fill-rule="evenodd" clip-rule="evenodd" d="M16.2288 10.9238C15.5494 10.9238 14.998 11.4752 14.998 12.1546V16.5977C14.998 17.031 15.2257 17.4334 15.5974 17.655L19.0411 19.7103C19.2393 19.8285 19.4571 19.8839 19.6713 19.8839C20.0897 19.8839 20.4984 19.6697 20.7297 19.2845C21.0768 18.6999 20.8873 17.9454 20.3039 17.5959L17.4596 15.8986V12.1546C17.4596 11.4752 16.9082 10.9238 16.2288 10.9238Z" fill="white"/>
<path id="Vector_2" fill-rule="evenodd" clip-rule="evenodd" d="M7.41147 10.9235C7.78931 10.9235 8.16224 10.7499 8.40347 10.4225C8.86255 9.80101 9.3967 9.22993 9.99362 8.72532C10.513 8.28593 10.577 7.50932 10.1389 6.99116C9.69947 6.47178 8.92285 6.40655 8.4047 6.84593C7.66131 7.47363 6.99424 8.18624 6.42193 8.96286C6.01824 9.51055 6.13516 10.281 6.68285 10.6835C6.90193 10.8459 7.15793 10.9235 7.41147 10.9235Z" fill="white"/>
<path id="Vector_3" fill-rule="evenodd" clip-rule="evenodd" d="M22.3883 24.0593C20.8424 25.268 18.9975 25.9793 17.048 26.116C16.0794 26.191 15.1058 26.1209 14.1581 25.908C13.4985 25.759 12.8363 26.1763 12.6874 26.8397C12.5385 27.503 12.9557 28.1615 13.6191 28.3104C14.499 28.5073 15.3963 28.607 16.2935 28.607C16.6049 28.607 16.9175 28.5947 17.2289 28.5713C19.6609 28.399 21.9698 27.5104 23.9034 25.999C24.44 25.5806 24.5347 24.8064 24.1163 24.271C23.6966 23.7357 22.9237 23.6421 22.3883 24.0593Z" fill="white"/>
<path id="Vector_4" fill-rule="evenodd" clip-rule="evenodd" d="M7.25336 20.213C6.9789 19.5914 6.25275 19.3108 5.63121 19.5816C5.00844 19.8561 4.72659 20.5822 4.99982 21.205C5.91675 23.2862 7.38998 25.0733 9.26444 26.373C9.47859 26.5207 9.72228 26.5921 9.96475 26.5921C10.3549 26.5921 10.7377 26.4074 10.9764 26.0628C11.3641 25.5041 11.2263 24.7373 10.6663 24.3496C9.16721 23.3096 7.9869 21.8794 7.25336 20.213Z" fill="white"/>
<path id="Vector_5" fill-rule="evenodd" clip-rule="evenodd" d="M5.35145 18.2429C6.0296 18.1924 6.53791 17.6016 6.48745 16.9247C6.40498 15.8207 6.51575 14.7056 6.81483 13.6115C6.99452 12.9567 6.60806 12.2786 5.95329 12.1001C5.29606 11.9167 4.62037 12.3056 4.44068 12.9616C4.06775 14.3278 3.92991 15.7223 4.03329 17.1069C4.08129 17.7543 4.62037 18.2466 5.25914 18.2466C5.28991 18.2466 5.32068 18.2453 5.35145 18.2429Z" fill="white"/>
<path id="Vector_6" fill-rule="evenodd" clip-rule="evenodd" d="M15.8126 4.00763C15.1332 4.03347 14.604 4.60578 14.6298 5.28517C14.6569 5.96455 15.2452 6.49501 15.9061 6.46793C21.3314 6.24147 25.927 10.5061 26.135 15.9314C26.2101 17.8834 25.7018 19.796 24.6643 21.4612C24.3061 22.0384 24.4821 22.7978 25.0594 23.1572C25.2624 23.2828 25.4864 23.3418 25.7092 23.3418C26.1203 23.3418 26.5215 23.1363 26.7554 22.7621C28.0526 20.6772 28.6877 18.2834 28.5941 15.8366C28.3344 9.05501 22.615 3.77132 15.8126 4.00763Z" fill="white"/>
</g>
</g>
</svg>
