<svg width="48" height="49" viewBox="0 0 48 49" fill="none" xmlns="http://www.w3.org/2000/svg">
<path opacity="0.4" fill-rule="evenodd" clip-rule="evenodd" d="M7.84784 23.9507V14.862C7.84784 14.0977 7.22754 13.4774 6.46323 13.4774C5.69892 13.4774 5.07861 14.0977 5.07861 14.862V23.9507C5.07861 24.715 5.69892 25.3353 6.46323 25.3353C7.22754 25.3353 7.84784 24.715 7.84784 23.9507Z" fill="#FF4D02"/>
<path opacity="0.4" fill-rule="evenodd" clip-rule="evenodd" d="M39.6908 28.16C38.9265 28.16 38.3062 28.7803 38.3062 29.5446V38.6314C38.3062 39.3957 38.9265 40.016 39.6908 40.016C40.4551 40.016 41.0754 39.3957 41.0754 38.6314V29.5446C41.0754 28.7803 40.4551 28.16 39.6908 28.16Z" fill="#FF4D02"/>
<path opacity="0.4" fill-rule="evenodd" clip-rule="evenodd" d="M39.081 13.5421C38.5826 12.9587 37.7112 12.8904 37.1278 13.3889L35.2613 14.9821C34.6798 15.4787 34.6096 16.3519 35.1081 16.9353C35.3813 17.2565 35.769 17.4209 36.1604 17.4209C36.4798 17.4209 36.7992 17.3119 37.0595 17.0886L38.9278 15.4953C39.5075 14.9987 39.5795 14.1236 39.081 13.5421Z" fill="#FF4D02"/>
<path opacity="0.4" fill-rule="evenodd" clip-rule="evenodd" d="M9.28476 32.1529L7.41645 33.7461C6.83676 34.2427 6.76661 35.116 7.26322 35.6994C7.5383 36.0206 7.92599 36.1849 8.31738 36.1849C8.63492 36.1849 8.9543 36.076 9.21645 35.8526L11.0848 34.2594C11.6645 33.7627 11.7346 32.8877 11.238 32.3061C10.7395 31.7246 9.8663 31.6544 9.28476 32.1529Z" fill="#FF4D02"/>
<path fill-rule="evenodd" clip-rule="evenodd" d="M31.0636 13.9614C31.2186 14.0168 31.3756 14.0426 31.5306 14.0426C32.0993 14.0426 32.6328 13.6919 32.834 13.1251L33.6611 10.8137C33.9196 10.0937 33.5448 9.30173 32.8248 9.04327C32.0993 8.78111 31.311 9.15773 31.0543 9.87957L30.2273 12.191C29.9688 12.911 30.3436 13.703 31.0636 13.9614Z" fill="#FF4D02"/>
<path fill-rule="evenodd" clip-rule="evenodd" d="M15.2793 35.2811C14.5612 35.0171 13.7673 35.3974 13.5107 36.1192L12.6855 38.4306C12.427 39.1506 12.8018 39.9426 13.5237 40.1992C13.6769 40.2546 13.8338 40.2805 13.9889 40.2805C14.5557 40.2805 15.0892 39.9279 15.2923 39.3611L16.1175 37.0497C16.376 36.3297 16.0012 35.5377 15.2793 35.2811Z" fill="#FF4D02"/>
<path fill-rule="evenodd" clip-rule="evenodd" d="M22.7166 24.4101C23.0046 24.0317 23.143 23.5221 23.4163 22.5049L23.9 20.7123C24.4187 18.7905 24.6772 17.8305 24.4612 17.0698C24.2637 16.3738 23.8077 15.7812 23.1892 15.4083C22.5117 15.0021 21.5166 15.0022 19.5264 15.0022H17.6988C17.3573 15.0022 17.2927 14.8692 17.3887 14.5701C18.7086 10.4661 18.0311 8.8323 16.7222 8.56276C16.2219 8.45938 16.0133 8.46492 15.6182 8.85076C14.337 10.3609 12.1751 12.724 10.9954 14.0034C10.6908 14.3357 10.5376 14.5 10.4287 14.6865C10.329 14.86 10.257 15.0446 10.2127 15.2403C10.1665 15.4508 10.1665 15.6741 10.1665 16.1209V21.5984C10.1665 22.9073 10.1665 23.5609 10.4176 24.063C10.6465 24.5227 11.0194 24.8957 11.481 25.1264C11.9813 25.3775 12.6367 25.3775 13.9437 25.3775H19.6667C20.7209 25.3775 21.2489 25.3775 21.6901 25.1966C22.0963 25.0323 22.4507 24.7609 22.7166 24.4101Z" fill="#FF4D02"/>
<path fill-rule="evenodd" clip-rule="evenodd" d="M35.7248 29.2735C35.6159 29.0871 35.4627 28.9228 35.1581 28.5923C33.9784 27.3129 31.8165 24.948 30.5353 23.4379C30.1402 23.0539 29.9316 23.0483 29.4313 23.1517C28.1224 23.4194 27.4448 25.0551 28.7648 29.1572C28.8627 29.4563 28.7962 29.5892 28.4547 29.5892H26.627C24.6368 29.5892 23.6418 29.5892 22.9642 29.9954C22.3458 30.3683 21.8898 30.9628 21.6922 31.6569C21.4762 32.4175 21.7347 33.3775 22.2534 35.2994L22.7371 37.092C23.0104 38.1092 23.1488 38.6188 23.4368 38.9991C23.7027 39.348 24.0571 39.6194 24.4633 39.7855C24.9045 39.9646 25.4325 39.9646 26.4867 39.9646H32.2098C33.5168 39.9646 34.1722 39.9646 34.6725 39.7135C35.1341 39.4846 35.507 39.1117 35.7359 38.6502C35.987 38.1499 35.987 37.4945 35.987 36.1855V30.7099C35.987 30.2631 35.987 30.0379 35.9408 29.8274C35.8965 29.6317 35.8245 29.4471 35.7248 29.2735Z" fill="#FF4D02"/>
</svg>
