<svg width="61" height="62" viewBox="0 0 61 62" fill="none" xmlns="http://www.w3.org/2000/svg">
<g filter="url(#filter0_d_69_6463)">
<rect x="10" y="6.57422" width="41" height="41" rx="20.5" fill="#FF4D02" shape-rendering="crispEdges"/>
<rect x="11.5" y="8.07422" width="38" height="38" rx="19" stroke="white" stroke-width="3" shape-rendering="crispEdges"/>
<path fill-rule="evenodd" clip-rule="evenodd" d="M31.5 33.0764C31.244 33.0764 30.988 32.9785 30.793 32.7835C30.402 32.3935 30.402 31.7604 30.793 31.3694L35.086 27.0754L30.793 22.7815C30.402 22.3905 30.402 21.7575 30.793 21.3675C31.184 20.9765 31.816 20.9765 32.207 21.3675L37.207 26.3685C37.598 26.7594 37.598 27.3915 37.207 27.7825L32.207 32.7835C32.012 32.9785 31.756 33.0764 31.5 33.0764Z" fill="white"/>
<path fill-rule="evenodd" clip-rule="evenodd" d="M24.5 33.0764C24.244 33.0764 23.988 32.9785 23.793 32.7835C23.402 32.3935 23.402 31.7604 23.793 31.3694L28.086 27.0754L23.793 22.7815C23.402 22.3905 23.402 21.7575 23.793 21.3675C24.184 20.9765 24.816 20.9765 25.207 21.3675L30.207 26.3685C30.598 26.7594 30.598 27.3915 30.207 27.7825L25.207 32.7835C25.012 32.9785 24.756 33.0764 24.5 33.0764Z" fill="white"/>
</g>
<defs>
<filter id="filter0_d_69_6463" x="0" y="0.574219" width="61" height="61" filterUnits="userSpaceOnUse" color-interpolation-filters="sRGB">
<feFlood flood-opacity="0" result="BackgroundImageFix"/>
<feColorMatrix in="SourceAlpha" type="matrix" values="0 0 0 0 0 0 0 0 0 0 0 0 0 0 0 0 0 0 127 0" result="hardAlpha"/>
<feOffset dy="4"/>
<feGaussianBlur stdDeviation="5"/>
<feComposite in2="hardAlpha" operator="out"/>
<feColorMatrix type="matrix" values="0 0 0 0 0.0509804 0 0 0 0 0.0823529 0 0 0 0 0.188235 0 0 0 0.05 0"/>
<feBlend mode="normal" in2="BackgroundImageFix" result="effect1_dropShadow_69_6463"/>
<feBlend mode="normal" in="SourceGraphic" in2="effect1_dropShadow_69_6463" result="shape"/>
</filter>
</defs>
</svg>
