<?xml version="1.0" encoding="UTF-8"?>
<svg id="Layer_2" xmlns="http://www.w3.org/2000/svg" viewBox="0 0 82.58 96.34">
  <defs>
    <style>
      .cls-1 {
        fill: #fff;
      }
    </style>
  </defs>
  <g id="Layer_1-2" data-name="Layer_1">
    <g>
      <path class="cls-1" d="M80.55,39.88c-1.28-1.29-3.03-2.02-4.85-2.03-3.8,0-6.88,3.08-6.88,6.88v21.06c0-4.03-3.26-7.3-7.29-7.3-1.94,0-3.8.77-5.17,2.14l-10.63,10.63c-.64.64-.99,1.51-1,2.41v22.67h24.09v-5.47c0-.9.36-1.77,1-2.41l6.71-6.71c3.88-3.88,6.06-9.14,6.06-14.62v-22.4c0-1.82-.74-3.57-2.03-4.85Z"/>
      <path class="cls-1" d="M26.22,60.63c-2.85-2.85-7.47-2.85-10.32,0-1.37,1.37-2.14,3.23-2.14,5.17v-21.06c0-3.8-3.08-6.88-6.88-6.88S0,40.93,0,44.73v22.4c0,5.49,2.17,10.75,6.06,14.62l6.88,6.71c.64.64.99,1.51,1,2.41v5.47h24.09v-22.67c0-.9-.36-1.77-1-2.41l-10.8-10.63Z"/>
      <path class="cls-1" d="M41.28,0C26.08,0,13.76,12.32,13.76,27.53c0,1.89.21,3.82.59,5.68,3.92,2.51,6.3,6.88,6.3,11.53v.93c10.05,11.39,27.46,12.49,38.85,2.44.86-.76,1.69-1.58,2.44-2.44v-.93c.03-4.64,2.37-9.01,6.3-11.53.38-1.86.58-3.78.58-5.68,0-15.21-12.32-27.53-27.53-27.53ZM43.93,22.64c1.07,0,1.79.72,1.79,1.79s-.72,1.79-1.79,1.79h-8.36c-.17,1.2-.14,2.41.1,3.58h8.26c1.07,0,1.79.72,1.79,1.82s-.72,1.79-1.79,1.79h-6.92c.17.24.28.48.45.72,2.51,3.58,7.02,4.47,12.59,2.86.89-.34,1.96.17,2.31,1.27.38.89-.17,1.96-1.24,2.34-2.17.52-4.13.89-6.12.89-4.3,0-8.05-1.79-10.39-5.23-.65-.86-1.14-1.86-1.55-2.86h-2.24c-1.07,0-1.79-.72-1.79-1.79s.72-1.82,1.79-1.82h1.31c-.17-1.17-.14-2.37,0-3.58h-1.31c-1.07,0-1.79-.72-1.79-1.79s.72-1.79,1.79-1.79h2.17c.45-1.24,1.03-2.37,1.79-3.41,3.58-4.68,9.53-6.12,16.52-3.78.89.34,1.45,1.27,1.07,2.34-.34,1.07-1.24,1.45-2.31,1.07-5.57-1.79-9.87-.89-12.59,2.51-.28.41-.55.83-.76,1.27h7.23Z"/>
    </g>
  </g>
</svg>