<svg width="64" height="65" viewBox="0 0 64 65" fill="none" xmlns="http://www.w3.org/2000/svg">
<path opacity="0.4" fill-rule="evenodd" clip-rule="evenodd" d="M22.7073 12.5938C16.8163 12.5938 12.0406 17.3694 12.0406 23.2604V41.7421C12.0406 47.633 16.8163 52.4088 22.7073 52.4088H41.2922C47.1832 52.4088 51.9589 47.633 51.9589 41.7421V23.2604C51.9589 17.3694 47.1832 12.5938 41.2922 12.5938H22.7073ZM41.8082 36.0181C41.8082 39.7085 39.3066 42.309 35.7152 42.309H28.2848C24.6933 42.309 22.1917 39.7085 22.1917 36.0181V28.9837C22.1917 25.2686 24.6933 22.6927 28.2848 22.6927H35.7152C39.3066 22.6927 41.8082 25.2686 41.8082 28.9837V36.0181Z" fill="#562914"/>
<path d="M25.6355 6.50781C26.7401 6.50781 27.6356 7.40325 27.6356 8.50781V12.5833H23.6355V8.50781C23.6355 7.40325 24.5309 6.50781 25.6355 6.50781Z" fill="#562914"/>
<path d="M36.366 8.50781V12.5833H40.366V8.50781C40.366 7.40325 39.4705 6.50781 38.366 6.50781C37.2614 6.50781 36.366 7.40325 36.366 8.50781Z" fill="#562914"/>
<path d="M51.9587 28.1435V24.549C51.9587 24.4133 51.9571 24.2781 51.9536 24.1436H55.9987C57.1032 24.1436 57.9987 25.039 57.9987 26.1436C57.9987 27.2481 57.1032 28.1435 55.9987 28.1435H51.9587Z" fill="#562914"/>
<path d="M51.9586 40.4729C51.9586 40.6006 51.957 40.7278 51.9541 40.8545H55.9986C57.1032 40.8545 57.9986 39.959 57.9986 38.8545C57.9986 37.75 57.1032 36.8545 55.9986 36.8545H51.9586V40.4729Z" fill="#562914"/>
<path d="M40.366 52.4062V56.491C40.366 57.5956 39.4705 58.491 38.366 58.491C37.2614 58.491 36.366 57.5956 36.366 56.491V52.4062H40.366Z" fill="#562914"/>
<path d="M27.6356 52.4062H23.6355V56.491C23.6355 57.5956 24.5309 58.491 25.6355 58.491C26.7401 58.491 27.6356 57.5956 27.6356 56.491V52.4062Z" fill="#562914"/>
<path d="M12.0261 36.8564V40.4722C12.0261 40.6007 12.0276 40.729 12.0307 40.8564H8C6.89544 40.8564 6 39.961 6 38.8564C6 37.7519 6.89544 36.8564 8 36.8564H12.0261Z" fill="#562914"/>
<path d="M12.0261 24.5483C12.0261 24.4135 12.0278 24.2792 12.0311 24.1455H8C6.89544 24.1455 6 25.0409 6 26.1455C6 27.2501 6.89544 28.1455 8 28.1455H12.0261V24.5483Z" fill="#562914"/>
<path d="M28.3305 26.6689H35.6691C37.5438 26.6689 37.8265 28.1596 37.8265 29.0476V35.9623C37.8265 36.845 37.5438 38.3303 35.6691 38.3303H28.3305C26.4477 38.3303 26.1677 36.845 26.1677 35.9623V29.0476C26.1677 28.1596 26.4477 26.6689 28.3305 26.6689Z" fill="#562914"/>
</svg>
