<svg width="49" height="49" viewBox="0 0 49 49" fill="none" xmlns="http://www.w3.org/2000/svg">
<g opacity="0.4">
<path fill-rule="evenodd" clip-rule="evenodd" d="M34.1391 5.28406H31.7256C30.9307 5.28406 30.2856 5.92918 30.2856 6.72406C30.2856 7.51894 30.9307 8.16406 31.7256 8.16406H34.1391C37.4664 8.16406 40.1736 10.8713 40.1736 14.1986V17.2265C40.1736 18.0213 40.8187 18.6665 41.6136 18.6665C42.4085 18.6665 43.0536 18.0213 43.0536 17.2265V14.1986C43.0536 9.28342 39.0543 5.28406 34.1391 5.28406Z" fill="#FF4D02"/>
<path fill-rule="evenodd" clip-rule="evenodd" d="M7.05349 18.6665C7.84837 18.6665 8.49349 18.0213 8.49349 17.2265V14.1986C8.49349 10.8713 11.2007 8.16406 14.528 8.16406H17.0029C17.7978 8.16406 18.4429 7.51894 18.4429 6.72406C18.4429 5.92918 17.7978 5.28406 17.0029 5.28406H14.528C9.61285 5.28406 5.61349 9.28342 5.61349 14.1986V17.2265C5.61349 18.0213 6.25861 18.6665 7.05349 18.6665Z" fill="#FF4D02"/>
<path fill-rule="evenodd" clip-rule="evenodd" d="M16.9414 39.8539H14.5279C11.2006 39.8539 8.49337 37.1467 8.49337 33.8212V30.7934C8.49337 29.9985 7.84825 29.3534 7.05337 29.3534C6.25849 29.3534 5.61337 29.9985 5.61337 30.7934V33.8212C5.61337 38.7345 9.61273 42.7339 14.5279 42.7339H16.9414C17.7363 42.7339 18.3814 42.0888 18.3814 41.2939C18.3814 40.499 17.7363 39.8539 16.9414 39.8539Z" fill="#FF4D02"/>
<path fill-rule="evenodd" clip-rule="evenodd" d="M41.6135 29.3514C40.8186 29.3514 40.1735 29.9966 40.1735 30.7914V33.8193C40.1735 37.1466 37.4663 39.8519 34.139 39.8519H31.6641C30.8692 39.8519 30.2241 40.497 30.2241 41.2919C30.2241 42.0868 30.8692 42.7319 31.6641 42.7319H34.139C39.0542 42.7319 43.0535 38.7345 43.0535 33.8193V30.7914C43.0535 29.9966 42.4084 29.3514 41.6135 29.3514Z" fill="#FF4D02"/>
</g>
<path fill-rule="evenodd" clip-rule="evenodd" d="M23.5405 26.098C21.6528 26.1109 15.9048 26.1506 15.9058 30.1974C15.9824 31.8146 17.1335 32.9002 18.7701 32.9002H28.3294C29.9541 32.9002 31.1042 31.8156 31.1928 30.1753C31.2104 26.17 25.4439 26.1156 23.5405 26.098Z" fill="#FF4D02"/>
<path fill-rule="evenodd" clip-rule="evenodd" d="M23.5545 24.1111C25.8234 24.1111 27.6686 22.2659 27.6686 19.9979C27.6686 17.729 25.8234 15.8828 23.5545 15.8828C21.2855 15.8828 19.4403 17.729 19.4403 19.9979C19.4403 22.2659 21.2855 24.1111 23.5545 24.1111Z" fill="#FF4D02"/>
</svg>
