<svg width="150" height="150" viewBox="0 0 150 150" fill="none" xmlns="http://www.w3.org/2000/svg">
<g id="Star" opacity="0.4">
<path id="Vector" d="M138.839 58.5765C138.159 58.4049 137.499 58.7315 136.829 58.8282C136.692 58.8582 136.557 58.8915 136.42 58.9232C134.704 59.0165 132.98 58.9965 131.262 59.0315C121.7 59.0865 112.139 59.0565 102.579 58.7765C99.972 58.7082 97.3653 58.6382 94.7587 58.5682C91.6487 52.1682 88.5837 45.7399 85.2837 39.4715C82.8203 34.7815 80.4287 30.0249 77.5937 25.6249C76.952 24.6965 76.2903 23.6615 75.3203 23.2015C74.327 22.7315 73.1653 23.1215 72.412 23.9782C71.8937 24.5099 71.552 25.2215 71.182 25.8899C70.4837 27.1632 69.7937 28.4449 69.107 29.7265C64.0553 39.1099 59.0987 48.5615 54.097 57.9832C47.8487 58.0065 41.6003 58.0599 35.3503 58.0265C30.732 58.0032 26.1137 57.9115 21.497 57.8649C19.567 57.8532 17.6387 57.8599 15.7087 57.9332C14.467 57.9765 13.2137 58.0182 11.9987 58.3465C10.9103 58.6715 9.89534 59.8332 10.0087 61.2182C10.1037 62.3049 10.8603 63.0232 11.5803 63.5999C13.632 65.2182 15.717 66.7815 17.8003 68.3415C23.077 72.2599 28.4003 76.0965 33.8337 79.7082C35.9053 81.1015 38.0003 82.4449 40.1137 83.7449C39.6087 84.6482 39.102 85.5499 38.592 86.4515C35.3787 92.1582 32.0903 97.8082 28.7903 103.447C27.4637 105.65 26.1437 107.857 24.8153 110.057C24.2703 110.947 23.6703 111.793 23.1653 112.717C22.467 114.133 21.9753 115.703 21.7787 117.327C23.0503 116.725 24.2187 115.808 25.167 114.647C26.1953 113.215 27.102 111.665 28.0303 110.145C29.9303 107.002 31.817 103.848 33.6637 100.66C36.6587 95.5415 39.612 90.3899 42.5203 85.2032C48.6437 88.8499 54.917 92.1449 61.282 95.1799C61.8903 95.4782 62.5003 95.7715 63.1103 96.0665C53.9537 101.848 45.052 108.163 36.137 114.437C31.9937 117.34 27.9037 120.348 23.767 123.263C22.6653 124.145 21.7637 125.373 21.2153 126.802C22.262 126.967 23.3503 126.815 24.342 126.397C25.9637 125.632 27.382 124.375 28.892 123.352C31.0403 121.798 33.1937 120.252 35.3537 118.72C42.667 113.54 49.9953 108.39 57.4053 103.405C60.3687 101.42 63.3653 99.5032 66.3837 97.6382C74.7303 101.608 83.162 105.327 91.632 108.918C99.2637 112.13 106.907 115.388 114.792 117.652C116.645 118.205 118.514 118.69 120.39 119.13C121.575 119.353 121.75 119.41 122.504 119.467C123.339 119.475 124.12 118.713 124.177 117.717C124.279 116.947 123.862 116.268 123.529 115.647C123.087 114.845 122.659 114.032 122.229 113.22C120.717 110.352 119.235 107.462 117.765 104.565C113.949 97.0565 110.25 89.4665 106.482 81.9249C105.587 80.1399 104.685 78.3599 103.78 76.5815C107.352 74.6999 110.734 72.9515 113.525 71.5465C118.504 69.1199 123.514 66.7782 128.634 64.7899C131.344 63.7632 134.079 62.7899 136.862 62.0849C137.024 62.0782 137.184 62.0732 137.345 62.0649C138.119 61.9482 139.014 62.0265 139.619 61.3665C140.382 60.4499 139.94 58.8215 138.837 58.5732L138.839 58.5765ZM67.7737 38.2315C69.4587 35.0749 71.142 31.9182 72.842 28.7732C73.7637 27.1965 73.912 26.5732 74.3803 26.2182C75.7253 27.7299 76.2437 28.9349 77.6687 31.2199C82.5653 40.1215 87.1487 49.2499 91.5753 58.4815C83.0503 58.2549 74.5237 58.0499 65.997 58.0015C63.092 57.9732 60.1853 57.9682 57.2803 57.9732C60.7787 51.3915 64.2687 44.8049 67.7737 38.2299V38.2315ZM32.362 75.0282C25.982 70.6282 19.6837 66.0582 13.5103 61.2699C14.127 61.1899 14.972 61.1549 15.9937 61.1249C19.712 60.9899 23.4337 61.0949 27.1537 61.1382C35.5653 61.2732 43.9787 61.2399 52.392 61.1882C48.847 67.8449 45.2703 74.4765 41.6187 81.0515C38.4987 79.1199 35.4153 77.1015 32.362 75.0282ZM49.102 85.4549C47.3953 84.5099 45.7037 83.5265 44.0237 82.5182C46.3153 78.4032 48.5787 74.2665 50.812 70.1065C52.4053 67.1332 53.992 64.1549 55.5787 61.1765C65.8937 61.1515 76.207 61.2749 86.5187 61.5499C88.727 61.6049 90.9353 61.6632 93.1437 61.7249C95.3437 66.2299 97.6053 70.6915 99.872 75.1499C99.462 75.3649 99.052 75.5815 98.642 75.7965C87.7537 81.7082 76.8687 87.6465 66.222 94.1399C60.5953 91.4665 55.107 88.7315 49.102 85.4549ZM104.149 83.5899C108.58 92.4699 112.932 101.407 117.467 110.215C118.445 112.112 119.425 114.008 120.43 115.887C119.614 115.687 118.69 115.438 117.73 115.202C110.984 113.403 104.415 110.848 97.8937 108.163C91.0437 105.337 84.242 102.352 77.4437 99.3582C74.7203 98.1065 72.1103 96.9049 69.552 95.7099C75.482 92.1315 81.4903 88.7315 87.5203 85.3965C91.7053 83.0515 96.5737 80.4082 101.274 77.9115C102.235 79.8032 103.195 81.6949 104.149 83.5915V83.5899ZM102.38 73.8315C100.427 69.9949 98.4737 66.1582 96.5737 62.2849C96.497 62.1265 96.4203 61.9699 96.342 61.8115C104.452 62.0349 112.562 62.2465 120.674 62.2415C122.644 62.2365 124.615 62.2465 126.587 62.2499C118.337 65.5415 110.337 69.6549 102.38 73.8299V73.8315Z" fill="#FF4E03"/>
</g>
</svg>
