<svg width="64" height="65" viewBox="0 0 64 65" fill="none" xmlns="http://www.w3.org/2000/svg">
<path opacity="0.4" fill-rule="evenodd" clip-rule="evenodd" d="M55.2123 27.3952L53.3456 25.5286C52.4976 24.6726 52.0283 23.5366 52.0283 22.3339V19.6672C52.0283 15.6966 48.7989 12.4672 44.8283 12.4672H42.1563C40.9509 12.4672 39.8176 12.0032 38.9696 11.1579L37.0736 9.26456C34.2603 6.46456 29.6896 6.47523 26.8923 9.29123L25.0337 11.1526C24.1883 11.9899 23.0257 12.4699 21.8417 12.4699H19.1697C15.2523 12.4726 12.055 15.6246 11.975 19.5232C11.9697 19.5712 11.967 19.6219 11.967 19.6699V22.3286C11.967 23.5339 11.5003 24.6672 10.6523 25.5206L8.80433 27.3739C8.78566 27.3899 8.767 27.4085 8.74833 27.4272C5.959 30.2485 5.98033 34.8139 8.79366 37.5979L10.6577 39.4619C11.5057 40.3152 11.975 41.4459 11.975 42.6485V45.3312C11.975 49.2992 15.2017 52.5285 19.1723 52.5285H21.8337C23.0417 52.5312 24.175 53.0005 25.023 53.8459L26.9109 55.7339C26.9349 55.7552 26.9563 55.7792 26.9829 55.7979C28.3323 57.1072 30.1056 57.8272 31.9883 57.8272C31.9989 57.8272 32.0096 57.8272 32.0203 57.8272C33.9429 57.8192 35.7456 57.0619 37.0949 55.7019L38.9616 53.8379C39.8149 52.9899 40.9483 52.5205 42.1509 52.5205H44.8336C48.7963 52.5205 52.0256 49.2965 52.0309 45.3312V42.6539C52.0309 41.4539 52.5003 40.3205 53.3456 39.4672L55.2443 37.5712C58.0389 34.7525 58.0229 30.1845 55.2123 27.3952Z" fill="#1C3745"/>
<path d="M30.9433 38.8582C30.9433 37.7542 30.0473 36.8582 28.9433 36.8582H24.1005C24.6338 36.1969 25.4578 35.6129 26.5352 34.8795L26.5409 34.8755C28.5025 33.5403 30.9433 31.879 30.9433 28.5675C30.9433 25.3862 28.3539 22.7969 25.1725 22.7969C21.9885 22.7969 19.3992 25.3862 19.3992 28.5675C19.3992 29.6715 20.2952 30.5675 21.3992 30.5675C22.5058 30.5675 23.3992 29.6715 23.3992 28.5675C23.3992 27.5915 24.1938 26.7969 25.1725 26.7969C26.1485 26.7969 26.9433 27.5915 26.9433 28.5675C26.9433 29.6529 26.1325 30.3169 24.2845 31.5702L24.2781 31.5745C22.22 32.9769 19.4018 34.8969 19.4018 38.8582C19.4018 39.9622 20.2978 40.8582 21.4018 40.8582H28.9433C30.0473 40.8582 30.9433 39.9622 30.9433 38.8582Z" fill="#1C3745"/>
<path fill-rule="evenodd" clip-rule="evenodd" d="M44.0631 37.6829H43.3298V38.9069C43.3298 40.0109 42.4338 40.9069 41.3298 40.9069C40.2258 40.9069 39.3298 40.0109 39.3298 38.9069V37.6829H33.4631C32.7138 37.6829 32.0258 37.2615 31.6844 36.5949C31.3404 35.9282 31.4018 35.1255 31.8418 34.5149L39.7031 23.5789C40.2151 22.8722 41.1164 22.5789 41.9431 22.8429C42.7698 23.1095 43.3298 23.8775 43.3298 24.7469V33.6829H44.0631C45.1671 33.6829 46.0631 34.5789 46.0631 35.6829C46.0631 36.7869 45.1671 37.6829 44.0631 37.6829ZM39.3287 30.9549V33.6829H37.366L39.3287 30.9549Z" fill="#1C3745"/>
</svg>
