<svg width="23" height="29" viewBox="0 0 23 29" fill="none" xmlns="http://www.w3.org/2000/svg">
<path d="M10.5644 0.574219H15.1491V21.5871C12.8007 22.0313 11.072 22.2061 9.20146 22.2061C3.60194 22.2002 0.687134 19.6986 0.687134 14.8942C0.687134 10.265 3.77895 7.26073 8.57011 7.26073C9.31359 7.26073 9.87997 7.31925 10.5644 7.49453V0.574219ZM10.7251 11.2813C10.1881 11.1059 9.74565 11.0475 9.17917 11.0475C6.86035 11.0475 5.52097 12.4619 5.52097 14.9407C5.52097 17.3541 6.80141 18.6867 9.14974 18.6867C9.6571 18.6867 10.0701 18.6581 10.7251 18.5704V11.2813Z" fill="#2BA977"/>
<path d="M22.6463 7.82489V18.3458C22.6463 21.9689 22.3749 23.7113 21.5783 25.2135C20.8349 26.6577 19.8554 27.5684 17.8316 28.5742L13.5774 26.5695C15.6012 25.6289 16.5807 24.7979 17.2062 23.5296C17.861 22.2326 18.0675 20.7304 18.0675 16.7793V7.82497H22.6463V7.82489ZM17.6055 0.574219H22.1902V5.2326H17.6055V0.574219Z" fill="#2BA977"/>
</svg>
