<svg width="29" height="29" viewBox="0 0 29 29" fill="none" xmlns="http://www.w3.org/2000/svg">
<path d="M28.181 12.1306C28.1047 12.07 27.3926 11.5323 25.8909 11.5323C25.4944 11.5341 25.0987 11.5681 24.7077 11.634C24.4171 9.64192 22.7701 8.67065 22.6962 8.62707L22.293 8.39453L22.0277 8.77724C21.6956 9.29133 21.4532 9.85805 21.3108 10.4533C21.0419 11.5905 21.2055 12.6586 21.7831 13.5717C21.0856 13.9604 19.9666 14.0561 19.7401 14.0646H1.21376C0.729857 14.0652 0.337193 14.4563 0.334556 14.9402C0.312946 16.5632 0.587922 18.1765 1.14594 19.7007C1.78414 21.3744 2.7336 22.6072 3.96887 23.3616C5.35307 24.2094 7.60196 24.6938 10.1512 24.6938C11.3028 24.6974 12.4523 24.5932 13.5845 24.3825C15.1584 24.0936 16.6728 23.5435 18.0653 22.7549C19.2126 22.0905 20.2452 21.2453 21.1231 20.2517C22.5909 18.5902 23.4653 16.7397 24.1156 15.0952H24.3748C25.9818 15.0952 26.97 14.4521 27.515 13.9132C27.8771 13.5695 28.1599 13.1508 28.3433 12.6864L28.4584 12.3498L28.181 12.1306Z" fill="#2496ED"/>
<path d="M2.93099 13.5211H5.41361C5.53334 13.5211 5.63037 13.424 5.63037 13.3044V11.093C5.63104 10.9732 5.53452 10.8757 5.41483 10.875C5.41443 10.875 5.414 10.875 5.41361 10.875H2.93099C2.81126 10.875 2.71423 10.9721 2.71423 11.0918V11.093V13.3043C2.71423 13.424 2.81126 13.5211 2.93099 13.5211Z" fill="#2496ED"/>
<path d="M6.35218 13.5211H8.83479C8.95452 13.5211 9.05155 13.424 9.05155 13.3044V11.093C9.05222 10.9732 8.9557 10.8757 8.83597 10.875C8.83558 10.875 8.83514 10.875 8.83475 10.875H6.35214C6.23173 10.875 6.13416 10.9726 6.13416 11.093V13.3043C6.13486 13.4242 6.23224 13.5211 6.35218 13.5211Z" fill="#2496ED"/>
<path d="M9.82544 13.5211H12.3081C12.4278 13.5211 12.5248 13.424 12.5248 13.3044V11.093C12.5255 10.9732 12.429 10.8757 12.3092 10.875C12.3088 10.875 12.3084 10.875 12.308 10.875H9.8254C9.70567 10.875 9.60864 10.9721 9.60864 11.0918V11.093V13.3043C9.60868 13.424 9.70575 13.5211 9.82544 13.5211Z" fill="#2496ED"/>
<path d="M13.2575 13.5211H15.7401C15.8601 13.5211 15.9575 13.4243 15.9581 13.3044V11.093C15.9581 10.9726 15.8605 10.875 15.7401 10.875H13.2575C13.1378 10.875 13.0408 10.9721 13.0408 11.0918V11.093V13.3043C13.0408 13.424 13.1378 13.5211 13.2575 13.5211Z" fill="#2496ED"/>
<path d="M6.35214 10.3414H8.83475C8.95464 10.3407 9.05151 10.2433 9.05151 10.1234V7.91207C9.05151 7.79234 8.95444 7.69531 8.83475 7.69531H6.35214C6.23224 7.69531 6.13482 7.79214 6.13416 7.91207V10.1234C6.13482 10.2435 6.23201 10.3407 6.35214 10.3414Z" fill="#2496ED"/>
<path d="M9.8254 10.3414H12.308C12.4279 10.3407 12.5248 10.2433 12.5248 10.1234V7.91207C12.5248 7.79234 12.4277 7.69531 12.308 7.69531H9.8254C9.70567 7.69531 9.60864 7.79238 9.60864 7.91207V10.1234C9.60864 10.2433 9.70551 10.3407 9.8254 10.3414Z" fill="#2496ED"/>
<path d="M13.2575 10.3414H15.7401C15.8603 10.3407 15.9575 10.2435 15.9581 10.1234V7.91207C15.9575 7.79214 15.8601 7.69531 15.7401 7.69531H13.2575C13.1378 7.69531 13.0408 7.79238 13.0408 7.91207V10.1234C13.0408 10.2433 13.1376 10.3407 13.2575 10.3414Z" fill="#2496ED"/>
<path d="M13.2575 7.15783H15.7401C15.8601 7.15783 15.9575 7.06096 15.9581 6.94107V4.72848C15.9575 4.60855 15.8601 4.51172 15.7401 4.51172H13.2575C13.1378 4.51172 13.0408 4.60874 13.0408 4.72848V6.94103C13.0408 7.06077 13.1378 7.15783 13.2575 7.15783Z" fill="#2496ED"/>
<path d="M16.7198 13.5211H19.2024C19.3224 13.5211 19.4197 13.4243 19.4204 13.3044V11.093C19.4204 10.9726 19.3228 10.875 19.2024 10.875H16.7198C16.6001 10.875 16.5031 10.9721 16.5031 11.0918V11.093V13.3043C16.5031 13.424 16.6001 13.5211 16.7198 13.5211Z" fill="#2496ED"/>
</svg>
