<svg width="64" height="65" viewBox="0 0 64 65" fill="none" xmlns="http://www.w3.org/2000/svg">
<path opacity="0.4" fill-rule="evenodd" clip-rule="evenodd" d="M31.9999 7.05859C18.5907 7.05859 7.67993 17.9668 7.67993 31.3786C7.67993 44.7879 18.5907 55.6986 31.9999 55.6986C45.4092 55.6986 56.3199 44.7879 56.3199 31.3786C56.3199 17.9668 45.4092 7.05859 31.9999 7.05859Z" fill="#36194F"/>
<path d="M36.0728 28.6624C36.0728 27.6026 35.2127 26.7424 34.1528 26.7424H28.6463C30.1823 24.9326 32.4607 23.8574 34.8619 24.0034C35.9192 24.0264 36.8127 23.2098 36.8511 22.1499C36.8843 21.0901 36.0575 20.1992 34.9976 20.1634C30.6815 20.1352 26.6238 22.2549 24.4554 26.0309C24.3249 26.2612 24.225 26.5044 24.1124 26.7424H23.3111C22.2513 26.7424 21.3911 27.6026 21.3911 28.6624C21.3911 29.6506 22.1489 30.4365 23.1114 30.5415C23.0679 31.1072 23.0679 31.6704 23.1114 32.2362C22.1489 32.3386 21.3911 33.1245 21.3911 34.1152C21.3911 35.1751 22.2513 36.0352 23.3111 36.0352H24.1252C24.2353 36.2682 24.3326 36.5037 24.4606 36.729C26.5367 40.3821 30.3563 42.5965 34.5112 42.5965C34.6776 42.5965 34.8466 42.5914 35.013 42.5837C36.0728 42.5402 36.892 41.6442 36.8485 40.5844C36.8024 39.5245 35.8194 38.6592 34.8466 38.7488C32.4427 38.841 30.1899 37.8272 28.6616 36.0352H34.1528C35.2127 36.0352 36.0728 35.1751 36.0728 34.1152C36.0728 33.0554 35.2127 32.1952 34.1528 32.1952H26.9951C26.9336 31.6551 26.9336 31.1226 26.9951 30.5824H34.1528C35.2127 30.5824 36.0728 29.7223 36.0728 28.6624Z" fill="#36194F"/>
</svg>
