<svg width="48" height="49" viewBox="0 0 48 49" fill="none" xmlns="http://www.w3.org/2000/svg">
<path fill-rule="evenodd" clip-rule="evenodd" d="M18.6899 15.183L18.2302 17.8156C18.1711 18.183 18.2339 18.567 18.4074 18.8993C18.7176 19.4864 19.3194 19.8205 19.9379 19.8205C20.2074 19.8205 20.4807 19.7578 20.7336 19.623L23.0265 18.3824L25.4118 19.6193C25.7422 19.7928 26.1244 19.8538 26.4881 19.7965C27.4278 19.6451 28.0702 18.7571 27.917 17.8045L27.4204 15.303L29.3607 13.4402C29.6339 13.1762 29.813 12.8199 29.8665 12.4322C29.9902 11.4944 29.3274 10.6322 28.4025 10.5104L25.8161 10.191L24.6216 7.80206C24.6179 7.79837 24.6161 7.79283 24.6142 7.78914C24.4481 7.46975 24.1914 7.21314 23.8721 7.04698C23.021 6.6076 21.9742 6.9436 21.5311 7.80021L20.4198 10.1264L17.7557 10.5085C17.3754 10.5602 17.0172 10.7393 16.7459 11.0199C16.0923 11.6993 16.1108 12.7867 16.7902 13.4476L18.6899 15.183Z" fill="#FF4D02"/>
<path opacity="0.4" fill-rule="evenodd" clip-rule="evenodd" d="M36.1108 31.8324H30.4061C29.9983 31.8324 29.6677 32.1631 29.6677 32.5709V37.6109C29.6677 38.3863 29.0585 38.9955 28.2831 38.9955C27.5261 38.9955 26.8985 38.3863 26.8985 37.6109V25.2417C26.8985 24.2632 26.1231 23.4694 25.1446 23.4694H21.0092C20.0308 23.4694 19.2554 24.2632 19.2554 25.2417V37.6109C19.2554 38.3863 18.6277 38.9955 17.8708 38.9955C17.0954 38.9955 16.4862 38.3863 16.4862 37.6109V29.1001C16.4862 28.6923 16.1556 28.3617 15.7477 28.3617H10.0431C8.10466 28.3617 6.51697 29.9309 6.51697 31.8878V38.3863C6.51697 40.3432 8.10466 41.9309 10.0431 41.9309H36.1108C38.0492 41.9309 39.6369 40.3432 39.6369 38.3863V35.3586C39.6369 33.4201 38.0492 31.8324 36.1108 31.8324Z" fill="#FF4D02"/>
</svg>
