<svg width="150" height="150" viewBox="0 0 150 150" fill="none" xmlns="http://www.w3.org/2000/svg">
<g clip-path="url(#clip0_1061_13252)">
<rect width="150" height="150" rx="75" fill="white"/>
<path fill-rule="evenodd" clip-rule="evenodd" d="M0 0H90V70H0V0Z" fill="#1A47B8"/>
<path fill-rule="evenodd" clip-rule="evenodd" d="M90 0V10H210V0H90ZM90 20V30H210V20H90ZM90 40V50H210V40H90ZM90 60V70H210V60H90ZM0 80V90H210V80H0ZM0 100V110H210V100H0ZM0 120V130H210V120H0ZM0 140V150H210V140H0Z" fill="#F93939"/>
<path fill-rule="evenodd" clip-rule="evenodd" d="M10 10V20H20V10H10ZM30 10V20H40V10H30ZM50 10V20H60V10H50ZM70 10V20H80V10H70ZM60 20V30H70V20H60ZM40 20V30H50V20H40ZM20 20V30H30V20H20ZM10 30V40H20V30H10ZM30 30V40H40V30H30ZM50 30V40H60V30H50ZM70 30V40H80V30H70ZM10 50V60H20V50H10ZM30 50V60H40V50H30ZM50 50V60H60V50H50ZM70 50V60H80V50H70ZM60 40V50H70V40H60ZM40 40V50H50V40H40ZM20 40V50H30V40H20Z" fill="white"/>
</g>
<defs>
<clipPath id="clip0_1061_13252">
<rect width="150" height="150" rx="75" fill="white"/>
</clipPath>
</defs>
</svg>
