<svg width="24" height="24" viewBox="0 0 24 24" fill="none" xmlns="http://www.w3.org/2000/svg">
<g id="Front-End Development">
<path id="Vector" fill-rule="evenodd" clip-rule="evenodd" d="M4.37557 4.52024C5.28435 3.54539 6.5785 3 8.1065 3H15.8922C17.4237 3 18.7184 3.5451 19.6268 4.5205C20.53 5.49034 20.9995 6.82926 20.9995 8.33192V15.6677C20.9995 17.1699 20.53 18.5088 19.6267 19.4788C18.7182 20.4542 17.4234 20.9995 15.8912 20.9995H8.1065C6.57482 20.9995 5.2803 20.4542 4.37219 19.4786C3.4693 18.5087 3 17.1698 3 15.6677V8.33192C3 6.82849 3.47181 5.4897 4.37557 4.52024ZM5.38835 5.46439C4.76332 6.13487 4.38462 7.11589 4.38462 8.33192V15.6677C4.38462 16.884 4.76178 17.865 5.38566 18.5352C6.00434 19.1998 6.91692 19.6149 8.1065 19.6149H15.8912C17.0814 19.6149 17.9945 19.1997 18.6135 18.5351C19.2377 17.8649 19.6149 16.8839 19.6149 15.6677V8.33192C19.6149 7.11512 19.2376 6.13422 18.6136 5.46413C17.9946 4.79959 17.0818 4.38462 15.8922 4.38462H8.1065C6.92131 4.38462 6.00837 4.7993 5.38835 5.46439Z" fill="#EC4702"/>
<path id="Vector_2" fill-rule="evenodd" clip-rule="evenodd" d="M6.03613 6.97014C6.03613 6.58779 6.34609 6.27783 6.72844 6.27783H6.73767C7.12003 6.27783 7.42998 6.58779 7.42998 6.97014C7.42998 7.35249 7.12003 7.66245 6.73767 7.66245H6.72844C6.34609 7.66245 6.03613 7.35249 6.03613 6.97014ZM8.33112 6.97014C8.33112 6.58779 8.64107 6.27783 9.02343 6.27783H9.03266C9.41501 6.27783 9.72497 6.58779 9.72497 6.97014C9.72497 7.35249 9.41501 7.66245 9.03266 7.66245H9.02343C8.64107 7.66245 8.33112 7.35249 8.33112 6.97014ZM10.6257 6.97014C10.6257 6.58779 10.9357 6.27783 11.318 6.27783H11.3272C11.7097 6.27783 12.0196 6.58779 12.0196 6.97014C12.0196 7.35249 11.7097 7.66245 11.3272 7.66245H11.318C10.9357 7.66245 10.6257 7.35249 10.6257 6.97014Z" fill="#EC4702"/>
<path id="Vector_3" fill-rule="evenodd" clip-rule="evenodd" d="M3 9.68498C3 9.30263 3.30996 8.99268 3.69231 8.99268H20.3072C20.6896 8.99268 20.9995 9.30263 20.9995 9.68498C20.9995 10.0673 20.6896 10.3773 20.3072 10.3773H3.69231C3.30996 10.3773 3 10.0673 3 9.68498Z" fill="#EC4702"/>
<path id="Vector_4" fill-rule="evenodd" clip-rule="evenodd" d="M10.8105 12.5416C11.0809 12.812 11.0809 13.2503 10.8105 13.5207L9.45812 14.8731L10.8104 16.2246C11.0808 16.4949 11.0809 16.9333 10.8106 17.2036C10.5403 17.4741 10.1019 17.4742 9.83152 17.2039L7.98951 15.3628C7.85963 15.233 7.78664 15.0568 7.78662 14.8732C7.78659 14.6896 7.85953 14.5134 7.98939 14.3836L9.8314 12.5416C10.1017 12.2713 10.5401 12.2713 10.8105 12.5416Z" fill="#EC4702"/>
<path id="Vector_5" fill-rule="evenodd" clip-rule="evenodd" d="M13.1891 12.5416C13.4595 12.2713 13.8978 12.2713 14.1682 12.5416L16.0102 14.3836C16.1401 14.5134 16.213 14.6896 16.213 14.8732C16.213 15.0568 16.14 15.233 16.0101 15.3628L14.1681 17.2039C13.8977 17.4742 13.4593 17.4741 13.189 17.2036C12.9187 16.9333 12.9188 16.4949 13.1893 16.2246L14.5415 14.8731L13.1891 13.5207C12.9187 13.2503 12.9187 12.812 13.1891 12.5416Z" fill="#EC4702"/>
</g>
</svg>
