<svg width="24" height="24" viewBox="0 0 24 24" fill="none" xmlns="http://www.w3.org/2000/svg">
<g id="Full Stack Development">
<path id="Vector" fill-rule="evenodd" clip-rule="evenodd" d="M7.0494 10.2853L5.51194 11.1657L5.12752 11.3817C4.79831 11.5667 4.79831 12.0478 5.12752 12.2328L10.3431 15.1631C11.3337 15.7196 12.5395 15.7196 13.53 15.1631L18.7457 12.2328C19.0749 12.0478 19.0749 11.5667 18.7457 11.3817L18.3663 11.1686L16.7969 10.3195L17.4821 9.05301L19.0666 9.91019L19.451 10.1263C20.7598 10.8616 20.7598 12.7529 19.451 13.4882L14.2354 16.4185C12.8068 17.2212 11.0665 17.2212 9.63781 16.4185L4.42218 13.4882C3.11342 12.7529 3.11342 10.8616 4.42218 10.1263L4.80402 9.91173L6.33377 9.03564L7.0494 10.2853Z" fill="#EC4702"/>
<path id="Vector_2" fill-rule="evenodd" clip-rule="evenodd" d="M18.6192 15.4487L16.8801 14.5643L17.5329 13.2808L19.2693 14.1639L19.2708 14.1645C20.6456 14.8579 20.6885 16.8127 19.3463 17.5668L14.2348 20.4385C12.8062 21.2412 11.0658 21.2412 9.63724 20.4385L4.60034 17.6086C3.23634 16.8423 3.30864 14.8465 4.72513 14.1825L6.47345 13.3411L7.09785 14.6388L5.33777 15.4857C4.98176 15.6516 4.96143 16.1598 5.30567 16.3532L10.3426 19.1831C11.3332 19.7396 12.5388 19.7396 13.5295 19.1831L18.641 16.3113C18.9791 16.1213 18.9672 15.6239 18.6219 15.4501L18.6192 15.4487Z" fill="#EC4702"/>
<path id="Vector_3" fill-rule="evenodd" clip-rule="evenodd" d="M13.53 4.17869C12.5395 3.62214 11.3337 3.62214 10.3431 4.17869L5.12752 7.10901C4.79831 7.29397 4.79831 7.77515 5.12752 7.96012L10.3431 10.8905C11.3337 11.447 12.5395 11.447 13.53 10.8905L18.7457 7.96012C19.0749 7.77515 19.0749 7.29397 18.7457 7.10901L13.53 4.17869ZM9.63781 2.92327C11.0665 2.12063 12.8068 2.12063 14.2354 2.92327L19.451 5.85358C20.7598 6.58888 20.7598 8.48024 19.451 9.21554L14.2354 12.1459C12.8068 12.9485 11.0665 12.9485 9.63781 12.1459L4.42218 9.21554C3.11342 8.48023 3.11343 6.58888 4.42218 5.85358L9.63781 2.92327Z" fill="#EC4702"/>
</g>
</svg>
