<svg width="24" height="25" viewBox="0 0 24 25" fill="none" xmlns="http://www.w3.org/2000/svg">
<path d="M5.46899 10.0306L2.46899 7.03055C2.39926 6.9609 2.34394 6.87818 2.30619 6.78713C2.26845 6.69609 2.24902 6.59849 2.24902 6.49993C2.24902 6.40137 2.26845 6.30377 2.30619 6.21272C2.34394 6.12168 2.39926 6.03896 2.46899 5.9693L5.46899 2.9693C5.60972 2.82857 5.80059 2.74951 5.99961 2.74951C6.19864 2.74951 6.38951 2.82857 6.53024 2.9693C6.67097 3.11003 6.75003 3.30091 6.75003 3.49993C6.75003 3.69895 6.67097 3.88982 6.53024 4.03055L4.05993 6.49993L6.53024 8.9693C6.67097 9.11003 6.75003 9.30091 6.75003 9.49993C6.75003 9.69895 6.67097 9.88982 6.53024 10.0306C6.38951 10.1713 6.19864 10.2503 5.99961 10.2503C5.80059 10.2503 5.60972 10.1713 5.46899 10.0306ZM9.21899 10.0306C9.28864 10.1003 9.37136 10.1556 9.46241 10.1933C9.55346 10.2311 9.65105 10.2505 9.74961 10.2505C9.84818 10.2505 9.94577 10.2311 10.0368 10.1933C10.1279 10.1556 10.2106 10.1003 10.2802 10.0306L13.2802 7.03055C13.35 6.9609 13.4053 6.87818 13.443 6.78713C13.4808 6.69609 13.5002 6.59849 13.5002 6.49993C13.5002 6.40137 13.4808 6.30377 13.443 6.21272C13.4053 6.12168 13.35 6.03896 13.2802 5.9693L10.2802 2.9693C10.1395 2.82857 9.94864 2.74951 9.74961 2.74951C9.55059 2.74951 9.35972 2.82857 9.21899 2.9693C9.07826 3.11003 8.9992 3.30091 8.9992 3.49993C8.9992 3.69895 9.07826 3.88982 9.21899 4.03055L11.6893 6.49993L9.21899 8.9693C9.14926 9.03896 9.09394 9.12168 9.05619 9.21272C9.01845 9.30377 8.99902 9.40137 8.99902 9.49993C8.99902 9.59849 9.01845 9.69609 9.05619 9.78713C9.09394 9.87818 9.14926 9.9609 9.21899 10.0306ZM18.7496 4.24993H16.4996C16.3007 4.24993 16.1099 4.32895 15.9693 4.4696C15.8286 4.61025 15.7496 4.80102 15.7496 4.99993C15.7496 5.19884 15.8286 5.38961 15.9693 5.53026C16.1099 5.67091 16.3007 5.74993 16.4996 5.74993H18.7496V19.2499H5.24961V13.2499C5.24961 13.051 5.1706 12.8603 5.02994 12.7196C4.88929 12.5789 4.69853 12.4999 4.49961 12.4999C4.3007 12.4999 4.10994 12.5789 3.96928 12.7196C3.82863 12.8603 3.74961 13.051 3.74961 13.2499V19.2499C3.74961 19.6478 3.90765 20.0293 4.18895 20.3106C4.47026 20.5919 4.85179 20.7499 5.24961 20.7499H18.7496C19.1474 20.7499 19.529 20.5919 19.8103 20.3106C20.0916 20.0293 20.2496 19.6478 20.2496 19.2499V5.74993C20.2496 5.3521 20.0916 4.97057 19.8103 4.68927C19.529 4.40796 19.1474 4.24993 18.7496 4.24993Z" fill="white"/>
</svg>
