<svg width="678" height="250" viewBox="0 0 678 250" fill="none" xmlns="http://www.w3.org/2000/svg">
<g opacity="0.4" clip-path="url(#clip0_675_11943)">
<g filter="url(#filter0_f_675_11943)">
<ellipse cx="570.455" cy="73.4658" rx="300.878" ry="235.589" fill="#FF4D02" fill-opacity="0.4"/>
</g>
<g opacity="0.6" clip-path="url(#clip1_675_11943)">
<rect opacity="0.03" x="59.8105" y="-3.69415" width="52.0487" height="52.0487" fill="url(#paint0_linear_675_11943)"/>
<rect opacity="0.03" x="59.8105" y="100.86" width="52.0487" height="52.0487" fill="url(#paint1_linear_675_11943)"/>
<rect opacity="0.03" x="59.8105" y="205.414" width="52.0487" height="52.0487" fill="url(#paint2_linear_675_11943)"/>
<rect opacity="0.03" x="476.2" y="48.8114" width="52.0487" height="52.0487" fill="url(#paint3_linear_675_11943)"/>
<path fill-rule="evenodd" clip-rule="evenodd" d="M112.088 100.403V48.8111H163.68V100.403H112.088ZM111.631 100.403V48.8111H-112.315V48.3545H111.631V-3.23778H-112.315V-3.69435H111.631L111.631 -55.2865H-112.315V-55.743H111.631V-98.2038H112.088V-55.743H163.68V-98.2038H164.137V-55.743H215.729V-98.2038H216.185V-55.743H267.778V-98.2038H268.234V-55.743H319.824V-98.2038H320.281V-55.743H371.873V-98.2038H372.33V-55.743H423.922V-98.2038H424.379V-55.743H475.971V-98.2038H476.427V-55.743H528.02V-98.2038H528.476V-55.743H673.665V-55.2865H528.476V-3.69435H673.665V-3.23778H528.476V48.3545H673.665V48.8111H528.476V100.403H673.665V100.86H528.476V152.452H673.665V152.909H528.476V204.5H673.665V204.957H528.476V256.549H673.665V257.005H528.476V298.096H528.02V257.005H476.427V298.096H475.971V257.005H424.379V298.096H423.922V257.005H372.33V298.096H371.873V257.005H320.281V298.096H319.824V257.005H268.234V298.096H267.778V257.005H216.185V298.096H215.729V257.005H164.136V298.096H163.68V257.005H112.088V298.096H111.631V257.005H-112.315V256.549H111.631V204.957H-112.315V204.5H111.631V152.909H-112.315V152.452H111.631V100.86H-112.315V100.403H111.631ZM112.088 256.549H163.68V204.957H112.088V256.549ZM164.136 256.549H215.729V204.957H164.136V256.549ZM216.185 256.549H267.778V204.957H216.185V256.549ZM268.234 256.549H319.824V204.957H268.234V256.549ZM320.281 256.549H371.873V204.957H320.281V256.549ZM372.33 256.549H423.922V204.957H372.33V256.549ZM424.379 256.549H475.971V204.957H424.379V256.549ZM476.427 256.549H528.02V204.957H476.427V256.549ZM528.02 152.909V204.5H476.427V152.909H528.02ZM475.971 152.909V204.5H424.379V152.909H475.971ZM423.922 152.909V204.5H372.33V152.909H423.922ZM371.873 152.909V204.5H320.281V152.909H371.873ZM319.824 152.909V204.5H268.234V152.909H319.824ZM267.778 152.909V204.5H216.185V152.909H267.778ZM215.729 152.909V204.5H164.136V152.909H215.729ZM163.68 152.909V204.5H112.088V152.909H163.68ZM112.088 152.452H163.68V100.86H112.088V152.452ZM164.136 152.452H215.729V100.86H164.136V152.452ZM216.185 152.452H267.778V100.86H216.185V152.452ZM268.234 152.452H319.824V100.86H268.234V152.452ZM320.281 152.452H371.873V100.86H320.281V152.452ZM372.33 152.452H423.922V100.86H372.33V152.452ZM424.379 152.452H475.971V100.86H424.379V152.452ZM476.427 152.452H528.02V100.86H476.427V152.452ZM112.088 -3.69435L112.088 -55.2865H163.68V-3.69435H112.088ZM164.136 -3.69435L164.137 -55.2865H215.729V-3.69435H164.136ZM216.185 -3.69435L216.185 -55.2865H267.778V-3.69435H216.185ZM268.234 -3.69435L268.234 -55.2865H319.824V-3.69435H268.234ZM320.281 -3.69435L320.281 -55.2865H371.873V-3.69435H320.281ZM372.33 -3.69435L372.33 -55.2865H423.922V-3.69435H372.33ZM424.379 -3.69435V-55.2865H475.971V-3.69435H424.379ZM476.427 -3.69435V-55.2865H528.02V-3.69435H476.427ZM528.02 -3.23778H476.427V48.3545H528.02V-3.23778ZM475.971 -3.23778H424.379V48.3545H475.971V-3.23778ZM423.922 -3.23778H372.33V48.3545H423.922V-3.23778ZM371.873 -3.23778H320.281V48.3545H371.873V-3.23778ZM319.824 -3.23778H268.234V48.3545H319.824V-3.23778ZM267.778 -3.23778H216.185V48.3545H267.778V-3.23778ZM215.729 -3.23778H164.136V48.3545H215.729V-3.23778ZM163.68 -3.23778H112.088V48.3545H163.68V-3.23778ZM164.136 100.403V48.8111H215.729V100.403H164.136ZM216.185 100.403V48.8111H267.778V100.403H216.185ZM268.234 100.403V48.8111H319.824V100.403H268.234ZM320.281 100.403V48.8111H371.873V100.403H320.281ZM372.33 100.403V48.8111H423.922V100.403H372.33ZM424.379 100.403V48.8111H475.971V100.403H424.379ZM476.427 100.403V48.8111H528.02V100.403H476.427Z" fill="url(#paint4_radial_675_11943)"/>
<rect opacity="0.5" x="163.908" y="47.8978" width="52.0487" height="0.913134" fill="url(#paint5_linear_675_11943)"/>
<rect opacity="0.5" x="372.103" y="151.995" width="52.0487" height="0.913134" fill="url(#paint6_linear_675_11943)"/>
<rect x="267.549" y="151.083" width="52.0487" height="0.913134" transform="rotate(-90 267.549 151.083)" fill="url(#paint7_linear_675_11943)"/>
<rect opacity="0.3" x="371.646" y="48.8114" width="52.0487" height="0.913134" transform="rotate(-90 371.646 48.8114)" fill="url(#paint8_linear_675_11943)"/>
<rect opacity="0.02" x="215.957" y="100.403" width="52.0487" height="52.0487" fill="white"/>
</g>
</g>
<defs>
<filter id="filter0_f_675_11943" x="-159.596" y="-591.296" width="1460.1" height="1329.52" filterUnits="userSpaceOnUse" color-interpolation-filters="sRGB">
<feFlood flood-opacity="0" result="BackgroundImageFix"/>
<feBlend mode="normal" in="SourceGraphic" in2="BackgroundImageFix" result="shape"/>
<feGaussianBlur stdDeviation="214.587" result="effect1_foregroundBlur_675_11943"/>
</filter>
<linearGradient id="paint0_linear_675_11943" x1="111.859" y1="23.2433" x2="59.8105" y2="22.3302" gradientUnits="userSpaceOnUse">
<stop stop-color="white"/>
<stop offset="1" stop-color="white" stop-opacity="0"/>
</linearGradient>
<linearGradient id="paint1_linear_675_11943" x1="111.859" y1="127.798" x2="59.8105" y2="126.884" gradientUnits="userSpaceOnUse">
<stop stop-color="white"/>
<stop offset="1" stop-color="white" stop-opacity="0"/>
</linearGradient>
<linearGradient id="paint2_linear_675_11943" x1="111.859" y1="232.351" x2="59.8105" y2="231.438" gradientUnits="userSpaceOnUse">
<stop stop-color="white"/>
<stop offset="1" stop-color="white" stop-opacity="0"/>
</linearGradient>
<linearGradient id="paint3_linear_675_11943" x1="528.249" y1="75.7489" x2="476.2" y2="74.8357" gradientUnits="userSpaceOnUse">
<stop stop-color="white" stop-opacity="0"/>
<stop offset="1" stop-color="white"/>
</linearGradient>
<radialGradient id="paint4_radial_675_11943" cx="0" cy="0" r="1" gradientUnits="userSpaceOnUse" gradientTransform="translate(280.675 99.9464) rotate(89.9536) scale(141.079 279.802)">
<stop stop-color="white" stop-opacity="0.2"/>
<stop offset="1" stop-color="white" stop-opacity="0"/>
</radialGradient>
<linearGradient id="paint5_linear_675_11943" x1="163.908" y1="48.3544" x2="215.957" y2="48.3544" gradientUnits="userSpaceOnUse">
<stop stop-color="white" stop-opacity="0"/>
<stop offset="0.5027" stop-color="white"/>
<stop offset="1" stop-color="white" stop-opacity="0"/>
</linearGradient>
<linearGradient id="paint6_linear_675_11943" x1="372.103" y1="152.452" x2="424.151" y2="152.452" gradientUnits="userSpaceOnUse">
<stop stop-color="white" stop-opacity="0"/>
<stop offset="0.5027" stop-color="white"/>
<stop offset="1" stop-color="white" stop-opacity="0"/>
</linearGradient>
<linearGradient id="paint7_linear_675_11943" x1="267.549" y1="151.539" x2="319.597" y2="151.539" gradientUnits="userSpaceOnUse">
<stop stop-color="white" stop-opacity="0"/>
<stop offset="0.5027" stop-color="white"/>
<stop offset="1" stop-color="white" stop-opacity="0"/>
</linearGradient>
<linearGradient id="paint8_linear_675_11943" x1="371.646" y1="49.268" x2="423.694" y2="49.268" gradientUnits="userSpaceOnUse">
<stop stop-color="white" stop-opacity="0"/>
<stop offset="0.5027" stop-color="white"/>
<stop offset="1" stop-color="white" stop-opacity="0"/>
</linearGradient>
<clipPath id="clip0_675_11943">
<rect width="871.333" height="477.113" fill="white" transform="translate(0 -162.123)"/>
</clipPath>
<clipPath id="clip1_675_11943">
<rect width="588.059" height="396.3" fill="white" transform="translate(0 -98.2032)"/>
</clipPath>
</defs>
</svg>
