<svg width="24" height="24" viewBox="0 0 24 24" fill="none" xmlns="http://www.w3.org/2000/svg">
<g id="Game Development">
<path id="Vector" d="M5.61026 18.5095C5.11695 18.5058 4.62815 18.4149 4.16655 18.2409C2.24194 17.4572 2.29547 15.2686 2.31301 14.5486C2.31301 14.5116 2.4247 7.6679 5.48747 6.06729L5.64071 5.99621C6.30822 5.63722 7.05864 5.46073 7.81618 5.48455C8.57372 5.50838 9.31154 5.73168 9.9552 6.1319C11.0989 6.81314 11.386 6.93037 12.6524 6.13929C13.2988 5.73464 14.0409 5.50879 14.8032 5.48479C15.5654 5.46079 16.3203 5.6395 16.9909 6.00267L17.0906 6.0479C17.1026 6.05437 17.1164 6.0599 17.1294 6.06729C20.2106 7.67806 20.3047 14.5144 20.3029 14.5818C20.3214 15.2676 20.3767 17.4562 18.4724 18.2326C17.9241 18.4668 17.3254 18.5589 16.7321 18.4999C16.1387 18.441 15.5698 18.2331 15.0783 17.8956C14.7814 17.6664 14.5199 17.3949 14.302 17.0898C14.0799 16.7617 13.7848 16.4896 13.4398 16.295C12.0578 15.83 10.5618 15.8283 9.17888 16.2904C8.81121 16.4885 8.49773 16.7737 8.26594 17.1212C8.06579 17.4178 7.81817 17.6794 7.53301 17.8956C6.97523 18.3025 6.30068 18.5179 5.61026 18.5095ZM7.70009 6.86114C7.18449 6.87646 6.67929 7.00971 6.22319 7.25067L6.0884 7.31252C4.11763 8.34452 3.68841 13.6273 3.69487 14.5559C3.65148 16.3098 4.18963 16.7566 4.66409 16.9504C4.99079 17.1014 5.35101 17.1654 5.70976 17.1361C6.0685 17.1069 6.4136 16.9853 6.71149 16.7833C6.88412 16.6484 7.03294 16.4855 7.15179 16.3015C7.49629 15.7989 7.95415 15.3843 8.48841 15.0913C10.2995 14.3886 12.308 14.3886 14.1192 15.0913C14.6267 15.3766 15.0644 15.7715 15.4004 16.247C15.5412 16.4508 15.711 16.633 15.9044 16.7879C16.2064 16.9906 16.5557 17.1118 16.9183 17.1394C17.281 17.167 17.6447 17.1003 17.974 16.9458C18.4254 16.7612 18.9644 16.3172 18.9201 14.5873C18.9266 13.6319 18.5075 8.37683 16.5044 7.30606L16.4121 7.26452C15.9491 6.99929 15.4231 6.86415 14.8896 6.87342C14.3562 6.88268 13.8351 7.03599 13.3817 7.31714C11.661 8.39344 10.797 8.25406 9.24351 7.32452C8.78118 7.03158 8.24729 6.87129 7.70009 6.86114Z" fill="#EC4702"/>
<path id="Vector_2" d="M13.6848 11.9178C13.5942 11.9183 13.5042 11.9009 13.4203 11.8665C13.3364 11.8322 13.2602 11.7816 13.1958 11.7177C13.1315 11.6539 13.0805 11.5779 13.0456 11.4942C13.0107 11.4105 12.9926 11.3208 12.9925 11.2301V11.2208C12.9934 11.0841 13.0348 10.9507 13.1114 10.8375C13.188 10.7242 13.2965 10.6363 13.423 10.5846C13.5497 10.5329 13.6887 10.5199 13.8226 10.5471C13.9566 10.5743 14.0796 10.6406 14.176 10.7376C14.2723 10.8346 14.3378 10.9579 14.3641 11.0921C14.3905 11.2263 14.3765 11.3652 14.3239 11.4915C14.2714 11.6177 14.1827 11.7256 14.069 11.8015C13.9552 11.8773 13.8215 11.9178 13.6848 11.9178Z" fill="#EC4702"/>
<path id="Vector_3" d="M16.3332 11.9178C16.2426 11.9183 16.1527 11.9009 16.0687 11.8665C15.9848 11.8322 15.9086 11.7816 15.8443 11.7177C15.7799 11.6539 15.7289 11.5779 15.694 11.4942C15.6591 11.4105 15.6411 11.3208 15.6409 11.2301V11.2208C15.6418 11.0841 15.6832 10.9507 15.7599 10.8375C15.8365 10.7242 15.9449 10.6363 16.0715 10.5846C16.1981 10.5329 16.3371 10.5199 16.4711 10.5471C16.6051 10.5743 16.728 10.6406 16.8244 10.7376C16.9207 10.8346 16.9862 10.9579 17.0126 11.0921C17.0389 11.2263 17.025 11.3652 16.9723 11.4915C16.9198 11.6177 16.8311 11.7256 16.7174 11.8015C16.6036 11.8773 16.47 11.9178 16.3332 11.9178Z" fill="#EC4702"/>
<path id="Vector_4" d="M15.0127 10.5936C14.8287 10.5936 14.6521 10.5208 14.5216 10.3911C14.391 10.2614 14.317 10.0853 14.3158 9.90129C14.3153 9.81063 14.3328 9.72077 14.367 9.63685C14.4014 9.55294 14.452 9.47663 14.5158 9.41231C14.5798 9.34798 14.6558 9.29692 14.7394 9.26203C14.8231 9.22713 14.9129 9.2091 15.0035 9.20898H15.0127C15.1963 9.20898 15.3725 9.28193 15.5022 9.41176C15.6321 9.5416 15.705 9.71768 15.705 9.90129C15.705 10.0849 15.6321 10.261 15.5022 10.3908C15.3725 10.5206 15.1963 10.5936 15.0127 10.5936Z" fill="#EC4702"/>
<path id="Vector_5" d="M15.0127 13.242C14.8287 13.242 14.6521 13.1692 14.5216 13.0395C14.391 12.9098 14.317 12.7338 14.3158 12.5497C14.3153 12.4591 14.3328 12.3692 14.367 12.2853C14.4014 12.2014 14.452 12.1251 14.5158 12.0608C14.5798 11.9964 14.6558 11.9454 14.7394 11.9105C14.8231 11.8756 14.9129 11.8575 15.0035 11.8574H15.0127C15.1963 11.8574 15.3725 11.9303 15.5022 12.0602C15.6321 12.19 15.705 12.3661 15.705 12.5497C15.705 12.7333 15.6321 12.9095 15.5022 13.0392C15.3725 13.1691 15.1963 13.242 15.0127 13.242Z" fill="#EC4702"/>
<path id="Vector_6" d="M7.61669 13.2375C7.21774 13.2376 6.82769 13.1195 6.49588 12.898C6.16408 12.6765 5.90544 12.3616 5.75265 11.9931C5.59985 11.6245 5.55977 11.219 5.63748 10.8276C5.71521 10.4363 5.90722 10.0769 6.18925 9.79469C6.47129 9.51252 6.83067 9.32034 7.22194 9.24244C7.61321 9.16454 8.01879 9.20442 8.3874 9.35706C8.75599 9.50969 9.07105 9.7682 9.29269 10.0999C9.51442 10.4316 9.63266 10.8216 9.63266 11.2205C9.63192 11.7551 9.41934 12.2675 9.04147 12.6456C8.66358 13.0237 8.15123 13.2364 7.61669 13.2375ZM7.61669 10.5882C7.49159 10.588 7.36926 10.625 7.26516 10.6944C7.16105 10.7637 7.07985 10.8624 7.03185 10.978C6.98385 11.0934 6.97118 11.2206 6.99548 11.3433C7.01977 11.4661 7.07994 11.5788 7.16833 11.6673C7.25673 11.7558 7.36938 11.8162 7.49207 11.8407C7.61474 11.8651 7.74191 11.8527 7.85751 11.8048C7.97311 11.7569 8.07192 11.6759 8.14144 11.572C8.21096 11.4679 8.24807 11.3456 8.24807 11.2205C8.24807 11.053 8.1816 10.8923 8.06321 10.7738C7.94483 10.6552 7.78423 10.5885 7.61669 10.5882Z" fill="#EC4702"/>
</g>
</svg>
