<svg width="366" height="54" viewBox="0 0 366 54" fill="none" xmlns="http://www.w3.org/2000/svg">
<path d="M0.696 6.138V4.878H8.158V6.138H5.12V15H3.748V6.138H0.696ZM11.1599 15.168C9.14391 15.168 7.75791 13.712 7.75791 11.584C7.75791 9.442 9.11591 7.958 11.1039 7.958C13.0499 7.958 14.3239 9.302 14.3239 11.332V11.822L9.03191 11.836C9.12991 13.278 9.88591 14.076 11.1879 14.076C12.2099 14.076 12.8819 13.656 13.1059 12.872H14.3379C14.0019 14.342 12.8539 15.168 11.1599 15.168ZM11.1039 9.064C9.95591 9.064 9.22791 9.75 9.05991 10.954H13.0079C13.0079 9.82 12.2659 9.064 11.1039 9.064ZM15.3458 11.584C15.3458 9.442 16.7038 7.958 18.7058 7.958C20.4278 7.958 21.6318 8.938 21.8698 10.464H20.5538C20.3298 9.596 19.6298 9.134 18.7478 9.134C17.5018 9.134 16.6478 10.086 16.6478 11.57C16.6478 13.04 17.4458 13.992 18.6918 13.992C19.6298 13.992 20.3298 13.502 20.5678 12.69H21.8838C21.6178 14.174 20.3438 15.168 18.6918 15.168C16.6758 15.168 15.3458 13.74 15.3458 11.584ZM24.5883 14.986H23.2723V4.696H24.5883V9.204C25.0223 8.462 25.8483 7.958 26.9123 7.958C28.6623 7.958 29.5023 9.064 29.5023 10.814V15H28.1863V11.108C28.1863 9.722 27.5283 9.162 26.5483 9.162C25.2743 9.162 24.5883 10.086 24.5883 11.262V14.986ZM32.641 15H31.325V8.154H32.515L32.655 9.204C33.089 8.42 33.957 7.958 34.923 7.958C36.729 7.958 37.555 9.064 37.555 10.814V15H36.239V11.108C36.239 9.722 35.595 9.162 34.587 9.162C33.355 9.162 32.641 10.044 32.641 11.374V15ZM40.0218 6.53C39.5458 6.53 39.1538 6.138 39.1538 5.662C39.1538 5.172 39.5458 4.794 40.0218 4.794C40.4978 4.794 40.8898 5.172 40.8898 5.662C40.8898 6.138 40.4978 6.53 40.0218 6.53ZM39.3778 15V8.154H40.6938V15H39.3778ZM42.1563 11.584C42.1563 9.442 43.5143 7.958 45.5163 7.958C47.2383 7.958 48.4423 8.938 48.6803 10.464H47.3643C47.1403 9.596 46.4403 9.134 45.5583 9.134C44.3123 9.134 43.4583 10.086 43.4583 11.57C43.4583 13.04 44.2563 13.992 45.5023 13.992C46.4403 13.992 47.1403 13.502 47.3783 12.69H48.6943C48.4283 14.174 47.1543 15.168 45.5023 15.168C43.4863 15.168 42.1563 13.74 42.1563 11.584ZM52.0849 15.168C50.6149 15.168 49.7469 14.342 49.7469 13.096C49.7469 11.836 50.6849 11.052 52.2949 10.926L54.4509 10.758V10.562C54.4509 9.414 53.7649 9.008 52.8409 9.008C51.7349 9.008 51.1049 9.498 51.1049 10.324H49.9569C49.9569 8.896 51.1329 7.958 52.8969 7.958C54.5909 7.958 55.7389 8.854 55.7389 10.702V15H54.6189L54.4789 13.894C54.1289 14.678 53.1909 15.168 52.0849 15.168ZM52.4629 14.146C53.7089 14.146 54.4649 13.334 54.4649 12.046V11.682L52.7149 11.822C51.5529 11.934 51.0769 12.382 51.0769 13.054C51.0769 13.782 51.6089 14.146 52.4629 14.146ZM58.9054 15H57.5894V4.696H58.9054V15ZM65.3148 15H63.8868L67.5828 4.878H69.1088L72.8188 15H71.3768L70.4668 12.48H66.2108L65.3148 15ZM68.1708 7.062L66.6308 11.29H70.0608L68.5068 7.062C68.4368 6.866 68.3668 6.628 68.3388 6.474C68.3108 6.614 68.2408 6.852 68.1708 7.062ZM73.3803 13.012H74.6403C74.6403 13.712 75.1723 14.132 76.0403 14.132C76.9643 14.132 77.4963 13.754 77.4963 13.124C77.4963 12.662 77.2723 12.382 76.5583 12.2L75.3543 11.92C74.1363 11.626 73.5623 11.024 73.5623 10.016C73.5623 8.756 74.6263 7.958 76.1383 7.958C77.6363 7.958 78.6163 8.798 78.6443 10.1H77.3843C77.3563 9.414 76.8943 8.98 76.0963 8.98C75.2703 8.98 74.8083 9.344 74.8083 9.974C74.8083 10.436 75.1443 10.744 75.8163 10.912L77.0203 11.206C78.1823 11.486 78.7563 12.018 78.7563 13.04C78.7563 14.342 77.6363 15.168 76.0123 15.168C74.4023 15.168 73.3803 14.314 73.3803 13.012ZM79.6557 13.012H80.9157C80.9157 13.712 81.4477 14.132 82.3157 14.132C83.2397 14.132 83.7717 13.754 83.7717 13.124C83.7717 12.662 83.5477 12.382 82.8337 12.2L81.6297 11.92C80.4117 11.626 79.8377 11.024 79.8377 10.016C79.8377 8.756 80.9017 7.958 82.4137 7.958C83.9117 7.958 84.8917 8.798 84.9197 10.1H83.6597C83.6317 9.414 83.1697 8.98 82.3717 8.98C81.5457 8.98 81.0837 9.344 81.0837 9.974C81.0837 10.436 81.4197 10.744 82.0917 10.912L83.2957 11.206C84.4577 11.486 85.0317 12.018 85.0317 13.04C85.0317 14.342 83.9117 15.168 82.2877 15.168C80.6777 15.168 79.6557 14.314 79.6557 13.012ZM87.1351 6.53C86.6591 6.53 86.2671 6.138 86.2671 5.662C86.2671 5.172 86.6591 4.794 87.1351 4.794C87.6111 4.794 88.0031 5.172 88.0031 5.662C88.0031 6.138 87.6111 6.53 87.1351 6.53ZM86.4911 15V8.154H87.8071V15H86.4911ZM89.1576 13.012H90.4176C90.4176 13.712 90.9496 14.132 91.8176 14.132C92.7416 14.132 93.2736 13.754 93.2736 13.124C93.2736 12.662 93.0496 12.382 92.3356 12.2L91.1316 11.92C89.9136 11.626 89.3396 11.024 89.3396 10.016C89.3396 8.756 90.4036 7.958 91.9156 7.958C93.4136 7.958 94.3936 8.798 94.4216 10.1H93.1616C93.1336 9.414 92.6716 8.98 91.8736 8.98C91.0476 8.98 90.5856 9.344 90.5856 9.974C90.5856 10.436 90.9216 10.744 91.5936 10.912L92.7976 11.206C93.9596 11.486 94.5336 12.018 94.5336 13.04C94.5336 14.342 93.4136 15.168 91.7896 15.168C90.1796 15.168 89.1576 14.314 89.1576 13.012ZM97.309 15H95.993V8.154H97.169L97.295 9.05C97.645 8.406 98.373 7.958 99.339 7.958C100.403 7.958 101.159 8.49 101.509 9.344C101.831 8.49 102.657 7.958 103.721 7.958C105.289 7.958 106.241 8.938 106.241 10.52V15H104.953V10.842C104.953 9.764 104.351 9.148 103.427 9.148C102.433 9.148 101.775 9.848 101.775 10.94V15H100.473V10.828C100.473 9.75 99.885 9.162 98.961 9.162C97.967 9.162 97.309 9.848 97.309 10.94V15ZM111.019 15.168C109.003 15.168 107.617 13.712 107.617 11.584C107.617 9.442 108.975 7.958 110.963 7.958C112.909 7.958 114.183 9.302 114.183 11.332V11.822L108.891 11.836C108.989 13.278 109.745 14.076 111.047 14.076C112.069 14.076 112.741 13.656 112.965 12.872H114.197C113.861 14.342 112.713 15.168 111.019 15.168ZM110.963 9.064C109.815 9.064 109.087 9.75 108.919 10.954H112.867C112.867 9.82 112.125 9.064 110.963 9.064ZM116.969 15H115.653V8.154H116.843L116.983 9.204C117.417 8.42 118.285 7.958 119.251 7.958C121.057 7.958 121.883 9.064 121.883 10.814V15H120.567V11.108C120.567 9.722 119.923 9.162 118.915 9.162C117.683 9.162 116.969 10.044 116.969 11.374V15ZM125.638 15H124.322V9.26H122.978V8.154H124.322V6.012H125.638V8.154H126.982V9.26H125.638V15Z" fill="white"/>
<path d="M1.088 46.668C1.088 43.98 2.48 42.156 4.664 42.156C6.836 42.156 8.228 43.98 8.228 46.668C8.228 49.368 6.896 51.156 4.664 51.156C2.42 51.156 1.088 49.368 1.088 46.668ZM2.252 46.668C2.252 48.804 3.14 50.1 4.664 50.1C6.188 50.1 7.064 48.804 7.064 46.668C7.064 44.508 6.188 43.212 4.664 43.212C3.14 43.212 2.252 44.508 2.252 46.668Z" fill="white"/>
<path d="M354.744 43.38H352.92V42.324H355.872V51H354.744V43.38ZM357.459 46.668C357.459 43.98 358.851 42.156 361.035 42.156C363.207 42.156 364.599 43.98 364.599 46.668C364.599 49.368 363.267 51.156 361.035 51.156C358.791 51.156 357.459 49.368 357.459 46.668ZM358.623 46.668C358.623 48.804 359.511 50.1 361.035 50.1C362.559 50.1 363.435 48.804 363.435 46.668C363.435 44.508 362.559 43.212 361.035 43.212C359.511 43.212 358.623 44.508 358.623 46.668Z" fill="white"/>
<rect x="0.5" y="28" width="365" height="6" rx="3" fill="#D9D9D9"/>
<rect x="0.5" y="28" width="330" height="6" rx="3" fill="#95C93D"/>
<rect x="312.5" width="32" height="20" rx="3" fill="#95C93D"/>
<path d="M327.244 23.1271C327.643 23.5876 328.357 23.5876 328.756 23.1271L331.897 19.5H324.103L327.244 23.1271Z" fill="#95C93D"/>
<path d="M326.898 11.99L324.686 15H322.642L325.092 11.738C324.84 11.808 324.574 11.85 324.322 11.85C322.208 11.85 320.78 10.366 320.78 8.294C320.78 6.11 322.404 4.584 324.588 4.584C326.8 4.584 328.452 6.208 328.452 8.308C328.452 9.54 328.046 10.436 326.898 11.99ZM326.618 8.294C326.618 7.048 325.792 6.18 324.588 6.18C323.412 6.18 322.586 7.048 322.586 8.294C322.586 9.526 323.412 10.38 324.588 10.38C325.806 10.38 326.618 9.526 326.618 8.294ZM330.482 15.168C329.866 15.168 329.348 14.664 329.348 14.062C329.348 13.446 329.866 12.942 330.482 12.942C331.098 12.942 331.616 13.446 331.616 14.062C331.616 14.664 331.098 15.168 330.482 15.168ZM333.862 6.376H331.622V4.766H335.584V15H333.862V6.376Z" fill="white"/>
</svg>
