<svg width="24" height="24" viewBox="0 0 24 24" fill="none" xmlns="http://www.w3.org/2000/svg">
<path d="M11.0453 20.3861C11.0149 20.5078 10.9448 20.616 10.8459 20.6933C10.747 20.7706 10.6251 20.8126 10.4996 20.8126C10.4535 20.8125 10.4076 20.8068 10.3628 20.7957L7.36277 20.0457C7.3004 20.0298 7.24114 20.0035 7.18746 19.9679L4.93746 18.4679C4.8759 18.4269 4.82302 18.3742 4.78184 18.3128C4.74066 18.2514 4.71198 18.1824 4.69744 18.1099C4.66808 17.9634 4.6981 17.8113 4.78089 17.687C4.86369 17.5627 4.99248 17.4763 5.13894 17.447C5.21145 17.4324 5.28612 17.4323 5.35869 17.4466C5.43125 17.461 5.50028 17.4894 5.56183 17.5304L7.73027 18.9761L10.6365 19.7026C10.7083 19.7206 10.7758 19.7525 10.8352 19.7966C10.8946 19.8407 10.9447 19.8961 10.9827 19.9596C11.0206 20.023 11.0457 20.0934 11.0564 20.1666C11.0672 20.2398 11.0634 20.3143 11.0453 20.3861ZM23.4887 11.3298C23.4349 11.4933 23.3492 11.6446 23.2365 11.7747C23.1239 11.9049 22.9865 12.0115 22.8325 12.0883L20.5825 13.2133L15.3971 18.3986C15.2916 18.5037 15.1486 18.5627 14.9996 18.5626C14.9535 18.5626 14.9075 18.5569 14.8628 18.5457L8.86277 17.0457C8.79535 17.0282 8.73177 16.9984 8.67527 16.9576L3.45902 13.2339L1.16871 12.0883C0.857449 11.9326 0.620769 11.6596 0.510714 11.3295C0.400659 10.9993 0.42624 10.6389 0.581832 10.3276L2.91152 5.66919C3.06721 5.35793 3.34015 5.12125 3.67031 5.01119C4.00048 4.90114 4.36084 4.92672 4.67214 5.08231L6.80589 6.14919L11.845 4.70919C11.9461 4.68027 12.0532 4.68027 12.1543 4.70919L17.1934 6.14919L19.3271 5.08231C19.6385 4.92672 19.9988 4.90114 20.329 5.01119C20.6591 5.12125 20.9321 5.35793 21.0878 5.66919L23.4175 10.3276C23.4949 10.4817 23.5411 10.6496 23.5533 10.8216C23.5655 10.9936 23.5436 11.1663 23.4887 11.3298ZM1.67214 11.0823L3.49839 12.0001L5.99964 7.00138L4.16871 6.08825C4.1242 6.06615 4.07273 6.06262 4.02562 6.07844C3.97851 6.09426 3.9396 6.12814 3.91746 6.17262L1.58777 10.8311C1.56597 10.8755 1.5626 10.9267 1.57839 10.9736C1.58572 10.9972 1.59783 11.019 1.61396 11.0377C1.63009 11.0564 1.64989 11.0716 1.67214 11.0823ZM17.9059 14.2961L15.025 11.9889C13.2437 13.5245 10.9393 13.7514 9.04371 12.5401C8.87786 12.4347 8.73781 12.2933 8.63391 12.1265C8.53001 11.9596 8.4649 11.7716 8.44339 11.5762C8.42189 11.3809 8.44453 11.1832 8.50965 10.9977C8.57477 10.8123 8.68071 10.6438 8.81964 10.5048L13.1059 6.34606C13.1682 6.28593 13.2436 6.24102 13.3262 6.21481L11.9996 5.83513L7.14246 7.21888L4.46777 12.572L9.23965 15.9798L14.8271 17.3767L17.9059 14.2961ZM19.5634 12.6386L16.9018 7.31263H13.7275L9.61089 11.3064C9.59263 11.3255 9.57887 11.3485 9.57059 11.3736C9.56232 11.3988 9.55976 11.4254 9.56308 11.4517C9.56599 11.4803 9.57546 11.5079 9.59074 11.5323C9.60602 11.5567 9.62671 11.5772 9.65121 11.5923C10.8971 12.3883 12.8518 12.6114 14.6003 10.8498C14.6981 10.7516 14.8288 10.693 14.9672 10.6852C15.1056 10.6774 15.242 10.721 15.3503 10.8076L18.7084 13.5001L19.5634 12.6386ZM22.4096 10.8311L20.0818 6.17262C20.0597 6.12814 20.0208 6.09426 19.9737 6.07844C19.9266 6.06262 19.8751 6.06615 19.8306 6.08825L18.0043 7.00138L20.5009 12.0001L22.3271 11.087C22.3494 11.0763 22.3692 11.0611 22.3853 11.0424C22.4015 11.0237 22.4136 11.0018 22.4209 10.9783C22.4294 10.9544 22.4329 10.929 22.4313 10.9037C22.4297 10.8784 22.423 10.8537 22.4115 10.8311H22.4096Z" fill="#FF4D04"/>
</svg>
