<svg width="24" height="25" viewBox="0 0 24 25" fill="none" xmlns="http://www.w3.org/2000/svg">
<path d="M16.6875 3.48413C14.7516 3.48413 13.0566 4.31663 12 5.72382C10.9434 4.31663 9.24844 3.48413 7.3125 3.48413C5.77146 3.48587 4.29404 4.09881 3.20436 5.18849C2.11468 6.27817 1.50174 7.75559 1.5 9.29663C1.5 15.8591 11.2303 21.171 11.6447 21.3904C11.7539 21.4491 11.876 21.4799 12 21.4799C12.124 21.4799 12.2461 21.4491 12.3553 21.3904C12.7697 21.171 22.5 15.8591 22.5 9.29663C22.4983 7.75559 21.8853 6.27817 20.7956 5.18849C19.706 4.09881 18.2285 3.48587 16.6875 3.48413ZM12 19.8716C10.2881 18.8741 3 14.3301 3 9.29663C3.00149 8.15334 3.45632 7.05731 4.26475 6.24888C5.07317 5.44045 6.16921 4.98562 7.3125 4.98413C9.13594 4.98413 10.6669 5.95538 11.3062 7.51538C11.3628 7.65294 11.4589 7.77059 11.5824 7.85339C11.7059 7.9362 11.8513 7.98041 12 7.98041C12.1487 7.98041 12.2941 7.9362 12.4176 7.85339C12.5411 7.77059 12.6372 7.65294 12.6937 7.51538C13.3331 5.95257 14.8641 4.98413 16.6875 4.98413C17.8308 4.98562 18.9268 5.44045 19.7353 6.24888C20.5437 7.05731 20.9985 8.15334 21 9.29663C21 14.3226 13.71 18.8732 12 19.8716Z" fill="white"/>
</svg>
