<svg width="20" height="20" viewBox="0 0 20 20" fill="none" xmlns="http://www.w3.org/2000/svg">
<path d="M11.4411 2.92495L12.9078 5.85828C13.1078 6.26662 13.6411 6.65828 14.0911 6.73328L16.7494 7.17495C18.4494 7.45828 18.8494 8.69162 17.6244 9.90828L15.5578 11.975C15.2078 12.325 15.0161 13 15.1244 13.4833L15.7161 16.0416C16.1828 18.0666 15.1078 18.85 13.3161 17.7916L10.8244 16.3166C10.3744 16.05 9.63277 16.05 9.17444 16.3166L6.68277 17.7916C4.89944 18.85 3.8161 18.0583 4.28277 16.0416L4.87444 13.4833C4.98277 13 4.7911 12.325 4.4411 11.975L2.37444 9.90828C1.15777 8.69162 1.54944 7.45828 3.24944 7.17495L5.90777 6.73328C6.34944 6.65828 6.88277 6.26662 7.08277 5.85828L8.54944 2.92495C9.34944 1.33328 10.6494 1.33328 11.4411 2.92495Z" stroke="#292D32" stroke-width="1.25" stroke-linecap="round" stroke-linejoin="round"/>
</svg>
