<svg width="49" height="49" viewBox="0 0 49 49" fill="none" xmlns="http://www.w3.org/2000/svg">
<g opacity="0.4">
<path fill-rule="evenodd" clip-rule="evenodd" d="M10.0206 30.8553C7.75863 30.8553 5.91663 32.7033 5.91663 34.9753V39.9353C5.91663 42.1953 7.75863 44.0353 10.0206 44.0353C12.2826 44.0353 14.1246 42.1953 14.1246 39.9353V34.9753C14.1246 32.7033 12.2826 30.8553 10.0206 30.8553Z" fill="#FF4D02"/>
<path fill-rule="evenodd" clip-rule="evenodd" d="M24.9152 23.4139C22.6532 23.4139 20.8132 25.2539 20.8132 27.5159V39.9359C20.8132 42.1959 22.6532 44.0359 24.9152 44.0359C27.1772 44.0359 29.0192 42.1959 29.0192 39.9359V27.5159C29.0192 25.2539 27.1772 23.4139 24.9152 23.4139Z" fill="#FF4D02"/>
<path fill-rule="evenodd" clip-rule="evenodd" d="M39.8136 6.03503C37.5516 6.03503 35.7096 7.87503 35.7096 10.135V39.935C35.7096 42.195 37.5516 44.035 39.8136 44.035C42.0756 44.035 43.9176 42.195 43.9176 39.935V10.135C43.9176 7.87503 42.0756 6.03503 39.8136 6.03503Z" fill="#FF4D02"/>
</g>
<path fill-rule="evenodd" clip-rule="evenodd" d="M7.97715 24.237L21.5552 10.657V15.735C21.5552 16.563 22.2272 17.235 23.0552 17.235C23.8832 17.235 24.5552 16.563 24.5552 15.735V7.01103C24.5512 6.81703 24.5132 6.63103 24.4412 6.46303C24.3692 6.28503 24.2612 6.11903 24.1152 5.97503C23.9712 5.82903 23.8032 5.71903 23.6232 5.64703C23.4472 5.57503 23.2572 5.53503 23.0552 5.53503H14.3651C13.5371 5.53503 12.8651 6.20703 12.8651 7.03503C12.8651 7.86303 13.5371 8.53503 14.3651 8.53503H19.4352L5.85515 22.115C5.26915 22.701 5.26915 23.651 5.85515 24.237C6.14915 24.529 6.53115 24.677 6.91715 24.677C7.30115 24.677 7.68515 24.529 7.97715 24.237Z" fill="#FF4D02"/>
</svg>
