<svg width="49" height="49" viewBox="0 0 49 49" fill="none" xmlns="http://www.w3.org/2000/svg">
<path d="M24.3349 4.89246C25.1633 4.89246 25.8349 5.56404 25.8349 6.39246V6.5842C25.8349 7.41262 25.1633 8.0842 24.3349 8.0842C23.5065 8.0842 22.8349 7.41262 22.8349 6.5842V6.39246C22.8349 5.56404 23.5065 4.89246 24.3349 4.89246Z" fill="#FF4D02"/>
<path d="M11.3174 10.2849C11.9032 9.69914 12.853 9.69914 13.4387 10.2849L13.5743 10.4205C14.1601 11.0063 14.1601 11.956 13.5743 12.5418C12.9885 13.1276 12.0388 13.1276 11.453 12.5418L11.3174 12.4062C10.7316 11.8205 10.7316 10.8707 11.3174 10.2849Z" fill="#FF4D02"/>
<path d="M37.3505 12.4064C37.9363 11.8206 37.9363 10.8708 37.3505 10.2851C36.7647 9.69926 35.8151 9.69926 35.2293 10.285L35.0937 10.4206C34.5079 11.0064 34.5079 11.9561 35.0937 12.5419C35.6795 13.1277 36.6293 13.1277 37.2149 12.5419L37.3505 12.4064Z" fill="#FF4D02"/>
<path d="M5.9249 23.3025C5.9249 22.4741 6.59646 21.8025 7.4249 21.8025H7.61664C8.44506 21.8025 9.11664 22.4741 9.11664 23.3025C9.11664 24.1309 8.44506 24.8025 7.61664 24.8025H7.4249C6.59646 24.8025 5.9249 24.1309 5.9249 23.3025Z" fill="#FF4D02"/>
<path d="M41.0945 21.8025C40.2661 21.8025 39.5945 22.4741 39.5945 23.3025C39.5945 24.1309 40.2661 24.8025 41.0945 24.8025H41.2417C42.0701 24.8025 42.7417 24.1309 42.7417 23.3025C42.7417 22.4741 42.0701 21.8025 41.2417 21.8025H41.0945Z" fill="#FF4D02"/>
<path d="M13.5437 34.0918C14.1295 34.6776 14.1295 35.6274 13.5437 36.2132L13.4391 36.3178C12.8533 36.9036 11.9036 36.9036 11.3178 36.3178C10.732 35.732 10.732 34.7822 11.3178 34.1964L11.4224 34.0918C12.0082 33.506 12.9579 33.506 13.5437 34.0918Z" fill="#FF4D02"/>
<path d="M37.2457 34.0918C36.6599 33.506 35.7101 33.506 35.1243 34.0918C34.5385 34.6776 34.5385 35.6274 35.1243 36.2132L35.2289 36.3178C35.8147 36.9036 36.7645 36.9036 37.3503 36.3178C37.9359 35.732 37.9359 34.7822 37.3503 34.1964L37.2457 34.0918Z" fill="#FF4D02"/>
<path opacity="0.4" d="M18.1596 34.3925C14.2697 32.2777 11.6294 28.1509 11.6294 23.4007C11.6294 15.5999 18.7538 9.48162 26.8133 11.1158C31.6037 12.0962 35.4739 15.9391 36.4737 20.7329C37.6711 26.5043 34.8497 31.8717 30.2709 34.3925H18.1596Z" fill="#FF4D02"/>
<path d="M29.7469 36.3925V37.8449C29.7469 40.8999 27.2517 43.3925 24.1995 43.3925C21.1471 43.3925 18.6519 40.8999 18.6519 37.8449V36.3925H29.7469Z" fill="#FF4D02"/>
</svg>
