<svg width="49" height="48" viewBox="0 0 49 48" fill="none" xmlns="http://www.w3.org/2000/svg">
<path fill-rule="evenodd" clip-rule="evenodd" d="M37.1721 29.0537C36.6109 28.4925 32.8669 27.3682 31.9309 27.3682C31.1814 27.3682 27.4374 28.4925 26.6878 29.0537C26.1266 29.6149 26.1266 30.1762 26.1266 31.4869V34.1085C26.1266 38.7885 31.1814 40.0992 31.5561 40.2876H31.9309C32.1174 40.2876 37.3586 38.7885 37.3586 34.1085V31.3005C37.5469 30.1762 37.5469 29.6149 37.1721 29.0537Z" fill="#FF4D02"/>
<path fill-rule="evenodd" clip-rule="evenodd" d="M30.4322 16.3213C30.6186 11.6413 26.6882 7.70898 21.8199 7.70898C16.9534 7.70898 13.2075 11.6413 13.2075 16.3213C13.2075 21.1896 17.1398 24.9336 21.8199 24.9336C26.6882 24.9336 30.4322 21.0013 30.4322 16.3213Z" fill="#FF4D02"/>
<path opacity="0.4" fill-rule="evenodd" clip-rule="evenodd" d="M19.9477 28.6807C17.3261 28.6807 14.8929 29.0554 13.0209 29.6167C11.8966 29.9914 10.7741 30.5527 10.0246 31.3022C9.27688 32.0499 8.71381 33.1742 8.71381 34.485C8.71381 35.7957 9.08858 36.7317 10.0246 37.6677C10.7741 38.4154 11.8966 38.9785 13.0209 39.3514C14.8929 39.9145 17.3261 40.2874 19.9477 40.2874C21.0701 40.2874 21.8197 39.5397 21.8197 38.4154V30.5527C21.8197 29.4302 21.0701 28.6807 19.9477 28.6807Z" fill="#FF4D02"/>
</svg>
