<svg width="120" height="103" viewBox="0 0 120 103" fill="none" xmlns="http://www.w3.org/2000/svg">
<g id="Layer 1">
<g id="Group">
<g id="Clip path group">
<mask id="mask0_793_6256" style="mask-type:luminance" maskUnits="userSpaceOnUse" x="0" y="0" width="121" height="103">
<g id="clippath">
<path id="Vector" d="M120.003 0.0167236H0.00292969V102.336H120.003V0.0167236Z" fill="white"/>
</g>
</mask>
<g mask="url(#mask0_793_6256)">
<g id="Group_2">
<g id="Clip path group_2">
<mask id="mask1_793_6256" style="mask-type:luminance" maskUnits="userSpaceOnUse" x="0" y="0" width="121" height="103">
<g id="clippath-1">
<path id="Vector_2" d="M120.003 0.0158691H0.00292969V102.335H120.003V0.0158691Z" fill="white"/>
</g>
</mask>
<g mask="url(#mask1_793_6256)">
<g id="Group_3">
<path id="Vector_3" d="M104.321 52.98C103.464 50.7731 101.75 48.774 99.6214 47.346C93.5202 43.4776 84.2255 43.192 77.9425 46.697C74.5154 48.4365 72.2566 51.9155 71.5556 55.4724C70.2835 61.314 70.621 68.298 75.1125 72.6857C80.383 77.3071 88.016 78.3196 94.8183 76.4243C95.1298 76.3724 96.1684 76.1128 96.8694 75.7234L97.0771 75.6455C99.18 74.7627 101.205 73.3348 102.711 71.3876C106.19 66.3248 106.424 58.6918 104.321 52.98ZM93.2346 66.1171C93.0009 67.2335 92.248 68.3759 91.0797 68.7913C89.2103 69.6221 86.666 69.3884 84.9265 68.4278C83.4726 67.4153 83.2908 65.7017 83.0831 64.092C82.9533 60.9246 82.7196 57.5494 83.6024 54.6416C84.3034 52.8501 86.2246 52.3828 87.9641 52.253C89.8075 52.253 91.5729 52.5386 92.7153 54.0185C93.4163 55.0829 93.3644 56.459 93.5202 57.7052C93.4682 60.3274 93.7019 63.4689 93.2346 66.1431" fill="#1E1E1E"/>
<path id="Vector_4" d="M37.6251 68.9726C36.0674 68.8688 34.3279 69.0246 32.848 68.8428L32.8999 52.6421L33.0037 52.5122L37.6511 52.4603C37.703 49.8381 37.7549 47.0081 37.5992 44.6196L19.9185 44.5676L17.0107 44.6196C16.9587 47.0601 16.9587 49.916 17.0107 52.4084C18.6204 52.4603 20.1002 52.4084 21.658 52.5642V68.2457L21.6061 68.8948L16.9587 68.9986C16.8549 71.5689 16.8549 74.0614 16.9587 76.6057H37.6511V68.9986L37.6251 68.9726Z" fill="#1E1E1E"/>
<path id="Vector_5" d="M89.7309 80.0347C87.7577 82.8387 85.2653 85.5648 82.5651 87.6937C82.4613 87.8235 82.1757 87.7716 82.0978 87.6418C80.9295 86.9148 79.6573 86.3177 78.5149 85.5648C80.0208 83.7733 81.4747 81.9559 82.5911 79.9828H81.1372C79.9689 81.6963 78.7486 83.4877 77.1908 85.0195C75.1138 84.1887 73.2445 83.4618 71.1415 82.8906L70.9078 82.7088C71.2454 81.7742 71.8425 80.8914 72.0242 79.9828H70.7521L69.4799 82.4752C66.7019 81.878 63.6642 81.5405 60.8343 81.3588C60.6785 80.9434 60.8862 80.3462 60.6785 79.9828H59.4583C59.3544 80.528 59.5881 80.9434 59.3284 81.4107C56.4206 81.5405 53.5907 81.878 50.8905 82.4233L49.6184 79.9828C49.151 79.9828 48.6318 79.9049 48.2943 80.0347L49.4626 82.7608L49.3328 82.8906C47.2038 83.4877 45.1528 84.2406 43.1277 85.0715L42.9459 84.9676C41.6218 83.5397 40.3756 81.9819 39.3371 80.3982C39.1034 79.6193 38.1688 80.0606 37.6495 79.9828C38.7659 82.0078 40.2718 83.7993 41.7776 85.6686C40.5054 86.3956 39.2592 87.2264 37.9351 87.8495C35.1311 85.7205 32.5089 82.9685 30.5097 80.0606C29.9386 79.9828 29.5751 80.0087 29.0039 80.0606C32.3791 85.3311 37.6495 89.9265 43.1277 92.6526C43.1277 92.6526 43.1277 92.6007 43.1796 92.6007C43.2315 92.6007 43.3094 92.6786 43.2315 92.7305C46.9442 94.5219 50.8905 95.8201 55.0705 96.3653C69.4799 98.2606 83.2402 92.1333 91.2107 80.0347C90.7953 79.9828 90.1722 79.9828 89.7049 80.0347M70.1549 84.1887L70.2847 84.0849C72.3098 84.5522 74.2311 85.2013 76.0225 86.058C74.5167 87.7716 72.5954 89.2515 70.804 90.4717C69.7136 91.1208 68.6491 91.8218 67.5067 92.367L65.4816 91.4843L65.6114 91.1727C67.299 88.914 68.8049 86.6033 70.129 84.1628M60.9122 82.8127C63.5863 82.8646 66.2605 83.1502 68.7529 83.7474L68.8049 83.8772C67.4808 86.3696 65.8451 88.7582 64.0537 91.0169C63.2488 91.1208 62.4959 90.7833 61.717 90.7313L60.9122 90.6275C60.8083 87.9014 60.7564 85.5128 60.9122 82.7867M51.8512 83.6435C54.2917 83.1762 56.836 82.8127 59.4583 82.8127L59.5102 90.6275C58.5236 90.8612 57.4332 90.8612 56.4985 91.0948C54.5773 88.8361 52.9676 86.3956 51.6175 83.8512L51.8512 83.6695V83.6435ZM44.296 86.1359C46.1393 85.2532 48.0606 84.6041 50.0338 84.1108L50.2155 84.1628C51.5656 86.7071 53.2531 89.0957 54.9407 91.4843C54.2917 91.8477 53.4868 92.0814 52.8377 92.4449C49.7482 90.9131 46.7884 88.8101 44.296 86.2658V86.1359ZM50.3453 94.0286C46.399 93.0161 42.7382 91.2506 39.3631 88.862V88.7322C40.4795 88.0572 41.6218 87.3043 42.8421 86.785C45.5162 89.4332 48.2943 91.4064 51.3059 93.3017C51.0723 93.5873 50.6828 93.8469 50.3713 94.0546M67.7663 94.6258C62.7815 95.6902 57.2514 95.7422 52.2666 94.5479C52.1627 94.3142 52.5002 94.2623 52.63 94.1325C56.9918 91.3285 63.794 91.3285 68.0779 94.3661C68.2077 94.6517 67.8442 94.5479 67.7404 94.6517M72.2579 93.3276L70.0511 94.0286C69.6876 93.8469 69.3501 93.5613 69.0126 93.2757L69.1164 93.1459C72.1281 91.4064 74.8542 89.2774 77.4245 86.7331C78.6967 87.2523 79.9169 87.9274 81.0333 88.7063C78.4111 90.7833 75.3475 92.1593 72.2579 93.3276Z" fill="#1E1E1E"/>
<path id="Vector_6" d="M30.4547 41.0638C31.5711 39.5061 32.8432 37.9743 34.2452 36.4944C35.4655 35.352 36.5819 34.2356 37.906 33.4048C39.1262 34.1837 40.4763 34.8328 41.6706 35.5857C40.2167 37.3771 38.7108 39.1945 37.6204 41.1158C37.9579 41.2456 38.555 41.2196 39.0224 41.1158C40.1907 39.4022 41.4629 37.7146 42.9687 36.1828C44.9938 36.9098 46.967 37.7146 49.018 38.2599L49.1998 38.4416L48.0315 41.1158C48.5507 41.2196 48.8882 41.1677 49.3815 41.1158C49.7969 40.3369 50.1344 39.4542 50.6018 38.6753C53.3279 39.2724 56.1838 39.6099 59.0916 39.6878C59.4551 40.0253 59.1955 40.7004 59.3253 41.1158H60.5975C60.7273 40.6744 60.5455 40.1552 60.7273 39.7397C63.4534 39.584 66.3093 39.3243 68.9575 38.6753L69.1911 38.7272L70.4633 41.1158C70.8787 41.1158 71.4499 41.2196 71.7874 41.0119L70.6191 38.3378L70.7229 38.2339C72.8778 37.6887 74.903 36.8579 76.954 36.0271C78.4079 37.5589 79.758 39.3503 81.0042 41.0898C81.5235 41.0898 82.0427 41.1417 82.4062 40.986C81.835 39.9734 81.134 38.9609 80.3811 38.0781C79.758 37.1954 79.1089 36.4165 78.3041 35.5857V35.352L81.6014 33.4568L82.0687 33.275C84.9246 35.4299 87.4689 38.0781 89.494 40.986C90.0652 40.986 90.5326 41.1677 90.9999 40.934C84.7169 31.5355 74.3318 25.4862 63.1158 24.6034L63.0639 24.6813L62.9601 24.6034C61.6879 24.4736 60.1301 24.4217 58.7801 24.5515C58.2608 24.4996 57.6637 24.5515 57.0406 24.6034C45.7727 25.4862 35.4135 31.2499 28.9229 41.0638C29.3902 41.0119 29.9614 41.1937 30.4287 41.0119M49.9267 37.0137L49.745 37.0656C47.8238 36.5723 45.9285 35.9492 44.163 35.1703L44.2409 34.8847C46.8112 32.4442 49.5373 30.4191 52.549 28.8354C53.25 29.121 53.951 29.3546 54.652 29.6662L54.5222 30.0297C52.7307 32.2365 51.3287 34.651 49.9267 37.0137ZM59.2734 38.2599C57.9492 38.4416 56.7809 38.2079 55.4568 38.1041C54.1846 37.9224 52.6009 37.7925 51.3287 37.3771C52.6788 34.8587 54.2885 32.3923 56.2097 30.1595L59.2214 30.5749C59.3512 32.9635 59.2734 35.7415 59.2734 38.2858M60.7273 38.3118C60.6234 35.8713 60.6753 33.1452 60.7273 30.6008C61.6619 30.471 62.7004 30.3153 63.6351 30.1854C65.4785 32.4961 67.2439 34.8587 68.4642 37.3771C65.9198 37.9743 63.3495 38.3118 60.7273 38.3118ZM75.6818 35.0664C73.8385 35.8453 71.9692 36.5982 69.9441 37.0137C68.4901 34.5731 66.9064 32.1326 65.115 29.77C65.764 29.4066 66.5689 29.121 67.2699 28.7575C70.3335 30.2893 73.2933 32.4442 75.7597 34.9366L75.6818 35.0924V35.0664ZM69.6844 27.1738C73.6308 28.1863 77.3435 29.9518 80.7186 32.3403L80.6148 32.5221L77.3694 34.3135H77.1357C74.6433 31.8211 71.7355 29.6662 68.7757 27.9526C68.8796 27.6411 69.3469 27.4074 69.6585 27.1738M67.8151 26.7324V26.8362C63.739 29.77 57.1184 30.0556 52.8086 27.3295C52.575 27.1478 52.1076 27.0439 52.0557 26.7324C57.0405 25.59 62.9081 25.4862 67.8411 26.7324M39.1782 32.4442C42.1379 30.2893 45.4352 28.6536 48.8882 27.5632C49.018 27.4074 49.1219 27.2776 49.3036 27.2776V27.3815C49.6671 27.4593 49.9527 27.0439 50.2902 27.3295C50.5758 27.5632 50.9133 27.7449 51.147 27.9786C48.2392 29.77 45.3833 31.899 42.7351 34.4693C41.4629 34.0279 40.2946 33.3269 39.1782 32.5481V32.4702V32.4442Z" fill="#1E1E1E"/>
<path id="Vector_7" d="M59.6833 69.2039C55.2696 70.3982 50.4925 69.4895 47.299 66.1663C46.9356 65.699 46.7019 65.1537 46.3125 64.6864L39.9775 64.7383C39.8737 68.477 39.8218 72.7608 39.9775 76.4476L47.0135 76.3956L47.1173 74.1888C47.9221 74.5523 48.727 75.0196 49.5059 75.435C54.3869 77.4601 60.6699 77.9274 65.499 75.435C69.0299 73.5138 70.8992 69.7751 70.38 65.7509C69.8607 61.8305 66.1221 58.2736 62.3055 57.313L50.9338 54.0417L50.103 53.6263C49.7395 53.3147 49.4799 52.8993 49.5838 52.38C50.4665 50.8482 52.5435 51.3156 54.1013 51.3675C57.3986 51.8348 60.7737 52.9253 62.695 55.937C64.746 55.937 67.1606 55.9889 69.3934 55.885C69.4972 52.0945 69.3415 48.7972 69.2895 44.9547C67.1865 44.9028 64.5903 44.9028 62.4873 45.0066C62.3834 45.5518 62.5652 46.3307 62.3315 46.9019L60.1766 45.7595C55.01 43.6046 47.7923 43.371 43.0931 46.7202C40.0295 48.927 39.0948 52.8993 39.8996 56.4043C40.4968 59.7275 43.6902 62.168 46.7538 63.3104C50.9338 64.7903 55.2956 65.8547 59.5275 67.2827C59.9429 67.4644 60.5141 67.8798 60.4103 68.3991C60.4103 68.8145 59.9948 69.0482 59.6573 69.2299" fill="#1E1E1E"/>
<path id="Vector_8" d="M14.9308 79.9552L15.1644 80.4744C15.1644 80.4744 15.1644 80.6821 15.0346 80.7341L8.28431 83.6679C8.28431 83.6679 8.07661 83.6678 8.02468 83.564L7.79102 83.0447C7.79102 83.0447 7.79102 82.837 7.89487 82.7851L14.6712 79.8513C14.6712 79.8513 14.8789 79.8513 14.9308 79.9292" fill="#1E1E1E"/>
<path id="Vector_9" d="M12.9333 74.502L13.0891 74.9694C13.0891 74.9694 13.0891 75.203 12.9593 75.229L9.68798 76.3454C8.67543 76.6829 8.49369 77.1243 8.75332 77.8772C8.88313 78.2926 9.22065 78.708 9.58413 79.0975L13.7901 77.6955C13.7901 77.6955 14.0238 77.6955 14.0497 77.8253L14.2055 78.3186C14.2055 78.3186 14.2055 78.5263 14.0757 78.5782L9.01295 80.2917C9.01295 80.2917 8.77928 80.2917 8.75332 80.1619L8.59754 79.6686C8.59754 79.6686 8.59754 79.4609 8.72736 79.409L8.9091 79.3311C8.4158 78.8898 8.10425 78.5003 7.92251 77.9032C7.5071 76.7089 8.07829 75.93 9.40239 75.4886L12.6737 74.3982C12.6737 74.3982 12.9074 74.3982 12.9333 74.528" fill="#1E1E1E"/>
<path id="Vector_10" d="M12.0227 70.5833C12.1006 70.791 12.1785 71.0506 12.2304 71.2323C12.4381 72.167 12.3083 72.6863 11.1919 72.9459L7.63498 73.8027L7.76479 74.8152C7.76479 74.8152 7.76479 75.0229 7.63498 75.0489L7.34939 75.1268C7.34939 75.1268 7.14168 75.1008 7.11572 74.971L6.88206 73.9844L5.89547 74.2181C5.89547 74.2181 5.68777 74.1921 5.6618 74.0882L5.4541 73.569C5.4541 73.569 5.4541 73.569 5.4541 73.543C5.4541 73.4651 5.48006 73.3613 5.58392 73.3353L6.70032 73.0757L6.44069 71.9853C6.44069 71.9853 6.49261 71.7516 6.59646 71.7256L6.93398 71.6477C6.93398 71.6477 7.16765 71.6997 7.19361 71.8035L7.45324 72.894L11.0101 72.0372C11.5813 71.9074 11.6073 71.7516 11.5294 71.3362L11.3996 70.765C11.3736 70.6352 11.3996 70.5313 11.5034 70.5054L11.8669 70.4275C11.8669 70.4275 12.0227 70.4275 12.0746 70.5573" fill="#1E1E1E"/>
<path id="Vector_11" d="M8.64668 65.8844L9.11401 69.3634H9.26979C10.516 69.1817 10.8795 68.6364 10.7497 67.6758C10.6718 67.0787 10.516 66.2998 10.3862 65.8325C10.3862 65.8325 10.3862 65.8065 10.3862 65.7805C10.3862 65.7027 10.3862 65.5988 10.516 65.5988L10.8795 65.5469C11.0093 65.5469 11.0872 65.5469 11.1391 65.7286C11.3468 66.2998 11.4766 66.871 11.5805 67.572C11.7363 68.7663 11.3468 70.0125 9.42557 70.2721L8.49091 70.4019C7.01103 70.6096 5.94655 69.9086 5.73885 68.4287C5.53115 66.9229 6.38792 66.0142 7.84184 65.8065L8.41302 65.7286C8.54283 65.7286 8.64668 65.7805 8.67265 65.8844M7.97165 66.7152C6.80333 66.871 6.41388 67.3902 6.5437 68.2989C6.67351 69.1817 7.24469 69.623 8.36109 69.4673H8.46494L8.0755 66.7152H7.97165Z" fill="#1E1E1E"/>
<path id="Vector_12" d="M5.99861 62.2747C5.99861 62.768 6.18035 63.1834 6.51787 63.7026L10.9056 63.469C10.9056 63.469 11.1133 63.5469 11.1133 63.6767V64.1959C11.1133 64.1959 11.0614 64.4036 10.9315 64.4036L5.60917 64.6892C5.60917 64.6892 5.40147 64.6113 5.40147 64.5075V64.0142C5.40147 64.0142 5.45339 63.8065 5.58321 63.8065H5.79091C5.40147 63.2872 5.24569 62.8199 5.21973 62.3526C5.21973 62.1968 5.27165 62.1449 5.40147 62.1189H5.81687C5.81687 62.1189 5.99861 62.1708 5.99861 62.3006" fill="#1E1E1E"/>
<path id="Vector_13" d="M11.1391 56.8236V57.3169C11.1391 57.3169 11.0093 57.5246 10.9054 57.5246L7.47832 57.3947C6.41385 57.3428 6.07633 57.7063 6.05037 58.4852C6.05037 58.9265 6.18018 59.4198 6.41385 59.9131L10.8275 60.0949C10.8275 60.0949 11.0352 60.1987 11.0352 60.3026V60.8218C11.0352 60.8218 10.9054 61.0295 10.8016 61.0036L5.47919 60.7959C5.47919 60.7959 5.27148 60.692 5.27148 60.5882V60.0689C5.27148 60.0689 5.4013 59.8872 5.50515 59.8872H5.71285C5.42726 59.316 5.27148 58.8227 5.29745 58.2256C5.34937 56.9793 6.15422 56.4341 7.53025 56.486L10.9573 56.6159C10.9573 56.6159 11.165 56.7197 11.165 56.8236" fill="#1E1E1E"/>
<path id="Vector_14" d="M11.8415 51.6823L11.7636 52.1496C11.7636 52.1496 11.6338 52.3314 11.5299 52.3314H11.2963C11.504 52.8506 11.6598 53.3959 11.5819 53.967C11.452 54.8498 10.9588 55.6027 9.66062 55.395H9.5308C8.4144 55.2133 7.94707 54.4863 8.23266 52.6429L8.33651 51.89L7.92111 51.8381C7.03837 51.7083 6.70086 51.9679 6.59701 52.7728C6.49316 53.4478 6.46719 53.9411 6.44123 54.3824C6.44123 54.3824 6.44123 54.4084 6.44123 54.4344C6.44123 54.5382 6.3893 54.6161 6.25949 54.5902L5.89601 54.5382C5.89601 54.5382 5.74023 54.4344 5.74023 54.3046C5.74023 53.8632 5.74023 53.3699 5.84409 52.6689C6.05179 51.241 6.85663 50.7477 8.07689 50.9294L11.6857 51.4746C11.6857 51.4746 11.8934 51.6044 11.8675 51.7083M8.98558 51.9939L8.88173 52.7468C8.69999 53.993 8.93366 54.3565 9.66062 54.4863H9.79043C10.5434 54.6161 10.777 54.3046 10.8809 53.6815C10.9588 53.2141 10.8809 52.7468 10.6732 52.2275L9.01155 51.9939H8.98558Z" fill="#1E1E1E"/>
<path id="Vector_15" d="M12.7514 47.8404C12.7514 48.0481 12.6995 48.3077 12.6476 48.5154C12.4139 49.4501 12.0764 49.8395 10.96 49.5799L7.4031 48.7231L7.06558 49.6838C7.06558 49.6838 6.96173 49.8655 6.83192 49.8395L6.54632 49.7616C6.54632 49.7616 6.39055 49.6318 6.41651 49.528L6.65018 48.5414L5.66359 48.3077C5.66359 48.3077 5.50781 48.1779 5.50781 48.0741L5.55974 47.5288C5.55974 47.5288 5.55974 47.5289 5.55974 47.5029C5.55974 47.425 5.66359 47.3731 5.76744 47.399L6.88384 47.6587L7.14347 46.5682C7.14347 46.5682 7.29924 46.3865 7.4031 46.4125L7.74061 46.4903C7.74061 46.4903 7.92235 46.6202 7.89639 46.75L7.63676 47.8404L11.1937 48.6972C11.7648 48.827 11.8687 48.6972 11.9725 48.3077L12.1024 47.7365C12.1283 47.6067 12.1802 47.5288 12.2841 47.5548L12.6476 47.6327C12.6476 47.6327 12.8034 47.7106 12.7774 47.8664" fill="#1E1E1E"/>
<path id="Vector_16" d="M6.8799 44.1537L6.72413 44.673C6.72413 44.673 6.56835 44.8547 6.4645 44.8028L5.65965 44.5692C5.65965 44.5692 5.47791 44.4134 5.52984 44.3095L5.68561 43.7903C5.68561 43.7903 5.84139 43.6085 5.94524 43.6605L6.75009 43.8941C6.75009 43.8941 6.93183 44.0499 6.8799 44.1537ZM13.2667 46.1269L13.111 46.5943C13.111 46.5943 12.9552 46.776 12.8513 46.7241L7.76264 45.1663C7.76264 45.1663 7.5809 45.0105 7.63282 44.9067L7.7886 44.4134C7.7886 44.4134 7.94438 44.2316 8.04823 44.2836L13.1369 45.8413C13.1369 45.8413 13.3187 45.9971 13.2667 46.101" fill="#1E1E1E"/>
<path id="Vector_17" d="M14.5406 42.7254C13.9694 44.1534 12.7492 44.4909 11.3212 43.9457L10.5943 43.6601C9.1663 43.0889 8.51723 41.9984 9.08841 40.5705C9.65959 39.1425 10.8798 38.7791 12.3078 39.3502L13.0348 39.6358C14.4627 40.207 15.1118 41.3234 14.5406 42.7514M11.9703 40.1811C10.9837 39.7916 10.2048 39.9214 9.84133 40.8561C9.47785 41.7648 9.94518 42.4139 10.9577 42.8033L11.6847 43.0889C12.6713 43.4783 13.4502 43.3485 13.8136 42.4398C14.1771 41.5311 13.7098 40.882 12.6972 40.4926L11.9703 40.207V40.1811Z" fill="#1E1E1E"/>
<path id="Vector_18" d="M17.7357 35.9499L17.502 36.3912C17.502 36.3912 17.3203 36.5211 17.2164 36.4691L14.1788 34.8335C13.2441 34.3402 12.8028 34.496 12.4133 35.1969C12.2056 35.5864 12.1277 36.1056 12.1018 36.6249L15.9962 38.7019C15.9962 38.7019 16.126 38.8837 16.0741 38.9875L15.8404 39.4289C15.8404 39.4289 15.6587 39.5587 15.5548 39.5068L10.8556 36.9884C10.8556 36.9884 10.6998 36.8066 10.7777 36.7028L11.0113 36.2355C11.0113 36.2355 11.1931 36.1056 11.2969 36.1576L11.4787 36.2614C11.4787 35.6124 11.5566 35.1191 11.8421 34.5738C12.4393 33.4574 13.3999 33.3276 14.6202 34.0027L17.6578 35.6383C17.6578 35.6383 17.7876 35.8201 17.7357 35.9239" fill="#1E1E1E"/>
<path id="Vector_19" d="M20.5643 31.6904L20.2787 32.0798C20.2787 32.0798 20.071 32.2097 19.9931 32.1318L19.8114 32.002C19.7595 32.5731 19.6556 33.1443 19.3181 33.6116C18.8248 34.3386 18.0459 34.8059 16.9555 34.053L16.8517 33.9751C15.917 33.3261 15.8131 32.4693 16.8776 30.9375L17.319 30.2884L16.9815 30.0547C16.2545 29.5615 15.8391 29.6393 15.3718 30.3144C14.9823 30.8856 14.7487 31.301 14.541 31.6904C14.541 31.6904 14.541 31.6904 14.515 31.7423C14.4631 31.8202 14.3852 31.8721 14.2813 31.7943L13.9698 31.5866C13.9698 31.5866 13.8659 31.4308 13.9179 31.301C14.0996 30.9115 14.3333 30.4702 14.7227 29.899C15.5535 28.7047 16.4882 28.6268 17.5007 29.3278L20.5124 31.3788C20.5124 31.3788 20.6422 31.5866 20.5643 31.6644M17.8642 30.7038L17.4228 31.3529C16.7218 32.3914 16.7478 32.8328 17.3709 33.2482L17.4748 33.3261C18.0979 33.7415 18.4613 33.5597 18.7989 33.0664C19.0845 32.677 19.1883 32.2356 19.2402 31.6644L17.8382 30.7038H17.8642Z" fill="#1E1E1E"/>
<path id="Vector_20" d="M21.9681 29.9515L21.6306 30.3669C21.6306 30.3669 21.4489 30.4448 21.345 30.3669L15.5294 25.6936C15.5294 25.6936 15.4255 25.5119 15.4774 25.434L15.8149 25.0186C15.8149 25.0186 15.9967 24.9147 16.0746 25.0186L21.8902 29.6919C21.8902 29.6919 22.0201 29.8736 21.9422 29.9775" fill="#1E1E1E"/>
<path id="Vector_21" d="M26.5353 25.1484C25.341 26.2648 23.8092 26.3946 22.2255 24.681L21.2909 23.6944C19.7071 22.0069 19.9148 20.475 21.1091 19.3586C22.3034 18.2422 23.8352 18.1384 25.4189 19.826L26.3536 20.8126C27.9373 22.5001 27.7296 24.006 26.5353 25.1484ZM24.7179 20.501C23.5237 19.2288 22.5371 19.2288 21.7063 20.0077C20.8754 20.7866 20.7976 21.7732 21.9918 23.0713L22.9005 24.0579C24.0948 25.3301 25.0814 25.3301 25.9382 24.5512C26.769 23.7723 26.8469 22.7857 25.6266 21.5136L24.692 20.527L24.7179 20.501Z" fill="#1E1E1E"/>
<path id="Vector_22" d="M28.2511 17.1002C27.8617 17.3858 27.6021 17.7493 27.3684 18.3205L30.0166 21.7995C30.0166 21.7995 30.0685 22.0332 29.9906 22.0851L29.5752 22.3966C29.5752 22.3966 29.3675 22.4486 29.2896 22.3447L26.0443 18.1128C26.0443 18.1128 25.9924 17.9051 26.0703 17.8272L26.4597 17.5416C26.4597 17.5416 26.6674 17.4897 26.7453 17.5935L26.8751 17.7753C27.0568 17.1781 27.3684 16.7627 27.7319 16.4771C27.8357 16.3992 27.9396 16.3992 28.0175 16.4771L28.2771 16.8146C28.2771 16.8146 28.329 16.9964 28.1992 17.1002" fill="#1E1E1E"/>
<path id="Vector_23" d="M32.9773 13.9327L32.6917 14.1923C32.9513 14.2702 33.2629 14.426 33.5744 14.9193L33.6264 14.9971C34.2495 15.9578 33.9898 16.8924 32.6398 17.7492C32.1724 18.0348 31.8349 18.1646 31.4974 18.2165C31.3936 18.3723 31.3936 18.5281 31.4715 18.6579C31.5753 18.8137 31.6792 18.8396 31.9128 18.7618L33.4446 18.2685C34.4572 17.9309 35.4438 17.6454 35.963 18.4762L36.0149 18.554C36.5602 19.4108 36.3265 20.2676 34.8726 21.2023C33.4706 22.085 32.51 21.9552 31.9647 21.0984L31.9128 21.0205C31.6013 20.5272 31.6013 19.956 31.757 19.5406H31.6792C31.3157 19.6185 31.0041 19.3849 30.8483 19.1252C30.6926 18.8916 30.6406 18.554 30.7964 18.2425C30.3551 18.1646 30.0175 17.9309 29.7319 17.4896L29.68 17.4117C29.1867 16.6328 29.1348 15.5683 30.6406 14.6077L32.5619 13.3875C32.5619 13.3875 32.8215 13.3355 32.8994 13.4653L33.0292 13.699C33.0292 13.699 33.0552 13.8807 32.9773 13.9586M32.8215 15.4126C32.484 14.8933 31.9907 14.6337 31.0301 15.2308C30.0435 15.8539 30.1214 16.4511 30.4329 16.9444L30.4849 17.0222C30.7185 17.4117 31.2378 17.8011 32.2503 17.1521C33.211 16.5549 33.211 16.0357 32.8734 15.4904L32.8215 15.4126ZM35.1841 18.9695C34.9764 18.6319 34.587 18.6579 33.6783 18.9695L32.51 19.3589C32.4061 19.7483 32.3542 20.0859 32.6657 20.5272L32.7177 20.6051C33.0292 21.0984 33.5225 21.2282 34.5091 20.6051C35.5216 19.956 35.5736 19.5406 35.262 19.0473L35.2101 18.9695H35.1841Z" fill="#1E1E1E"/>
<path id="Vector_24" d="M39.9565 16.0619L39.5152 16.2696C39.5152 16.2696 39.2815 16.2696 39.2296 16.1658L39.1257 15.9581C38.8142 16.4514 38.4247 16.8668 37.9055 17.1264C37.1006 17.5159 36.2179 17.5418 35.6207 16.3475L35.5688 16.2437C35.0755 15.2311 35.413 14.4263 37.0747 13.5955L37.7757 13.258L37.5939 12.8945C37.2045 12.1156 36.7891 11.9598 36.0621 12.3233C35.465 12.6089 35.0236 12.8945 34.6601 13.1022C34.6601 13.1022 34.6342 13.1022 34.6082 13.1022C34.5303 13.1541 34.4265 13.1541 34.3745 13.0243L34.2188 12.6868C34.2188 12.6868 34.2187 12.505 34.3226 12.4012C34.6861 12.1416 35.0755 11.8819 35.7246 11.5704C37.0227 10.9213 37.8795 11.3367 38.4247 12.4272L40.0344 15.6985C40.0344 15.6985 40.0344 15.9321 39.9306 15.9841M38.0872 13.8811L37.3862 14.2186C36.2438 14.7898 36.0881 15.1792 36.3996 15.8542L36.4515 15.9581C36.7891 16.6331 37.1785 16.6591 37.7237 16.3995C38.1651 16.1918 38.4766 15.8542 38.8142 15.3869L38.0612 13.8811H38.0872Z" fill="#1E1E1E"/>
<path id="Vector_25" d="M45.1512 14.0619L44.6839 14.2437C44.6839 14.2437 44.4502 14.2437 44.4242 14.1139L43.2559 10.8945C42.8924 9.90788 42.4511 9.72614 41.6981 9.98577C41.2827 10.1415 40.8933 10.4531 40.5039 10.8425L42.0097 14.9966C42.0097 14.9966 42.0097 15.2303 41.8799 15.2562L41.3866 15.438C41.3866 15.438 41.1789 15.438 41.127 15.3081L39.3096 10.2973C39.3096 10.2973 39.3096 10.0637 39.4134 10.0377L39.9067 9.85596C39.9067 9.85596 40.1144 9.85596 40.1663 9.98577L40.2442 10.1675C40.6856 9.67422 41.0491 9.36267 41.6462 9.15496C42.8145 8.7136 43.6194 9.28478 44.1127 10.5829L45.281 13.8283C45.281 13.8283 45.281 14.0619 45.1512 14.0879" fill="#1E1E1E"/>
<path id="Vector_26" d="M45.5916 7.0531L45.0724 7.18291C45.0724 7.18291 44.8387 7.15695 44.8128 7.02714L44.5791 6.22229C44.5791 6.22229 44.6051 5.98862 44.7349 5.96266L45.2541 5.80688C45.2541 5.80688 45.4878 5.83285 45.5138 5.96266L45.7215 6.76751C45.7215 6.76751 45.6955 7.00117 45.5657 7.02714M47.3052 13.4919L46.8119 13.6217C46.8119 13.6217 46.5782 13.5957 46.5523 13.4659L45.1503 8.32528C45.1503 8.32528 45.1762 8.09161 45.3061 8.06565L45.7994 7.93583C45.7994 7.93583 46.033 7.9618 46.059 8.09161L47.461 13.2322C47.461 13.2322 47.435 13.4659 47.3052 13.4919Z" fill="#1E1E1E"/>
<path id="Vector_27" d="M52.3141 12.4017L49.1986 12.9988C48.7572 13.0767 48.5235 12.843 48.4716 12.5574V12.3497C48.3678 12.0641 48.4197 11.9084 48.5495 11.6487L50.5486 7.8322C50.5486 7.8322 50.5746 7.75431 50.5486 7.72835C50.5486 7.67643 50.5227 7.65046 50.4188 7.67643L47.9264 8.16972C47.9264 8.16972 47.6927 8.11779 47.6668 8.01394L47.5889 7.65046C47.5889 7.65046 47.6408 7.44276 47.7446 7.4168L50.7563 6.81965C51.1717 6.74176 51.3794 6.89754 51.4314 7.2091L51.4833 7.46872C51.5352 7.67643 51.4833 7.85816 51.3535 8.06587L49.3024 11.9862C49.3024 11.9862 49.2764 12.0901 49.2764 12.1161C49.2764 12.168 49.2764 12.194 49.3803 12.194L52.1064 11.6747C52.1064 11.6747 52.3401 11.7266 52.3401 11.8305L52.4179 12.194C52.4179 12.194 52.366 12.4276 52.2622 12.4276" fill="#1E1E1E"/>
<path id="Vector_28" d="M57.224 11.8805L56.7307 11.9324C56.7307 11.9324 56.523 11.8545 56.497 11.7507V11.517C56.0037 11.8545 55.5104 12.1141 54.9133 12.1661C54.0305 12.244 53.1738 11.9324 53.0699 10.6343V10.5045C52.9661 9.38805 53.5632 8.76495 55.4066 8.58321L56.1855 8.50532V8.08991C56.0556 7.20718 55.7441 6.94755 54.9392 7.02544C54.2642 7.07736 53.7709 7.18122 53.3555 7.2591C53.3555 7.2591 53.3295 7.2591 53.3036 7.2591C53.1997 7.2591 53.1218 7.2591 53.0959 7.10333V6.73985C53.0959 6.73985 53.0959 6.55811 53.2517 6.53215C53.6671 6.42829 54.1344 6.32444 54.8613 6.24656C56.3153 6.11674 56.9643 6.79177 57.0682 8.01202L57.4057 11.6468C57.4057 11.6468 57.3278 11.8545 57.224 11.8805ZM56.2374 9.18035L55.4585 9.25824C54.1863 9.36209 53.9007 9.67364 53.9527 10.4266V10.5564C54.0305 11.3093 54.394 11.4651 55.0171 11.4131C55.4845 11.3612 55.8999 11.1795 56.3932 10.8679L56.2374 9.18035Z" fill="#1E1E1E"/>
<path id="Vector_29" d="M61.2214 11.8292C61.0137 11.8552 60.7281 11.8811 60.5464 11.8811C59.5858 11.8811 59.1185 11.6475 59.0925 10.5051L59.0406 6.84436L58.028 6.74051C58.028 6.74051 57.8203 6.66262 57.8203 6.55877V6.27318C57.8203 6.27318 57.8982 6.09144 58.0021 6.09144H59.0146V5.05292C59.0146 4.94907 59.0925 4.87119 59.1963 4.84522L59.7416 4.76733H59.7675C59.7675 4.76733 59.9233 4.84522 59.9233 4.94907V6.09144H61.0657C61.1695 6.09144 61.2734 6.16932 61.2734 6.29914V6.66262C61.2734 6.66262 61.1955 6.87032 61.0657 6.87032H59.9233L59.9752 10.557C59.9752 11.1282 60.131 11.2061 60.5464 11.2061H61.1435C61.2993 11.2061 61.3512 11.2321 61.3772 11.3359V11.6994C61.3772 11.6994 61.3253 11.8552 61.1955 11.8811" fill="#1E1E1E"/>
<path id="Vector_30" d="M63.035 11.9342H62.5417C62.5417 11.9342 62.334 11.8044 62.334 11.6746L62.6455 6.3522C62.6455 6.3522 62.7494 6.1445 62.8532 6.1445H63.3465C63.3465 6.1445 63.5542 6.27431 63.5542 6.40412L63.2427 11.7265C63.2427 11.7265 63.1388 11.9342 63.009 11.9342M63.4504 5.26176H62.9052C62.9052 5.26176 62.6975 5.13195 62.6975 5.00213L62.7494 4.17133C62.7494 4.17133 62.8532 3.96362 62.9571 3.96362H63.5023C63.5023 3.96362 63.71 4.09344 63.71 4.22325L63.6581 5.05406C63.6581 5.05406 63.5542 5.26176 63.4504 5.26176Z" fill="#1E1E1E"/>
<path id="Vector_31" d="M66.6457 12.3495C65.1139 12.1418 64.4648 11.0254 64.6725 9.49358L64.7763 8.71469C64.984 7.18289 65.8927 6.27419 67.4245 6.50786C68.9563 6.71556 69.6054 7.83196 69.3977 9.36376L69.2939 10.1426C69.0862 11.6745 68.1515 12.5572 66.6457 12.3495ZM68.489 9.23395C68.6448 8.16948 68.3073 7.44252 67.3207 7.3127C66.3601 7.18289 65.8408 7.78003 65.685 8.87047L65.5812 9.64935C65.4514 10.7138 65.7629 11.4408 66.7495 11.5706C67.7101 11.7004 68.2294 11.1033 68.3852 10.0388L68.489 9.25991V9.23395Z" fill="#1E1E1E"/>
<path id="Vector_32" d="M73.9955 13.8288L73.5022 13.699C73.5022 13.699 73.3205 13.5691 73.3464 13.4393L74.2032 10.0901C74.4628 9.05162 74.2032 8.66218 73.4243 8.45448C73.0089 8.35063 72.4897 8.37659 71.9444 8.5064L70.854 12.7903C70.854 12.7903 70.6982 12.972 70.5944 12.946L70.1011 12.8162C70.1011 12.8162 69.9453 12.6864 69.9453 12.5566L71.2694 7.39C71.2694 7.39 71.3992 7.20827 71.5031 7.23423L72.0223 7.36404C72.0223 7.36404 72.2041 7.49386 72.1522 7.62367L72.1002 7.80541C72.7493 7.62367 73.2426 7.59771 73.8397 7.75348C75.06 8.06504 75.4235 8.97373 75.06 10.3238L74.2032 13.673C74.2032 13.673 74.0474 13.8547 73.9436 13.8288" fill="#1E1E1E"/>
<path id="Vector_33" d="M82.8496 9.4417L82.3822 9.25996C81.9409 9.07823 81.7332 9.15611 81.5255 9.67537L81.2399 10.3764L82.2524 10.7918C82.2524 10.7918 82.4082 10.9475 82.3563 11.0514L82.2005 11.4149C82.2005 11.4149 82.0707 11.5447 81.9409 11.4928L80.9283 11.0774L79.1109 15.491C79.1109 15.491 78.9552 15.6468 78.8513 15.5949L78.384 15.3872C78.384 15.3872 78.2282 15.2054 78.2801 15.1276L80.0975 10.7139L79.2148 10.2206C79.2148 10.2206 79.059 10.0648 79.1109 9.96096L79.2148 9.70133C79.2148 9.70133 79.3706 9.57152 79.4744 9.59748L80.4091 9.98692L80.6947 9.28593C81.136 8.24742 81.7591 8.14357 82.59 8.50704C82.8496 8.6109 83.0054 8.71475 83.1092 8.79264C83.2131 8.87052 83.265 8.94841 83.239 9.0263L83.1092 9.33785C83.1092 9.33785 82.9794 9.4417 82.8755 9.41574" fill="#1E1E1E"/>
<path id="Vector_34" d="M82.5873 17.4626C81.2372 16.7356 81.0036 15.4894 81.7046 14.1134L82.068 13.4124C82.795 12.0623 83.9374 11.5171 85.3134 12.2441C86.6634 12.9451 86.8971 14.2172 86.1961 15.5933L85.8326 16.2943C85.1057 17.6443 83.9374 18.1895 82.5873 17.4626ZM85.3913 15.1519C85.8846 14.2172 85.8326 13.4124 84.9499 12.9451C84.0931 12.5037 83.3921 12.8931 82.8988 13.8278L82.5354 14.5288C82.0421 15.4635 82.094 16.2683 82.9767 16.7356C83.8335 17.177 84.5345 16.7876 85.0278 15.8529L85.3913 15.1519Z" fill="#1E1E1E"/>
<path id="Vector_35" d="M90.2213 16.0613C89.8059 15.8016 89.3905 15.6718 88.7674 15.6459L86.4047 19.3326C86.4047 19.3326 86.223 19.4624 86.1192 19.3845L85.6778 19.0989C85.6778 19.0989 85.5739 18.9172 85.6259 18.8133L88.5077 14.3477C88.5077 14.3477 88.6895 14.2179 88.7933 14.2698L89.2087 14.5295C89.2087 14.5295 89.3126 14.7112 89.2607 14.815L89.1308 14.9968C89.7799 14.9968 90.2472 15.1266 90.6367 15.3603C90.7665 15.4382 90.7925 15.542 90.7146 15.6459L90.4809 16.0093C90.4809 16.0093 90.3251 16.1132 90.1953 16.0353" fill="#1E1E1E"/>
<path id="Vector_36" d="M91.6504 23.5911C91.1051 23.1238 90.7417 22.7084 90.4301 22.3449C90.3263 22.2151 90.3263 22.1632 90.4042 22.0593L90.6897 21.7477C90.6897 21.7477 90.8715 21.6699 90.9234 21.7477C91.2609 22.0853 91.8321 22.6045 92.1956 22.9161C93.1562 23.7469 93.7274 23.5651 94.1947 23.0199C94.5322 22.6305 94.5063 22.2151 94.1688 21.1506L93.8053 20.0342C93.4678 18.9697 93.4418 18.2428 93.987 17.6197C94.8178 16.659 95.8823 16.8148 97.0766 17.8533C97.5439 18.2687 98.1151 18.8399 98.3747 19.1255C98.4526 19.2034 98.4526 19.3072 98.3747 19.3851L98.0891 19.7227C98.0891 19.7227 97.9334 19.8005 97.8555 19.7227C97.518 19.4111 96.9987 18.8918 96.5314 18.5024C95.7265 17.8014 95.2073 17.6716 94.714 18.2428C94.4024 18.6063 94.4544 19.0736 94.7399 19.9563L95.1034 21.0208C95.5448 22.3449 95.4929 23.0719 94.9476 23.695C94.2986 24.4479 93.1822 24.9412 91.6244 23.5911" fill="#1E1E1E"/>
<path id="Vector_37" d="M96.0597 27.7178C95.9039 27.5879 95.6962 27.4062 95.5404 27.2764C94.8654 26.6014 94.7355 26.0821 95.5404 25.2773L98.1367 22.7329L97.5136 21.9281C97.5136 21.9281 97.4357 21.7463 97.5136 21.6425L97.7213 21.4348C97.7213 21.4348 97.903 21.3569 97.9809 21.4348L98.6819 22.1617L99.4089 21.4348C99.4089 21.4348 99.5906 21.3569 99.6944 21.4348L100.136 21.7723C100.188 21.8242 100.188 21.9281 100.136 22.0059L99.331 22.8108L100.136 23.6156C100.136 23.6156 100.214 23.8233 100.136 23.9012L99.8762 24.1609C99.8762 24.1609 99.6685 24.2387 99.5906 24.1609L98.8117 23.356L96.2154 25.9004C95.8 26.2898 95.8519 26.4715 96.1375 26.7571L96.5529 27.1725C96.5529 27.1725 96.6828 27.3543 96.6049 27.4322L96.3452 27.6918C96.3452 27.6918 96.1895 27.7697 96.0856 27.6918" fill="#1E1E1E"/>
<path id="Vector_38" d="M99.1021 31.3267L98.7905 30.9632C98.7905 30.9632 98.7386 30.7555 98.8165 30.6776L98.9982 30.5218C98.453 30.3141 97.9597 30.0545 97.5962 29.5872C97.0251 28.9121 96.8174 28.0294 97.8299 27.1986L97.9338 27.1207C98.8165 26.4197 99.6733 26.5495 100.842 28.0034L101.335 28.6006L101.672 28.3409C102.347 27.7957 102.399 27.3544 101.88 26.7312C101.439 26.212 101.101 25.8485 100.79 25.537C100.79 25.537 100.79 25.537 100.764 25.485C100.712 25.4071 100.66 25.3293 100.764 25.2254L101.049 24.9917C101.049 24.9917 101.231 24.9398 101.335 25.0437C101.672 25.3293 102.01 25.6668 102.477 26.212C103.386 27.3284 103.204 28.2631 102.244 29.0419L99.4136 31.3526C99.4136 31.3526 99.18 31.4046 99.1281 31.3267M100.816 29.016L100.322 28.4188C99.5175 27.4322 99.1021 27.3544 98.5309 27.8217L98.4271 27.8996C97.8299 28.3669 97.9078 28.7823 98.2972 29.2496C98.6088 29.6131 98.9723 29.8727 99.5175 30.0804L100.816 29.016Z" fill="#1E1E1E"/>
<path id="Vector_39" d="M102.136 35.8713L101.877 35.4559C101.877 35.4559 101.851 35.2222 101.929 35.1703L104.811 33.301C105.693 32.7298 105.771 32.2624 105.33 31.5874C105.096 31.2239 104.681 30.8864 104.213 30.6268L100.501 33.0154C100.501 33.0154 100.267 33.0413 100.215 32.9634L99.9296 32.5221C99.9296 32.5221 99.9037 32.3144 100.008 32.2365L104.473 29.3287C104.473 29.3287 104.707 29.2767 104.759 29.3806L105.044 29.8219C105.044 29.8219 105.07 30.0297 104.966 30.1075L104.811 30.2114C105.408 30.5229 105.771 30.8345 106.109 31.3538C106.784 32.4182 106.446 33.301 105.278 34.0539L102.396 35.9232C102.396 35.9232 102.162 35.9492 102.111 35.8453" fill="#1E1E1E"/>
<path id="Vector_40" d="M104.707 40.597C104.318 40.0777 103.98 39.5325 103.695 38.9613C102.994 37.5593 103.591 36.4689 104.993 35.7679L105.668 35.4304C107.148 34.7034 108.29 34.9631 108.965 36.3391C109.121 36.6247 109.303 37.092 109.433 37.4814L111.172 36.6247C111.172 36.6247 111.38 36.6247 111.432 36.7026L111.665 37.1699C111.665 37.1699 111.665 37.3776 111.562 37.4295L105.019 40.7008C105.019 40.7008 104.811 40.7787 104.707 40.6229M108.732 37.819C108.628 37.4814 108.394 36.9882 108.238 36.7026C107.771 35.7939 107.07 35.7679 106.057 36.2612L105.382 36.5987C104.37 37.118 103.929 37.6891 104.396 38.5978C104.552 38.9094 104.811 39.3508 104.993 39.6623L108.706 37.819H108.732Z" fill="#1E1E1E"/>
<path id="Vector_41" d="M106.501 45.477L106.345 45.0356C106.345 45.0356 106.345 44.802 106.475 44.776L106.683 44.6981C106.241 44.3346 105.852 43.9192 105.644 43.374C105.333 42.5432 105.411 41.6345 106.631 41.1931L106.761 41.1412C107.825 40.7518 108.578 41.1412 109.227 42.9067L109.487 43.6336L109.876 43.4779C110.707 43.1663 110.889 42.7769 110.603 42.0239C110.37 41.3749 110.162 40.9335 109.98 40.5441C109.98 40.5441 109.98 40.5181 109.98 40.4921C109.954 40.4143 109.954 40.3104 110.084 40.2585L110.421 40.1287C110.421 40.1287 110.603 40.1287 110.681 40.2585C110.889 40.622 111.122 41.0633 111.382 41.7384C111.901 43.1144 111.382 43.8933 110.24 44.3346L106.813 45.6068C106.813 45.6068 106.579 45.6068 106.553 45.477M108.864 43.8413L108.604 43.1144C108.163 41.9201 107.773 41.7124 107.072 41.972L106.968 42.0239C106.267 42.2836 106.19 42.699 106.397 43.2702C106.553 43.7115 106.839 44.075 107.28 44.4385L108.864 43.8413Z" fill="#1E1E1E"/>
<path id="Vector_42" d="M112.37 47.7107C112.24 47.2434 112.006 46.8539 111.565 46.4385L107.333 47.6068C107.333 47.6068 107.099 47.5809 107.073 47.4511L106.943 46.9578C106.943 46.9578 106.995 46.7501 107.099 46.7241L112.24 45.2961C112.24 45.2961 112.473 45.2961 112.499 45.426L112.629 45.8933C112.629 45.8933 112.603 46.101 112.473 46.1529L112.266 46.2048C112.759 46.6202 113.019 47.0357 113.148 47.503C113.2 47.6588 113.148 47.7366 113.019 47.7626L112.603 47.8665C112.603 47.8665 112.422 47.8665 112.37 47.7107Z" fill="#1E1E1E"/>
<path id="Vector_43" d="M108.522 53.6545C108.288 53.0314 108.107 52.4343 108.003 51.7852C107.717 50.2534 108.574 49.3707 110.132 49.0591L110.885 48.9293C112.494 48.6437 113.533 49.2149 113.818 50.6948C113.87 51.0063 113.948 51.4996 113.948 51.915L115.869 51.5516C115.869 51.5516 116.077 51.6035 116.103 51.7073L116.207 52.2266C116.207 52.2266 116.155 52.4343 116.051 52.4343L108.859 53.7844C108.73 53.7844 108.652 53.7844 108.574 53.6026M113.169 52.0708C113.169 51.7073 113.065 51.1881 113.014 50.8506C112.832 49.838 112.131 49.6303 111.04 49.838L110.313 49.9678C109.197 50.1755 108.626 50.6169 108.808 51.6294C108.885 51.9929 108.989 52.4862 109.093 52.8237L113.169 52.0708Z" fill="#1E1E1E"/>
<path id="Vector_44" d="M108.654 55.8625L108.603 55.3692C108.603 55.3692 108.68 55.1615 108.784 55.1356L114.081 54.5904C114.081 54.5904 114.288 54.6682 114.314 54.7721L114.366 55.2654C114.366 55.2654 114.288 55.4731 114.185 55.4991L108.888 56.0443C108.888 56.0443 108.68 55.9664 108.654 55.8625ZM115.301 55.1875L115.249 54.6682C115.249 54.6682 115.327 54.4605 115.431 54.4346L116.262 54.3567C116.262 54.3567 116.469 54.4346 116.495 54.5384L116.547 55.0577C116.547 55.0577 116.469 55.2654 116.365 55.2914L115.535 55.3692C115.535 55.3692 115.327 55.2913 115.301 55.1875Z" fill="#1E1E1E"/>
<path id="Vector_45" d="M108.912 60.9764L108.809 57.809C108.809 57.3676 109.068 57.1599 109.354 57.1599H109.562C109.847 57.1599 110.003 57.2118 110.237 57.3676L113.69 59.9639C113.69 59.9639 113.742 60.0158 113.793 60.0158C113.845 60.0158 113.871 60.0158 113.871 59.912L113.793 57.3676C113.793 57.3676 113.871 57.1599 114.001 57.1599H114.365C114.365 57.1599 114.572 57.2378 114.572 57.3417L114.676 60.4312C114.676 60.8726 114.494 61.0284 114.183 61.0284H113.923C113.716 61.0284 113.534 60.9764 113.352 60.8207L109.821 58.1725C109.821 58.1725 109.743 58.1205 109.691 58.1205C109.639 58.1205 109.613 58.1205 109.613 58.1984L109.691 60.9764C109.691 60.9764 109.613 61.1841 109.484 61.1841H109.12C109.12 61.1841 108.912 61.1063 108.912 60.9764Z" fill="#1E1E1E"/>
<path id="Vector_46" d="M108.659 65.9877V65.4944C108.659 65.4944 108.789 65.2867 108.918 65.3127H109.152C108.892 64.7934 108.711 64.2742 108.763 63.677C108.815 62.7943 109.282 61.9894 110.58 62.0933H110.71C111.826 62.1712 112.345 62.8722 112.216 64.7415L112.164 65.5204H112.579C113.462 65.5983 113.773 65.3386 113.825 64.5078C113.877 63.8328 113.877 63.3395 113.851 62.8981C113.851 62.8981 113.851 62.8722 113.851 62.8462C113.851 62.7424 113.903 62.6645 114.033 62.6645H114.397C114.397 62.6645 114.578 62.7683 114.578 62.9241C114.63 63.3655 114.656 63.8328 114.578 64.5598C114.474 66.0137 113.696 66.5329 112.475 66.455L108.841 66.1954C108.841 66.1954 108.633 66.0916 108.633 65.9617M111.489 65.4685L111.541 64.6896C111.619 63.4174 111.385 63.0799 110.632 63.028H110.502C109.749 62.976 109.516 63.3135 109.49 63.9107C109.464 64.378 109.567 64.8194 109.801 65.3386L111.489 65.4685Z" fill="#1E1E1E"/>
<path id="Vector_47" d="M108.035 69.9086C108.035 69.7009 108.035 69.4153 108.087 69.2336C108.243 68.273 108.554 67.8576 109.697 68.0393L113.306 68.6105L113.591 67.6239C113.591 67.6239 113.695 67.4422 113.799 67.4681L114.084 67.52C114.084 67.52 114.266 67.6239 114.24 67.7537L114.084 68.7663L115.097 68.922C115.097 68.922 115.279 69.0259 115.279 69.1297V69.675C115.279 69.675 115.279 69.675 115.279 69.7009C115.279 69.7788 115.175 69.8567 115.071 69.8307L113.955 69.649L113.773 70.7654C113.773 70.7654 113.643 70.9471 113.539 70.9471L113.176 70.8952C113.176 70.8952 112.994 70.7654 112.994 70.6615L113.176 69.5451L109.567 68.974C108.996 68.8961 108.892 69.0259 108.84 69.4413L108.762 70.0125C108.762 70.1682 108.684 70.2202 108.58 70.2202L108.217 70.1682C108.217 70.1682 108.061 70.0904 108.061 69.9605" fill="#1E1E1E"/>
<path id="Vector_48" d="M107.671 71.7004L107.774 71.2071C107.774 71.2071 107.904 71.0254 108.034 71.0514L113.253 72.2197C113.253 72.2197 113.434 72.3495 113.408 72.4793L113.304 72.9726C113.304 72.9726 113.175 73.1544 113.045 73.1284L107.826 71.9601C107.826 71.9601 107.645 71.8303 107.671 71.7004ZM114.187 73.1544L114.291 72.6351C114.291 72.6351 114.421 72.4534 114.551 72.4793L115.355 72.6611C115.355 72.6611 115.537 72.7909 115.511 72.9207L115.407 73.4399C115.407 73.4399 115.278 73.6217 115.148 73.5957L114.343 73.414C114.343 73.414 114.161 73.2842 114.187 73.1544Z" fill="#1E1E1E"/>
<path id="Vector_49" d="M106.682 75.1535C107.123 73.6737 108.317 73.2323 109.797 73.6737L110.55 73.9073C112.03 74.3487 112.757 75.4132 112.316 76.8671C111.874 78.347 110.654 78.7883 109.2 78.347L108.447 78.1133C106.967 77.6719 106.24 76.6074 106.682 75.1276M109.46 77.4902C110.472 77.8017 111.251 77.594 111.537 76.6594C111.822 75.7247 111.303 75.1276 110.291 74.816L109.538 74.5823C108.525 74.2708 107.746 74.4785 107.461 75.4132C107.175 76.3478 107.694 76.945 108.707 77.2825L109.46 77.5161V77.4902Z" fill="#1E1E1E"/>
<path id="Vector_50" d="M104.06 82.1115L104.268 81.6442C104.268 81.6442 104.45 81.4884 104.554 81.5404L107.695 82.9164C108.656 83.3318 109.097 83.1501 109.409 82.4231C109.59 82.0077 109.616 81.5144 109.59 80.9692L105.54 79.2037C105.54 79.2037 105.385 79.0479 105.436 78.9181L105.644 78.4508C105.644 78.4508 105.8 78.321 105.93 78.3469L110.811 80.4759C110.811 80.4759 110.967 80.6317 110.915 80.7355L110.707 81.2028C110.707 81.2028 110.551 81.3586 110.447 81.3067L110.266 81.2288C110.343 81.8779 110.266 82.3712 110.032 82.9424C109.539 84.0847 108.578 84.2924 107.306 83.7472L104.164 82.3712C104.164 82.3712 104.008 82.1894 104.06 82.0856" fill="#1E1E1E"/>
</g>
</g>
</g>
</g>
</g>
</g>
</g>
</g>
</svg>
