<svg width="47" height="48" viewBox="0 0 47 48" fill="none" xmlns="http://www.w3.org/2000/svg">
<g clip-path="url(#clip0_370_6102)">
<mask id="mask0_370_6102" style="mask-type:luminance" maskUnits="userSpaceOnUse" x="0" y="0" width="47" height="40">
<path d="M46.8782 0.408691H0.568359V39.8953H46.8782V0.408691Z" fill="white"/>
</mask>
<g mask="url(#mask0_370_6102)">
<mask id="mask1_370_6102" style="mask-type:luminance" maskUnits="userSpaceOnUse" x="0" y="0" width="47" height="40">
<path d="M46.8792 0.408691H0.569336V39.8953H46.8792V0.408691Z" fill="white"/>
</mask>
<g mask="url(#mask1_370_6102)">
<path d="M40.8275 20.8479C40.4968 19.9962 39.8355 19.2247 39.0139 18.6736C36.6594 17.1808 33.0724 17.0705 30.6477 18.4232C29.3251 19.0945 28.4534 20.4371 28.1829 21.8097C27.692 24.0641 27.8222 26.7593 29.5556 28.4526C31.5895 30.2361 34.5352 30.6268 37.1603 29.8954C37.2806 29.8754 37.6813 29.7752 37.9519 29.6249L38.032 29.5948C38.8436 29.2542 39.6251 28.7031 40.2062 27.9516C41.5489 25.9978 41.639 23.0521 40.8275 20.8479ZM36.5491 25.9177C36.459 26.3485 36.1684 26.7894 35.7175 26.9497C34.9961 27.2703 34.0142 27.1801 33.3429 26.8094C32.7818 26.4187 32.7117 25.7574 32.6315 25.1362C32.5815 23.9138 32.4913 22.6113 32.8319 21.4891C33.1025 20.7978 33.8439 20.6174 34.5152 20.5673C35.2266 20.5673 35.9079 20.6775 36.3488 21.2486C36.6193 21.6594 36.5992 22.1905 36.6594 22.6714C36.6393 23.6834 36.7295 24.8957 36.5491 25.9277" fill="white"/>
<path d="M15.0885 27.0201C14.4874 26.98 13.8161 27.0401 13.245 26.97L13.265 20.7179L13.3051 20.6678L15.0986 20.6477C15.1186 19.6358 15.1386 18.5436 15.0785 17.6218L8.25528 17.6018L7.1331 17.6218C7.11307 18.5637 7.11307 19.6658 7.1331 20.6277C7.75431 20.6477 8.32542 20.6277 8.92658 20.6878V26.7395L8.90655 26.99L7.11307 27.0301C7.07299 28.022 7.07299 28.9839 7.11307 29.9658H15.0986V27.0301L15.0885 27.0201Z" fill="white"/>
<path d="M35.1972 31.2887C34.4357 32.3708 33.4738 33.4228 32.4318 34.2444C32.3917 34.2945 32.2815 34.2745 32.2515 34.2244C31.8006 33.9438 31.3096 33.7134 30.8688 33.4228C31.4499 32.7315 32.011 32.0301 32.4418 31.2686H31.8808C31.4299 31.9299 30.959 32.6213 30.3578 33.2124C29.5562 32.8918 28.8348 32.6112 28.0233 32.3908L27.9331 32.3207C28.0633 31.96 28.2938 31.6193 28.3639 31.2686H27.873L27.382 32.2305C26.3099 32.0001 25.1377 31.8698 24.0456 31.7997C23.9854 31.6394 24.0656 31.4089 23.9854 31.2686H23.5145C23.4744 31.479 23.5646 31.6394 23.4644 31.8197C22.3422 31.8698 21.2501 32.0001 20.2081 32.2105L19.7172 31.2686C19.5368 31.2686 19.3364 31.2386 19.2062 31.2887L19.657 32.3407L19.6069 32.3908C18.7853 32.6213 17.9938 32.9118 17.2123 33.2324L17.1422 33.1924C16.6312 32.6413 16.1502 32.0401 15.7495 31.429C15.6593 31.1284 15.2986 31.2987 15.0982 31.2686C15.529 32.0502 16.1102 32.7415 16.6913 33.4629C16.2003 33.7434 15.7194 34.0641 15.2084 34.3045C14.1263 33.4829 13.1143 32.4209 12.3428 31.2987C12.1224 31.2686 11.9821 31.2787 11.7617 31.2987C13.0642 33.3326 15.0982 35.1061 17.2123 36.1581C17.2123 36.1581 17.2123 36.1381 17.2323 36.1381C17.2524 36.1381 17.2824 36.1681 17.2524 36.1882C18.6852 36.8795 20.2081 37.3805 21.8212 37.5909C27.382 38.3223 32.6923 35.9577 35.7683 31.2887C35.608 31.2686 35.3675 31.2686 35.1872 31.2887M27.6425 32.8918L27.6926 32.8517C28.4741 33.0321 29.2156 33.2825 29.9069 33.6132C29.3258 34.2745 28.5844 34.8456 27.893 35.3165C27.4722 35.567 27.0614 35.8375 26.6205 36.0479L25.839 35.7072L25.8891 35.587C26.5404 34.7153 27.1215 33.8236 27.6325 32.8818M24.0756 32.3608C25.1076 32.3808 26.1396 32.491 27.1015 32.7215L27.1215 32.7716C26.6105 33.7334 25.9793 34.6552 25.288 35.5269C24.9774 35.567 24.6868 35.4367 24.3862 35.4167L24.0756 35.3766C24.0355 34.3246 24.0155 33.4028 24.0756 32.3507M20.5788 32.6814C21.5207 32.501 22.5026 32.3608 23.5145 32.3608L23.5346 35.3766C23.1538 35.4668 22.733 35.4668 22.3723 35.557C21.6309 34.6853 21.0097 33.7434 20.4886 32.7615L20.5788 32.6914V32.6814ZM17.6632 33.6432C18.3745 33.3026 19.116 33.0521 19.8775 32.8617L19.9476 32.8818C20.4686 33.8637 21.1199 34.7855 21.7711 35.7072C21.5207 35.8475 21.2101 35.9377 20.9596 36.078C19.7673 35.4868 18.625 34.6752 17.6632 33.6933V33.6432ZM19.9977 36.6892C18.4747 36.2984 17.062 35.6171 15.7595 34.6953V34.6452C16.1903 34.3847 16.6312 34.0941 17.1021 33.8937C18.1341 34.9157 19.2062 35.6772 20.3684 36.4086C20.2782 36.5188 20.128 36.619 20.0077 36.6992M26.7207 36.9196C24.797 37.3304 22.6629 37.3504 20.7391 36.8895C20.6991 36.7994 20.8293 36.7793 20.8794 36.7292C22.5627 35.6471 25.1878 35.6471 26.841 36.8194C26.8911 36.9296 26.7508 36.8895 26.7107 36.9296M28.4541 36.4186L27.6025 36.6892C27.4622 36.619 27.3319 36.5088 27.2017 36.3986L27.2418 36.3485C28.404 35.6772 29.456 34.8556 30.448 33.8737C30.9389 34.0741 31.4098 34.3346 31.8407 34.6352C30.8287 35.4367 29.6464 35.9678 28.4541 36.4186Z" fill="white"/>
<path d="M12.3216 16.2492C12.7525 15.648 13.2434 15.0568 13.7845 14.4857C14.2554 14.0449 14.6862 13.614 15.1972 13.2934C15.6681 13.594 16.1891 13.8445 16.65 14.1351C16.0889 14.8264 15.5078 15.5278 15.087 16.2692C15.2172 16.3193 15.4477 16.3093 15.628 16.2692C16.0789 15.6079 16.5699 14.9566 17.151 14.3655C17.9325 14.646 18.694 14.9566 19.4855 15.1671L19.5557 15.2372L19.1048 16.2692C19.3052 16.3093 19.4354 16.2892 19.6258 16.2692C19.7861 15.9686 19.9164 15.628 20.0967 15.3274C21.1487 15.5578 22.2509 15.6881 23.3731 15.7181C23.5133 15.8484 23.4131 16.1089 23.4632 16.2692H23.9542C24.0043 16.0989 23.9341 15.8985 24.0043 15.7382C25.0563 15.678 26.1585 15.5779 27.1804 15.3274L27.2706 15.3474L27.7616 16.2692C27.9219 16.2692 28.1423 16.3093 28.2726 16.2291L27.8217 15.1971L27.8618 15.157C28.6934 14.9466 29.4749 14.626 30.2664 14.3054C30.8275 14.8965 31.3485 15.5879 31.8295 16.2592C32.0299 16.2592 32.2302 16.2792 32.3705 16.2191C32.1501 15.8283 31.8796 15.4376 31.589 15.0969C31.3485 14.7563 31.098 14.4557 30.7874 14.1351V14.0449L32.0599 13.3135L32.2403 13.2433C33.3424 14.0749 34.3243 15.0969 35.1058 16.2191C35.3263 16.2191 35.5066 16.2892 35.687 16.1991C33.2622 12.572 29.2545 10.2375 24.9261 9.89684L24.906 9.92689L24.866 9.89684C24.375 9.84674 23.7738 9.8267 23.2528 9.8768C23.0524 9.85676 22.822 9.8768 22.5815 9.89684C18.2331 10.2375 14.2353 12.4618 11.7305 16.2492C11.9108 16.2291 12.1312 16.2993 12.3116 16.2291M19.8362 14.6861L19.7661 14.7062C19.0246 14.5158 18.2932 14.2753 17.6119 13.9747L17.6419 13.8645C18.6339 12.9227 19.6859 12.1412 20.8482 11.53C21.1187 11.6402 21.3892 11.7304 21.6597 11.8506L21.6096 11.9909C20.9183 12.8425 20.3772 13.7744 19.8362 14.6861ZM23.4432 15.1671C22.9322 15.2372 22.4813 15.147 21.9703 15.1069C21.4794 15.0368 20.8682 14.9867 20.3772 14.8264C20.8983 13.8545 21.5195 12.9027 22.2609 12.041L23.4232 12.2013C23.4733 13.1231 23.4432 14.1952 23.4432 15.1771M24.0043 15.1871C23.9642 14.2453 23.9842 13.1932 24.0043 12.2113C24.365 12.1612 24.7658 12.1011 25.1265 12.051C25.8378 12.9427 26.5192 13.8545 26.9901 14.8264C26.0082 15.0568 25.0162 15.1871 24.0043 15.1871ZM29.7755 13.9347C29.0641 14.2353 28.3427 14.5258 27.5612 14.6861C27.0001 13.7443 26.3889 12.8025 25.6976 11.8907C25.9481 11.7504 26.2587 11.6402 26.5292 11.4999C27.7115 12.0911 28.8537 12.9227 29.8055 13.8846L29.7755 13.9447V13.9347ZM27.461 10.8888C28.9839 11.2795 30.4167 11.9608 31.7193 12.8826L31.6792 12.9528L30.4267 13.6441H30.3366C29.3747 12.6822 28.2525 11.8506 27.1103 11.1893C27.1504 11.0691 27.3307 10.9789 27.451 10.8888M26.7396 10.7184V10.7585C25.1665 11.8907 22.6116 12.0009 20.9484 10.9489C20.8582 10.8787 20.6778 10.8387 20.6578 10.7184C22.5815 10.2776 24.8459 10.2375 26.7496 10.7184M15.6881 12.9227C16.8304 12.0911 18.1028 11.4599 19.4354 11.0391C19.4855 10.9789 19.5256 10.9288 19.5957 10.9288V10.9689C19.736 10.999 19.8462 10.8387 19.9765 10.9489C20.0867 11.0391 20.2169 11.1092 20.3071 11.1994C19.1849 11.8907 18.0828 12.7123 17.0608 13.7042C16.5699 13.5339 16.119 13.2634 15.6881 12.9628V12.9327V12.9227Z" fill="white"/>
<path d="M23.6012 27.109C21.8979 27.5699 20.0543 27.2192 18.8219 25.9367C18.6816 25.7564 18.5914 25.546 18.4411 25.3656L15.9964 25.3857C15.9563 26.8285 15.9363 28.4817 15.9964 29.9044L18.7117 29.8844L18.7517 29.0327C19.0623 29.173 19.373 29.3534 19.6735 29.5137C21.5572 30.2952 23.9819 30.4755 25.8455 29.5137C27.2082 28.7722 27.9296 27.3294 27.7292 25.7764C27.5288 24.2635 26.086 22.8908 24.6131 22.5201L20.2246 21.2577L19.904 21.0973C19.7637 20.9771 19.6635 20.8168 19.7036 20.6164C20.0443 20.0253 20.8458 20.2056 21.447 20.2257C22.7194 20.406 24.022 20.8268 24.7634 21.9891C25.5549 21.9891 26.4868 22.0091 27.3484 21.969C27.3885 20.5062 27.3284 19.2337 27.3083 17.7509C26.4968 17.7308 25.4948 17.7308 24.6833 17.7709C24.6432 17.9813 24.7133 18.2819 24.6231 18.5023L23.7915 18.0615C21.7977 17.2298 19.0123 17.1397 17.1987 18.4322C16.0164 19.2838 15.6557 20.8168 15.9663 22.1694C16.1968 23.4519 17.4292 24.3937 18.6115 24.8346C20.2246 25.4057 21.9079 25.8165 23.541 26.3676C23.7014 26.4377 23.9218 26.598 23.8817 26.7984C23.8817 26.9587 23.7214 27.0489 23.5911 27.119" fill="white"/>
<path d="M6.33054 31.2581L6.42072 31.4585C6.42072 31.4585 6.42072 31.5386 6.37062 31.5587L3.76556 32.6909C3.76556 32.6909 3.68541 32.6909 3.66537 32.6508L3.5752 32.4504C3.5752 32.4504 3.5752 32.3703 3.61527 32.3502L6.23035 31.218C6.23035 31.218 6.3105 31.218 6.33054 31.2481" fill="white"/>
<path d="M5.55947 29.1538L5.61959 29.3342C5.61959 29.3342 5.61959 29.4244 5.56949 29.4344L4.30704 29.8652C3.91628 29.9955 3.84615 30.1658 3.94634 30.4564C3.99644 30.6167 4.12669 30.777 4.26696 30.9273L5.89011 30.3862C5.89011 30.3862 5.98029 30.3862 5.99031 30.4363L6.05042 30.6267C6.05042 30.6267 6.05042 30.7069 6.00033 30.7269L4.04653 31.3882C4.04653 31.3882 3.95636 31.3882 3.94634 31.3381L3.88622 31.1477C3.88622 31.1477 3.88622 31.0676 3.93632 31.0475L4.00646 31.0175C3.81609 30.8471 3.69585 30.6968 3.62572 30.4664C3.46541 30.0055 3.68583 29.7049 4.19683 29.5346L5.45928 29.1138C5.45928 29.1138 5.54945 29.1138 5.55947 29.1639" fill="white"/>
<path d="M5.20875 27.6414C5.23881 27.7216 5.26886 27.8218 5.2889 27.8919C5.36906 28.2526 5.31896 28.453 4.88812 28.5532L3.51546 28.8838L3.56556 29.2746C3.56556 29.2746 3.56556 29.3547 3.51546 29.3648L3.40525 29.3948C3.40525 29.3948 3.32509 29.3848 3.31507 29.3347L3.2249 28.954L2.84416 29.0441C2.84416 29.0441 2.764 29.0341 2.75398 28.994L2.67383 28.7936C2.67383 28.7936 2.67383 28.7936 2.67383 28.7836C2.67383 28.7536 2.68385 28.7135 2.72393 28.7035L3.15476 28.6033L3.05457 28.1825C3.05457 28.1825 3.07461 28.0923 3.11468 28.0823L3.24494 28.0522C3.24494 28.0522 3.33511 28.0722 3.34513 28.1123L3.44533 28.5331L4.81799 28.2025C5.03842 28.1524 5.04844 28.0923 5.01838 27.932L4.96828 27.7116C4.95826 27.6615 4.96828 27.6214 5.00836 27.6114L5.14863 27.5813C5.14863 27.5813 5.20875 27.5813 5.22879 27.6314" fill="white"/>
<path d="M3.90556 25.828L4.08591 27.1706H4.14603C4.62696 27.1005 4.76724 26.8901 4.71714 26.5193C4.68708 26.2889 4.62696 25.9883 4.57687 25.808C4.57687 25.808 4.57687 25.7979 4.57687 25.7879C4.57687 25.7579 4.57687 25.7178 4.62696 25.7178L4.76724 25.6978C4.81733 25.6978 4.84739 25.6978 4.86743 25.7679C4.94759 25.9883 4.99768 26.2087 5.03776 26.4793C5.09788 26.9402 4.94759 27.4211 4.20615 27.5213L3.84545 27.5714C3.27434 27.6515 2.86354 27.381 2.78339 26.8099C2.70323 26.2288 3.03387 25.8781 3.59496 25.7979L3.81539 25.7679C3.86549 25.7679 3.90556 25.7879 3.91558 25.828M3.64506 26.1486C3.19418 26.2087 3.04389 26.4091 3.09399 26.7598C3.14409 27.1005 3.36452 27.2708 3.79535 27.2107H3.83543L3.68514 26.1486H3.64506Z" fill="white"/>
<path d="M2.88359 24.4349C2.88359 24.6252 2.95373 24.7856 3.08398 24.9859L4.77727 24.8958C4.77727 24.8958 4.85742 24.9258 4.85742 24.9759V25.1763C4.85742 25.1763 4.83738 25.2565 4.78728 25.2565L2.7333 25.3667C2.7333 25.3667 2.65314 25.3366 2.65314 25.2965V25.1062C2.65314 25.1062 2.67318 25.026 2.72328 25.026H2.80344C2.65314 24.8256 2.59303 24.6453 2.58301 24.4649C2.58301 24.4048 2.60305 24.3848 2.65314 24.3748H2.81345C2.81345 24.3748 2.88359 24.3948 2.88359 24.4449" fill="white"/>
<path d="M4.86791 22.3313V22.5216C4.86791 22.5216 4.81781 22.6018 4.77773 22.6018L3.45517 22.5517C3.04437 22.5317 2.91412 22.6719 2.9041 22.9725C2.9041 23.1428 2.9542 23.3332 3.04437 23.5236L4.74768 23.5937C4.74768 23.5937 4.82783 23.6338 4.82783 23.6739V23.8743C4.82783 23.8743 4.77773 23.9544 4.73766 23.9444L2.68367 23.8642C2.68367 23.8642 2.60352 23.8242 2.60352 23.7841V23.5837C2.60352 23.5837 2.65361 23.5136 2.69369 23.5136H2.77385C2.66363 23.2931 2.60352 23.1028 2.61354 22.8723C2.63357 22.3914 2.94418 22.181 3.47521 22.201L4.79777 22.2511C4.79777 22.2511 4.87793 22.2912 4.87793 22.3313" fill="white"/>
<path d="M5.13875 20.3472L5.10869 20.5276C5.10869 20.5276 5.05859 20.5977 5.01852 20.5977H4.92834C5.0085 20.7981 5.06861 21.0085 5.03855 21.2289C4.98846 21.5696 4.79809 21.8601 4.29712 21.78H4.24702C3.81618 21.7099 3.63583 21.4293 3.74605 20.7179L3.78612 20.4274L3.62581 20.4073C3.28515 20.3572 3.1549 20.4574 3.11482 20.768C3.07474 21.0285 3.06472 21.2189 3.0547 21.3892C3.0547 21.3892 3.0547 21.3993 3.0547 21.4093C3.0547 21.4494 3.03467 21.4794 2.98457 21.4694L2.8443 21.4494C2.8443 21.4494 2.78418 21.4093 2.78418 21.3592C2.78418 21.1888 2.78418 20.9985 2.82426 20.728C2.90441 20.1769 3.21502 19.9865 3.68593 20.0567L5.07863 20.2671C5.07863 20.2671 5.15879 20.3172 5.14877 20.3572M4.03661 20.4674L3.99653 20.758C3.9264 21.2389 4.01657 21.3792 4.29712 21.4293H4.34721C4.63778 21.4794 4.72795 21.3592 4.76803 21.1187C4.79809 20.9384 4.76803 20.758 4.68787 20.5576L4.04663 20.4674H4.03661Z" fill="white"/>
<path d="M5.48976 18.8645C5.48976 18.9447 5.46972 19.0449 5.44968 19.1251C5.35951 19.4858 5.22925 19.636 4.79842 19.5358L3.42576 19.2052L3.2955 19.5759C3.2955 19.5759 3.25542 19.6461 3.20533 19.636L3.09511 19.606C3.09511 19.606 3.035 19.5559 3.04502 19.5158L3.13519 19.1351L2.75445 19.0449C2.75445 19.0449 2.69434 18.9948 2.69434 18.9547L2.71438 18.7443C2.71438 18.7443 2.71438 18.7443 2.71438 18.7343C2.71438 18.7042 2.75445 18.6842 2.79453 18.6942L3.22537 18.7944L3.32556 18.3736C3.32556 18.3736 3.38568 18.3035 3.42576 18.3135L3.55601 18.3435C3.55601 18.3435 3.62614 18.3936 3.61612 18.4437L3.51593 18.8645L4.88859 19.1952C5.10902 19.2453 5.1491 19.1952 5.18918 19.0449L5.23927 18.8245C5.24929 18.7744 5.26933 18.7443 5.30941 18.7543L5.44968 18.7844C5.44968 18.7844 5.5098 18.8145 5.49978 18.8746" fill="white"/>
<path d="M3.22383 17.4418L3.16371 17.6422C3.16371 17.6422 3.1036 17.7123 3.06352 17.6923L2.75292 17.6021C2.75292 17.6021 2.68278 17.542 2.70282 17.5019L2.76294 17.3015C2.76294 17.3015 2.82305 17.2314 2.86313 17.2514L3.17373 17.3416C3.17373 17.3416 3.24387 17.4017 3.22383 17.4418ZM5.68861 18.2033L5.6285 18.3836C5.6285 18.3836 5.56838 18.4537 5.5283 18.4337L3.56449 17.8325C3.56449 17.8325 3.49436 17.7724 3.51439 17.7323L3.57451 17.542C3.57451 17.542 3.63463 17.4718 3.6747 17.4919L5.63851 18.093C5.63851 18.093 5.70865 18.1532 5.68861 18.1932" fill="white"/>
<path d="M6.1799 16.8905C5.95947 17.4415 5.48855 17.5718 4.93749 17.3614L4.65694 17.2512C4.10587 17.0307 3.85539 16.6099 4.07581 16.0588C4.29624 15.5078 4.76715 15.3675 5.31822 15.5879L5.59877 15.6981C6.14984 15.9186 6.40032 16.3494 6.1799 16.9005M5.18797 15.9085C4.80723 15.7583 4.50665 15.8084 4.36638 16.1691C4.2261 16.5197 4.40645 16.7702 4.79721 16.9205L5.07776 17.0307C5.4585 17.181 5.75908 17.1309 5.89935 16.7802C6.03962 16.4296 5.85927 16.1791 5.46852 16.0288L5.18797 15.9186V15.9085Z" fill="white"/>
<path d="M7.41335 14.2755L7.32318 14.4458C7.32318 14.4458 7.25304 14.4959 7.21296 14.4759L6.04069 13.8446C5.67999 13.6543 5.50966 13.7144 5.35937 13.9849C5.27921 14.1352 5.24915 14.3356 5.23913 14.536L6.74205 15.3375C6.74205 15.3375 6.79215 15.4077 6.77211 15.4478L6.68193 15.6181C6.68193 15.6181 6.6118 15.6682 6.57172 15.6481L4.7582 14.6763C4.7582 14.6763 4.69808 14.6061 4.72814 14.566L4.81832 14.3857C4.81832 14.3857 4.88845 14.3356 4.92853 14.3556L4.99867 14.3957C4.99867 14.1452 5.02873 13.9549 5.13894 13.7444C5.36939 13.3136 5.74011 13.2635 6.21102 13.524L7.38329 14.1552C7.38329 14.1552 7.43339 14.2254 7.41335 14.2655" fill="white"/>
<path d="M8.50516 12.6321L8.39494 12.7824C8.39494 12.7824 8.31479 12.8324 8.28473 12.8024L8.21459 12.7523C8.19456 12.9727 8.15448 13.1931 8.02422 13.3735C7.83386 13.654 7.53327 13.8344 7.11246 13.5438L7.07238 13.5138C6.71168 13.2633 6.6716 12.9326 7.0824 12.3415L7.25273 12.091L7.12247 12.0008C6.84193 11.8105 6.68162 11.8405 6.50127 12.101C6.35098 12.3215 6.2608 12.4818 6.18065 12.6321C6.18065 12.6321 6.18065 12.6321 6.17063 12.6521C6.15059 12.6822 6.12053 12.7022 6.08045 12.6721L5.96022 12.592C5.96022 12.592 5.92014 12.5319 5.94018 12.4818C6.01032 12.3315 6.10049 12.1611 6.25078 11.9407C6.57141 11.4798 6.93211 11.4498 7.32286 11.7203L8.48512 12.5118C8.48512 12.5118 8.53522 12.592 8.50516 12.622M7.46314 12.2513L7.29281 12.5018C7.02228 12.9026 7.0323 13.0729 7.27277 13.2332L7.31284 13.2633C7.55331 13.4236 7.69358 13.3535 7.82384 13.1631C7.93405 13.0128 7.97413 12.8425 7.99417 12.622L7.45312 12.2513H7.46314Z" fill="white"/>
<path d="M9.0466 11.9608L8.91635 12.1211C8.91635 12.1211 8.84622 12.1512 8.80614 12.1211L6.56178 10.3176C6.56178 10.3176 6.5217 10.2475 6.54174 10.2174L6.672 10.0571C6.672 10.0571 6.74213 10.017 6.77219 10.0571L9.01655 11.8606C9.01655 11.8606 9.06664 11.9308 9.03658 11.9708" fill="white"/>
<path d="M10.8097 10.1076C10.3488 10.5384 9.75763 10.5885 9.14644 9.92722L8.78574 9.54648C8.17455 8.89522 8.25471 8.30407 8.7156 7.87324C9.1765 7.4424 9.76764 7.40232 10.3788 8.05359L10.7395 8.43432C11.3507 9.08559 11.2706 9.66671 10.8097 10.1076ZM10.1083 8.31409C9.64741 7.82314 9.26667 7.82314 8.94605 8.12372C8.62543 8.4243 8.59537 8.80504 9.05626 9.30601L9.40694 9.68675C9.86784 10.1777 10.2486 10.1777 10.5792 9.87712C10.8998 9.57654 10.9299 9.1958 10.459 8.70485L10.0983 8.32411L10.1083 8.31409Z" fill="white"/>
<path d="M11.4715 7.00154C11.3212 7.11175 11.221 7.25202 11.1308 7.47245L12.1528 8.81505C12.1528 8.81505 12.1728 8.90523 12.1428 8.92527L11.9825 9.0455C11.9825 9.0455 11.9023 9.06554 11.8723 9.02546L10.6198 7.39229C10.6198 7.39229 10.5998 7.31214 10.6298 7.28208L10.7801 7.17187C10.7801 7.17187 10.8603 7.15183 10.8903 7.1919L10.9404 7.26204C11.0106 7.03159 11.1308 6.87128 11.2711 6.76107C11.3112 6.73101 11.3512 6.73101 11.3813 6.76107L11.4815 6.89132C11.4815 6.89132 11.5015 6.96146 11.4514 7.00154" fill="white"/>
<path d="M13.2944 5.77882L13.1842 5.87901C13.2844 5.90907 13.4046 5.96919 13.5249 6.15956L13.5449 6.18962C13.7854 6.56034 13.6852 6.92103 13.1642 7.25168C12.9838 7.36189 12.8536 7.41199 12.7233 7.43203C12.6832 7.49214 12.6832 7.55226 12.7133 7.60236C12.7534 7.66247 12.7934 7.67249 12.8836 7.64243L13.4748 7.45206C13.8655 7.32181 14.2463 7.2116 14.4466 7.53222L14.4667 7.56228C14.6771 7.89292 14.5869 8.22356 14.0258 8.58426C13.4848 8.92492 13.1141 8.87482 12.9037 8.54418L12.8836 8.51412C12.7634 8.32376 12.7634 8.10333 12.8235 7.94302H12.7934C12.6532 7.97307 12.5329 7.8829 12.4728 7.78271C12.4127 7.69253 12.3927 7.56228 12.4528 7.44204C12.2824 7.41199 12.1522 7.32181 12.042 7.15148L12.0219 7.12142C11.8316 6.82084 11.8115 6.41004 12.3927 6.03932L13.1341 5.56841C13.1341 5.56841 13.2343 5.54837 13.2644 5.59847L13.3144 5.68864C13.3144 5.68864 13.3245 5.75878 13.2944 5.78884M13.2343 6.34993C13.104 6.14954 12.9137 6.04934 12.543 6.27979C12.1622 6.52026 12.1923 6.7507 12.3125 6.94107L12.3325 6.97113C12.4227 7.12142 12.6231 7.27171 13.0139 7.02123C13.3846 6.79078 13.3846 6.59039 13.2543 6.37999L13.2343 6.34993ZM14.1461 7.72259C14.0659 7.59234 13.9156 7.60236 13.5649 7.72259L13.1141 7.87288C13.074 8.02317 13.0539 8.15342 13.1742 8.32376L13.1942 8.35381C13.3144 8.54418 13.5048 8.59428 13.8856 8.35381C14.2763 8.10333 14.2964 7.94302 14.1761 7.75265L14.1561 7.72259H14.1461Z" fill="white"/>
<path d="M15.9887 6.60086L15.8184 6.68102C15.8184 6.68102 15.7282 6.68102 15.7082 6.64094L15.6681 6.56079C15.5479 6.75116 15.3976 6.91147 15.1972 7.01166C14.8866 7.16195 14.5459 7.17197 14.3155 6.71108L14.2954 6.671C14.1051 6.28024 14.2353 5.96964 14.8766 5.64902L15.1471 5.51877L15.0769 5.37849C14.9266 5.07791 14.7663 5.01779 14.4858 5.15807C14.2553 5.26828 14.085 5.37849 13.9447 5.45865C13.9447 5.45865 13.9347 5.45865 13.9247 5.45865C13.8946 5.47869 13.8546 5.47869 13.8345 5.42859L13.7744 5.29834C13.7744 5.29834 13.7744 5.2282 13.8145 5.18813C13.9548 5.08793 14.1051 4.98774 14.3555 4.8675C14.8565 4.61702 15.1872 4.77733 15.3976 5.19815L16.0188 6.46059C16.0188 6.46059 16.0188 6.55077 15.9787 6.57081M15.2673 5.75923L14.9968 5.88949C14.5559 6.10991 14.4958 6.2602 14.616 6.52071L14.6361 6.56079C14.7663 6.82129 14.9166 6.83131 15.127 6.73112C15.2974 6.65096 15.4176 6.52071 15.5479 6.34036L15.2573 5.75923H15.2673Z" fill="white"/>
<path d="M17.9936 5.82897L17.8133 5.89911C17.8133 5.89911 17.7231 5.89911 17.7131 5.84901L17.2622 4.6066C17.1219 4.22586 16.9516 4.15573 16.661 4.25592C16.5007 4.31604 16.3504 4.43627 16.2002 4.58656L16.7813 6.18967C16.7813 6.18967 16.7813 6.27985 16.7312 6.28987L16.5408 6.36C16.5408 6.36 16.4607 6.36 16.4406 6.30991L15.7393 4.37616C15.7393 4.37616 15.7393 4.28598 15.7793 4.27596L15.9697 4.20582C15.9697 4.20582 16.0499 4.20582 16.0699 4.25592L16.1 4.32606C16.2703 4.13569 16.4106 4.01546 16.641 3.9353C17.0919 3.76497 17.4025 3.9854 17.5929 4.48637L18.0437 5.7388C18.0437 5.7388 18.0437 5.82897 17.9936 5.83899" fill="white"/>
<path d="M18.1632 3.12424L17.9628 3.17434C17.9628 3.17434 17.8727 3.16432 17.8626 3.11422L17.7725 2.80362C17.7725 2.80362 17.7825 2.71345 17.8326 2.70343L18.033 2.64331C18.033 2.64331 18.1231 2.65333 18.1332 2.70343L18.2133 3.01403C18.2133 3.01403 18.2033 3.1042 18.1532 3.11422M18.8245 5.60906L18.6341 5.65916C18.6341 5.65916 18.544 5.64914 18.5339 5.59904L17.9929 3.6152C17.9929 3.6152 18.0029 3.52502 18.053 3.515L18.2434 3.4649C18.2434 3.4649 18.3335 3.47492 18.3436 3.52502L18.8846 5.50887C18.8846 5.50887 18.8746 5.59904 18.8245 5.60906Z" fill="white"/>
<path d="M20.7571 5.18784L19.5548 5.41829C19.3845 5.44834 19.2943 5.35817 19.2743 5.24796V5.1678C19.2342 5.05759 19.2542 4.99747 19.3043 4.89728L20.0758 3.42442C20.0758 3.42442 20.0858 3.39436 20.0758 3.38434C20.0758 3.3643 20.0658 3.35428 20.0257 3.3643L19.0638 3.55467C19.0638 3.55467 18.9737 3.53463 18.9637 3.49455L18.9336 3.35428C18.9336 3.35428 18.9536 3.27413 18.9937 3.26411L20.156 3.03366C20.3163 3.0036 20.3964 3.06372 20.4165 3.18395L20.4365 3.28415C20.4565 3.3643 20.4365 3.43444 20.3864 3.51459L19.5949 5.02753C19.5949 5.02753 19.5849 5.06761 19.5849 5.07763C19.5849 5.09766 19.5849 5.10768 19.6249 5.10768L20.677 4.90729C20.677 4.90729 20.7672 4.92733 20.7672 4.96741L20.7972 5.10768C20.7972 5.10768 20.7772 5.19786 20.7371 5.19786" fill="white"/>
<path d="M22.6524 4.98697L22.462 5.00701C22.462 5.00701 22.3819 4.97695 22.3719 4.93687V4.8467C22.1815 4.97695 21.9911 5.07715 21.7607 5.09718C21.42 5.12724 21.0894 5.00701 21.0493 4.50604V4.45594C21.0092 4.02511 21.2397 3.78464 21.951 3.7145L22.2516 3.68444V3.52413C22.2015 3.18347 22.0813 3.08328 21.7707 3.11334C21.5102 3.13338 21.3198 3.17345 21.1595 3.20351C21.1595 3.20351 21.1495 3.20351 21.1395 3.20351C21.0994 3.20351 21.0693 3.20351 21.0593 3.1434V3.00312C21.0593 3.00312 21.0593 2.93299 21.1194 2.92297C21.2797 2.88289 21.4601 2.84281 21.7406 2.81275C22.3017 2.76266 22.5522 3.02316 22.5923 3.49408L22.7225 4.8968C22.7225 4.8968 22.6925 4.97695 22.6524 4.98697ZM22.2717 3.94495L21.9711 3.97501C21.4801 4.01509 21.3699 4.13532 21.39 4.42588V4.47598C21.42 4.76654 21.5603 4.82666 21.8008 4.80662C21.9811 4.78658 22.1414 4.71645 22.3318 4.59621L22.2717 3.94495Z" fill="white"/>
<path d="M24.1944 4.96735C24.1142 4.97737 24.004 4.98739 23.9339 4.98739C23.5632 4.98739 23.3828 4.89722 23.3728 4.45636L23.3527 3.04362L22.962 3.00354C22.962 3.00354 22.8818 2.97348 22.8818 2.93341V2.82319C22.8818 2.82319 22.9119 2.75306 22.952 2.75306H23.3427V2.35228C23.3427 2.3122 23.3728 2.28214 23.4129 2.27212L23.6233 2.24207H23.6333C23.6333 2.24207 23.6934 2.27212 23.6934 2.3122V2.75306H24.1343C24.1743 2.75306 24.2144 2.78311 24.2144 2.83321V2.97348C24.2144 2.97348 24.1844 3.05364 24.1343 3.05364H23.6934L23.7134 4.4764C23.7134 4.69683 23.7736 4.72688 23.9339 4.72688H24.1643C24.2244 4.72688 24.2445 4.7369 24.2545 4.77698V4.91725C24.2545 4.91725 24.2345 4.97737 24.1844 4.98739" fill="white"/>
<path d="M24.8955 5.00761H24.7052C24.7052 5.00761 24.625 4.95751 24.625 4.90741L24.7452 2.85343C24.7452 2.85343 24.7853 2.77327 24.8254 2.77327H25.0158C25.0158 2.77327 25.0959 2.82337 25.0959 2.87347L24.9757 4.92745C24.9757 4.92745 24.9356 5.00761 24.8855 5.00761M25.0558 2.43261H24.8454C24.8454 2.43261 24.7653 2.38251 24.7653 2.33242L24.7853 2.0118C24.7853 2.0118 24.8254 1.93164 24.8655 1.93164H25.0759C25.0759 1.93164 25.156 1.98174 25.156 2.03183L25.136 2.35246C25.136 2.35246 25.0959 2.43261 25.0558 2.43261Z" fill="white"/>
<path d="M26.2878 5.16772C25.6966 5.08756 25.4461 4.65673 25.5263 4.06558L25.5664 3.765C25.6465 3.17385 25.9972 2.82317 26.5883 2.91335C27.1795 2.9935 27.43 3.42434 27.3498 4.01549L27.3097 4.31607C27.2296 4.90721 26.8689 5.24788 26.2878 5.16772ZM26.9991 3.96539C27.0592 3.55459 26.929 3.27405 26.5483 3.22395C26.1775 3.17385 25.9771 3.4043 25.917 3.82512L25.877 4.1257C25.8269 4.5365 25.9471 4.81704 26.3278 4.86714C26.6985 4.91723 26.8989 4.68679 26.9591 4.27599L26.9991 3.97541V3.96539Z" fill="white"/>
<path d="M29.1246 5.73891L28.9342 5.68881C28.9342 5.68881 28.8641 5.63871 28.8741 5.58862L29.2047 4.29611C29.3049 3.89533 29.2047 3.74504 28.9041 3.66489C28.7438 3.62481 28.5434 3.63483 28.333 3.68492L27.9122 5.33813C27.9122 5.33813 27.8521 5.40827 27.812 5.39825L27.6216 5.34815C27.6216 5.34815 27.5615 5.29805 27.5615 5.24796L28.0725 3.25409C28.0725 3.25409 28.1226 3.18395 28.1627 3.19397L28.3631 3.24407C28.3631 3.24407 28.4332 3.29417 28.4132 3.34426L28.3931 3.4144C28.6436 3.34426 28.834 3.33424 29.0644 3.39436C29.5354 3.51459 29.6756 3.86527 29.5354 4.38629L29.2047 5.67879C29.2047 5.67879 29.1446 5.74893 29.1045 5.73891" fill="white"/>
<path d="M32.5409 4.04575L32.3606 3.97561C32.1903 3.90548 32.1101 3.93553 32.03 4.13592L31.9197 4.40645L32.3105 4.56676C32.3105 4.56676 32.3706 4.62687 32.3506 4.66695L32.2905 4.80722C32.2905 4.80722 32.2404 4.85732 32.1903 4.83728L31.7995 4.67697L31.0981 6.38028C31.0981 6.38028 31.038 6.44039 30.998 6.42035L30.8176 6.3402C30.8176 6.3402 30.7575 6.27006 30.7775 6.24L31.4789 4.5367L31.1382 4.34633C31.1382 4.34633 31.0781 4.28621 31.0981 4.24614L31.1382 4.14594C31.1382 4.14594 31.1983 4.09584 31.2384 4.10586L31.5991 4.25616L31.7093 3.98563C31.8797 3.58485 32.1201 3.54478 32.4408 3.68505C32.5409 3.72513 32.6011 3.7652 32.6411 3.79526C32.6812 3.82532 32.7013 3.85538 32.6912 3.88544L32.6411 4.00567C32.6411 4.00567 32.591 4.04575 32.551 4.03573" fill="white"/>
<path d="M32.4405 7.1414C31.9195 6.86086 31.8293 6.37992 32.0998 5.84889L32.2401 5.57837C32.5206 5.05736 32.9615 4.84695 33.4925 5.1275C34.0135 5.39802 34.1037 5.88897 33.8332 6.42L33.6929 6.69053C33.4124 7.21154 32.9615 7.42195 32.4405 7.1414ZM33.5226 6.24967C33.713 5.88897 33.6929 5.57837 33.3523 5.39802C33.0216 5.22769 32.7511 5.37798 32.5607 5.73868L32.4205 6.00921C32.2301 6.36991 32.2501 6.68051 32.5908 6.86086C32.9214 7.03119 33.192 6.8809 33.3823 6.5202L33.5226 6.24967Z" fill="white"/>
<path d="M35.3865 6.60037C35.2262 6.50017 35.0659 6.45008 34.8254 6.44006L33.9136 7.86282C33.9136 7.86282 33.8435 7.91291 33.8034 7.88286L33.6331 7.77264C33.6331 7.77264 33.593 7.70251 33.613 7.66243L34.7252 5.93909C34.7252 5.93909 34.7953 5.88899 34.8354 5.90903L34.9957 6.00922C34.9957 6.00922 35.0358 6.07936 35.0158 6.11944L34.9657 6.18957C35.2161 6.18957 35.3965 6.23967 35.5468 6.32984C35.5969 6.3599 35.6069 6.39998 35.5768 6.44006L35.4867 6.58033C35.4867 6.58033 35.4266 6.62041 35.3765 6.59035" fill="white"/>
<path d="M35.9379 9.50602C35.7275 9.32567 35.5872 9.16536 35.467 9.02508C35.4269 8.97499 35.4269 8.95495 35.457 8.91487L35.5672 8.79464C35.5672 8.79464 35.6373 8.76458 35.6574 8.79464C35.7876 8.92489 36.008 9.12528 36.1483 9.24551C36.519 9.56613 36.7395 9.496 36.9198 9.28559C37.0501 9.1353 37.04 8.97499 36.9098 8.56419L36.7695 8.13336C36.6393 7.72256 36.6292 7.44201 36.8397 7.20155C37.1603 6.83083 37.5711 6.89095 38.032 7.29172C38.2123 7.45203 38.4327 7.67246 38.5329 7.78268C38.563 7.81273 38.563 7.85281 38.5329 7.88287L38.4227 8.01312C38.4227 8.01312 38.3626 8.04318 38.3326 8.01312C38.2023 7.89289 38.0019 7.6925 37.8216 7.54221C37.511 7.27168 37.3106 7.22159 37.1202 7.44201C37 7.58229 37.02 7.76264 37.1302 8.1033L37.2705 8.51409C37.4408 9.02508 37.4208 9.30563 37.2104 9.54609C36.9599 9.83666 36.5291 10.027 35.9279 9.50602" fill="white"/>
<path d="M37.6396 11.099C37.5795 11.0489 37.4993 10.9787 37.4392 10.9286C37.1787 10.6681 37.1286 10.4677 37.4392 10.1571L38.4411 9.17522L38.2007 8.86462C38.2007 8.86462 38.1706 8.79448 38.2007 8.7544L38.2808 8.67425C38.2808 8.67425 38.351 8.64419 38.381 8.67425L38.6515 8.95479L38.9321 8.67425C38.9321 8.67425 39.0022 8.64419 39.0423 8.67425L39.2126 8.8045C39.2327 8.82454 39.2327 8.86462 39.2126 8.89468L38.902 9.20528L39.2126 9.51588C39.2126 9.51588 39.2427 9.59604 39.2126 9.62609L39.1124 9.72629C39.1124 9.72629 39.0323 9.75635 39.0022 9.72629L38.7016 9.41569L37.6997 10.3976C37.5394 10.5479 37.5594 10.618 37.6696 10.7282L37.8299 10.8885C37.8299 10.8885 37.88 10.9587 37.85 10.9887L37.7498 11.0889C37.7498 11.0889 37.6897 11.119 37.6496 11.0889" fill="white"/>
<path d="M38.8141 12.4917L38.6938 12.3515C38.6938 12.3515 38.6738 12.2713 38.7039 12.2413L38.774 12.1811C38.5636 12.101 38.3732 12.0008 38.233 11.8204C38.0125 11.5599 37.9324 11.2193 38.3231 10.8987L38.3632 10.8686C38.7039 10.5981 39.0345 10.6482 39.4854 11.2093L39.6757 11.4397L39.806 11.3395C40.0665 11.1291 40.0865 10.9588 39.8862 10.7183C39.7158 10.5179 39.5856 10.3776 39.4653 10.2574C39.4653 10.2574 39.4653 10.2574 39.4553 10.2374C39.4353 10.2073 39.4152 10.1773 39.4553 10.1372L39.5655 10.047C39.5655 10.047 39.6357 10.027 39.6757 10.067C39.806 10.1773 39.9363 10.3075 40.1166 10.5179C40.4673 10.9488 40.3972 11.3095 40.0264 11.61L38.9343 12.5018C38.9343 12.5018 38.8441 12.5218 38.8241 12.4917M39.4754 11.6L39.285 11.3696C38.9744 10.9888 38.8141 10.9588 38.5937 11.1391L38.5536 11.1692C38.3231 11.3495 38.3532 11.5098 38.5035 11.6902C38.6237 11.8305 38.764 11.9307 38.9744 12.0108L39.4754 11.6Z" fill="white"/>
<path d="M39.9846 14.2452L39.8844 14.0849C39.8844 14.0849 39.8744 13.9948 39.9044 13.9747L41.0166 13.2533C41.3573 13.0329 41.3873 12.8525 41.217 12.592C41.1268 12.4518 40.9665 12.3215 40.7862 12.2213L39.3534 13.1431C39.3534 13.1431 39.2632 13.1531 39.2432 13.1231L39.1329 12.9527C39.1329 12.9527 39.1229 12.8726 39.163 12.8425L40.8864 11.7203C40.8864 11.7203 40.9765 11.7003 40.9966 11.7404L41.1068 11.9107C41.1068 11.9107 41.1168 11.9909 41.0767 12.0209L41.0166 12.061C41.247 12.1812 41.3873 12.3015 41.5176 12.5019C41.7781 12.9127 41.6478 13.2533 41.197 13.5439L40.0848 14.2653C40.0848 14.2653 39.9946 14.2753 39.9746 14.2352" fill="white"/>
<path d="M40.9761 16.0691C40.8258 15.8687 40.6955 15.6583 40.5853 15.4379C40.3148 14.8968 40.5452 14.476 41.0863 14.2055L41.3468 14.0752C41.9179 13.7947 42.3588 13.8949 42.6193 14.4259C42.6794 14.5361 42.7495 14.7165 42.7996 14.8668L43.4709 14.5361C43.4709 14.5361 43.5511 14.5361 43.5711 14.5662L43.6613 14.7465C43.6613 14.7465 43.6613 14.8267 43.6212 14.8467L41.0963 16.1092C41.0963 16.1092 41.0162 16.1392 40.9761 16.0791M42.5291 14.997C42.489 14.8668 42.3988 14.6764 42.3387 14.5662C42.1584 14.2155 41.8878 14.2055 41.4971 14.3958L41.2366 14.5261C40.8458 14.7265 40.6755 14.9469 40.8558 15.2976C40.916 15.4178 41.0161 15.5882 41.0863 15.7084L42.5191 14.997H42.5291Z" fill="white"/>
<path d="M41.6688 17.9526L41.6087 17.7822C41.6087 17.7822 41.6087 17.692 41.6588 17.682L41.7389 17.652C41.5686 17.5117 41.4183 17.3514 41.3382 17.141C41.2179 16.8204 41.248 16.4697 41.7189 16.2993L41.769 16.2793C42.1798 16.129 42.4704 16.2793 42.7208 16.9606L42.821 17.2412L42.9713 17.1811C43.2919 17.0608 43.3621 16.9105 43.2519 16.62C43.1617 16.3695 43.0815 16.1992 43.0114 16.0489C43.0114 16.0489 43.0114 16.0388 43.0114 16.0288C43.0014 15.9988 43.0014 15.9587 43.0515 15.9386L43.1817 15.8885C43.1817 15.8885 43.2519 15.8885 43.2819 15.9386C43.3621 16.0789 43.4523 16.2492 43.5525 16.5098C43.7528 17.0408 43.5525 17.3414 43.1116 17.5117L41.789 18.0026C41.789 18.0026 41.6989 18.0027 41.6888 17.9526M42.5806 17.3213L42.4804 17.0408C42.31 16.5799 42.1598 16.4997 41.8892 16.5999L41.8491 16.62C41.5786 16.7202 41.5486 16.8805 41.6287 17.1009C41.6888 17.2712 41.799 17.4115 41.9694 17.5518L42.5806 17.3213Z" fill="white"/>
<path d="M43.9339 18.8144C43.8838 18.634 43.7936 18.4837 43.6233 18.3234L41.9901 18.7743C41.9901 18.7743 41.9 18.7643 41.8899 18.7142L41.8398 18.5238C41.8398 18.5238 41.8599 18.4437 41.9 18.4336L43.8838 17.8826C43.8838 17.8826 43.974 17.8826 43.984 17.9327L44.0341 18.113C44.0341 18.113 44.0241 18.1932 43.974 18.2132L43.8938 18.2332C44.0842 18.3936 44.1844 18.5539 44.2345 18.7342C44.2545 18.7943 44.2345 18.8244 44.1844 18.8344L44.0241 18.8745C44.0241 18.8745 43.9539 18.8745 43.9339 18.8144Z" fill="white"/>
<path d="M42.4489 21.1083C42.3588 20.8679 42.2886 20.6374 42.2485 20.3869C42.1383 19.7958 42.469 19.4551 43.0701 19.3349L43.3607 19.2848C43.9819 19.1746 44.3827 19.395 44.4929 19.9661C44.5129 20.0863 44.543 20.2767 44.543 20.437L45.2844 20.2967C45.2844 20.2967 45.3646 20.3168 45.3746 20.3569L45.4147 20.5573C45.4147 20.5573 45.3947 20.6374 45.3546 20.6374L42.5792 21.1584C42.5291 21.1584 42.499 21.1584 42.469 21.0883M44.2424 20.4971C44.2424 20.3569 44.2023 20.1565 44.1823 20.0262C44.1122 19.6355 43.8416 19.5553 43.4208 19.6355L43.1403 19.6856C42.7094 19.7657 42.489 19.936 42.5592 20.3268C42.5892 20.4671 42.6293 20.6574 42.6694 20.7877L44.2424 20.4971Z" fill="white"/>
<path d="M42.5005 21.9603L42.4805 21.7699C42.4805 21.7699 42.5105 21.6898 42.5506 21.6797L44.5946 21.4693C44.5946 21.4693 44.6747 21.4994 44.6847 21.5395L44.7048 21.7298C44.7048 21.7298 44.6747 21.81 44.6346 21.82L42.5907 22.0304C42.5907 22.0304 42.5105 22.0004 42.5005 21.9603ZM45.0655 21.6998L45.0454 21.4994C45.0454 21.4994 45.0755 21.4192 45.1156 21.4092L45.4362 21.3792C45.4362 21.3792 45.5164 21.4092 45.5264 21.4493L45.5464 21.6497C45.5464 21.6497 45.5164 21.7298 45.4763 21.7399L45.1557 21.7699C45.1557 21.7699 45.0755 21.7398 45.0655 21.6998Z" fill="white"/>
<path d="M42.5996 23.9338L42.5596 22.7114C42.5596 22.5411 42.6598 22.4609 42.77 22.4609H42.8501C42.9603 22.4609 43.0205 22.481 43.1106 22.5411L44.4432 23.543C44.4432 23.543 44.4633 23.5631 44.4833 23.5631C44.5033 23.5631 44.5134 23.5631 44.5134 23.523L44.4833 22.5411C44.4833 22.5411 44.5134 22.4609 44.5635 22.4609H44.7037C44.7037 22.4609 44.7839 22.491 44.7839 22.5311L44.824 23.7234C44.824 23.8937 44.7538 23.9538 44.6336 23.9538H44.5334C44.4532 23.9538 44.3831 23.9338 44.313 23.8737L42.9503 22.8517C42.9503 22.8517 42.9203 22.8317 42.9002 22.8317C42.8802 22.8317 42.8702 22.8317 42.8702 22.8617L42.9002 23.9338C42.9002 23.9338 42.8702 24.0139 42.8201 24.0139H42.6798C42.6798 24.0139 42.5996 23.9839 42.5996 23.9338Z" fill="white"/>
<path d="M42.5022 25.8677V25.6774C42.5022 25.6774 42.5523 25.5972 42.6024 25.6072H42.6926C42.5924 25.4068 42.5222 25.2065 42.5423 24.976C42.5623 24.6354 42.7427 24.3247 43.2436 24.3648H43.2937C43.7246 24.3949 43.925 24.6654 43.8749 25.3868L43.8548 25.6874H44.0151C44.3558 25.7174 44.476 25.6173 44.4961 25.2966C44.5161 25.0361 44.5161 24.8458 44.5061 24.6754C44.5061 24.6754 44.5061 24.6654 44.5061 24.6554C44.5061 24.6153 44.5261 24.5853 44.5762 24.5853H44.7165C44.7165 24.5853 44.7866 24.6253 44.7866 24.6854C44.8067 24.8558 44.8167 25.0361 44.7866 25.3167C44.7466 25.8778 44.446 26.0781 43.9751 26.0481L42.5723 25.9479C42.5723 25.9479 42.4922 25.9078 42.4922 25.8577M43.5943 25.6674L43.6144 25.3668C43.6444 24.8758 43.5542 24.7456 43.2637 24.7255H43.2136C42.923 24.7055 42.8328 24.8357 42.8228 25.0662C42.8128 25.2465 42.8529 25.4169 42.9431 25.6173L43.5943 25.6674Z" fill="white"/>
<path d="M42.2607 27.3807C42.2607 27.3005 42.2607 27.1903 42.2808 27.1202C42.3409 26.7494 42.4611 26.5891 42.902 26.6593L44.2947 26.8797L44.4049 26.499C44.4049 26.499 44.445 26.4288 44.4851 26.4388L44.5953 26.4589C44.5953 26.4589 44.6654 26.499 44.6554 26.5491L44.5953 26.9398L44.986 26.9999C44.986 26.9999 45.0562 27.04 45.0562 27.0801V27.2905C45.0562 27.2905 45.0562 27.2905 45.0562 27.3005C45.0562 27.3306 45.0161 27.3606 44.976 27.3506L44.5452 27.2805L44.475 27.7113C44.475 27.7113 44.4249 27.7814 44.3849 27.7814L44.2446 27.7614C44.2446 27.7614 44.1745 27.7113 44.1745 27.6712L44.2446 27.2404L42.8519 27.02C42.6315 26.9899 42.5914 27.04 42.5713 27.2003L42.5413 27.4207C42.5413 27.4809 42.5112 27.5009 42.4711 27.5009L42.3309 27.4809C42.3309 27.4809 42.2708 27.4508 42.2708 27.4007" fill="white"/>
<path d="M42.1201 28.0721L42.1602 27.8818C42.1602 27.8818 42.2103 27.8116 42.2604 27.8217L44.2743 28.2725C44.2743 28.2725 44.3444 28.3226 44.3344 28.3727L44.2943 28.5631C44.2943 28.5631 44.2442 28.6332 44.1941 28.6232L42.1802 28.1723C42.1802 28.1723 42.1101 28.1222 42.1201 28.0721ZM44.635 28.6332L44.6751 28.4328C44.6751 28.4328 44.7252 28.3627 44.7753 28.3727L45.0859 28.4429C45.0859 28.4429 45.156 28.493 45.146 28.5431L45.1059 28.7434C45.1059 28.7434 45.0558 28.8136 45.0057 28.8036L44.6951 28.7334C44.6951 28.7334 44.625 28.6833 44.635 28.6332Z" fill="white"/>
<path d="M41.7389 29.4048C41.9092 28.8337 42.3701 28.6634 42.9412 28.8337L43.2318 28.9239C43.8029 29.0942 44.0834 29.505 43.9131 30.0661C43.7427 30.6372 43.2718 30.8075 42.7107 30.6372L42.4202 30.547C41.8491 30.3767 41.5685 29.9659 41.7389 29.3948M42.8109 30.3066C43.2017 30.4268 43.5023 30.3467 43.6125 29.986C43.7227 29.6253 43.5223 29.3948 43.1316 29.2746L42.841 29.1844C42.4502 29.0642 42.1496 29.1443 42.0394 29.505C41.9292 29.8657 42.1296 30.0962 42.5204 30.2264L42.8109 30.3166V30.3066Z" fill="white"/>
<path d="M40.7267 32.09L40.8069 31.9097C40.8069 31.9097 40.877 31.8495 40.9171 31.8696L42.1295 32.4006C42.5002 32.5609 42.6705 32.4908 42.7907 32.2102C42.8609 32.0499 42.8709 31.8596 42.8609 31.6492L41.2979 30.9678C41.2979 30.9678 41.2377 30.9077 41.2578 30.8576L41.3379 30.6773C41.3379 30.6773 41.398 30.6272 41.4481 30.6372L43.3318 31.4588C43.3318 31.4588 43.3919 31.5189 43.3719 31.559L43.2917 31.7393C43.2917 31.7393 43.2316 31.7994 43.1915 31.7794L43.1214 31.7493C43.1514 31.9998 43.1214 32.1902 43.0312 32.4106C42.8408 32.8515 42.4701 32.9316 41.9792 32.7212L40.7668 32.1902C40.7668 32.1902 40.7067 32.1201 40.7267 32.08" fill="white"/>
</g>
</g>
<path d="M15.3198 45.7285V45.123C15.5889 44.915 15.8499 44.7071 16.1027 44.4991C16.3555 44.2912 16.5818 44.0852 16.7816 43.8814C16.9814 43.6734 17.1404 43.4716 17.2587 43.2758C17.3769 43.0801 17.4361 42.8905 17.4361 42.707C17.4361 42.5928 17.4136 42.4889 17.3688 42.3951C17.3239 42.2972 17.2546 42.2197 17.1608 42.1627C17.067 42.1015 16.9447 42.0709 16.7939 42.0709C16.6471 42.0709 16.5227 42.1035 16.4208 42.1688C16.3229 42.234 16.2475 42.3217 16.1944 42.4318C16.1455 42.5378 16.121 42.6581 16.121 42.7926H15.3259C15.3341 42.4787 15.4034 42.2157 15.5339 42.0036C15.6684 41.7916 15.8478 41.6346 16.0721 41.5327C16.2964 41.4267 16.5451 41.3736 16.8183 41.3736C17.1282 41.3736 17.3892 41.4307 17.6012 41.5449C17.8132 41.655 17.9764 41.8059 18.0905 41.9975C18.2047 42.1892 18.2618 42.4094 18.2618 42.6581C18.2618 42.8457 18.2251 43.0291 18.1517 43.2086C18.0783 43.388 17.9804 43.5633 17.8581 43.7346C17.7358 43.9018 17.5971 44.0628 17.4422 44.2178C17.2913 44.3727 17.1303 44.5215 16.959 44.6643C16.7918 44.8029 16.6267 44.9334 16.4636 45.0557H18.3596V45.7285H15.3198ZM19.3804 45.7285L20.8545 42.1504H18.781V41.447H21.7046V42.0281L20.2367 45.7285H19.3804ZM23.9499 45.8019C23.5788 45.8019 23.2608 45.7081 22.9957 45.5206C22.7307 45.333 22.5248 45.0741 22.378 44.7438C22.2353 44.4094 22.1639 44.0241 22.1639 43.5878C22.1639 43.1515 22.2353 42.7682 22.378 42.4379C22.5248 42.1035 22.7307 41.8426 22.9957 41.655C23.2608 41.4674 23.5788 41.3736 23.9499 41.3736C24.3209 41.3736 24.637 41.4674 24.8979 41.655C25.163 41.8426 25.3669 42.1035 25.5096 42.4379C25.6523 42.7682 25.7236 43.1515 25.7236 43.5878C25.7236 44.0241 25.6523 44.4094 25.5096 44.7438C25.3669 45.0741 25.163 45.333 24.8979 45.5206C24.637 45.7081 24.3209 45.8019 23.9499 45.8019ZM23.9499 45.0618C24.1334 45.0618 24.2944 45.0027 24.4331 44.8845C24.5758 44.7621 24.6859 44.5909 24.7634 44.3707C24.8449 44.1505 24.8857 43.8895 24.8857 43.5878C24.8857 43.282 24.8449 43.021 24.7634 42.8049C24.6859 42.5847 24.5758 42.4155 24.4331 42.2972C24.2944 42.179 24.1334 42.1198 23.9499 42.1198C23.7623 42.1198 23.5972 42.179 23.4545 42.2972C23.3117 42.4155 23.2016 42.5847 23.1242 42.8049C23.0467 43.021 23.008 43.282 23.008 43.5878C23.008 43.8895 23.0467 44.1505 23.1242 44.3707C23.2016 44.5909 23.3117 44.7621 23.4545 44.8845C23.5972 45.0027 23.7623 45.0618 23.9499 45.0618ZM28.0952 45.8019C27.7241 45.8019 27.4061 45.7081 27.141 45.5206C26.876 45.333 26.6701 45.0741 26.5233 44.7438C26.3805 44.4094 26.3092 44.0241 26.3092 43.5878C26.3092 43.1515 26.3805 42.7682 26.5233 42.4379C26.6701 42.1035 26.876 41.8426 27.141 41.655C27.4061 41.4674 27.7241 41.3736 28.0952 41.3736C28.4662 41.3736 28.7823 41.4674 29.0432 41.655C29.3083 41.8426 29.5121 42.1035 29.6549 42.4379C29.7976 42.7682 29.8689 43.1515 29.8689 43.5878C29.8689 44.0241 29.7976 44.4094 29.6549 44.7438C29.5121 45.0741 29.3083 45.333 29.0432 45.5206C28.7823 45.7081 28.4662 45.8019 28.0952 45.8019ZM28.0952 45.0618C28.2787 45.0618 28.4397 45.0027 28.5784 44.8845C28.7211 44.7621 28.8312 44.5909 28.9087 44.3707C28.9902 44.1505 29.031 43.8895 29.031 43.5878C29.031 43.282 28.9902 43.021 28.9087 42.8049C28.8312 42.5847 28.7211 42.4155 28.5784 42.2972C28.4397 42.179 28.2787 42.1198 28.0952 42.1198C27.9076 42.1198 27.7425 42.179 27.5997 42.2972C27.457 42.4155 27.3469 42.5847 27.2695 42.8049C27.192 43.021 27.1533 43.282 27.1533 43.5878C27.1533 43.8895 27.192 44.1505 27.2695 44.3707C27.3469 44.5909 27.457 44.7621 27.5997 44.8845C27.7425 45.0027 27.9076 45.0618 28.0952 45.0618ZM31.3108 45.7285V42.3951L30.4055 42.7131V41.9975L31.6533 41.447H32.161V45.7285H31.3108Z" fill="white"/>
</g>
<defs>
<clipPath id="clip0_370_6102">
<rect width="46.3098" height="47.452" fill="white" transform="translate(0.566406 0.408691)"/>
</clipPath>
</defs>
</svg>
