<svg width="22" height="29" viewBox="0 0 22 29" fill="none" xmlns="http://www.w3.org/2000/svg">
<path d="M7.0034 22.3253C7.0034 22.3253 5.92866 22.9503 7.76829 23.1618C9.997 23.416 11.136 23.3796 13.5921 22.9147C13.5921 22.9147 14.2378 23.3196 15.1395 23.6703C9.63382 26.03 2.67888 23.5336 7.0034 22.3253ZM6.33061 19.2461C6.33061 19.2461 5.12517 20.1384 6.96619 20.3288C9.34693 20.5744 11.227 20.5945 14.4804 19.9681C14.4804 19.9681 14.9304 20.4242 15.638 20.6737C8.98114 22.6203 1.56668 20.8272 6.33061 19.2461Z" fill="#5382A1"/>
<path d="M12.0024 14.0238C13.359 15.5857 11.6459 16.9912 11.6459 16.9912C11.6459 16.9912 15.0906 15.213 13.5086 12.9861C12.0311 10.9096 10.898 9.87774 17.032 6.32031C17.032 6.32031 7.40368 8.72499 12.0024 14.0238" fill="#E76F00"/>
<path d="M19.2842 24.6041C19.2842 24.6041 20.0795 25.2594 18.4082 25.7664C15.2303 26.7292 5.18108 27.0199 2.38943 25.8048C1.38594 25.3683 3.26783 24.7624 3.85976 24.6352C4.4771 24.5014 4.82994 24.5264 4.82994 24.5264C3.71392 23.7401 -2.38353 26.0701 1.73276 26.7372C12.9584 28.5577 22.1959 25.9175 19.2842 24.6041ZM7.5202 16.0569C7.5202 16.0569 2.40865 17.271 5.71014 17.7118C7.10409 17.8985 9.88295 17.8563 12.4714 17.6393C14.5869 17.461 16.711 17.0815 16.711 17.0815C16.711 17.0815 15.9651 17.401 15.4254 17.7695C10.2347 19.1347 0.206974 18.4996 3.09381 17.1031C5.53522 15.923 7.52029 16.0569 7.52029 16.0569H7.5202ZM16.6899 21.1824C21.9667 18.4404 19.5269 15.8054 17.824 16.1605C17.4066 16.2473 17.2205 16.3225 17.2205 16.3225C17.2205 16.3225 17.3755 16.0798 17.6714 15.9748C21.0402 14.7904 23.6312 19.468 16.5839 21.3206C16.5839 21.3206 16.6656 21.2477 16.6899 21.1824Z" fill="#5382A1"/>
<path d="M13.5086 0.5743C13.5086 0.5743 16.4309 3.4977 10.7369 7.9928C6.17089 11.5988 9.69567 13.6547 10.735 16.0038C8.06972 13.5991 6.11373 11.4822 7.426 9.51207C9.35195 6.61986 14.6876 5.21769 13.5086 0.574219" fill="#E76F00"/>
<path d="M8.03874 28.6116C13.1037 28.9359 20.8815 28.4318 21.0657 26.0352C21.0657 26.0352 20.7117 26.9438 16.8798 27.6652C12.5567 28.4787 7.22491 28.3838 4.0625 27.8624C4.06258 27.8624 4.70988 28.3982 8.03882 28.6116" fill="#5382A1"/>
</svg>
