<svg width="28" height="28" viewBox="0 0 28 28" fill="none" xmlns="http://www.w3.org/2000/svg">
<g clip-path="url(#clip0_2348_10616)">
<path d="M11.016 24.192C9.928 24.192 9.05333 23.888 8.392 23.28C7.74133 22.6613 7.416 21.7867 7.416 20.656H9.464C9.47467 21.1787 9.59733 21.5947 9.832 21.904C10.0667 22.2133 10.4453 22.368 10.968 22.368C11.4587 22.368 11.816 22.224 12.04 21.936C12.264 21.6373 12.376 21.248 12.376 20.768V12.8H14.424V20.768C14.424 21.8667 14.1147 22.7147 13.496 23.312C12.888 23.8987 12.0613 24.192 11.016 24.192ZM20.4276 24.192C19.6063 24.192 18.881 24.0533 18.2516 23.776C17.6223 23.488 17.1263 23.0827 16.7636 22.56C16.401 22.0267 16.2143 21.3813 16.2036 20.624H18.3636C18.385 21.1467 18.5716 21.5893 18.9236 21.952C19.2863 22.304 19.7823 22.48 20.4116 22.48C20.9556 22.48 21.3876 22.352 21.7076 22.096C22.0276 21.8293 22.1876 21.4773 22.1876 21.04C22.1876 20.5813 22.0436 20.224 21.7556 19.968C21.4783 19.712 21.105 19.504 20.6356 19.344C20.1663 19.184 19.665 19.0133 19.1316 18.832C18.2676 18.5333 17.6063 18.1493 17.1476 17.68C16.6996 17.2107 16.4756 16.5867 16.4756 15.808C16.465 15.1467 16.6196 14.5813 16.9396 14.112C17.2703 13.632 17.7183 13.264 18.2836 13.008C18.849 12.7413 19.4996 12.608 20.2356 12.608C20.9823 12.608 21.6383 12.7413 22.2036 13.008C22.7796 13.2747 23.2276 13.648 23.5476 14.128C23.8783 14.608 24.0543 15.1787 24.0756 15.84H21.8836C21.873 15.4453 21.7183 15.0987 21.4196 14.8C21.1316 14.4907 20.7263 14.336 20.2036 14.336C19.7556 14.3253 19.377 14.4373 19.0676 14.672C18.769 14.896 18.6196 15.2267 18.6196 15.664C18.6196 16.0373 18.737 16.336 18.9716 16.56C19.2063 16.7733 19.5263 16.9547 19.9316 17.104C20.337 17.2533 20.801 17.4133 21.3236 17.584C21.8783 17.776 22.385 18 22.8436 18.256C23.3023 18.512 23.6703 18.8533 23.9476 19.28C24.225 19.696 24.3636 20.2347 24.3636 20.896C24.3636 21.4827 24.2143 22.0267 23.9156 22.528C23.617 23.0293 23.1743 23.4347 22.5876 23.744C22.001 24.0427 21.281 24.192 20.4276 24.192Z" fill="#FF5722"/>
</g>
<rect x="1" y="1" width="26" height="26" rx="1" stroke="#5B1466" stroke-width="2"/>
<defs>
<clipPath id="clip0_2348_10616">
<rect width="28" height="28" rx="2" fill="white"/>
</clipPath>
</defs>
</svg>
