<svg width="34" height="33" viewBox="0 0 34 33" fill="none" xmlns="http://www.w3.org/2000/svg">
<path d="M28.8839 9.06258C28.7238 8.55028 28.3396 8.13403 27.8593 7.87787L18.0934 3.20306C17.8373 3.07499 17.5491 3.04297 17.2929 3.04297C17.0368 3.04297 16.7486 3.04297 16.4925 3.10701L6.72659 7.81383C6.2463 8.03797 5.89409 8.45422 5.76602 8.99855L3.36457 19.5329C3.26851 20.0772 3.39659 20.6215 3.71678 21.0698L10.4728 29.4268C10.8571 29.811 11.4014 30.0672 11.9457 30.0992H22.7042C23.2805 30.1633 23.8249 29.9071 24.1771 29.4268L30.9331 21.0698C31.2533 20.6215 31.3814 20.0772 31.3174 19.5329L28.8839 9.06258Z" fill="white" stroke="white" stroke-width="5" stroke-miterlimit="10"/>
<path d="M28.8839 9.06258C28.7238 8.55028 28.3396 8.13403 27.8593 7.87787L18.0934 3.20306C17.8373 3.07499 17.5491 3.04297 17.2929 3.04297C17.0368 3.04297 16.7486 3.04297 16.4925 3.10701L6.72659 7.81383C6.2463 8.03797 5.89409 8.45422 5.76602 8.99855L3.36457 19.5329C3.26851 20.0772 3.39659 20.6215 3.71678 21.0698L10.4728 29.4268C10.8571 29.811 11.4014 30.0672 11.9457 30.0992H22.7042C23.2805 30.1633 23.8249 29.9071 24.1771 29.4268L30.9331 21.0698C31.2533 20.6215 31.3814 20.0772 31.3174 19.5329L28.8839 9.06258Z" fill="#326DE6"/>
<path d="M27.379 19.1186C27.347 19.1186 27.315 19.1186 27.315 19.0866C27.315 19.0545 27.251 19.0545 27.1869 19.0545C27.0589 19.0225 26.9308 19.0225 26.8027 19.0225C26.7387 19.0225 26.6746 19.0225 26.6106 18.9905H26.5786C26.2264 18.9585 25.8421 18.8944 25.4899 18.7984C25.3939 18.7664 25.2978 18.6703 25.2658 18.5742L25.0096 18.5102C25.1377 17.5817 25.0737 16.6211 24.8815 15.6925C24.6574 14.764 24.2732 13.8674 23.7609 13.0669L23.953 12.8748V12.8428C23.953 12.7467 23.985 12.6187 24.049 12.5546C24.3372 12.2985 24.6254 12.1064 24.9456 11.9142C25.0096 11.8822 25.0737 11.8502 25.1377 11.8182C25.2658 11.7542 25.3618 11.6901 25.4899 11.6261C25.5219 11.5941 25.5539 11.5941 25.586 11.562C25.618 11.53 25.586 11.53 25.586 11.498C25.8741 11.2739 25.9382 10.8896 25.714 10.6015C25.618 10.4734 25.4259 10.3773 25.2658 10.3773C25.1057 10.3773 24.9456 10.4414 24.8175 10.5374L24.7855 10.5694C24.7535 10.6015 24.7214 10.6335 24.6894 10.6335C24.5934 10.7295 24.4973 10.8256 24.4333 10.9217C24.4013 10.9857 24.3372 11.0177 24.3052 11.0497C24.0811 11.3059 23.7929 11.562 23.5047 11.7542C23.4407 11.7862 23.3766 11.8182 23.3126 11.8182C23.2806 11.8182 23.2165 11.8182 23.1845 11.7862H23.1525L22.8964 11.9463C22.6402 11.6901 22.352 11.434 22.0959 11.1778C20.9112 10.2492 19.4383 9.6729 17.9334 9.51281L17.9014 9.25665V9.28867C17.8053 9.22463 17.7733 9.12858 17.7413 9.03252C17.7413 8.68031 17.7413 8.32809 17.8053 7.94386V7.91184C17.8053 7.84781 17.8373 7.78377 17.8373 7.71973C17.8693 7.59165 17.8693 7.46357 17.9014 7.3355V7.14338C17.9334 6.82319 17.6772 6.503 17.357 6.47098C17.1649 6.43896 16.9728 6.53502 16.8127 6.69511C16.6846 6.82319 16.6206 6.98329 16.6206 7.14338V7.30348C16.6206 7.43156 16.6526 7.55963 16.6846 7.68771C16.7166 7.75175 16.7166 7.81579 16.7166 7.87983V7.91184C16.7807 8.26406 16.7807 8.61627 16.7807 9.0005C16.7487 9.09656 16.7166 9.19261 16.6206 9.25665V9.32069L16.5886 9.57684C16.2364 9.60886 15.8841 9.6729 15.4999 9.73694C13.995 10.0571 12.6182 10.8576 11.5615 11.9783L11.3694 11.8502H11.3374C11.3054 11.8502 11.2734 11.8822 11.2093 11.8822C11.1453 11.8822 11.0813 11.8502 11.0172 11.8182C10.729 11.5941 10.4409 11.3379 10.2167 11.0817C10.1847 11.0177 10.1207 10.9857 10.0887 10.9537C9.9926 10.8576 9.92856 10.7616 9.8325 10.6655C9.80048 10.6335 9.76847 10.6335 9.73645 10.6015C9.70443 10.5694 9.70443 10.5694 9.70443 10.5694C9.57635 10.4734 9.41625 10.4093 9.25616 10.4093C9.06404 10.4093 8.90395 10.4734 8.80789 10.6335C8.61577 10.9217 8.67981 11.3059 8.93597 11.53C8.96798 11.53 8.96798 11.562 8.96798 11.562C8.96798 11.562 9.03202 11.6261 9.06404 11.6261C9.1601 11.6901 9.28818 11.7542 9.41625 11.8182C9.48029 11.8502 9.54433 11.8822 9.60837 11.9142C9.92856 12.1064 10.2488 12.2985 10.5049 12.5546C10.5689 12.6187 10.633 12.7467 10.601 12.8428V12.8108L10.7931 13.0029C10.7611 13.0669 10.729 13.099 10.697 13.163C9.70443 14.7319 9.28818 16.5891 9.57635 18.4142L9.3202 18.4782C9.3202 18.5102 9.28818 18.5102 9.28818 18.5102C9.25616 18.6063 9.1601 18.6703 9.06404 18.7343C8.71183 18.8304 8.35962 18.8944 7.97539 18.9265C7.91135 18.9265 7.84731 18.9265 7.78327 18.9585C7.6552 18.9585 7.52712 18.9905 7.39904 18.9905C7.36702 18.9905 7.335 19.0225 7.27097 19.0225C7.23895 19.0225 7.23895 19.0225 7.20693 19.0545C6.85472 19.1186 6.63058 19.4388 6.69462 19.791C6.75866 20.0792 7.04683 20.2713 7.335 20.2392C7.39904 20.2392 7.43106 20.2392 7.4951 20.2072C7.52712 20.2072 7.52712 20.2072 7.52712 20.1752C7.52712 20.1432 7.62318 20.1752 7.6552 20.1752C7.78327 20.1432 7.91135 20.0792 8.00741 20.0471C8.07145 20.0151 8.13549 19.9831 8.19952 19.9831H8.23154C8.58375 19.855 8.90395 19.759 9.28818 19.6949H9.3202C9.41625 19.6949 9.51231 19.7269 9.57635 19.791C9.60837 19.791 9.60837 19.823 9.60837 19.823L9.89654 19.791C10.3768 21.2639 11.2734 22.5767 12.5221 23.5372C12.8103 23.7614 13.0664 23.9535 13.3866 24.1136L13.2265 24.3377C13.2265 24.3697 13.2586 24.3697 13.2586 24.3697C13.3226 24.4658 13.3226 24.5939 13.2906 24.6899C13.1625 25.0101 12.9704 25.3303 12.7783 25.6185V25.6505C12.7463 25.7145 12.7142 25.7466 12.6502 25.8106C12.5862 25.8746 12.5221 26.0027 12.4261 26.1308C12.394 26.1628 12.394 26.1948 12.362 26.2268C12.362 26.2268 12.362 26.2589 12.33 26.2589C12.1699 26.5791 12.298 26.9633 12.5862 27.1234C12.6502 27.1554 12.7463 27.1874 12.8103 27.1874C13.0664 27.1874 13.2906 27.0273 13.4187 26.8032C13.4187 26.8032 13.4187 26.7712 13.4507 26.7712C13.4507 26.7392 13.4827 26.7071 13.5147 26.6751C13.5467 26.547 13.6108 26.451 13.6428 26.3229L13.7068 26.1308C13.8029 25.7786 13.963 25.4584 14.1231 25.1382C14.1871 25.0421 14.2832 24.9781 14.3792 24.9461C14.4113 24.9461 14.4113 24.9461 14.4113 24.9141L14.5393 24.6579C15.4359 25.0101 16.3644 25.1702 17.325 25.1702C17.9014 25.1702 18.4777 25.1062 19.054 24.9461C19.4063 24.882 19.7585 24.754 20.0787 24.6579L20.2067 24.882C20.2388 24.882 20.2388 24.882 20.2388 24.9141C20.3348 24.9461 20.4309 25.0101 20.4949 25.1062C20.655 25.4264 20.8151 25.7466 20.9112 26.0988V26.1308L20.9752 26.3229C21.0072 26.451 21.0392 26.5791 21.1033 26.6751C21.1353 26.7071 21.1353 26.7392 21.1673 26.7712C21.1673 26.7712 21.1673 26.8032 21.1993 26.8032C21.3274 27.0273 21.5515 27.1874 21.8077 27.1874C21.9038 27.1874 21.9678 27.1554 22.0639 27.1234C22.1919 27.0593 22.32 26.9313 22.352 26.7712C22.384 26.6111 22.384 26.451 22.32 26.2909C22.32 26.2589 22.288 26.2589 22.288 26.2589C22.288 26.2268 22.256 26.1948 22.2239 26.1628C22.1599 26.0347 22.0959 25.9387 21.9998 25.8426C21.9678 25.7786 21.9358 25.7466 21.8717 25.6825V25.6185C21.6476 25.3303 21.4875 25.0101 21.3594 24.6899C21.3274 24.5939 21.3274 24.4658 21.3914 24.3697C21.3914 24.3377 21.4235 24.3377 21.4235 24.3377L21.3274 24.0816C22.9604 23.089 24.2091 21.552 24.7855 19.7269L25.0416 19.759C25.0737 19.759 25.0737 19.7269 25.0737 19.7269C25.1377 19.6629 25.2338 19.6309 25.3298 19.6309H25.3618C25.714 19.6949 26.0663 19.791 26.3864 19.9191H26.4185C26.4825 19.9511 26.5465 19.9831 26.6106 19.9831C26.7387 20.0471 26.8347 20.1112 26.9628 20.1432C26.9948 20.1432 27.0268 20.1752 27.0909 20.1752C27.1229 20.1752 27.1229 20.1752 27.1549 20.2072C27.2189 20.2392 27.251 20.2392 27.315 20.2392C27.6032 20.2392 27.8593 20.0471 27.9554 19.791C27.9234 19.4388 27.6672 19.1826 27.379 19.1186ZM18.1255 18.126L17.261 18.5422L16.3964 18.126L16.1723 17.1974L16.7807 16.429H17.7413L18.3496 17.1974L18.1255 18.126ZM23.3446 16.0447C23.5047 16.7171 23.5367 17.3895 23.4727 18.0619L20.4309 17.1974C20.1427 17.1334 19.9826 16.8452 20.0466 16.557C20.0787 16.461 20.1107 16.3969 20.1747 16.3329L22.5762 14.1556C22.9284 14.7319 23.1845 15.3723 23.3446 16.0447ZM21.6156 12.9709L18.99 14.828C18.7659 14.9561 18.4457 14.9241 18.2856 14.6999C18.2215 14.6359 18.1895 14.5718 18.1895 14.4758L17.9974 11.2418C19.4063 11.4019 20.655 12.0103 21.6156 12.9709ZM15.8201 11.3379L16.4605 11.2098L16.3004 14.4117C16.3004 14.6999 16.0442 14.9241 15.7561 14.9241C15.66 14.9241 15.596 14.892 15.4999 14.86L12.8423 12.9709C13.6748 12.1704 14.6994 11.5941 15.8201 11.3379ZM11.9138 14.1556L14.2832 16.2689C14.5073 16.461 14.5393 16.7812 14.3472 17.0053C14.2832 17.1014 14.2191 17.1334 14.0911 17.1654L10.9852 18.0619C10.8891 16.7171 11.2093 15.3403 11.9138 14.1556ZM11.3694 19.5668L14.5393 19.0225C14.7955 19.0225 15.0516 19.1826 15.0837 19.4388C15.1157 19.5348 15.1157 19.6629 15.0516 19.759L13.8349 22.7047C12.7142 21.9683 11.8177 20.8476 11.3694 19.5668ZM18.6378 23.5372C18.1895 23.6333 17.7413 23.6973 17.261 23.6973C16.5886 23.6973 15.8841 23.5693 15.2438 23.3771L16.8127 20.5274C16.9728 20.3353 17.2289 20.2713 17.4531 20.3993C17.5491 20.4634 17.6132 20.5274 17.7092 20.6235L19.2462 23.4092C19.054 23.4412 18.8619 23.4732 18.6378 23.5372ZM22.5441 20.7516C22.0639 21.52 21.3914 22.1924 20.623 22.6727L19.3742 19.6629C19.3102 19.4067 19.4383 19.1506 19.6624 19.0545C19.7585 19.0225 19.8545 18.9905 19.9506 18.9905L23.1525 19.5348C22.9924 19.9831 22.8003 20.3993 22.5441 20.7516Z" fill="white"/>
</svg>
