<svg width="28" height="29" viewBox="0 0 28 29" fill="none" xmlns="http://www.w3.org/2000/svg">
<path d="M27.5845 6.40855C27.5946 6.44588 27.5998 6.48437 27.5998 6.52304V12.5332C27.5999 12.6103 27.5795 12.6861 27.5408 12.7528C27.5022 12.8196 27.4466 12.8749 27.3796 12.9133L22.3352 15.8176V21.5741C22.3352 21.7308 22.252 21.8754 22.1161 21.9542L11.5863 28.0159C11.5622 28.0296 11.5359 28.0383 11.5097 28.0476C11.4998 28.0509 11.4905 28.0569 11.4801 28.0597C11.4065 28.0791 11.3291 28.0791 11.2555 28.0597C11.2434 28.0564 11.2325 28.0498 11.221 28.0454C11.1969 28.0367 11.1717 28.029 11.1487 28.0159L0.621082 21.9542C0.554204 21.9158 0.498634 21.8605 0.459975 21.7937C0.421315 21.727 0.400932 21.6512 0.400879 21.5741V3.54372C0.400879 3.50428 0.406357 3.46594 0.416216 3.42869C0.419503 3.41609 0.427172 3.40459 0.431554 3.39199C0.439771 3.36898 0.447439 3.34543 0.45949 3.32406C0.467707 3.30982 0.479758 3.29832 0.489618 3.28517C0.502216 3.26764 0.51372 3.24957 0.528509 3.23423C0.541108 3.22163 0.557541 3.21232 0.571783 3.20136C0.587668 3.18822 0.60191 3.17397 0.619987 3.16357H0.620535L5.8846 0.13276C5.95126 0.094405 6.02681 0.0742188 6.10371 0.0742188C6.18061 0.0742188 6.25617 0.094405 6.32282 0.13276L11.5869 3.16357H11.588C11.6055 3.17452 11.6203 3.18822 11.6362 3.20082C11.6504 3.21177 11.6663 3.22163 11.6789 3.23368C11.6943 3.24957 11.7052 3.26764 11.7184 3.28517C11.7277 3.29832 11.7403 3.30982 11.7479 3.32406C11.7605 3.34597 11.7677 3.36898 11.7764 3.39199C11.7808 3.40459 11.7885 3.41609 11.7918 3.42923C11.8018 3.46656 11.807 3.50505 11.8071 3.54372V14.8053L16.1936 12.2795V6.52249C16.1936 6.48414 16.1991 6.44525 16.209 6.40855C16.2128 6.39541 16.2199 6.3839 16.2243 6.3713C16.2331 6.3483 16.2407 6.32474 16.2528 6.30338C16.261 6.28914 16.2731 6.27763 16.2824 6.26449C16.2955 6.24696 16.3065 6.22888 16.3218 6.21355C16.3344 6.20095 16.3503 6.19164 16.3645 6.18068C16.381 6.16753 16.3952 6.15329 16.4127 6.14288H16.4133L21.6779 3.11208C21.7445 3.07367 21.8201 3.05345 21.897 3.05345C21.9739 3.05345 22.0495 3.07367 22.1161 3.11208L27.3802 6.14288C27.3988 6.15384 27.4131 6.16753 27.4295 6.18013C27.4432 6.19109 27.4591 6.20095 27.4717 6.213C27.487 6.22888 27.498 6.24696 27.5111 6.26449C27.521 6.27763 27.533 6.28914 27.5407 6.30338C27.5533 6.32474 27.5604 6.3483 27.5692 6.3713C27.5741 6.3839 27.5812 6.39541 27.5845 6.40855ZM26.7223 12.2795V7.2817L24.8802 8.34218L22.3352 9.80746V14.8053L26.7229 12.2795H26.7223ZM21.4583 21.3205V16.3193L18.9549 17.749L11.8065 21.8288V26.877L21.4583 21.3205ZM1.27841 4.30238V21.3205L10.929 26.8765V21.8294L5.88734 18.976L5.8857 18.9749L5.88351 18.9738C5.86653 18.964 5.85229 18.9497 5.8364 18.9377C5.82271 18.9267 5.80682 18.918 5.79477 18.9059L5.79367 18.9043C5.77943 18.8906 5.76957 18.8736 5.75752 18.8583C5.74657 18.8435 5.73342 18.8309 5.72466 18.8155L5.72411 18.8139C5.71425 18.7974 5.70822 18.7777 5.7011 18.7591C5.69398 18.7427 5.68467 18.7273 5.68029 18.7098V18.7093C5.67481 18.6884 5.67371 18.6665 5.67152 18.6452C5.66933 18.6287 5.66495 18.6123 5.66495 18.5959V6.82814L3.12056 5.36231L1.27841 4.30293V4.30238ZM6.10426 1.01905L1.71827 3.54372L6.10316 6.06839L10.4886 3.54317L6.10316 1.01905H6.10426ZM8.38517 16.7751L10.9296 15.3103V4.30238L9.08741 5.36286L6.54248 6.82814V17.8361L8.38517 16.7751ZM21.897 3.99837L17.5116 6.52304L21.897 9.0477L26.2819 6.52249L21.897 3.99837ZM21.4583 9.80746L18.9133 8.34218L17.0712 7.2817V12.2795L19.6156 13.7443L21.4583 14.8053V9.80746ZM11.3672 21.0701L17.7997 17.3979L21.0151 15.5629L16.6329 13.0398L11.5874 15.9447L6.98891 18.592L11.3672 21.0701Z" fill="#FF2D20"/>
</svg>
