<svg width="32" height="33" viewBox="0 0 32 33" fill="none" xmlns="http://www.w3.org/2000/svg">
<path d="M27.3346 3.60352H4.66797C4.13754 3.60352 3.62883 3.81423 3.25376 4.1893C2.87868 4.56437 2.66797 5.07308 2.66797 5.60352V28.2702C2.66797 28.8006 2.87868 29.3093 3.25376 29.6844C3.62883 30.0595 4.13754 30.2702 4.66797 30.2702H27.3346C27.8651 30.2702 28.3738 30.0595 28.7488 29.6844C29.1239 29.3093 29.3346 28.8006 29.3346 28.2702V5.60352C29.3346 5.07308 29.1239 4.56437 28.7488 4.1893C28.3738 3.81423 27.8651 3.60352 27.3346 3.60352ZM10.668 26.2702H6.66797V14.2702H10.668V26.2702ZM8.66797 11.9368C8.20955 11.9237 7.76515 11.7758 7.3903 11.5116C7.01546 11.2474 6.72679 10.8786 6.56036 10.4512C6.39394 10.0239 6.35713 9.55695 6.45455 9.10881C6.55198 8.66067 6.7793 8.25117 7.10812 7.93148C7.43694 7.61179 7.85268 7.39609 8.30339 7.31133C8.7541 7.22657 9.21979 7.27651 9.64228 7.45491C10.0648 7.6333 10.4253 7.93224 10.6789 8.31438C10.9325 8.69652 11.0678 9.14491 11.068 9.60352C11.0574 10.2306 10.7991 10.8281 10.3494 11.2653C9.89965 11.7026 9.29515 11.944 8.66797 11.9368ZM25.3346 26.2702H21.3346V19.9502C21.3346 18.0568 20.5346 17.3768 19.4946 17.3768C19.1897 17.3971 18.8918 17.4775 18.618 17.6133C18.3442 17.749 18.1 17.9375 17.8993 18.168C17.6986 18.3984 17.5454 18.6663 17.4485 18.9561C17.3516 19.2459 17.3129 19.552 17.3346 19.8568C17.328 19.9189 17.328 19.9815 17.3346 20.0435V26.2702H13.3346V14.2702H17.2013V16.0035C17.5913 15.4102 18.1272 14.9269 18.7576 14.6001C19.3879 14.2732 20.0916 14.1137 20.8013 14.1368C22.868 14.1368 25.2813 15.2835 25.2813 19.0168L25.3346 26.2702Z" fill="#050403"/>
</svg>
