<svg xmlns="http://www.w3.org/2000/svg" width="474.61" height="50.672" viewBox="0 0 474.61 50.672">
  <g id="logo_white_orange" transform="translate(0 0)">
    <g id="Group_164" data-name="Group 164" transform="translate(0 0)">
      <path id="Path_3" data-name="Path 3" d="M36.055,4.244a.986.986,0,0,1,1.1,1.126v4.973a.986.986,0,0,1-1.1,1.126H10.485a2.761,2.761,0,0,0-2.115.751,3.016,3.016,0,0,0-.644,2.158v1.783c0,1.97.919,2.908,2.667,2.908H29.525c2.943,0,5.151.751,6.715,2.346,1.471,1.5,2.207,3.754,2.207,6.662v4.129a8.387,8.387,0,0,1-2.207,6.1c-1.472,1.6-3.771,2.346-6.806,2.346H1.2c-.827,0-1.2-.375-1.2-1.126V34.552c0-.75.368-1.126,1.2-1.126H27.961a2.763,2.763,0,0,0,2.116-.751,3.02,3.02,0,0,0,.644-2.158V28.36c0-1.971-.92-2.909-2.668-2.909H8.922c-2.943,0-5.151-.75-6.715-2.346C.736,21.6,0,19.351,0,16.442V12.595A8.388,8.388,0,0,1,2.207,6.5C3.679,4.9,5.978,4.15,9.013,4.15H36.055Z" transform="translate(0 -1.523)" fill="#fff"/>
      <path id="Path_4" data-name="Path 4" d="M107.816,16.749a23.9,23.9,0,0,1,5.7.563,8.986,8.986,0,0,1,3.771,1.877,7.063,7.063,0,0,1,2.024,3.284,17.961,17.961,0,0,1,.551,4.786V44.149a.985.985,0,0,1-1.1,1.126h-4.967a.985.985,0,0,1-1.1-1.126V29.042a22.189,22.189,0,0,0-.184-2.722,3.477,3.477,0,0,0-.736-1.783,2.958,2.958,0,0,0-1.564-.938,10.082,10.082,0,0,0-2.667-.282H98.526V44.149c0,.75-.368,1.126-1.2,1.126H92.363a.985.985,0,0,1-1.1-1.126V23.317H82.614a10.085,10.085,0,0,0-2.667.282,3.527,3.527,0,0,0-1.747.938,3.643,3.643,0,0,0-.92,1.783A11.762,11.762,0,0,0,77,29.042V44.149a.985.985,0,0,1-1.1,1.126H70.932c-.827,0-1.2-.375-1.2-1.126V27.258a14.646,14.646,0,0,1,.644-4.786A7.887,7.887,0,0,1,72.4,19.189a8.467,8.467,0,0,1,3.771-1.877,25.283,25.283,0,0,1,5.795-.563Z" transform="translate(-25.587 -6.145)" fill="#fff"/>
      <path id="Path_5" data-name="Path 5" d="M181.02,16.64a25.283,25.283,0,0,1,5.795.563,8.467,8.467,0,0,1,3.771,1.877,7.89,7.89,0,0,1,2.024,3.284,14.662,14.662,0,0,1,.644,4.786V41.038a12.189,12.189,0,0,1-.184,2.064,2.912,2.912,0,0,1-.644,1.314,2.2,2.2,0,0,1-1.1.657,9.328,9.328,0,0,1-1.84.187H165.015a14.276,14.276,0,0,1-3.771-.469,5.355,5.355,0,0,1-2.392-1.314,4.523,4.523,0,0,1-1.288-2.252,12.207,12.207,0,0,1-.368-3.378V35.313a9.673,9.673,0,0,1,.368-2.908,4.665,4.665,0,0,1,1.288-2.159,5.926,5.926,0,0,1,2.392-1.314,14.3,14.3,0,0,1,3.771-.469H185.8V27.431a7.677,7.677,0,0,0-.276-2.158,3.549,3.549,0,0,0-.828-1.407,3.97,3.97,0,0,0-1.656-.845,11.367,11.367,0,0,0-2.759-.282H158.945c-.644,0-.92-.282-.92-.938V17.39c0-.657.276-.938.92-.938H181.02Zm3.311,22.9c.552,0,.92-.094,1.1-.375a2.565,2.565,0,0,0,.368-1.407v-4.6H167.131a2.848,2.848,0,0,0-2.208.657,2.448,2.448,0,0,0-.644,1.876v1.126a2.775,2.775,0,0,0,.644,2.065,2.983,2.983,0,0,0,2.208.657Z" transform="translate(-57.676 -6.036)" fill="#fff"/>
      <path id="Path_6" data-name="Path 6" d="M248.775,16.749c.644,0,.919.282.919.938V22.1c0,.657-.275.939-.919.939H235.162a10.121,10.121,0,0,0-2.668.281,3.529,3.529,0,0,0-1.747.938,3.648,3.648,0,0,0-.92,1.783,11.754,11.754,0,0,0-.275,2.721V44.243a.986.986,0,0,1-1.1,1.126H223.48c-.827,0-1.2-.375-1.2-1.126V27.353a14.658,14.658,0,0,1,.643-4.786,7.887,7.887,0,0,1,2.024-3.284,8.46,8.46,0,0,1,3.771-1.877,25.3,25.3,0,0,1,5.795-.563h14.257Z" transform="translate(-81.557 -6.145)" fill="#fff"/>
      <path id="Path_7" data-name="Path 7" d="M275.533,12.126V5.276a.985.985,0,0,1,1.1-1.126H281.7a.986.986,0,0,1,1.1,1.126v6.85h8.922c.644,0,.919.282.919.938v4.223c0,.657-.275.938-.919.938H282.8v12.1a4.887,4.887,0,0,0,.827,3.191c.553.657,1.749,1.032,3.4,1.032H292c.644,0,.921.282.921.938v4.223c0,.657-.277.938-.921.938h-6.162a18.887,18.887,0,0,1-5.058-.563,8.286,8.286,0,0,1-3.219-1.783,5.876,5.876,0,0,1-1.657-3.191,23.15,23.15,0,0,1-.46-4.692v-12.2h-4.874c-.644,0-.921-.282-.921-.938V13.065c0-.657.277-.938.921-.938Z" transform="translate(-98.934 -1.523)" fill="#fff"/>
      <path id="Path_8" data-name="Path 8" d="M316.958,4.189c.368,0,.553.187.736.657l8.278,27.963a.341.341,0,0,0,.368.375h.276a.341.341,0,0,0,.368-.375L335.263,7.1a4.378,4.378,0,0,1,1.472-2.44,4.434,4.434,0,0,1,2.3-.657h5.058a4.043,4.043,0,0,1,2.575.657A5.085,5.085,0,0,1,348.139,7L356.6,32.715c.092.282.183.375.367.375h.277a.34.34,0,0,0,.367-.375l8.095-27.963a.856.856,0,0,1,.368-.563.815.815,0,0,1,.459-.094h6.9c.275,0,.46.094.46.375a1.344,1.344,0,0,1-.092.845l-9.842,31.247a7.671,7.671,0,0,1-1.562,3.191A3.25,3.25,0,0,1,360,40.6h-5.978a3.027,3.027,0,0,1-2.3-.845,7.807,7.807,0,0,1-1.563-3.1l-7.911-24.679a.34.34,0,0,0-.367-.375H341.7c-.277,0-.368.094-.368.375l-8.187,24.679a9.267,9.267,0,0,1-1.562,3.1,3.172,3.172,0,0,1-2.3.845h-5.794a6.271,6.271,0,0,1-1.471-.188,2.08,2.08,0,0,1-1.1-.563,3.224,3.224,0,0,1-.919-1.22c-.277-.563-.461-1.22-.736-1.97L309.693,5.409a3.3,3.3,0,0,1-.092-.845c.092-.188.184-.375.459-.375Z" transform="translate(-113.594 -1.468)" fill="#ff4d04"/>
      <path id="Path_9" data-name="Path 9" d="M439.043,16.749a25.275,25.275,0,0,1,5.795.563,8.457,8.457,0,0,1,3.771,1.877,7.881,7.881,0,0,1,2.024,3.284,17.628,17.628,0,0,1,.644,4.786v7.507a14.627,14.627,0,0,1-.644,4.786,7.055,7.055,0,0,1-2.024,3.284,8.463,8.463,0,0,1-3.771,1.876,25.275,25.275,0,0,1-5.795.563H424.6a25.276,25.276,0,0,1-5.795-.563,8.117,8.117,0,0,1-3.68-1.876,7.9,7.9,0,0,1-2.022-3.284,17.628,17.628,0,0,1-.644-4.786V27.258a14.628,14.628,0,0,1,.644-4.786,7.059,7.059,0,0,1,2.022-3.284,8.616,8.616,0,0,1,3.68-1.877,25.276,25.276,0,0,1,5.795-.563Zm-19.316,16.8A10.686,10.686,0,0,0,420,36.267a3.655,3.655,0,0,0,.919,1.783,3.537,3.537,0,0,0,1.749.939,11.126,11.126,0,0,0,2.668.281h12.968a11.4,11.4,0,0,0,2.76-.281,3.524,3.524,0,0,0,1.747-.939,3.64,3.64,0,0,0,.92-1.783,11.748,11.748,0,0,0,.277-2.721V28.572a11.752,11.752,0,0,0-.277-2.721,3.64,3.64,0,0,0-.92-1.783,3.523,3.523,0,0,0-1.747-.938,11.365,11.365,0,0,0-2.76-.282H425.339a10.083,10.083,0,0,0-2.668.282,3.536,3.536,0,0,0-1.749.938A3.655,3.655,0,0,0,420,25.851a11.21,11.21,0,0,0-.277,2.721Z" transform="translate(-151.334 -6.145)" fill="#ff4d04"/>
      <path id="Path_10" data-name="Path 10" d="M509.268,16.749c.645,0,.92.282.92.938V22.1c0,.657-.276.939-.92.939H495.655a10.11,10.11,0,0,0-2.667.281,3.541,3.541,0,0,0-1.749.938,3.642,3.642,0,0,0-.919,1.783,11.715,11.715,0,0,0-.277,2.721V44.243a.985.985,0,0,1-1.1,1.126h-4.967c-.828,0-1.2-.375-1.2-1.126V27.353a14.656,14.656,0,0,1,.644-4.786,7.071,7.071,0,0,1,2.023-3.284,8.614,8.614,0,0,1,3.68-1.877,25.309,25.309,0,0,1,5.795-.563h14.348Z" transform="translate(-177.134 -6.145)" fill="#ff4d04"/>
      <path id="Path_11" data-name="Path 11" d="M538.576.148a.985.985,0,0,1,1.1,1.126V21.918h9.383a10.877,10.877,0,0,0,1.839-.094c.459-.094.919-.187,1.288-.281a3.787,3.787,0,0,0,1.012-.657,5.909,5.909,0,0,0,.92-1.126l5.7-8.258a2.139,2.139,0,0,1,.644-.657,2.268,2.268,0,0,1,.919-.188h5.795a.728.728,0,0,1,.736.47,1.179,1.179,0,0,1-.183.938l-6.623,9.2a18.512,18.512,0,0,1-3.128,3.378,11.193,11.193,0,0,1,3.587,3.378l7.267,10.04a.816.816,0,0,1-.644,1.314h-5.7a2.8,2.8,0,0,1-1.012-.187,3,3,0,0,1-.644-.563l-6.254-8.727a5.2,5.2,0,0,0-1.932-1.689,8.8,8.8,0,0,0-3.127-.469H539.68v10.51a.985.985,0,0,1-1.1,1.126h-5.058c-.829,0-1.2-.375-1.2-1.126V1.368c0-.751.367-1.126,1.2-1.126h5.058Z" transform="translate(-195.312 -0.054)" fill="#ff4d04"/>
      <path id="Path_12" data-name="Path 12" d="M602.7,0a.985.985,0,0,1,1.1,1.126V6.1c0,.845-.367,1.22-1.1,1.22h-4.967c-.828,0-1.2-.375-1.2-1.22V1.22c0-.751.368-1.126,1.2-1.126H602.7Zm0,10.6c.736,0,1.1.375,1.1,1.22V38.1a.985.985,0,0,1-1.1,1.126h-4.967a.986.986,0,0,1-1.1-1.126V11.824c0-.845.369-1.22,1.1-1.22Z" transform="translate(-218.872)" fill="#ff4d04"/>
      <path id="Path_13" data-name="Path 13" d="M644.8,16.749a25.29,25.29,0,0,1,5.795.563,8.474,8.474,0,0,1,3.771,1.877,7.906,7.906,0,0,1,2.024,3.284,17.678,17.678,0,0,1,.644,4.786V44.149a.986.986,0,0,1-1.1,1.126h-4.967a.985.985,0,0,1-1.1-1.126V29.042a22.2,22.2,0,0,0-.184-2.722,2.924,2.924,0,0,0-.828-1.783,2.954,2.954,0,0,0-1.563-.938,10.085,10.085,0,0,0-2.667-.282H631.007a10.09,10.09,0,0,0-2.667.282,3.524,3.524,0,0,0-1.747.938,3.653,3.653,0,0,0-.92,1.783,11.83,11.83,0,0,0-.275,2.722V44.149a.986.986,0,0,1-1.1,1.126h-5.059c-.827,0-1.2-.375-1.2-1.126V27.258a14.66,14.66,0,0,1,.644-4.786,7.062,7.062,0,0,1,2.023-3.284,8.618,8.618,0,0,1,3.679-1.877,25.289,25.289,0,0,1,5.795-.563Z" transform="translate(-226.761 -6.145)" fill="#ff4d04"/>
      <path id="Path_14" data-name="Path 14" d="M715.244,16.749a25.262,25.262,0,0,1,5.793.563,9,9,0,0,1,3.773,1.876,6.616,6.616,0,0,1,2.022,3.285,17.905,17.905,0,0,1,.553,4.786V46.213a18.655,18.655,0,0,1-.553,4.88,7.054,7.054,0,0,1-2.022,3.284,8.47,8.47,0,0,1-3.773,1.877,25.261,25.261,0,0,1-5.793.563H691.237c-.644,0-.921-.282-.921-.938V51.468c0-.657.276-.938.921-.938H714.6a11.4,11.4,0,0,0,2.758-.281,3.523,3.523,0,0,0,1.747-.939,3.635,3.635,0,0,0,.921-1.783,12.019,12.019,0,0,0,.277-2.815V43.4H701.079a25.271,25.271,0,0,1-5.795-.563,8.107,8.107,0,0,1-3.68-1.876,7.916,7.916,0,0,1-2.023-3.284,18.389,18.389,0,0,1-.644-4.88V27.352a15.264,15.264,0,0,1,.644-4.879,7.073,7.073,0,0,1,2.023-3.285,8.621,8.621,0,0,1,3.68-1.876,25.275,25.275,0,0,1,5.795-.563ZM696.111,32.795a7.449,7.449,0,0,0,.277,2.252,3.17,3.17,0,0,0,.918,1.5,4.4,4.4,0,0,0,1.749.845,11.124,11.124,0,0,0,2.668.282h18.488V27.916a5.726,5.726,0,0,0-1.105-3.941c-.734-.751-2.3-1.126-4.505-1.126H701.723a10.084,10.084,0,0,0-2.668.282,4.392,4.392,0,0,0-1.749.845,3.168,3.168,0,0,0-.918,1.5,8.357,8.357,0,0,0-.277,2.252Z" transform="translate(-252.775 -6.145)" fill="#ff4d04"/>
    </g>
  </g>
</svg>
