<?xml version="1.0" encoding="UTF-8"?>
<svg id="Layer_3" xmlns="http://www.w3.org/2000/svg" viewBox="0 0 228 28">
  <defs>
    <style>
      .cls-1 {
        fill: #fbfbfb;
      }

      .cls-2 {
        fill: #fb4c03;
      }
    </style>
  </defs>
  <g>
    <path class="cls-2" d="M131.19,20.57c-.34,0-.67,0-1.01,0-.89,0-1.3-.27-1.58-1.11-1-3.04-1.98-6.09-2.96-9.14-.1-.32-.21-.63-.32-.95-.04-.12-.05-.29-.23-.28-.17.01-.18.17-.23.29-.37,1.12-.74,2.24-1.12,3.36-.74,2.21-1.47,4.42-2.23,6.62-.33.95-.71,1.21-1.72,1.2-.72,0-1.44.02-2.16-.03-.73-.05-1.12-.45-1.32-1.09-.58-1.86-1.16-3.73-1.74-5.59-.71-2.3-1.41-4.59-2.11-6.89-.24-.79-.22-.8.62-.8.62,0,1.24.02,1.86,0,.39-.02.56.14.67.5.69,2.35,1.39,4.7,2.09,7.06.34,1.15.67,2.31,1.03,3.46.05.16,0,.46.3.44.23-.01.23-.26.28-.42,1.04-3.25,2.09-6.49,3.13-9.74.35-1.09.73-1.37,1.9-1.37.5,0,1.01,0,1.51,0,1.06,0,1.46.29,1.79,1.31,1.06,3.22,2.12,6.43,3.18,9.65.03.1.07.19.1.28.04.13.09.26.26.26.18,0,.19-.17.22-.29.29-.99.58-1.98.87-2.97.75-2.59,1.5-5.18,2.24-7.77.09-.32.27-.47.61-.46.72.01,1.44,0,2.16,0,.55,0,.62.09.46.62-.57,1.83-1.15,3.65-1.73,5.48-.72,2.3-1.44,4.61-2.18,6.9-.41,1.29-.72,1.49-2.07,1.49-.2,0-.4,0-.6,0Z"/>
    <path class="cls-2" d="M213.74,25.13c-1.66,0-3.32-.01-4.98,0-.48,0-.68-.15-.64-.63.03-.43.03-.87,0-1.3-.03-.45.17-.57.59-.57,2.92.01,5.83,0,8.75,0,.3,0,.6,0,.9-.03.99-.09,1.44-.52,1.6-1.48q.21-1.32-1.12-1.32c-2.4,0-4.79,0-7.19-.02-.64,0-1.27-.1-1.88-.29-1.4-.45-2.04-1.54-2.12-2.92-.1-1.55-.2-3.11.1-4.65.26-1.37,1.17-2.22,2.54-2.48.73-.14,1.46-.19,2.2-.19,2.13,0,4.26,0,6.38.04.53,0,1.07.09,1.59.22,1.44.36,2.3,1.43,2.33,3.05.04,3.06.06,6.12,0,9.18-.03,1.76-.94,2.92-2.82,3.2-.7.11-1.39.17-2.1.17-1.37,0-2.75,0-4.12,0ZM215.87,17.52s0,.02,0,.02c1.24,0,2.48,0,3.72,0,.31,0,.4-.09.4-.4-.02-1.19,0-2.37,0-3.56,0-1.26-.5-1.85-1.75-1.88-2.01-.05-4.02-.05-6.03,0-1.22.02-1.74.61-1.77,1.83-.01.68,0,1.37,0,2.06,0,1.33.5,1.88,1.82,1.92,1.2.04,2.41,0,3.62,0Z"/>
    <path class="cls-1" d="M41.15,20.56c-2.16,0-3.93,0-5.71,0-.76,0-.81-.06-.81-.78,0-.47,0-.94,0-1.4,0-.63.04-.67.7-.67,3.35,0,6.7,0,10.05,0,1.14,0,1.42-.28,1.42-1.41,0-.33.04-.66-.04-1-.11-.44-.37-.7-.83-.73-.18-.01-.37-.02-.55-.02-2.55-.01-5.09,0-7.64-.05-1.87-.04-3.02-1.23-3.08-3.11-.03-.98-.14-1.97.09-2.94.31-1.28,1.23-2.1,2.55-2.27.45-.06.9-.09,1.35-.09,3.23,0,6.47,0,9.7,0,.17,0,.34,0,.5.02.35.05.53.22.51.61-.02.55-.03,1.1,0,1.65.02.49-.19.63-.66.63-3.23-.01-6.47,0-9.7,0-.23,0-.47,0-.69.09-.38.15-.6.43-.62.83-.02.37-.02.74,0,1.1.05.69.36.98,1.07.98,1.17.01,2.35-.01,3.52,0,1.54.02,3.08-.08,4.62.06,1.65.15,2.63.98,2.87,2.6.17,1.15.21,2.34-.02,3.49-.3,1.42-1.39,2.28-2.84,2.36-2.04.11-4.09.01-5.75.05Z"/>
    <path class="cls-1" d="M62.11,9.28c1.84,0,3.69-.02,5.53,0,1.07.02,2.14.1,3.07.74.89.6,1.19,1.51,1.25,2.49.13,2.5.04,5.01.06,7.52,0,.39-.2.53-.56.53-.57,0-1.14,0-1.71,0-.43,0-.59-.18-.59-.61,0-2.12-.01-4.24-.03-6.37,0-.27-.03-.54-.09-.79-.18-.69-.75-.88-1.35-.9-1.29-.04-2.58-.02-3.87-.04-.38,0-.28.25-.28.44,0,2.46,0,4.91,0,7.37,0,.86-.02.88-.91.88-.45,0-.9,0-1.36,0-.41,0-.59-.15-.59-.6.02-2.54,0-5.08.02-7.62,0-.41-.12-.5-.5-.48-1.29.07-2.58-.09-3.86.1-.71.1-1.09.53-1.22,1.2-.05.29-.09.6-.09.89,0,1.92,0,3.84,0,5.77,0,.65-.08.73-.71.74-.54,0-1.07,0-1.61,0-.37,0-.58-.15-.57-.57.02-2.39-.02-4.78.04-7.17.04-1.39.53-2.61,1.96-3.16.99-.38,2.06-.4,3.11-.4,1.63,0,3.25,0,4.88,0v.02Z"/>
    <path class="cls-1" d="M81.76,20.56c-1.69,0-3.38,0-5.07,0-.2,0-.4-.04-.6-.08-1.27-.25-1.73-.73-1.94-1.99-.13-.78-.11-1.57-.03-2.35.13-1.35.87-2.01,2.31-2.15.38-.04.77-.05,1.15-.05,2.48,0,4.96,0,7.44,0,.32,0,.43-.07.42-.41-.05-1.34-.57-1.85-1.99-1.85-2.75,0-5.5,0-8.24,0-.78,0-.78,0-.78-.78,0-.38.02-.77,0-1.15-.03-.44.14-.59.58-.58.92.02,1.84,0,2.76,0,1.52,0,3.05,0,4.57,0,1.15,0,2.29.11,3.43.3,1.5.25,2.54,1.48,2.58,3.17.05,2.15.04,4.31.01,6.47-.01,1.18-.35,1.48-1.56,1.48-1.68,0-3.35,0-5.03,0,0-.01,0-.02,0-.03ZM81.51,15.8c-1.19,0-2.37,0-3.56,0-.7,0-1.04.35-1.06,1.04,0,.15,0,.3,0,.45.01.69.32,1.02,1.01,1.03,2.29,0,4.58,0,6.87,0,.46,0,.64-.23.65-.63.02-.52,0-1.03.02-1.55.02-.3-.1-.35-.37-.35-1.19.01-2.37,0-3.56,0Z"/>
    <path class="cls-2" d="M145.81,20.58c-1.52-.03-3.05.08-4.56-.16-1.89-.3-2.69-.98-2.94-2.85-.26-1.92-.31-3.86.07-5.78.26-1.29,1.21-2.09,2.5-2.33,1.28-.24,2.57-.19,3.85-.19,1.62,0,3.25,0,4.87.04.8.02,1.61.12,2.33.52,1.07.6,1.47,1.61,1.56,2.75.13,1.55.12,3.1.01,4.65-.13,1.92-1.17,2.94-3.09,3.2-1.54.2-3.07.11-4.61.15ZM145.85,11.69c-.96,0-1.91,0-2.87,0-1.2.01-1.73.45-1.88,1.62-.13,1.06-.13,2.14,0,3.2.14,1.22.52,1.57,1.75,1.63,2.11.09,4.22.13,6.32-.03.86-.06,1.31-.49,1.43-1.34.16-1.1.12-2.21.05-3.3-.09-1.31-.65-1.76-1.99-1.78-.94-.01-1.88,0-2.82,0Z"/>
    <path class="cls-2" d="M168.28,12.87c0-2.29,0-4.58,0-6.87q0-.85.83-.85c.49,0,.97.03,1.46,0,.51-.05.64.17.64.63-.01,2.46,0,4.91-.02,7.37,0,.46.11.59.58.58,1.05-.04,2.11-.05,3.17,0,1.01.05,1.7-.35,2.24-1.2.62-.98,1.32-1.92,1.98-2.88.18-.26.4-.38.71-.38.69,0,1.37,0,2.06,0,.47,0,.6.27.31.65-1.18,1.55-2.15,3.25-3.54,4.64-.11.11-.29.22-.04.39,1.14.76,1.71,1.99,2.52,3.01.51.64.96,1.32,1.44,1.99.11.15.24.3.13.5-.1.19-.3.18-.49.18-.64,0-1.27,0-1.91,0-.4,0-.69-.15-.93-.48-.7-1-1.44-1.97-2.11-2.99-.57-.87-1.37-1.15-2.35-1.15-1.12,0-2.24.01-3.37,0-.35,0-.41.13-.41.44.01,1.17,0,2.34,0,3.51,0,.58-.09.67-.67.67-.54,0-1.07-.02-1.61,0-.47.02-.65-.17-.65-.65.02-2.37,0-4.75,0-7.12Z"/>
    <path class="cls-2" d="M197.48,9.3c1.57.02,3.15-.13,4.71.1,1.88.28,2.92,1.38,3.01,3.27.12,2.44.02,4.88.06,7.31,0,.42-.2.58-.57.58-.55,0-1.11-.01-1.66,0-.48.01-.64-.2-.64-.67,0-2.07,0-4.14-.01-6.21,0-.35-.02-.71-.17-1.03-.28-.56-.79-.77-1.37-.77-2.13-.02-4.25-.03-6.38,0-1.17.02-1.68.56-1.72,1.77-.05,1.4-.02,2.81-.03,4.21,0,.7,0,1.4,0,2.11,0,.39-.18.59-.57.59-.59,0-1.17,0-1.76,0-.4,0-.6-.17-.6-.61.02-2.39-.03-4.78.04-7.17.05-1.73.81-3.05,2.84-3.36.26-.04.53-.13.79-.13,1.34-.01,2.68,0,4.02,0Z"/>
    <path class="cls-1" d="M104.62,14.81c0-1.01-.02-1.84.01-2.68.02-.39-.12-.48-.48-.46-.45.03-.9,0-1.36,0-.33,0-.49-.13-.48-.48.02-.47.03-.94,0-1.4-.03-.44.18-.56.57-.54.42.01.84-.02,1.26,0,.37.03.53-.06.51-.48-.04-.67,0-1.34-.02-2-.02-.49.17-.71.67-.7.55.01,1.11,0,1.66,0,.41,0,.6.18.59.62-.03.72.01,1.44-.02,2.16-.01.34.11.42.43.41.97-.02,1.94,0,2.91-.01.41,0,.58.14.56.55-.02.45-.02.9,0,1.35.01.39-.17.53-.54.53-.99,0-1.98,0-2.97-.01-.3,0-.4.07-.39.38.02,1.54,0,3.07.01,4.61,0,.96.45,1.41,1.4,1.44.69.02,1.37.01,2.06,0,.37,0,.56.15.56.53,0,.47,0,.94,0,1.4,0,.3-.11.52-.47.51-1.34-.02-2.68.09-4-.17-1.33-.26-2.19-1.01-2.36-2.4-.14-1.12-.07-2.23-.11-3.18Z"/>
    <path class="cls-1" d="M90.45,16.29c0-1.07-.04-2.14,0-3.21.1-2.45,1.08-3.46,3.53-3.72,1.34-.14,2.68-.06,4.01-.08.94,0,1.88.02,2.81-.01.4-.01.5.16.49.5,0,.45-.02.9,0,1.35.02.47-.16.65-.65.64-1.76-.02-3.52,0-5.28-.01-.37,0-.74.03-1.08.16-.53.2-.82.61-.91,1.16-.11.71-.1,1.43-.09,2.15,0,1.59-.01,3.18,0,4.76,0,.47-.17.63-.62.6-.52-.03-1.04,0-1.56,0-.6,0-.71-.09-.71-.69-.01-1.2,0-2.41,0-3.61.01,0,.02,0,.04,0Z"/>
    <path class="cls-2" d="M158.73,16.78c0,1.02,0,2.04,0,3.06,0,.67-.09.76-.75.76-.54,0-1.07,0-1.61,0-.37,0-.55-.16-.55-.55.01-2.37-.02-4.75.03-7.12.03-1.43.5-2.66,1.98-3.25.65-.25,1.34-.34,2.02-.35,2.14-.04,4.29-.03,6.43-.05.31,0,.41.14.41.43,0,.48-.03.97,0,1.45.04.48-.18.61-.62.6-1.74-.01-3.48,0-5.23,0-.28,0-.56.03-.85.08-.71.12-1.07.56-1.2,1.23-.05.26-.07.53-.07.8,0,.97,0,1.94,0,2.91Z"/>
    <path class="cls-2" d="M184.42,14.94c0-1.64,0-3.27,0-4.91,0-.7.07-.77.78-.77.52,0,1.04,0,1.56,0,.33,0,.5.15.5.48,0,.15.02.3.02.45,0,3.19,0,6.38,0,9.57,0,.76-.07.84-.82.84-.49,0-.97,0-1.46,0-.42,0-.6-.16-.59-.6.02-1.69,0-3.37,0-5.06Z"/>
    <path class="cls-2" d="M184.38,6.52c.01-1.48-.21-1.45,1.43-1.44.32,0,.64,0,.95,0,.34-.02.51.15.51.47.01.63.02,1.27,0,1.9,0,.35-.2.54-.58.53-.55-.01-1.1-.01-1.66,0-.46,0-.69-.18-.66-.66.01-.27,0-.53,0-.8Z"/>
  </g>
  <path class="cls-2" d="M26.09,20.46L17.36,3.85c-.69-1.32-2.57-1.32-3.26,0,0,0-8.71,16.59-8.72,16.61-.67,1.27.46,3.06,1.95,2.61,1.7-.52,3.41-1.04,5.11-1.55,2.15-.65,4.44-.65,6.59,0,.9.27,1.8.57,2.71.84.85.26,1.92.77,2.82.8,1.36.05,2.1-1.6,1.54-2.7ZM19.79,18.43l-2.07-.63c-.64-.2-1.31-.29-1.99-.29s-1.34.1-1.98.29l-2.07.63c-.73.22-1.36-.55-1.01-1.22l4.3-8.19c.32-.61,1.2-.61,1.52,0l4.3,8.19c.35.67-.28,1.44-1.01,1.22Z"/>
</svg>