<svg width="251" height="270" viewBox="0 0 251 270" fill="none" xmlns="http://www.w3.org/2000/svg">
<path opacity="0.08" d="M278.043 234.076L161.946 13.1668C152.77 -4.38892 127.768 -4.38892 118.592 13.1668C118.592 13.1668 2.76013 233.81 2.62714 234.076C-6.28299 250.967 8.74454 274.773 28.5596 268.788C51.1674 261.872 73.9082 254.956 96.516 248.174C125.108 239.529 155.562 239.529 184.154 248.174C196.123 251.765 208.092 255.754 220.194 259.345C231.498 262.803 245.727 269.586 257.696 269.985C275.783 270.65 285.624 248.706 278.176 234.076H278.043ZM194.261 207.077L166.733 198.698C158.222 196.039 149.312 194.842 140.269 194.842C131.226 194.842 122.448 196.172 113.937 198.698L86.409 207.077C76.7009 210.003 68.3227 199.762 72.9773 190.852L130.162 81.9266C134.417 73.8137 146.12 73.8137 150.376 81.9266L207.56 190.852C212.215 199.762 203.837 210.003 194.128 207.077H194.261Z" fill="#FB4C03"/>
</svg>
