<svg width="226" height="263" viewBox="0 0 226 263" fill="none" xmlns="http://www.w3.org/2000/svg">
<rect x="0.5" y="12" width="225" height="150" rx="9" fill="white"/>
<rect opacity="0.2" x="20.3" y="100.65" width="185.4" height="8.1" rx="4.05" fill="#FF4D02"/>
<rect x="20.3" y="100.65" width="86.4" height="8.1" rx="4.05" fill="#FF4D02"/>
<g filter="url(#filter0_d_3178_5104)">
<rect x="95.45" y="94.3501" width="11.7" height="20.7" rx="5.85" fill="white"/>
</g>
<rect x="98.825" y="97.725" width="4.95" height="13.95" rx="2.475" stroke="#FF4D02" stroke-width="1.35"/>
<path opacity="0.5" d="M21.0992 40.5498V32.9898H22.0064V36.327H25.9268V32.9898H26.834V40.5498H25.9268V37.0722H22.0064V40.5498H21.0992ZM30.8161 40.6794C30.3121 40.6794 29.8585 40.5642 29.4553 40.3338C29.0521 40.1034 28.7317 39.7794 28.4941 39.3618C28.2637 38.937 28.1485 38.4402 28.1485 37.8714C28.1485 37.3026 28.2673 36.8094 28.5049 36.3918C28.7425 35.967 29.0629 35.6394 29.4661 35.409C29.8765 35.1786 30.3337 35.0634 30.8377 35.0634C31.3417 35.0634 31.7953 35.1786 32.1985 35.409C32.6017 35.6394 32.9185 35.967 33.1489 36.3918C33.3865 36.8094 33.5053 37.3026 33.5053 37.8714C33.5053 38.4402 33.3865 38.937 33.1489 39.3618C32.9113 39.7794 32.5873 40.1034 32.1769 40.3338C31.7737 40.5642 31.3201 40.6794 30.8161 40.6794ZM30.8161 39.9018C31.1257 39.9018 31.4137 39.8262 31.6801 39.675C31.9465 39.5238 32.1625 39.297 32.3281 38.9946C32.4937 38.6922 32.5765 38.3178 32.5765 37.8714C32.5765 37.425 32.4937 37.0506 32.3281 36.7482C32.1697 36.4458 31.9573 36.219 31.6909 36.0678C31.4245 35.9166 31.1401 35.841 30.8377 35.841C30.5281 35.841 30.2401 35.9166 29.9737 36.0678C29.7073 36.219 29.4913 36.4458 29.3257 36.7482C29.1601 37.0506 29.0773 37.425 29.0773 37.8714C29.0773 38.3178 29.1601 38.6922 29.3257 38.9946C29.4913 39.297 29.7037 39.5238 29.9629 39.675C30.2293 39.8262 30.5137 39.9018 30.8161 39.9018ZM36.7215 40.6794C36.0879 40.6794 35.5839 40.4886 35.2095 40.107C34.8351 39.7182 34.6479 39.1242 34.6479 38.325V35.193H35.5551V38.2278C35.5551 39.3438 36.0123 39.9018 36.9267 39.9018C37.3947 39.9018 37.7799 39.7362 38.0823 39.405C38.3919 39.0666 38.5467 38.5878 38.5467 37.9686V35.193H39.4539V40.5498H38.6331L38.5683 39.5886C38.4027 39.927 38.1543 40.1934 37.8231 40.3878C37.4991 40.5822 37.1319 40.6794 36.7215 40.6794ZM40.9472 40.5498V35.193H41.768L41.8436 36.219C42.0092 35.8662 42.2612 35.5854 42.5996 35.3766C42.938 35.1678 43.3556 35.0634 43.8524 35.0634V36.0138H43.604C43.2872 36.0138 42.9956 36.0714 42.7292 36.1866C42.4628 36.2946 42.2504 36.4818 42.092 36.7482C41.9336 37.0146 41.8544 37.3818 41.8544 37.8498V40.5498H40.9472ZM44.8706 40.5498V32.7738H45.7778V40.5498H44.8706ZM47.8479 42.9258L49.1763 40.0314H48.8631L46.7355 35.193H47.7183L49.4895 39.3618L51.3687 35.193H52.3083L48.7983 42.9258H47.8479ZM56.1241 40.5498V35.193H56.9449L57.0205 36.219C57.1861 35.8662 57.4381 35.5854 57.7765 35.3766C58.1149 35.1678 58.5325 35.0634 59.0293 35.0634V36.0138H58.7809C58.4641 36.0138 58.1725 36.0714 57.9061 36.1866C57.6397 36.2946 57.4273 36.4818 57.2689 36.7482C57.1105 37.0146 57.0313 37.3818 57.0313 37.8498V40.5498H56.1241ZM61.8295 40.6794C61.3831 40.6794 61.0123 40.6038 60.7171 40.4526C60.4219 40.3014 60.2023 40.0998 60.0583 39.8478C59.9143 39.5958 59.8423 39.3222 59.8423 39.027C59.8423 38.4798 60.0511 38.0586 60.4687 37.7634C60.8863 37.4682 61.4551 37.3206 62.1751 37.3206H63.6223V37.2558C63.6223 36.7878 63.4999 36.435 63.2551 36.1974C63.0103 35.9526 62.6827 35.8302 62.2723 35.8302C61.9195 35.8302 61.6135 35.9202 61.3543 36.1002C61.1023 36.273 60.9439 36.5286 60.8791 36.867H59.9503C59.9863 36.4782 60.1159 36.1506 60.3391 35.8842C60.5695 35.6178 60.8539 35.4162 61.1923 35.2794C61.5307 35.1354 61.8907 35.0634 62.2723 35.0634C63.0211 35.0634 63.5827 35.265 63.9571 35.6682C64.3387 36.0642 64.5295 36.5934 64.5295 37.2558V40.5498H63.7195L63.6655 39.5886C63.5143 39.891 63.2911 40.1502 62.9959 40.3662C62.7079 40.575 62.3191 40.6794 61.8295 40.6794ZM61.9699 39.9126C62.3155 39.9126 62.6107 39.8226 62.8555 39.6426C63.1075 39.4626 63.2983 39.2286 63.4279 38.9406C63.5575 38.6526 63.6223 38.3502 63.6223 38.0334V38.0226H62.2507C61.7179 38.0226 61.3399 38.1162 61.1167 38.3034C60.9007 38.4834 60.7927 38.7102 60.7927 38.9838C60.7927 39.2646 60.8935 39.4914 61.0951 39.6642C61.3039 39.8298 61.5955 39.9126 61.9699 39.9126ZM67.8597 40.5498C67.3701 40.5498 66.9849 40.431 66.7041 40.1934C66.4233 39.9558 66.2829 39.5274 66.2829 38.9082V35.9598H65.3541V35.193H66.2829L66.4017 33.9078H67.1901V35.193H68.7669V35.9598H67.1901V38.9082C67.1901 39.2466 67.2585 39.477 67.3953 39.5994C67.5321 39.7146 67.7733 39.7722 68.1189 39.7722H68.6805V40.5498H67.8597ZM72.1802 40.6794C71.669 40.6794 71.2154 40.5642 70.8194 40.3338C70.4234 40.0962 70.1102 39.7686 69.8798 39.351C69.6566 38.9334 69.545 38.4402 69.545 37.8714C69.545 37.3098 69.6566 36.8202 69.8798 36.4026C70.103 35.9778 70.4126 35.6502 70.8086 35.4198C71.2118 35.1822 71.6762 35.0634 72.2018 35.0634C72.7202 35.0634 73.1666 35.1822 73.541 35.4198C73.9226 35.6502 74.2142 35.9562 74.4158 36.3378C74.6174 36.7194 74.7182 37.1298 74.7182 37.569C74.7182 37.6482 74.7146 37.7274 74.7074 37.8066C74.7074 37.8858 74.7074 37.9758 74.7074 38.0766H70.4414C70.463 38.487 70.5566 38.829 70.7222 39.1026C70.895 39.369 71.1074 39.5706 71.3594 39.7074C71.6186 39.8442 71.8922 39.9126 72.1802 39.9126C72.5546 39.9126 72.8678 39.8262 73.1198 39.6534C73.3718 39.4806 73.5554 39.2466 73.6706 38.9514H74.567C74.423 39.4482 74.1458 39.8622 73.7354 40.1934C73.3322 40.5174 72.8138 40.6794 72.1802 40.6794ZM72.1802 35.8302C71.7482 35.8302 71.363 35.9634 71.0246 36.2298C70.6934 36.489 70.5026 36.8706 70.4522 37.3746H73.8218C73.8002 36.8922 73.6346 36.5142 73.325 36.2406C73.0154 35.967 72.6338 35.8302 72.1802 35.8302Z" fill="#050403"/>
<path d="M22.2683 72.0498V70.4946C22.8839 69.8304 23.3699 69.1743 23.7263 68.5263C24.0989 67.8621 24.2852 66.9954 24.2852 65.9262C24.2852 65.7156 24.269 65.505 24.2366 65.2944C24.2042 65.0838 24.1556 64.8732 24.0908 64.6626H21.3206V62.8644H23.5076C23.3456 62.4108 23.1998 61.941 23.0702 61.455C22.9406 60.9528 22.8758 60.4101 22.8758 59.8269C22.8758 58.7901 23.1026 57.891 23.5562 57.1296C24.0098 56.3682 24.6335 55.785 25.4273 55.38C26.2373 54.9588 27.1688 54.7482 28.2218 54.7482C29.4206 54.7482 30.4088 54.9831 31.1864 55.4529C31.9802 55.9065 32.5796 56.5221 32.9846 57.2997C33.3896 58.0773 33.6245 58.9359 33.6893 59.8755H31.3079C31.2593 59.0169 30.9758 58.3041 30.4574 57.7371C29.9552 57.1701 29.2262 56.8866 28.2704 56.8866C27.4766 56.8866 26.7881 57.1296 26.2049 57.6156C25.6217 58.1016 25.3301 58.8711 25.3301 59.9241C25.3301 60.4101 25.3949 60.9042 25.5245 61.4064C25.6703 61.8924 25.8323 62.3784 26.0105 62.8644H30.6275V64.6626H26.5694C26.618 64.857 26.6504 65.0595 26.6666 65.2701C26.699 65.4807 26.7152 65.6994 26.7152 65.9262C26.7152 66.6552 26.5775 67.3599 26.3021 68.0403C26.0267 68.7207 25.5812 69.3687 24.9656 69.9843H33.7379V72.0741L22.2683 72.0498ZM36.5166 72.0498V70.203C37.6182 69.3282 38.6712 68.4453 39.6756 67.5543C40.68 66.6633 41.571 65.7885 42.3486 64.9299C43.1424 64.0551 43.7661 63.2046 44.2197 62.3784C44.6733 61.536 44.9001 60.726 44.9001 59.9484C44.9001 59.43 44.811 58.944 44.6328 58.4904C44.4546 58.0206 44.163 57.648 43.758 57.3726C43.353 57.081 42.8103 56.9352 42.1299 56.9352C41.1093 56.9352 40.3398 57.2592 39.8214 57.9072C39.3192 58.5552 39.0762 59.3328 39.0924 60.24H36.5895C36.6057 59.0412 36.8568 58.0368 37.3428 57.2268C37.845 56.4168 38.5092 55.8012 39.3354 55.38C40.1778 54.9588 41.1255 54.7482 42.1785 54.7482C43.7823 54.7482 45.0621 55.2018 46.0179 56.109C46.9899 57 47.4759 58.2474 47.4759 59.8512C47.4759 60.807 47.241 61.7547 46.7712 62.6943C46.3176 63.6339 45.7182 64.5411 44.973 65.4159C44.244 66.2745 43.4583 67.0845 42.6159 67.8459C41.7735 68.6073 40.9716 69.2958 40.2102 69.9114H47.9862V72.0498H36.5166ZM57.3771 72.3414C55.8381 72.3414 54.5097 71.9769 53.3919 71.2479C52.2903 70.5027 51.4398 69.474 50.8404 68.1618C50.2572 66.8334 49.9656 65.2944 49.9656 63.5448C49.9656 61.7952 50.2572 60.2643 50.8404 58.9521C51.4398 57.6237 52.2903 56.595 53.3919 55.866C54.5097 55.1208 55.8381 54.7482 57.3771 54.7482C58.9161 54.7482 60.2364 55.1208 61.338 55.866C62.4396 56.595 63.282 57.6237 63.8652 58.9521C64.4646 60.2643 64.7643 61.7952 64.7643 63.5448C64.7643 65.2944 64.4646 66.8334 63.8652 68.1618C63.282 69.474 62.4396 70.5027 61.338 71.2479C60.2364 71.9769 58.9161 72.3414 57.3771 72.3414ZM57.3771 70.0329C58.3005 70.0329 59.1186 69.7737 59.8314 69.2553C60.5604 68.7369 61.1274 67.9917 61.5324 67.0197C61.9374 66.0477 62.1399 64.8894 62.1399 63.5448C62.1399 62.2002 61.9374 61.0419 61.5324 60.0699C61.1274 59.0979 60.5604 58.3527 59.8314 57.8343C59.1186 57.3159 58.3005 57.0567 57.3771 57.0567C56.4375 57.0567 55.6113 57.3159 54.8985 57.8343C54.1857 58.3527 53.6268 59.0979 53.2218 60.0699C52.8168 61.0419 52.6143 62.2002 52.6143 63.5448C52.6143 64.8894 52.8168 66.0477 53.2218 67.0197C53.6268 67.9917 54.1857 68.7369 54.8985 69.2553C55.6113 69.7737 56.4375 70.0329 57.3771 70.0329ZM65.5688 74.5527L71.6438 53.3145H74.171L68.0717 74.5527H65.5688ZM76.437 72.0498V54.5538H79.0128V61.941C79.4178 61.2444 79.9767 60.7017 80.6895 60.3129C81.4185 59.9079 82.2204 59.7054 83.0952 59.7054C84.537 59.7054 85.671 60.159 86.4972 61.0662C87.3234 61.9734 87.7365 63.3261 87.7365 65.1243V72.0498H85.185V65.3916C85.185 63.0588 84.2535 61.8924 82.3905 61.8924C81.4185 61.8924 80.6085 62.2326 79.9605 62.913C79.3287 63.5934 79.0128 64.5654 79.0128 65.829V72.0498H76.437ZM90.7702 72.0498V59.997H93.0787L93.2974 62.2812C93.7186 61.4874 94.3018 60.8637 95.047 60.4101C95.8084 59.9403 96.7237 59.7054 97.7929 59.7054V62.4027H97.0882C96.3754 62.4027 95.7355 62.5242 95.1685 62.7672C94.6177 62.994 94.1722 63.3909 93.832 63.9579C93.508 64.5087 93.346 65.2782 93.346 66.2664V72.0498H90.7702Z" fill="#050403"/>
<path d="M20.3 122.55H205.7" stroke="#050403" stroke-opacity="0.1" stroke-width="0.45"/>
<path opacity="0.5" d="M20.543 141.95L22.6328 136.28H23.3537L25.4354 141.95H24.7145L24.1961 140.492H21.7823L21.2558 141.95H20.543ZM21.9848 139.941H23.9936L22.9892 137.139L21.9848 139.941ZM26.2378 141.95V137.932H26.8534L26.902 138.516C27.0316 138.3 27.2044 138.132 27.4204 138.013C27.6364 137.895 27.8794 137.835 28.1494 137.835C28.468 137.835 28.7407 137.9 28.9675 138.03C29.1997 138.159 29.3779 138.356 29.5021 138.621C29.6425 138.378 29.8342 138.186 30.0772 138.046C30.3256 137.905 30.5929 137.835 30.8791 137.835C31.3597 137.835 31.7431 137.981 32.0293 138.273C32.3155 138.559 32.4586 139.002 32.4586 139.601V141.95H31.7863V139.674C31.7863 139.258 31.7026 138.945 31.5352 138.734C31.3678 138.524 31.1275 138.418 30.8143 138.418C30.4903 138.418 30.2203 138.545 30.0043 138.799C29.7937 139.047 29.6884 139.404 29.6884 139.868V141.95H29.008V139.674C29.008 139.258 28.9243 138.945 28.7569 138.734C28.5895 138.524 28.3492 138.418 28.036 138.418C27.7174 138.418 27.4501 138.545 27.2341 138.799C27.0235 139.047 26.9182 139.404 26.9182 139.868V141.95H26.2378ZM35.3141 142.047C34.9361 142.047 34.5959 141.961 34.2935 141.788C33.9911 141.615 33.7508 141.372 33.5726 141.059C33.3998 140.74 33.3134 140.368 33.3134 139.941C33.3134 139.515 33.4025 139.145 33.5807 138.831C33.7589 138.513 33.9992 138.267 34.3016 138.094C34.6094 137.922 34.9523 137.835 35.3303 137.835C35.7083 137.835 36.0485 137.922 36.3509 138.094C36.6533 138.267 36.8909 138.513 37.0637 138.831C37.2419 139.145 37.331 139.515 37.331 139.941C37.331 140.368 37.2419 140.74 37.0637 141.059C36.8855 141.372 36.6425 141.615 36.3347 141.788C36.0323 141.961 35.6921 142.047 35.3141 142.047ZM35.3141 141.464C35.5463 141.464 35.7623 141.407 35.9621 141.294C36.1619 141.18 36.3239 141.01 36.4481 140.784C36.5723 140.557 36.6344 140.276 36.6344 139.941C36.6344 139.606 36.5723 139.326 36.4481 139.099C36.3293 138.872 36.17 138.702 35.9702 138.588C35.7704 138.475 35.5571 138.418 35.3303 138.418C35.0981 138.418 34.8821 138.475 34.6823 138.588C34.4825 138.702 34.3205 138.872 34.1963 139.099C34.0721 139.326 34.01 139.606 34.01 139.941C34.01 140.276 34.0721 140.557 34.1963 140.784C34.3205 141.01 34.4798 141.18 34.6742 141.294C34.874 141.407 35.0873 141.464 35.3141 141.464ZM39.7432 142.047C39.268 142.047 38.89 141.904 38.6092 141.618C38.3284 141.326 38.188 140.881 38.188 140.281V137.932H38.8684V140.208C38.8684 141.045 39.2113 141.464 39.8971 141.464C40.2481 141.464 40.537 141.34 40.7638 141.091C40.996 140.838 41.1121 140.478 41.1121 140.014V137.932H41.7925V141.95H41.1769L41.1283 141.229C41.0041 141.483 40.8178 141.683 40.5694 141.828C40.3264 141.974 40.051 142.047 39.7432 142.047ZM42.9124 141.95V137.932H43.528L43.5685 138.653C43.6981 138.399 43.8844 138.2 44.1274 138.054C44.3704 137.908 44.6458 137.835 44.9536 137.835C45.4288 137.835 45.8068 137.981 46.0876 138.273C46.3738 138.559 46.5169 139.002 46.5169 139.601V141.95H45.8365V139.674C45.8365 138.837 45.4909 138.418 44.7997 138.418C44.4541 138.418 44.1652 138.545 43.933 138.799C43.7062 139.047 43.5928 139.404 43.5928 139.868V141.95H42.9124ZM49.1354 141.95C48.7682 141.95 48.4793 141.861 48.2687 141.683C48.0581 141.504 47.9528 141.183 47.9528 140.719V138.507H47.2562V137.932H47.9528L48.0419 136.968H48.6332V137.932H49.8158V138.507H48.6332V140.719C48.6332 140.973 48.6845 141.145 48.7871 141.237C48.8897 141.324 49.0706 141.367 49.3298 141.367H49.751V141.95H49.1354ZM54.3629 142.047C53.8823 142.047 53.4827 141.926 53.1641 141.683C52.8455 141.44 52.6592 141.11 52.6052 140.694H53.3018C53.345 140.905 53.4557 141.089 53.6339 141.245C53.8175 141.396 54.0632 141.472 54.371 141.472C54.6572 141.472 54.8678 141.413 55.0028 141.294C55.1378 141.17 55.2053 141.024 55.2053 140.856C55.2053 140.613 55.1162 140.451 54.938 140.37C54.7652 140.289 54.5195 140.217 54.2009 140.152C53.9849 140.109 53.7689 140.046 53.5529 139.965C53.3369 139.884 53.156 139.771 53.0102 139.625C52.8644 139.474 52.7915 139.277 52.7915 139.034C52.7915 138.683 52.9211 138.397 53.1803 138.175C53.4449 137.949 53.8013 137.835 54.2495 137.835C54.6761 137.835 55.0244 137.943 55.2944 138.159C55.5698 138.37 55.7291 138.672 55.7723 139.066H55.1C55.073 138.861 54.9839 138.702 54.8327 138.588C54.6869 138.47 54.4898 138.41 54.2414 138.41C53.9984 138.41 53.8094 138.462 53.6744 138.564C53.5448 138.667 53.48 138.802 53.48 138.969C53.48 139.131 53.5637 139.258 53.7311 139.35C53.9039 139.442 54.1361 139.52 54.4277 139.585C54.6761 139.639 54.911 139.706 55.1324 139.787C55.3592 139.863 55.5428 139.979 55.6832 140.136C55.829 140.287 55.9019 140.508 55.9019 140.8C55.9073 141.162 55.7696 141.461 55.4888 141.699C55.2134 141.931 54.8381 142.047 54.3629 142.047ZM58.2104 142.047C57.8756 142.047 57.5975 141.99 57.3761 141.877C57.1547 141.764 56.99 141.612 56.882 141.423C56.774 141.234 56.72 141.029 56.72 140.808C56.72 140.397 56.8766 140.082 57.1898 139.86C57.503 139.639 57.9296 139.528 58.4696 139.528H59.555V139.479C59.555 139.128 59.4632 138.864 59.2796 138.686C59.096 138.502 58.8503 138.41 58.5425 138.41C58.2779 138.41 58.0484 138.478 57.854 138.613C57.665 138.742 57.5462 138.934 57.4976 139.188H56.801C56.828 138.896 56.9252 138.651 57.0926 138.451C57.2654 138.251 57.4787 138.1 57.7325 137.997C57.9863 137.889 58.2563 137.835 58.5425 137.835C59.1041 137.835 59.5253 137.986 59.8061 138.289C60.0923 138.586 60.2354 138.983 60.2354 139.479V141.95H59.6279L59.5874 141.229C59.474 141.456 59.3066 141.65 59.0852 141.812C58.8692 141.969 58.5776 142.047 58.2104 142.047ZM58.3157 141.472C58.5749 141.472 58.7963 141.405 58.9799 141.27C59.1689 141.135 59.312 140.959 59.4092 140.743C59.5064 140.527 59.555 140.3 59.555 140.063V140.055H58.5263C58.1267 140.055 57.8432 140.125 57.6758 140.265C57.5138 140.4 57.4328 140.57 57.4328 140.775C57.4328 140.986 57.5084 141.156 57.6596 141.286C57.8162 141.41 58.0349 141.472 58.3157 141.472ZM62.2641 141.95L60.7413 137.932H61.4541L62.661 141.294L63.876 137.932H64.5726L63.0498 141.95H62.2641ZM66.9305 142.047C66.5471 142.047 66.2069 141.961 65.9099 141.788C65.6129 141.61 65.378 141.364 65.2052 141.051C65.0378 140.738 64.9541 140.368 64.9541 139.941C64.9541 139.52 65.0378 139.153 65.2052 138.84C65.3726 138.521 65.6048 138.275 65.9018 138.102C66.2042 137.924 66.5525 137.835 66.9467 137.835C67.3355 137.835 67.6703 137.924 67.9511 138.102C68.2373 138.275 68.456 138.505 68.6072 138.791C68.7584 139.077 68.834 139.385 68.834 139.714C68.834 139.774 68.8313 139.833 68.8259 139.893C68.8259 139.952 68.8259 140.019 68.8259 140.095H65.6264C65.6426 140.403 65.7128 140.659 65.837 140.865C65.9666 141.064 66.1259 141.216 66.3149 141.318C66.5093 141.421 66.7145 141.472 66.9305 141.472C67.2113 141.472 67.4462 141.407 67.6352 141.278C67.8242 141.148 67.9619 140.973 68.0483 140.751H68.7206C68.6126 141.124 68.4047 141.434 68.0969 141.683C67.7945 141.926 67.4057 142.047 66.9305 142.047ZM66.9305 138.41C66.6065 138.41 66.3176 138.51 66.0638 138.71C65.8154 138.904 65.6723 139.191 65.6345 139.569H68.1617C68.1455 139.207 68.0213 138.923 67.7891 138.718C67.5569 138.513 67.2707 138.41 66.9305 138.41Z" fill="#050403"/>
<path d="M156.125 143.45V142.759C156.398 142.464 156.614 142.172 156.773 141.884C156.938 141.589 157.021 141.204 157.021 140.728C157.021 140.635 157.014 140.541 157 140.448C156.985 140.354 156.964 140.26 156.935 140.167H155.704V139.368H156.676C156.604 139.166 156.539 138.957 156.481 138.741C156.424 138.518 156.395 138.277 156.395 138.018C156.395 137.557 156.496 137.157 156.697 136.819C156.899 136.48 157.176 136.221 157.529 136.041C157.889 135.854 158.303 135.76 158.771 135.76C159.304 135.76 159.743 135.865 160.088 136.074C160.441 136.275 160.708 136.549 160.888 136.894C161.068 137.24 161.172 137.622 161.201 138.039H160.142C160.121 137.658 159.995 137.341 159.764 137.089C159.541 136.837 159.217 136.711 158.792 136.711C158.44 136.711 158.134 136.819 157.874 137.035C157.615 137.251 157.486 137.593 157.486 138.061C157.486 138.277 157.514 138.496 157.572 138.72C157.637 138.936 157.709 139.152 157.788 139.368H159.84V140.167H158.036C158.058 140.253 158.072 140.343 158.08 140.437C158.094 140.53 158.101 140.628 158.101 140.728C158.101 141.052 158.04 141.366 157.918 141.668C157.795 141.97 157.597 142.258 157.324 142.532H161.222V143.461L156.125 143.45ZM166.054 143.45V141.938H162.263V141.031L165.87 135.89H167.188V140.944H168.246V141.938H167.188V143.45H166.054ZM163.505 140.944H166.119V137.154L163.505 140.944ZM172.362 143.58C171.678 143.58 171.087 143.418 170.59 143.094C170.101 142.762 169.723 142.305 169.456 141.722C169.197 141.132 169.068 140.448 169.068 139.67C169.068 138.892 169.197 138.212 169.456 137.629C169.723 137.038 170.101 136.581 170.59 136.257C171.087 135.926 171.678 135.76 172.362 135.76C173.046 135.76 173.632 135.926 174.122 136.257C174.612 136.581 174.986 137.038 175.245 137.629C175.512 138.212 175.645 138.892 175.645 139.67C175.645 140.448 175.512 141.132 175.245 141.722C174.986 142.305 174.612 142.762 174.122 143.094C173.632 143.418 173.046 143.58 172.362 143.58ZM172.362 142.554C172.772 142.554 173.136 142.438 173.452 142.208C173.776 141.978 174.028 141.646 174.208 141.214C174.388 140.782 174.478 140.268 174.478 139.67C174.478 139.072 174.388 138.558 174.208 138.126C174.028 137.694 173.776 137.362 173.452 137.132C173.136 136.902 172.772 136.786 172.362 136.786C171.944 136.786 171.577 136.902 171.26 137.132C170.943 137.362 170.695 137.694 170.515 138.126C170.335 138.558 170.245 139.072 170.245 139.67C170.245 140.268 170.335 140.782 170.515 141.214C170.695 141.646 170.943 141.978 171.26 142.208C171.577 142.438 171.944 142.554 172.362 142.554ZM175.913 144.724L176.54 142.176H177.674L176.68 144.724H175.913ZM181.822 143.58C181.138 143.58 180.548 143.418 180.051 143.094C179.561 142.762 179.183 142.305 178.917 141.722C178.658 141.132 178.528 140.448 178.528 139.67C178.528 138.892 178.658 138.212 178.917 137.629C179.183 137.038 179.561 136.581 180.051 136.257C180.548 135.926 181.138 135.76 181.822 135.76C182.506 135.76 183.093 135.926 183.582 136.257C184.072 136.581 184.446 137.038 184.706 137.629C184.972 138.212 185.105 138.892 185.105 139.67C185.105 140.448 184.972 141.132 184.706 141.722C184.446 142.305 184.072 142.762 183.582 143.094C183.093 143.418 182.506 143.58 181.822 143.58ZM181.822 142.554C182.232 142.554 182.596 142.438 182.913 142.208C183.237 141.978 183.489 141.646 183.669 141.214C183.849 140.782 183.939 140.268 183.939 139.67C183.939 139.072 183.849 138.558 183.669 138.126C183.489 137.694 183.237 137.362 182.913 137.132C182.596 136.902 182.232 136.786 181.822 136.786C181.404 136.786 181.037 136.902 180.72 137.132C180.404 137.362 180.155 137.694 179.975 138.126C179.795 138.558 179.705 139.072 179.705 139.67C179.705 140.268 179.795 140.782 179.975 141.214C180.155 141.646 180.404 141.978 180.72 142.208C181.037 142.438 181.404 142.554 181.822 142.554ZM189.405 143.58C188.721 143.58 188.131 143.418 187.634 143.094C187.144 142.762 186.766 142.305 186.5 141.722C186.241 141.132 186.111 140.448 186.111 139.67C186.111 138.892 186.241 138.212 186.5 137.629C186.766 137.038 187.144 136.581 187.634 136.257C188.131 135.926 188.721 135.76 189.405 135.76C190.089 135.76 190.676 135.926 191.166 136.257C191.655 136.581 192.03 137.038 192.289 137.629C192.555 138.212 192.688 138.892 192.688 139.67C192.688 140.448 192.555 141.132 192.289 141.722C192.03 142.305 191.655 142.762 191.166 143.094C190.676 143.418 190.089 143.58 189.405 143.58ZM189.405 142.554C189.816 142.554 190.179 142.438 190.496 142.208C190.82 141.978 191.072 141.646 191.252 141.214C191.432 140.782 191.522 140.268 191.522 139.67C191.522 139.072 191.432 138.558 191.252 138.126C191.072 137.694 190.82 137.362 190.496 137.132C190.179 136.902 189.816 136.786 189.405 136.786C188.988 136.786 188.62 136.902 188.304 137.132C187.987 137.362 187.738 137.694 187.558 138.126C187.378 138.558 187.288 139.072 187.288 139.67C187.288 140.268 187.378 140.782 187.558 141.214C187.738 141.646 187.987 141.978 188.304 142.208C188.62 142.438 188.988 142.554 189.405 142.554ZM196.988 143.58C196.304 143.58 195.714 143.418 195.217 143.094C194.728 142.762 194.35 142.305 194.083 141.722C193.824 141.132 193.694 140.448 193.694 139.67C193.694 138.892 193.824 138.212 194.083 137.629C194.35 137.038 194.728 136.581 195.217 136.257C195.714 135.926 196.304 135.76 196.988 135.76C197.672 135.76 198.259 135.926 198.749 136.257C199.238 136.581 199.613 137.038 199.872 137.629C200.138 138.212 200.272 138.892 200.272 139.67C200.272 140.448 200.138 141.132 199.872 141.722C199.613 142.305 199.238 142.762 198.749 143.094C198.259 143.418 197.672 143.58 196.988 143.58ZM196.988 142.554C197.399 142.554 197.762 142.438 198.079 142.208C198.403 141.978 198.655 141.646 198.835 141.214C199.015 140.782 199.105 140.268 199.105 139.67C199.105 139.072 199.015 138.558 198.835 138.126C198.655 137.694 198.403 137.362 198.079 137.132C197.762 136.902 197.399 136.786 196.988 136.786C196.571 136.786 196.204 136.902 195.887 137.132C195.57 137.362 195.322 137.694 195.142 138.126C194.962 138.558 194.872 139.072 194.872 139.67C194.872 140.268 194.962 140.782 195.142 141.214C195.322 141.646 195.57 141.978 195.887 142.208C196.204 142.438 196.571 142.554 196.988 142.554Z" fill="#050403"/>
<path d="M5.6705 191.162C4.7345 191.162 3.9245 190.96 3.2405 190.555C2.5655 190.14 2.0435 189.569 1.6745 188.84C1.3055 188.102 1.121 187.251 1.121 186.288C1.121 185.316 1.3055 184.466 1.6745 183.737C2.0435 182.999 2.5655 182.423 3.2405 182.009C3.9245 181.595 4.7345 181.388 5.6705 181.388C6.7775 181.388 7.682 181.658 8.384 182.198C9.086 182.738 9.5315 183.494 9.7205 184.466H8.1275C8.0015 183.917 7.7315 183.48 7.3175 183.156C6.9035 182.832 6.35 182.67 5.657 182.67C4.712 182.67 3.965 182.994 3.416 183.642C2.867 184.281 2.5925 185.163 2.5925 186.288C2.5925 187.404 2.867 188.282 3.416 188.921C3.965 189.56 4.712 189.879 5.657 189.879C6.35 189.879 6.9035 189.726 7.3175 189.42C7.7315 189.114 8.0015 188.696 8.1275 188.165H9.7205C9.5315 189.101 9.086 189.834 8.384 190.365C7.682 190.896 6.7775 191.162 5.6705 191.162ZM13.71 191.162C12.9 191.162 12.261 190.91 11.793 190.406C11.334 189.902 11.1045 189.15 11.1045 188.151V184.304H12.5355V188.003C12.5355 189.299 13.0665 189.947 14.1285 189.947C14.6595 189.947 15.096 189.758 15.438 189.38C15.78 189.002 15.951 188.462 15.951 187.76V184.304H17.382V191H16.113L16.005 189.825C15.798 190.239 15.492 190.568 15.087 190.811C14.691 191.045 14.232 191.162 13.71 191.162ZM19.2024 191V184.304H20.4849L20.6064 185.573C20.8404 185.132 21.1644 184.785 21.5784 184.533C22.0014 184.272 22.5099 184.142 23.1039 184.142V185.64H22.7124C22.3164 185.64 21.9609 185.708 21.6459 185.843C21.3399 185.969 21.0924 186.189 20.9034 186.504C20.7234 186.81 20.6334 187.238 20.6334 187.787V191H19.2024ZM25.1408 183.035C24.8708 183.035 24.6458 182.954 24.4658 182.792C24.2948 182.621 24.2093 182.409 24.2093 182.157C24.2093 181.905 24.2948 181.698 24.4658 181.536C24.6458 181.365 24.8708 181.28 25.1408 181.28C25.4108 181.28 25.6313 181.365 25.8023 181.536C25.9823 181.698 26.0723 181.905 26.0723 182.157C26.0723 182.409 25.9823 182.621 25.8023 182.792C25.6313 182.954 25.4108 183.035 25.1408 183.035ZM24.4253 191V184.304H25.8563V191H24.4253ZM30.8773 191.162C30.2383 191.162 29.6623 191.018 29.1493 190.73C28.6453 190.433 28.2448 190.023 27.9478 189.501C27.6508 188.97 27.5023 188.354 27.5023 187.652C27.5023 186.95 27.6508 186.338 27.9478 185.816C28.2538 185.285 28.6633 184.875 29.1763 184.587C29.6893 184.29 30.2608 184.142 30.8908 184.142C31.5298 184.142 32.1013 184.29 32.6053 184.587C33.1183 184.875 33.5233 185.285 33.8203 185.816C34.1263 186.338 34.2793 186.95 34.2793 187.652C34.2793 188.354 34.1263 188.97 33.8203 189.501C33.5233 190.023 33.1183 190.433 32.6053 190.73C32.0923 191.018 31.5163 191.162 30.8773 191.162ZM30.8773 189.933C31.2193 189.933 31.5343 189.848 31.8223 189.677C32.1193 189.506 32.3578 189.254 32.5378 188.921C32.7178 188.579 32.8078 188.156 32.8078 187.652C32.8078 187.148 32.7178 186.729 32.5378 186.396C32.3668 186.054 32.1328 185.798 31.8358 185.627C31.5478 185.456 31.2328 185.37 30.8908 185.37C30.5488 185.37 30.2293 185.456 29.9323 185.627C29.6443 185.798 29.4103 186.054 29.2303 186.396C29.0503 186.729 28.9603 187.148 28.9603 187.652C28.9603 188.156 29.0503 188.579 29.2303 188.921C29.4103 189.254 29.6443 189.506 29.9323 189.677C30.2203 189.848 30.5353 189.933 30.8773 189.933ZM38.2974 191.162C37.4874 191.162 36.8484 190.91 36.3804 190.406C35.9214 189.902 35.6919 189.15 35.6919 188.151V184.304H37.1229V188.003C37.1229 189.299 37.6539 189.947 38.7159 189.947C39.2469 189.947 39.6834 189.758 40.0254 189.38C40.3674 189.002 40.5384 188.462 40.5384 187.76V184.304H41.9694V191H40.7004L40.5924 189.825C40.3854 190.239 40.0794 190.568 39.6744 190.811C39.2784 191.045 38.8194 191.162 38.2974 191.162ZM46.4628 191.162C45.6168 191.162 44.9193 190.955 44.3703 190.541C43.8213 190.127 43.5063 189.578 43.4253 188.894H44.8698C44.9418 189.2 45.1128 189.465 45.3828 189.69C45.6528 189.906 46.0083 190.014 46.4493 190.014C46.8813 190.014 47.1963 189.924 47.3943 189.744C47.5923 189.564 47.6913 189.357 47.6913 189.123C47.6913 188.781 47.5518 188.552 47.2728 188.435C47.0028 188.309 46.6248 188.196 46.1388 188.097C45.7608 188.016 45.3828 187.908 45.0048 187.773C44.6358 187.638 44.3253 187.449 44.0733 187.206C43.8303 186.954 43.7088 186.617 43.7088 186.194C43.7088 185.609 43.9338 185.123 44.3838 184.736C44.8338 184.34 45.4638 184.142 46.2738 184.142C47.0208 184.142 47.6238 184.322 48.0828 184.682C48.5508 185.042 48.8253 185.55 48.9063 186.207H47.5293C47.4843 185.919 47.3493 185.694 47.1243 185.532C46.9083 185.37 46.6158 185.289 46.2468 185.289C45.8868 185.289 45.6078 185.366 45.4098 185.519C45.2118 185.663 45.1128 185.852 45.1128 186.086C45.1128 186.32 45.2478 186.504 45.5178 186.639C45.7968 186.774 46.1613 186.896 46.6113 187.004C47.0613 187.103 47.4753 187.22 47.8533 187.355C48.2403 187.481 48.5508 187.67 48.7848 187.922C49.0188 188.174 49.1358 188.543 49.1358 189.029C49.1448 189.641 48.9063 190.149 48.4203 190.555C47.9433 190.96 47.2908 191.162 46.4628 191.162ZM53.5458 191L57.0288 181.55H58.5948L62.0508 191H60.5388L59.7288 188.691H55.8678L55.0578 191H53.5458ZM56.2728 187.557H59.3238L57.7983 183.251L56.2728 187.557ZM67.0812 191.162C66.5592 191.162 66.0957 191.058 65.6907 190.851C65.2947 190.644 64.9797 190.352 64.7457 189.974L64.5972 191H63.3147V181.28H64.7457V185.343C64.9617 185.028 65.2587 184.749 65.6367 184.506C66.0147 184.263 66.5007 184.142 67.0947 184.142C67.7427 184.142 68.3142 184.295 68.8092 184.601C69.3042 184.907 69.6912 185.325 69.9702 185.856C70.2582 186.387 70.4022 186.99 70.4022 187.665C70.4022 188.34 70.2582 188.943 69.9702 189.474C69.6912 189.996 69.3042 190.41 68.8092 190.716C68.3142 191.013 67.7382 191.162 67.0812 191.162ZM66.8382 189.92C67.4502 189.92 67.9542 189.713 68.3502 189.299C68.7462 188.876 68.9442 188.327 68.9442 187.652C68.9442 187.211 68.8542 186.819 68.6742 186.477C68.4942 186.135 68.2467 185.87 67.9317 185.681C67.6167 185.483 67.2522 185.384 66.8382 185.384C66.2262 185.384 65.7222 185.595 65.3262 186.018C64.9392 186.441 64.7457 186.986 64.7457 187.652C64.7457 188.327 64.9392 188.876 65.3262 189.299C65.7222 189.713 66.2262 189.92 66.8382 189.92ZM75.0819 191.162C74.4429 191.162 73.8669 191.018 73.3539 190.73C72.8499 190.433 72.4494 190.023 72.1524 189.501C71.8554 188.97 71.7069 188.354 71.7069 187.652C71.7069 186.95 71.8554 186.338 72.1524 185.816C72.4584 185.285 72.8679 184.875 73.3809 184.587C73.8939 184.29 74.4654 184.142 75.0954 184.142C75.7344 184.142 76.3059 184.29 76.8099 184.587C77.3229 184.875 77.7279 185.285 78.0249 185.816C78.3309 186.338 78.4839 186.95 78.4839 187.652C78.4839 188.354 78.3309 188.97 78.0249 189.501C77.7279 190.023 77.3229 190.433 76.8099 190.73C76.2969 191.018 75.7209 191.162 75.0819 191.162ZM75.0819 189.933C75.4239 189.933 75.7389 189.848 76.0269 189.677C76.3239 189.506 76.5624 189.254 76.7424 188.921C76.9224 188.579 77.0124 188.156 77.0124 187.652C77.0124 187.148 76.9224 186.729 76.7424 186.396C76.5714 186.054 76.3374 185.798 76.0404 185.627C75.7524 185.456 75.4374 185.37 75.0954 185.37C74.7534 185.37 74.4339 185.456 74.1369 185.627C73.8489 185.798 73.6149 186.054 73.4349 186.396C73.2549 186.729 73.1649 187.148 73.1649 187.652C73.1649 188.156 73.2549 188.579 73.4349 188.921C73.6149 189.254 73.8489 189.506 74.1369 189.677C74.4249 189.848 74.7399 189.933 75.0819 189.933ZM82.502 191.162C81.692 191.162 81.053 190.91 80.585 190.406C80.126 189.902 79.8965 189.15 79.8965 188.151V184.304H81.3275V188.003C81.3275 189.299 81.8585 189.947 82.9205 189.947C83.4515 189.947 83.888 189.758 84.23 189.38C84.572 189.002 84.743 188.462 84.743 187.76V184.304H86.174V191H84.905L84.797 189.825C84.59 190.239 84.284 190.568 83.879 190.811C83.483 191.045 83.024 191.162 82.502 191.162ZM90.8023 191C90.1453 191 89.6233 190.842 89.2363 190.527C88.8493 190.203 88.6558 189.632 88.6558 188.813V185.505H87.5083V184.304H88.6558L88.8313 182.603H90.0868V184.304H91.9768V185.505H90.0868V188.813C90.0868 189.182 90.1633 189.438 90.3163 189.582C90.4783 189.717 90.7528 189.785 91.1398 189.785H91.9093V191H90.8023ZM101.12 191.162C100.184 191.162 99.3737 190.96 98.6897 190.555C98.0147 190.14 97.4927 189.569 97.1237 188.84C96.7547 188.102 96.5702 187.251 96.5702 186.288C96.5702 185.316 96.7547 184.466 97.1237 183.737C97.4927 182.999 98.0147 182.423 98.6897 182.009C99.3737 181.595 100.184 181.388 101.12 181.388C102.227 181.388 103.131 181.658 103.833 182.198C104.535 182.738 104.981 183.494 105.17 184.466H103.577C103.451 183.917 103.181 183.48 102.767 183.156C102.353 182.832 101.799 182.67 101.106 182.67C100.161 182.67 99.4142 182.994 98.8652 183.642C98.3162 184.281 98.0417 185.163 98.0417 186.288C98.0417 187.404 98.3162 188.282 98.8652 188.921C99.4142 189.56 100.161 189.879 101.106 189.879C101.799 189.879 102.353 189.726 102.767 189.42C103.181 189.114 103.451 188.696 103.577 188.165H105.17C104.981 189.101 104.535 189.834 103.833 190.365C103.131 190.896 102.227 191.162 101.12 191.162ZM109.821 191.162C109.182 191.162 108.606 191.018 108.093 190.73C107.589 190.433 107.188 190.023 106.891 189.501C106.594 188.97 106.446 188.354 106.446 187.652C106.446 186.95 106.594 186.338 106.891 185.816C107.197 185.285 107.607 184.875 108.12 184.587C108.633 184.29 109.204 184.142 109.834 184.142C110.473 184.142 111.045 184.29 111.549 184.587C112.062 184.875 112.467 185.285 112.764 185.816C113.07 186.338 113.223 186.95 113.223 187.652C113.223 188.354 113.07 188.97 112.764 189.501C112.467 190.023 112.062 190.433 111.549 190.73C111.036 191.018 110.46 191.162 109.821 191.162ZM109.821 189.933C110.163 189.933 110.478 189.848 110.766 189.677C111.063 189.506 111.301 189.254 111.481 188.921C111.661 188.579 111.751 188.156 111.751 187.652C111.751 187.148 111.661 186.729 111.481 186.396C111.31 186.054 111.076 185.798 110.779 185.627C110.491 185.456 110.176 185.37 109.834 185.37C109.492 185.37 109.173 185.456 108.876 185.627C108.588 185.798 108.354 186.054 108.174 186.396C107.994 186.729 107.904 187.148 107.904 187.652C107.904 188.156 107.994 188.579 108.174 188.921C108.354 189.254 108.588 189.506 108.876 189.677C109.164 189.848 109.479 189.933 109.821 189.933ZM117.443 191.162C116.597 191.162 115.9 190.955 115.351 190.541C114.802 190.127 114.487 189.578 114.406 188.894H115.85C115.922 189.2 116.093 189.465 116.363 189.69C116.633 189.906 116.989 190.014 117.43 190.014C117.862 190.014 118.177 189.924 118.375 189.744C118.573 189.564 118.672 189.357 118.672 189.123C118.672 188.781 118.532 188.552 118.253 188.435C117.983 188.309 117.605 188.196 117.119 188.097C116.741 188.016 116.363 187.908 115.985 187.773C115.616 187.638 115.306 187.449 115.054 187.206C114.811 186.954 114.689 186.617 114.689 186.194C114.689 185.609 114.914 185.123 115.364 184.736C115.814 184.34 116.444 184.142 117.254 184.142C118.001 184.142 118.604 184.322 119.063 184.682C119.531 185.042 119.806 185.55 119.887 186.207H118.51C118.465 185.919 118.33 185.694 118.105 185.532C117.889 185.37 117.596 185.289 117.227 185.289C116.867 185.289 116.588 185.366 116.39 185.519C116.192 185.663 116.093 185.852 116.093 186.086C116.093 186.32 116.228 186.504 116.498 186.639C116.777 186.774 117.142 186.896 117.592 187.004C118.042 187.103 118.456 187.22 118.834 187.355C119.221 187.481 119.531 187.67 119.765 187.922C119.999 188.174 120.116 188.543 120.116 189.029C120.125 189.641 119.887 190.149 119.401 190.555C118.924 190.96 118.271 191.162 117.443 191.162ZM124.236 191C123.579 191 123.057 190.842 122.67 190.527C122.283 190.203 122.089 189.632 122.089 188.813V185.505H120.942V184.304H122.089L122.265 182.603H123.52V184.304H125.41V185.505H123.52V188.813C123.52 189.182 123.597 189.438 123.75 189.582C123.912 189.717 124.186 189.785 124.573 189.785H125.343V191H124.236ZM127.925 188.205L127.871 186.005H128.384C128.87 186.005 129.316 185.96 129.721 185.87C130.135 185.78 130.463 185.604 130.706 185.343C130.958 185.082 131.084 184.695 131.084 184.183C131.084 183.688 130.931 183.3 130.625 183.021C130.319 182.733 129.919 182.589 129.424 182.589C128.911 182.589 128.506 182.729 128.209 183.008C127.912 183.287 127.763 183.665 127.763 184.142H126.413C126.404 183.602 126.521 183.125 126.764 182.711C127.016 182.297 127.367 181.973 127.817 181.739C128.276 181.505 128.812 181.388 129.424 181.388C130.018 181.388 130.544 181.5 131.003 181.725C131.462 181.95 131.818 182.274 132.07 182.697C132.331 183.111 132.461 183.611 132.461 184.196C132.461 184.835 132.322 185.361 132.043 185.775C131.764 186.18 131.381 186.482 130.895 186.68C130.409 186.869 129.851 186.963 129.221 186.963L129.181 188.205H127.925ZM128.56 191.081C128.281 191.081 128.056 190.995 127.885 190.824C127.714 190.645 127.628 190.433 127.628 190.19C127.628 189.938 127.714 189.726 127.885 189.555C128.056 189.375 128.281 189.285 128.56 189.285C128.821 189.285 129.037 189.375 129.208 189.555C129.388 189.726 129.478 189.938 129.478 190.19C129.478 190.433 129.388 190.645 129.208 190.824C129.037 190.995 128.821 191.081 128.56 191.081Z" fill="#FF4E03"/>
<path d="M1.166 212V205.7H5V206.321H1.922V208.535H4.541V209.147H1.922V212H1.166ZM6.38762 206.546C6.23762 206.546 6.11162 206.498 6.00962 206.402C5.91362 206.3 5.86562 206.174 5.86562 206.024C5.86562 205.88 5.91362 205.76 6.00962 205.664C6.11162 205.568 6.23762 205.52 6.38762 205.52C6.53162 205.52 6.65462 205.568 6.75662 205.664C6.85862 205.76 6.90962 205.88 6.90962 206.024C6.90962 206.174 6.85862 206.3 6.75662 206.402C6.65462 206.498 6.53162 206.546 6.38762 206.546ZM6.00962 212V207.536H6.76562V212H6.00962ZM8.08194 212V207.536H8.76594L8.81094 208.337C8.95494 208.055 9.16194 207.833 9.43194 207.671C9.70194 207.509 10.0079 207.428 10.3499 207.428C10.8779 207.428 11.2979 207.59 11.6099 207.914C11.9279 208.232 12.0869 208.724 12.0869 209.39V212H11.3309V209.471C11.3309 208.541 10.9469 208.076 10.1789 208.076C9.79494 208.076 9.47394 208.217 9.21594 208.499C8.96394 208.775 8.83794 209.171 8.83794 209.687V212H8.08194ZM15.2573 212.108C14.8133 212.108 14.4233 212.006 14.0873 211.802C13.7573 211.598 13.4993 211.319 13.3133 210.965C13.1333 210.611 13.0433 210.209 13.0433 209.759C13.0433 209.309 13.1363 208.91 13.3223 208.562C13.5083 208.208 13.7663 207.932 14.0963 207.734C14.4263 207.53 14.8163 207.428 15.2663 207.428C15.6323 207.428 15.9563 207.503 16.2383 207.653C16.5203 207.803 16.7393 208.013 16.8953 208.283V205.52H17.6513V212H16.9673L16.8953 211.262C16.7513 211.478 16.5443 211.673 16.2743 211.847C16.0043 212.021 15.6653 212.108 15.2573 212.108ZM15.3383 211.451C15.6383 211.451 15.9023 211.382 16.1303 211.244C16.3643 211.1 16.5443 210.902 16.6703 210.65C16.8023 210.398 16.8683 210.104 16.8683 209.768C16.8683 209.432 16.8023 209.138 16.6703 208.886C16.5443 208.634 16.3643 208.439 16.1303 208.301C15.9023 208.157 15.6383 208.085 15.3383 208.085C15.0443 208.085 14.7803 208.157 14.5463 208.301C14.3183 208.439 14.1383 208.634 14.0063 208.886C13.8803 209.138 13.8173 209.432 13.8173 209.768C13.8173 210.104 13.8803 210.398 14.0063 210.65C14.1383 210.902 14.3183 211.1 14.5463 211.244C14.7803 211.382 15.0443 211.451 15.3383 211.451ZM23.2995 212.108C22.8795 212.108 22.5015 212.012 22.1655 211.82C21.8295 211.628 21.5625 211.358 21.3645 211.01C21.1725 210.656 21.0765 210.242 21.0765 209.768C21.0765 209.294 21.1755 208.883 21.3735 208.535C21.5715 208.181 21.8385 207.908 22.1745 207.716C22.5165 207.524 22.8975 207.428 23.3175 207.428C23.7375 207.428 24.1155 207.524 24.4515 207.716C24.7875 207.908 25.0515 208.181 25.2435 208.535C25.4415 208.883 25.5405 209.294 25.5405 209.768C25.5405 210.242 25.4415 210.656 25.2435 211.01C25.0455 211.358 24.7755 211.628 24.4335 211.82C24.0975 212.012 23.7195 212.108 23.2995 212.108ZM23.2995 211.46C23.5575 211.46 23.7975 211.397 24.0195 211.271C24.2415 211.145 24.4215 210.956 24.5595 210.704C24.6975 210.452 24.7665 210.14 24.7665 209.768C24.7665 209.396 24.6975 209.084 24.5595 208.832C24.4275 208.58 24.2505 208.391 24.0285 208.265C23.8065 208.139 23.5695 208.076 23.3175 208.076C23.0595 208.076 22.8195 208.139 22.5975 208.265C22.3755 208.391 22.1955 208.58 22.0575 208.832C21.9195 209.084 21.8505 209.396 21.8505 209.768C21.8505 210.14 21.9195 210.452 22.0575 210.704C22.1955 210.956 22.3725 211.145 22.5885 211.271C22.8105 211.397 23.0475 211.46 23.2995 211.46ZM28.2207 212.108C27.6927 212.108 27.2727 211.949 26.9607 211.631C26.6487 211.307 26.4927 210.812 26.4927 210.146V207.536H27.2487V210.065C27.2487 210.995 27.6297 211.46 28.3917 211.46C28.7817 211.46 29.1027 211.322 29.3547 211.046C29.6127 210.764 29.7417 210.365 29.7417 209.849V207.536H30.4977V212H29.8137L29.7597 211.199C29.6217 211.481 29.4147 211.703 29.1387 211.865C28.8687 212.027 28.5627 212.108 28.2207 212.108ZM33.5061 212C33.0981 212 32.7771 211.901 32.5431 211.703C32.3091 211.505 32.1921 211.148 32.1921 210.632V208.175H31.4181V207.536H32.1921L32.2911 206.465H32.9481V207.536H34.2621V208.175H32.9481V210.632C32.9481 210.914 33.0051 211.106 33.1191 211.208C33.2331 211.304 33.4341 211.352 33.7221 211.352H34.1901V212H33.5061ZM39.3684 212C38.9604 212 38.6394 211.901 38.4054 211.703C38.1714 211.505 38.0544 211.148 38.0544 210.632V208.175H37.2804V207.536H38.0544L38.1534 206.465H38.8104V207.536H40.1244V208.175H38.8104V210.632C38.8104 210.914 38.8674 211.106 38.9814 211.208C39.0954 211.304 39.2964 211.352 39.5844 211.352H40.0524V212H39.3684ZM41.0849 212V205.52H41.8409V208.301C41.9909 208.025 42.2039 207.812 42.4799 207.662C42.7559 207.506 43.0559 207.428 43.3799 207.428C43.8959 207.428 44.3099 207.59 44.6219 207.914C44.9339 208.232 45.0899 208.724 45.0899 209.39V212H44.3429V209.471C44.3429 208.541 43.9679 208.076 43.2179 208.076C42.8279 208.076 42.5009 208.217 42.2369 208.499C41.9729 208.775 41.8409 209.171 41.8409 209.687V212H41.0849ZM48.2423 212.108C47.8163 212.108 47.4383 212.012 47.1083 211.82C46.7783 211.622 46.5173 211.349 46.3253 211.001C46.1393 210.653 46.0463 210.242 46.0463 209.768C46.0463 209.3 46.1393 208.892 46.3253 208.544C46.5113 208.19 46.7693 207.917 47.0993 207.725C47.4353 207.527 47.8223 207.428 48.2603 207.428C48.6923 207.428 49.0643 207.527 49.3763 207.725C49.6943 207.917 49.9373 208.172 50.1053 208.49C50.2733 208.808 50.3573 209.15 50.3573 209.516C50.3573 209.582 50.3543 209.648 50.3483 209.714C50.3483 209.78 50.3483 209.855 50.3483 209.939H46.7933C46.8113 210.281 46.8893 210.566 47.0273 210.794C47.1713 211.016 47.3483 211.184 47.5583 211.298C47.7743 211.412 48.0023 211.469 48.2423 211.469C48.5543 211.469 48.8153 211.397 49.0253 211.253C49.2353 211.109 49.3883 210.914 49.4843 210.668H50.2313C50.1113 211.082 49.8803 211.427 49.5383 211.703C49.2023 211.973 48.7703 212.108 48.2423 212.108ZM48.2423 208.067C47.8823 208.067 47.5613 208.178 47.2793 208.4C47.0033 208.616 46.8443 208.934 46.8023 209.354H49.6103C49.5923 208.952 49.4543 208.637 49.1963 208.409C48.9383 208.181 48.6203 208.067 48.2423 208.067ZM53.7411 213.98V207.536H54.4251L54.4971 208.274C54.6411 208.058 54.8451 207.863 55.1091 207.689C55.3791 207.515 55.7211 207.428 56.1351 207.428C56.5791 207.428 56.9661 207.53 57.2961 207.734C57.6261 207.938 57.8811 208.217 58.0611 208.571C58.2471 208.925 58.3401 209.327 58.3401 209.777C58.3401 210.227 58.2471 210.629 58.0611 210.983C57.8811 211.331 57.6231 211.607 57.2871 211.811C56.9571 212.009 56.5701 212.108 56.1261 212.108C55.7601 212.108 55.4331 212.033 55.1451 211.883C54.8631 211.733 54.6471 211.523 54.4971 211.253V213.98H53.7411ZM56.0451 211.451C56.3451 211.451 56.6091 211.382 56.8371 211.244C57.0651 211.1 57.2451 210.902 57.3771 210.65C57.5091 210.398 57.5751 210.104 57.5751 209.768C57.5751 209.432 57.5091 209.138 57.3771 208.886C57.2451 208.634 57.0651 208.439 56.8371 208.301C56.6091 208.157 56.3451 208.085 56.0451 208.085C55.7451 208.085 55.4811 208.157 55.2531 208.301C55.0251 208.439 54.8451 208.634 54.7131 208.886C54.5811 209.138 54.5151 209.432 54.5151 209.768C54.5151 210.104 54.5811 210.398 54.7131 210.65C54.8451 210.902 55.0251 211.1 55.2531 211.244C55.4811 211.382 55.7451 211.451 56.0451 211.451ZM59.3925 212V207.536H60.0765L60.1395 208.391C60.2775 208.097 60.4875 207.863 60.7695 207.689C61.0515 207.515 61.3995 207.428 61.8135 207.428V208.22H61.6065C61.3425 208.22 61.0995 208.268 60.8775 208.364C60.6555 208.454 60.4785 208.61 60.3465 208.832C60.2145 209.054 60.1485 209.36 60.1485 209.75V212H59.3925ZM63.121 206.546C62.971 206.546 62.845 206.498 62.743 206.402C62.647 206.3 62.599 206.174 62.599 206.024C62.599 205.88 62.647 205.76 62.743 205.664C62.845 205.568 62.971 205.52 63.121 205.52C63.265 205.52 63.388 205.568 63.49 205.664C63.592 205.76 63.643 205.88 63.643 206.024C63.643 206.174 63.592 206.3 63.49 206.402C63.388 206.498 63.265 206.546 63.121 206.546ZM62.743 212V207.536H63.499V212H62.743ZM66.8673 212.108C66.4413 212.108 66.0573 212.012 65.7153 211.82C65.3793 211.622 65.1123 211.349 64.9143 211.001C64.7223 210.647 64.6263 210.236 64.6263 209.768C64.6263 209.3 64.7223 208.892 64.9143 208.544C65.1123 208.19 65.3793 207.917 65.7153 207.725C66.0573 207.527 66.4413 207.428 66.8673 207.428C67.3953 207.428 67.8393 207.566 68.1993 207.842C68.5653 208.118 68.7963 208.487 68.8923 208.949H68.1183C68.0583 208.673 67.9113 208.46 67.6773 208.31C67.4433 208.154 67.1703 208.076 66.8583 208.076C66.6063 208.076 66.3693 208.139 66.1473 208.265C65.9253 208.391 65.7453 208.58 65.6073 208.832C65.4693 209.084 65.4003 209.396 65.4003 209.768C65.4003 210.14 65.4693 210.452 65.6073 210.704C65.7453 210.956 65.9253 211.148 66.1473 211.28C66.3693 211.406 66.6063 211.469 66.8583 211.469C67.1703 211.469 67.4433 211.394 67.6773 211.244C67.9113 211.088 68.0583 210.869 68.1183 210.587H68.8923C68.8023 211.037 68.5743 211.403 68.2083 211.685C67.8423 211.967 67.3953 212.108 66.8673 212.108ZM71.9551 212.108C71.5291 212.108 71.1511 212.012 70.8211 211.82C70.4911 211.622 70.2301 211.349 70.0381 211.001C69.8521 210.653 69.7591 210.242 69.7591 209.768C69.7591 209.3 69.8521 208.892 70.0381 208.544C70.2241 208.19 70.4821 207.917 70.8121 207.725C71.1481 207.527 71.5351 207.428 71.9731 207.428C72.4051 207.428 72.7771 207.527 73.0891 207.725C73.4071 207.917 73.6501 208.172 73.8181 208.49C73.9861 208.808 74.0701 209.15 74.0701 209.516C74.0701 209.582 74.0671 209.648 74.0611 209.714C74.0611 209.78 74.0611 209.855 74.0611 209.939H70.5061C70.5241 210.281 70.6021 210.566 70.7401 210.794C70.8841 211.016 71.0611 211.184 71.2711 211.298C71.4871 211.412 71.7151 211.469 71.9551 211.469C72.2671 211.469 72.5281 211.397 72.7381 211.253C72.9481 211.109 73.1011 210.914 73.1971 210.668H73.9441C73.8241 211.082 73.5931 211.427 73.2511 211.703C72.9151 211.973 72.4831 212.108 71.9551 212.108ZM71.9551 208.067C71.5951 208.067 71.2741 208.178 70.9921 208.4C70.7161 208.616 70.5571 208.934 70.5151 209.354H73.3231C73.3051 208.952 73.1671 208.637 72.9091 208.409C72.6511 208.181 72.3331 208.067 71.9551 208.067ZM79.488 212.108C79.068 212.108 78.69 212.012 78.354 211.82C78.018 211.628 77.751 211.358 77.553 211.01C77.361 210.656 77.265 210.242 77.265 209.768C77.265 209.294 77.364 208.883 77.562 208.535C77.76 208.181 78.027 207.908 78.363 207.716C78.705 207.524 79.086 207.428 79.506 207.428C79.926 207.428 80.304 207.524 80.64 207.716C80.976 207.908 81.24 208.181 81.432 208.535C81.63 208.883 81.729 209.294 81.729 209.768C81.729 210.242 81.63 210.656 81.432 211.01C81.234 211.358 80.964 211.628 80.622 211.82C80.286 212.012 79.908 212.108 79.488 212.108ZM79.488 211.46C79.746 211.46 79.986 211.397 80.208 211.271C80.43 211.145 80.61 210.956 80.748 210.704C80.886 210.452 80.955 210.14 80.955 209.768C80.955 209.396 80.886 209.084 80.748 208.832C80.616 208.58 80.439 208.391 80.217 208.265C79.995 208.139 79.758 208.076 79.506 208.076C79.248 208.076 79.008 208.139 78.786 208.265C78.564 208.391 78.384 208.58 78.246 208.832C78.108 209.084 78.039 209.396 78.039 209.768C78.039 210.14 78.108 210.452 78.246 210.704C78.384 210.956 78.561 211.145 78.777 211.271C78.999 211.397 79.236 211.46 79.488 211.46ZM83.0232 212V208.175H82.3482V207.536H83.0232V206.762C83.0232 206.33 83.1312 206.015 83.3472 205.817C83.5632 205.619 83.8782 205.52 84.2922 205.52H84.7422V206.168H84.4092C84.1812 206.168 84.0192 206.216 83.9232 206.312C83.8272 206.402 83.7792 206.558 83.7792 206.78V207.536H84.8772V208.175H83.7792V212H83.0232ZM88.6451 213.98L89.7521 211.568H89.4911L87.7181 207.536H88.5371L90.0131 211.01L91.5791 207.536H92.3621L89.4371 213.98H88.6451ZM94.7722 212.108C94.3522 212.108 93.9742 212.012 93.6382 211.82C93.3022 211.628 93.0352 211.358 92.8372 211.01C92.6452 210.656 92.5492 210.242 92.5492 209.768C92.5492 209.294 92.6482 208.883 92.8462 208.535C93.0442 208.181 93.3112 207.908 93.6472 207.716C93.9892 207.524 94.3702 207.428 94.7902 207.428C95.2102 207.428 95.5882 207.524 95.9242 207.716C96.2602 207.908 96.5242 208.181 96.7162 208.535C96.9142 208.883 97.0132 209.294 97.0132 209.768C97.0132 210.242 96.9142 210.656 96.7162 211.01C96.5182 211.358 96.2482 211.628 95.9062 211.82C95.5702 212.012 95.1922 212.108 94.7722 212.108ZM94.7722 211.46C95.0302 211.46 95.2702 211.397 95.4922 211.271C95.7142 211.145 95.8942 210.956 96.0322 210.704C96.1702 210.452 96.2392 210.14 96.2392 209.768C96.2392 209.396 96.1702 209.084 96.0322 208.832C95.9002 208.58 95.7232 208.391 95.5012 208.265C95.2792 208.139 95.0422 208.076 94.7902 208.076C94.5322 208.076 94.2922 208.139 94.0702 208.265C93.8482 208.391 93.6682 208.58 93.5302 208.832C93.3922 209.084 93.3232 209.396 93.3232 209.768C93.3232 210.14 93.3922 210.452 93.5302 210.704C93.6682 210.956 93.8452 211.145 94.0612 211.271C94.2832 211.397 94.5202 211.46 94.7722 211.46ZM99.6934 212.108C99.1654 212.108 98.7454 211.949 98.4334 211.631C98.1214 211.307 97.9654 210.812 97.9654 210.146V207.536H98.7214V210.065C98.7214 210.995 99.1024 211.46 99.8644 211.46C100.254 211.46 100.575 211.322 100.827 211.046C101.085 210.764 101.214 210.365 101.214 209.849V207.536H101.97V212H101.286L101.232 211.199C101.094 211.481 100.887 211.703 100.611 211.865C100.341 212.027 100.035 212.108 99.6934 212.108ZM103.215 212V207.536H103.899L103.962 208.391C104.1 208.097 104.31 207.863 104.592 207.689C104.874 207.515 105.222 207.428 105.636 207.428V208.22H105.429C105.165 208.22 104.922 208.268 104.7 208.364C104.478 208.454 104.301 208.61 104.169 208.832C104.037 209.054 103.971 209.36 103.971 209.75V212H103.215ZM108.866 212V207.536H109.55L109.595 208.337C109.739 208.055 109.946 207.833 110.216 207.671C110.486 207.509 110.792 207.428 111.134 207.428C111.662 207.428 112.082 207.59 112.394 207.914C112.712 208.232 112.871 208.724 112.871 209.39V212H112.115V209.471C112.115 208.541 111.731 208.076 110.963 208.076C110.579 208.076 110.258 208.217 110 208.499C109.748 208.775 109.622 209.171 109.622 209.687V212H108.866ZM116.024 212.108C115.598 212.108 115.22 212.012 114.89 211.82C114.56 211.622 114.299 211.349 114.107 211.001C113.921 210.653 113.828 210.242 113.828 209.768C113.828 209.3 113.921 208.892 114.107 208.544C114.293 208.19 114.551 207.917 114.881 207.725C115.217 207.527 115.604 207.428 116.042 207.428C116.474 207.428 116.846 207.527 117.158 207.725C117.476 207.917 117.719 208.172 117.887 208.49C118.055 208.808 118.139 209.15 118.139 209.516C118.139 209.582 118.136 209.648 118.13 209.714C118.13 209.78 118.13 209.855 118.13 209.939H114.575C114.593 210.281 114.671 210.566 114.809 210.794C114.953 211.016 115.13 211.184 115.34 211.298C115.556 211.412 115.784 211.469 116.024 211.469C116.336 211.469 116.597 211.397 116.807 211.253C117.017 211.109 117.17 210.914 117.266 210.668H118.013C117.893 211.082 117.662 211.427 117.32 211.703C116.984 211.973 116.552 212.108 116.024 212.108ZM116.024 208.067C115.664 208.067 115.343 208.178 115.061 208.4C114.785 208.616 114.626 208.934 114.584 209.354H117.392C117.374 208.952 117.236 208.637 116.978 208.409C116.72 208.181 116.402 208.067 116.024 208.067ZM118.48 212L120.028 209.768L118.48 207.536H119.299L120.55 209.381L121.81 207.536H122.62L121.072 209.768L122.62 212H121.81L120.55 210.155L119.299 212H118.48ZM125.176 212C124.768 212 124.447 211.901 124.213 211.703C123.979 211.505 123.862 211.148 123.862 210.632V208.175H123.088V207.536H123.862L123.961 206.465H124.618V207.536H125.932V208.175H124.618V210.632C124.618 210.914 124.675 211.106 124.789 211.208C124.903 211.304 125.104 211.352 125.392 211.352H125.86V212H125.176ZM129.274 212V207.536H129.958L130.021 208.391C130.159 208.097 130.369 207.863 130.651 207.689C130.933 207.515 131.281 207.428 131.695 207.428V208.22H131.488C131.224 208.22 130.981 208.268 130.759 208.364C130.537 208.454 130.36 208.61 130.228 208.832C130.096 209.054 130.03 209.36 130.03 209.75V212H129.274ZM134.384 212.108C133.958 212.108 133.58 212.012 133.25 211.82C132.92 211.622 132.659 211.349 132.467 211.001C132.281 210.653 132.188 210.242 132.188 209.768C132.188 209.3 132.281 208.892 132.467 208.544C132.653 208.19 132.911 207.917 133.241 207.725C133.577 207.527 133.964 207.428 134.402 207.428C134.834 207.428 135.206 207.527 135.518 207.725C135.836 207.917 136.079 208.172 136.247 208.49C136.415 208.808 136.499 209.15 136.499 209.516C136.499 209.582 136.496 209.648 136.49 209.714C136.49 209.78 136.49 209.855 136.49 209.939H132.935C132.953 210.281 133.031 210.566 133.169 210.794C133.313 211.016 133.49 211.184 133.7 211.298C133.916 211.412 134.144 211.469 134.384 211.469C134.696 211.469 134.957 211.397 135.167 211.253C135.377 211.109 135.53 210.914 135.626 210.668H136.373C136.253 211.082 136.022 211.427 135.68 211.703C135.344 211.973 134.912 212.108 134.384 212.108ZM134.384 208.067C134.024 208.067 133.703 208.178 133.421 208.4C133.145 208.616 132.986 208.934 132.944 209.354H135.752C135.734 208.952 135.596 208.637 135.338 208.409C135.08 208.181 134.762 208.067 134.384 208.067ZM137.501 212V207.536H138.185L138.239 208.184C138.383 207.944 138.575 207.758 138.815 207.626C139.055 207.494 139.325 207.428 139.625 207.428C139.979 207.428 140.282 207.5 140.534 207.644C140.792 207.788 140.99 208.007 141.128 208.301C141.284 208.031 141.497 207.818 141.767 207.662C142.043 207.506 142.34 207.428 142.658 207.428C143.192 207.428 143.618 207.59 143.936 207.914C144.254 208.232 144.413 208.724 144.413 209.39V212H143.666V209.471C143.666 209.009 143.573 208.661 143.387 208.427C143.201 208.193 142.934 208.076 142.586 208.076C142.226 208.076 141.926 208.217 141.686 208.499C141.452 208.775 141.335 209.171 141.335 209.687V212H140.579V209.471C140.579 209.009 140.486 208.661 140.3 208.427C140.114 208.193 139.847 208.076 139.499 208.076C139.145 208.076 138.848 208.217 138.608 208.499C138.374 208.775 138.257 209.171 138.257 209.687V212H137.501ZM147.586 212.108C147.166 212.108 146.788 212.012 146.452 211.82C146.116 211.628 145.849 211.358 145.651 211.01C145.459 210.656 145.363 210.242 145.363 209.768C145.363 209.294 145.462 208.883 145.66 208.535C145.858 208.181 146.125 207.908 146.461 207.716C146.803 207.524 147.184 207.428 147.604 207.428C148.024 207.428 148.402 207.524 148.738 207.716C149.074 207.908 149.338 208.181 149.53 208.535C149.728 208.883 149.827 209.294 149.827 209.768C149.827 210.242 149.728 210.656 149.53 211.01C149.332 211.358 149.062 211.628 148.72 211.82C148.384 212.012 148.006 212.108 147.586 212.108ZM147.586 211.46C147.844 211.46 148.084 211.397 148.306 211.271C148.528 211.145 148.708 210.956 148.846 210.704C148.984 210.452 149.053 210.14 149.053 209.768C149.053 209.396 148.984 209.084 148.846 208.832C148.714 208.58 148.537 208.391 148.315 208.265C148.093 208.139 147.856 208.076 147.604 208.076C147.346 208.076 147.106 208.139 146.884 208.265C146.662 208.391 146.482 208.58 146.344 208.832C146.206 209.084 146.137 209.396 146.137 209.768C146.137 210.14 146.206 210.452 146.344 210.704C146.482 210.956 146.659 211.145 146.875 211.271C147.097 211.397 147.334 211.46 147.586 211.46ZM152.466 212C152.058 212 151.737 211.901 151.503 211.703C151.269 211.505 151.152 211.148 151.152 210.632V208.175H150.378V207.536H151.152L151.251 206.465H151.908V207.536H153.222V208.175H151.908V210.632C151.908 210.914 151.965 211.106 152.079 211.208C152.193 211.304 152.394 211.352 152.682 211.352H153.15V212H152.466ZM156.066 212.108C155.64 212.108 155.262 212.012 154.932 211.82C154.602 211.622 154.341 211.349 154.149 211.001C153.963 210.653 153.87 210.242 153.87 209.768C153.87 209.3 153.963 208.892 154.149 208.544C154.335 208.19 154.593 207.917 154.923 207.725C155.259 207.527 155.646 207.428 156.084 207.428C156.516 207.428 156.888 207.527 157.2 207.725C157.518 207.917 157.761 208.172 157.929 208.49C158.097 208.808 158.181 209.15 158.181 209.516C158.181 209.582 158.178 209.648 158.172 209.714C158.172 209.78 158.172 209.855 158.172 209.939H154.617C154.635 210.281 154.713 210.566 154.851 210.794C154.995 211.016 155.172 211.184 155.382 211.298C155.598 211.412 155.826 211.469 156.066 211.469C156.378 211.469 156.639 211.397 156.849 211.253C157.059 211.109 157.212 210.914 157.308 210.668H158.055C157.935 211.082 157.704 211.427 157.362 211.703C157.026 211.973 156.594 212.108 156.066 212.108ZM156.066 208.067C155.706 208.067 155.385 208.178 155.103 208.4C154.827 208.616 154.668 208.934 154.626 209.354H157.434C157.416 208.952 157.278 208.637 157.02 208.409C156.762 208.181 156.444 208.067 156.066 208.067ZM161.565 212V205.52H162.321V208.301C162.471 208.025 162.684 207.812 162.96 207.662C163.236 207.506 163.536 207.428 163.86 207.428C164.376 207.428 164.79 207.59 165.102 207.914C165.414 208.232 165.57 208.724 165.57 209.39V212H164.823V209.471C164.823 208.541 164.448 208.076 163.698 208.076C163.308 208.076 162.981 208.217 162.717 208.499C162.453 208.775 162.321 209.171 162.321 209.687V212H161.565ZM167.175 206.546C167.025 206.546 166.899 206.498 166.797 206.402C166.701 206.3 166.653 206.174 166.653 206.024C166.653 205.88 166.701 205.76 166.797 205.664C166.899 205.568 167.025 205.52 167.175 205.52C167.319 205.52 167.442 205.568 167.544 205.664C167.646 205.76 167.697 205.88 167.697 206.024C167.697 206.174 167.646 206.3 167.544 206.402C167.442 206.498 167.319 206.546 167.175 206.546ZM166.797 212V207.536H167.553V212H166.797ZM168.869 212V207.536H169.553L169.616 208.391C169.754 208.097 169.964 207.863 170.246 207.689C170.528 207.515 170.876 207.428 171.29 207.428V208.22H171.083C170.819 208.22 170.576 208.268 170.354 208.364C170.132 208.454 169.955 208.61 169.823 208.832C169.691 209.054 169.625 209.36 169.625 209.75V212H168.869ZM173.979 212.108C173.553 212.108 173.175 212.012 172.845 211.82C172.515 211.622 172.254 211.349 172.062 211.001C171.876 210.653 171.783 210.242 171.783 209.768C171.783 209.3 171.876 208.892 172.062 208.544C172.248 208.19 172.506 207.917 172.836 207.725C173.172 207.527 173.559 207.428 173.997 207.428C174.429 207.428 174.801 207.527 175.113 207.725C175.431 207.917 175.674 208.172 175.842 208.49C176.01 208.808 176.094 209.15 176.094 209.516C176.094 209.582 176.091 209.648 176.085 209.714C176.085 209.78 176.085 209.855 176.085 209.939H172.53C172.548 210.281 172.626 210.566 172.764 210.794C172.908 211.016 173.085 211.184 173.295 211.298C173.511 211.412 173.739 211.469 173.979 211.469C174.291 211.469 174.552 211.397 174.762 211.253C174.972 211.109 175.125 210.914 175.221 210.668H175.968C175.848 211.082 175.617 211.427 175.275 211.703C174.939 211.973 174.507 212.108 173.979 212.108ZM173.979 208.067C173.619 208.067 173.298 208.178 173.016 208.4C172.74 208.616 172.581 208.934 172.539 209.354H175.347C175.329 208.952 175.191 208.637 174.933 208.409C174.675 208.181 174.357 208.067 173.979 208.067ZM179.477 212V205.52H180.233V208.301C180.383 208.025 180.596 207.812 180.872 207.662C181.148 207.506 181.448 207.428 181.772 207.428C182.288 207.428 182.702 207.59 183.014 207.914C183.326 208.232 183.482 208.724 183.482 209.39V212H182.735V209.471C182.735 208.541 182.36 208.076 181.61 208.076C181.22 208.076 180.893 208.217 180.629 208.499C180.365 208.775 180.233 209.171 180.233 209.687V212H179.477ZM186.635 212.108C186.209 212.108 185.831 212.012 185.501 211.82C185.171 211.622 184.91 211.349 184.718 211.001C184.532 210.653 184.439 210.242 184.439 209.768C184.439 209.3 184.532 208.892 184.718 208.544C184.904 208.19 185.162 207.917 185.492 207.725C185.828 207.527 186.215 207.428 186.653 207.428C187.085 207.428 187.457 207.527 187.769 207.725C188.087 207.917 188.33 208.172 188.498 208.49C188.666 208.808 188.75 209.15 188.75 209.516C188.75 209.582 188.747 209.648 188.741 209.714C188.741 209.78 188.741 209.855 188.741 209.939H185.186C185.204 210.281 185.282 210.566 185.42 210.794C185.564 211.016 185.741 211.184 185.951 211.298C186.167 211.412 186.395 211.469 186.635 211.469C186.947 211.469 187.208 211.397 187.418 211.253C187.628 211.109 187.781 210.914 187.877 210.668H188.624C188.504 211.082 188.273 211.427 187.931 211.703C187.595 211.973 187.163 212.108 186.635 212.108ZM186.635 208.067C186.275 208.067 185.954 208.178 185.672 208.4C185.396 208.616 185.237 208.934 185.195 209.354H188.003C187.985 208.952 187.847 208.637 187.589 208.409C187.331 208.181 187.013 208.067 186.635 208.067ZM189.752 212V207.536H190.436L190.499 208.391C190.637 208.097 190.847 207.863 191.129 207.689C191.411 207.515 191.759 207.428 192.173 207.428V208.22H191.966C191.702 208.22 191.459 208.268 191.237 208.364C191.015 208.454 190.838 208.61 190.706 208.832C190.574 209.054 190.508 209.36 190.508 209.75V212H189.752ZM194.861 212.108C194.435 212.108 194.057 212.012 193.727 211.82C193.397 211.622 193.136 211.349 192.944 211.001C192.758 210.653 192.665 210.242 192.665 209.768C192.665 209.3 192.758 208.892 192.944 208.544C193.13 208.19 193.388 207.917 193.718 207.725C194.054 207.527 194.441 207.428 194.879 207.428C195.311 207.428 195.683 207.527 195.995 207.725C196.313 207.917 196.556 208.172 196.724 208.49C196.892 208.808 196.976 209.15 196.976 209.516C196.976 209.582 196.973 209.648 196.967 209.714C196.967 209.78 196.967 209.855 196.967 209.939H193.412C193.43 210.281 193.508 210.566 193.646 210.794C193.79 211.016 193.967 211.184 194.177 211.298C194.393 211.412 194.621 211.469 194.861 211.469C195.173 211.469 195.434 211.397 195.644 211.253C195.854 211.109 196.007 210.914 196.103 210.668H196.85C196.73 211.082 196.499 211.427 196.157 211.703C195.821 211.973 195.389 212.108 194.861 212.108ZM194.861 208.067C194.501 208.067 194.18 208.178 193.898 208.4C193.622 208.616 193.463 208.934 193.421 209.354H196.229C196.211 208.952 196.073 208.637 195.815 208.409C195.557 208.181 195.239 208.067 194.861 208.067ZM198.239 212.045C198.089 212.045 197.963 211.997 197.861 211.901C197.765 211.799 197.717 211.676 197.717 211.532C197.717 211.388 197.765 211.268 197.861 211.172C197.963 211.07 198.089 211.019 198.239 211.019C198.383 211.019 198.503 211.07 198.599 211.172C198.701 211.268 198.752 211.388 198.752 211.532C198.752 211.676 198.701 211.799 198.599 211.901C198.503 211.997 198.383 212.045 198.239 212.045Z" fill="white"/>
<rect x="0.5" y="230" width="225" height="33" rx="9" fill="url(#paint0_linear_3178_5104)"/>
<path d="M53.7938 251.144C52.9458 251.144 52.2178 250.964 51.6098 250.604C51.0018 250.236 50.5338 249.728 50.2058 249.08C49.8778 248.424 49.7138 247.668 49.7138 246.812C49.7138 245.956 49.8778 245.2 50.2058 244.544C50.5338 243.888 51.0018 243.376 51.6098 243.008C52.2178 242.64 52.9458 242.456 53.7938 242.456C54.8018 242.456 55.6258 242.708 56.2658 243.212C56.9138 243.708 57.3178 244.408 57.4778 245.312H55.7858C55.6818 244.856 55.4578 244.5 55.1138 244.244C54.7778 243.98 54.3298 243.848 53.7698 243.848C52.9938 243.848 52.3858 244.112 51.9458 244.64C51.5058 245.168 51.2858 245.892 51.2858 246.812C51.2858 247.732 51.5058 248.456 51.9458 248.984C52.3858 249.504 52.9938 249.764 53.7698 249.764C54.3298 249.764 54.7778 249.644 55.1138 249.404C55.4578 249.156 55.6818 248.816 55.7858 248.384H57.4778C57.3178 249.248 56.9138 249.924 56.2658 250.412C55.6258 250.9 54.8018 251.144 53.7938 251.144ZM58.8015 251V242.36H60.3375V251H58.8015ZM62.735 244.124C62.455 244.124 62.223 244.04 62.039 243.872C61.863 243.704 61.775 243.492 61.775 243.236C61.775 242.98 61.863 242.772 62.039 242.612C62.223 242.444 62.455 242.36 62.735 242.36C63.015 242.36 63.243 242.444 63.419 242.612C63.603 242.772 63.695 242.98 63.695 243.236C63.695 243.492 63.603 243.704 63.419 243.872C63.243 244.04 63.015 244.124 62.735 244.124ZM61.967 251V245.048H63.503V251H61.967ZM68.0222 251.144C67.4142 251.144 66.8782 251.012 66.4142 250.748C65.9502 250.484 65.5822 250.116 65.3102 249.644C65.0462 249.172 64.9142 248.632 64.9142 248.024C64.9142 247.416 65.0462 246.876 65.3102 246.404C65.5822 245.932 65.9502 245.564 66.4142 245.3C66.8782 245.036 67.4142 244.904 68.0222 244.904C68.7822 244.904 69.4222 245.104 69.9422 245.504C70.4622 245.896 70.7942 246.44 70.9382 247.136H69.3182C69.2382 246.848 69.0782 246.624 68.8382 246.464C68.6062 246.296 68.3302 246.212 68.0102 246.212C67.5862 246.212 67.2262 246.372 66.9302 246.692C66.6342 247.012 66.4862 247.456 66.4862 248.024C66.4862 248.592 66.6342 249.036 66.9302 249.356C67.2262 249.676 67.5862 249.836 68.0102 249.836C68.3302 249.836 68.6062 249.756 68.8382 249.596C69.0782 249.436 69.2382 249.208 69.3182 248.912H70.9382C70.7942 249.584 70.4622 250.124 69.9422 250.532C69.4222 250.94 68.7822 251.144 68.0222 251.144ZM72.3015 251V242.36H73.8375V247.46L75.9495 245.048H77.7735L75.3375 247.76L78.1695 251H76.2495L73.8375 248.012V251H72.3015ZM84.6332 251C84.0092 251 83.5092 250.848 83.1332 250.544C82.7572 250.24 82.5692 249.7 82.5692 248.924V246.332H81.5492V245.048H82.5692L82.7492 243.452H84.1052V245.048H85.7132V246.332H84.1052V248.936C84.1052 249.224 84.1652 249.424 84.2852 249.536C84.4132 249.64 84.6292 249.692 84.9332 249.692H85.6772V251H84.6332ZM89.7356 251.144C89.1596 251.144 88.6396 251.012 88.1756 250.748C87.7196 250.484 87.3556 250.12 87.0836 249.656C86.8196 249.184 86.6876 248.64 86.6876 248.024C86.6876 247.408 86.8236 246.868 87.0956 246.404C87.3676 245.932 87.7316 245.564 88.1876 245.3C88.6516 245.036 89.1716 244.904 89.7476 244.904C90.3156 244.904 90.8276 245.036 91.2836 245.3C91.7476 245.564 92.1116 245.932 92.3756 246.404C92.6476 246.868 92.7836 247.408 92.7836 248.024C92.7836 248.64 92.6476 249.184 92.3756 249.656C92.1116 250.12 91.7476 250.484 91.2836 250.748C90.8196 251.012 90.3036 251.144 89.7356 251.144ZM89.7356 249.812C90.1356 249.812 90.4836 249.664 90.7796 249.368C91.0756 249.064 91.2236 248.616 91.2236 248.024C91.2236 247.432 91.0756 246.988 90.7796 246.692C90.4836 246.388 90.1396 246.236 89.7476 246.236C89.3396 246.236 88.9876 246.388 88.6916 246.692C88.4036 246.988 88.2596 247.432 88.2596 248.024C88.2596 248.616 88.4036 249.064 88.6916 249.368C88.9876 249.664 89.3356 249.812 89.7356 249.812ZM99.9323 251.144C99.3243 251.144 98.7883 251.012 98.3243 250.748C97.8603 250.484 97.4923 250.116 97.2203 249.644C96.9563 249.172 96.8243 248.632 96.8243 248.024C96.8243 247.416 96.9563 246.876 97.2203 246.404C97.4923 245.932 97.8603 245.564 98.3243 245.3C98.7883 245.036 99.3243 244.904 99.9323 244.904C100.692 244.904 101.332 245.104 101.852 245.504C102.372 245.896 102.704 246.44 102.848 247.136H101.228C101.148 246.848 100.988 246.624 100.748 246.464C100.516 246.296 100.24 246.212 99.9203 246.212C99.4963 246.212 99.1363 246.372 98.8403 246.692C98.5443 247.012 98.3963 247.456 98.3963 248.024C98.3963 248.592 98.5443 249.036 98.8403 249.356C99.1363 249.676 99.4963 249.836 99.9203 249.836C100.24 249.836 100.516 249.756 100.748 249.596C100.988 249.436 101.148 249.208 101.228 248.912H102.848C102.704 249.584 102.372 250.124 101.852 250.532C101.332 250.94 100.692 251.144 99.9323 251.144ZM106.264 251.144C105.752 251.144 105.332 251.064 105.004 250.904C104.676 250.736 104.432 250.516 104.272 250.244C104.112 249.972 104.032 249.672 104.032 249.344C104.032 248.792 104.248 248.344 104.68 248C105.112 247.656 105.76 247.484 106.624 247.484H108.136V247.34C108.136 246.932 108.02 246.632 107.788 246.44C107.556 246.248 107.268 246.152 106.924 246.152C106.612 246.152 106.34 246.228 106.108 246.38C105.876 246.524 105.732 246.74 105.676 247.028H104.176C104.216 246.596 104.36 246.22 104.608 245.9C104.864 245.58 105.192 245.336 105.592 245.168C105.992 244.992 106.44 244.904 106.936 244.904C107.784 244.904 108.452 245.116 108.94 245.54C109.428 245.964 109.672 246.564 109.672 247.34V251H108.364L108.22 250.04C108.044 250.36 107.796 250.624 107.476 250.832C107.164 251.04 106.76 251.144 106.264 251.144ZM106.612 249.944C107.052 249.944 107.392 249.8 107.632 249.512C107.88 249.224 108.036 248.868 108.1 248.444H106.792C106.384 248.444 106.092 248.52 105.916 248.672C105.74 248.816 105.652 248.996 105.652 249.212C105.652 249.444 105.74 249.624 105.916 249.752C106.092 249.88 106.324 249.944 106.612 249.944ZM111.137 251V242.36H112.673V251H111.137ZM117.159 251.144C116.551 251.144 116.015 251.012 115.551 250.748C115.087 250.484 114.719 250.116 114.447 249.644C114.183 249.172 114.051 248.632 114.051 248.024C114.051 247.416 114.183 246.876 114.447 246.404C114.719 245.932 115.087 245.564 115.551 245.3C116.015 245.036 116.551 244.904 117.159 244.904C117.919 244.904 118.559 245.104 119.079 245.504C119.599 245.896 119.931 246.44 120.075 247.136H118.455C118.375 246.848 118.215 246.624 117.975 246.464C117.743 246.296 117.467 246.212 117.147 246.212C116.723 246.212 116.363 246.372 116.067 246.692C115.771 247.012 115.623 247.456 115.623 248.024C115.623 248.592 115.771 249.036 116.067 249.356C116.363 249.676 116.723 249.836 117.147 249.836C117.467 249.836 117.743 249.756 117.975 249.596C118.215 249.436 118.375 249.208 118.455 248.912H120.075C119.931 249.584 119.599 250.124 119.079 250.532C118.559 250.94 117.919 251.144 117.159 251.144ZM123.67 251.144C122.926 251.144 122.35 250.912 121.942 250.448C121.542 249.984 121.342 249.304 121.342 248.408V245.048H122.866V248.264C122.866 248.776 122.97 249.168 123.178 249.44C123.386 249.712 123.714 249.848 124.162 249.848C124.586 249.848 124.934 249.696 125.206 249.392C125.486 249.088 125.626 248.664 125.626 248.12V245.048H127.162V251H125.806L125.686 249.992C125.502 250.344 125.234 250.624 124.882 250.832C124.538 251.04 124.134 251.144 123.67 251.144ZM128.739 251V242.36H130.275V251H128.739ZM133.896 251.144C133.384 251.144 132.964 251.064 132.636 250.904C132.308 250.736 132.064 250.516 131.904 250.244C131.744 249.972 131.664 249.672 131.664 249.344C131.664 248.792 131.88 248.344 132.312 248C132.744 247.656 133.392 247.484 134.256 247.484H135.768V247.34C135.768 246.932 135.652 246.632 135.42 246.44C135.188 246.248 134.9 246.152 134.556 246.152C134.244 246.152 133.972 246.228 133.74 246.38C133.508 246.524 133.364 246.74 133.308 247.028H131.808C131.848 246.596 131.992 246.22 132.24 245.9C132.496 245.58 132.824 245.336 133.224 245.168C133.624 244.992 134.072 244.904 134.568 244.904C135.416 244.904 136.084 245.116 136.572 245.54C137.06 245.964 137.304 246.564 137.304 247.34V251H135.996L135.852 250.04C135.676 250.36 135.428 250.624 135.108 250.832C134.796 251.04 134.392 251.144 133.896 251.144ZM134.244 249.944C134.684 249.944 135.024 249.8 135.264 249.512C135.512 249.224 135.668 248.868 135.732 248.444H134.424C134.016 248.444 133.724 248.52 133.548 248.672C133.372 248.816 133.284 248.996 133.284 249.212C133.284 249.444 133.372 249.624 133.548 249.752C133.724 249.88 133.956 249.944 134.244 249.944ZM141.34 251C140.716 251 140.216 250.848 139.84 250.544C139.464 250.24 139.276 249.7 139.276 248.924V246.332H138.256V245.048H139.276L139.456 243.452H140.812V245.048H142.42V246.332H140.812V248.936C140.812 249.224 140.872 249.424 140.992 249.536C141.12 249.64 141.336 249.692 141.64 249.692H142.384V251H141.34ZM146.479 251.144C145.879 251.144 145.347 251.016 144.883 250.76C144.419 250.504 144.055 250.144 143.791 249.68C143.527 249.216 143.395 248.68 143.395 248.072C143.395 247.456 143.523 246.908 143.779 246.428C144.043 245.948 144.403 245.576 144.859 245.312C145.323 245.04 145.867 244.904 146.491 244.904C147.075 244.904 147.591 245.032 148.039 245.288C148.487 245.544 148.835 245.896 149.083 246.344C149.339 246.784 149.467 247.276 149.467 247.82C149.467 247.908 149.463 248 149.455 248.096C149.455 248.192 149.451 248.292 149.443 248.396H144.919C144.951 248.86 145.111 249.224 145.399 249.488C145.695 249.752 146.051 249.884 146.467 249.884C146.779 249.884 147.039 249.816 147.247 249.68C147.463 249.536 147.623 249.352 147.727 249.128H149.287C149.175 249.504 148.987 249.848 148.723 250.16C148.467 250.464 148.147 250.704 147.763 250.88C147.387 251.056 146.959 251.144 146.479 251.144ZM146.491 246.152C146.115 246.152 145.783 246.26 145.495 246.476C145.207 246.684 145.023 247.004 144.943 247.436H147.907C147.883 247.044 147.739 246.732 147.475 246.5C147.211 246.268 146.883 246.152 146.491 246.152ZM153.618 251V245.048H154.974L155.094 246.056C155.278 245.704 155.542 245.424 155.886 245.216C156.238 245.008 156.65 244.904 157.122 244.904C157.858 244.904 158.43 245.136 158.838 245.6C159.246 246.064 159.45 246.744 159.45 247.64V251H157.914V247.784C157.914 247.272 157.81 246.88 157.602 246.608C157.394 246.336 157.07 246.2 156.63 246.2C156.198 246.2 155.842 246.352 155.562 246.656C155.29 246.96 155.154 247.384 155.154 247.928V251H153.618ZM163.775 251.144C163.199 251.144 162.679 251.012 162.215 250.748C161.759 250.484 161.395 250.12 161.123 249.656C160.859 249.184 160.727 248.64 160.727 248.024C160.727 247.408 160.863 246.868 161.135 246.404C161.407 245.932 161.771 245.564 162.227 245.3C162.691 245.036 163.211 244.904 163.787 244.904C164.355 244.904 164.867 245.036 165.323 245.3C165.787 245.564 166.151 245.932 166.415 246.404C166.687 246.868 166.823 247.408 166.823 248.024C166.823 248.64 166.687 249.184 166.415 249.656C166.151 250.12 165.787 250.484 165.323 250.748C164.859 251.012 164.343 251.144 163.775 251.144ZM163.775 249.812C164.175 249.812 164.523 249.664 164.819 249.368C165.115 249.064 165.263 248.616 165.263 248.024C165.263 247.432 165.115 246.988 164.819 246.692C164.523 246.388 164.179 246.236 163.787 246.236C163.379 246.236 163.027 246.388 162.731 246.692C162.443 246.988 162.299 247.432 162.299 248.024C162.299 248.616 162.443 249.064 162.731 249.368C163.027 249.664 163.375 249.812 163.775 249.812ZM169.149 251L167.409 245.048H168.933L169.965 249.332L171.165 245.048H172.869L174.069 249.332L175.113 245.048H176.637L174.885 251H173.289L172.017 246.548L170.745 251H169.149Z" fill="white"/>
<defs>
<filter id="filter0_d_3178_5104" x="93.65" y="93.0001" width="15.3" height="24.3" filterUnits="userSpaceOnUse" color-interpolation-filters="sRGB">
<feFlood flood-opacity="0" result="BackgroundImageFix"/>
<feColorMatrix in="SourceAlpha" type="matrix" values="0 0 0 0 0 0 0 0 0 0 0 0 0 0 0 0 0 0 127 0" result="hardAlpha"/>
<feOffset dy="0.45"/>
<feGaussianBlur stdDeviation="0.9"/>
<feComposite in2="hardAlpha" operator="out"/>
<feColorMatrix type="matrix" values="0 0 0 0 0 0 0 0 0 0 0 0 0 0 0 0 0 0 0.07 0"/>
<feBlend mode="normal" in2="BackgroundImageFix" result="effect1_dropShadow_3178_5104"/>
<feBlend mode="normal" in="SourceGraphic" in2="effect1_dropShadow_3178_5104" result="shape"/>
</filter>
<linearGradient id="paint0_linear_3178_5104" x1="3.50308" y1="230.7" x2="33.7798" y2="324.731" gradientUnits="userSpaceOnUse">
<stop stop-color="#FF4D02"/>
<stop offset="1" stop-color="#BC3800"/>
</linearGradient>
</defs>
</svg>
