<svg width="17" height="17" viewBox="0 0 17 17" fill="none" xmlns="http://www.w3.org/2000/svg">
<g clip-path="url(#clip0_1253_387)">
<path d="M12.1039 7.64244V10.3351C12.1039 10.5101 12.0971 10.6784 12.077 10.84C11.9221 12.6575 10.8518 13.5596 8.87941 13.5596H8.61015C8.44186 13.5596 8.28029 13.6403 8.17931 13.775L7.37153 14.852C7.01475 15.33 6.43582 15.33 6.07904 14.852L5.27123 13.775C5.18372 13.6605 4.98851 13.5596 4.84041 13.5596H4.57115C2.42375 13.5596 1.34668 13.0278 1.34668 10.3351V7.64244C1.34668 5.67006 2.25546 4.59973 4.06628 4.4449C4.22784 4.42471 4.39613 4.41797 4.57115 4.41797H8.87941C11.0268 4.41797 12.1039 5.49504 12.1039 7.64244Z" stroke="#FF4D04" stroke-miterlimit="10" stroke-linecap="round" stroke-linejoin="round"/>
<path d="M14.7957 4.94957V7.64223C14.7957 9.62134 13.8869 10.6849 12.0761 10.8398C12.0963 10.6782 12.103 10.5099 12.103 10.3349V7.64223C12.103 5.49483 11.026 4.41776 8.87856 4.41776H4.5703C4.39528 4.41776 4.22699 4.4245 4.06543 4.44469C4.22026 2.63388 5.29059 1.7251 7.26297 1.7251H11.5712C13.7186 1.7251 14.7957 2.80217 14.7957 4.94957Z" stroke="#FF4D04" stroke-miterlimit="10" stroke-linecap="round" stroke-linejoin="round"/>
<path d="M9.08453 9.2985H9.09059" stroke="#FF4D04" stroke-width="1.6" stroke-linecap="round" stroke-linejoin="round"/>
<path d="M6.72906 9.2985H6.73512" stroke="#FF4D04" stroke-width="1.6" stroke-linecap="round" stroke-linejoin="round"/>
<path d="M4.37262 9.2985H4.37867" stroke="#FF4D04" stroke-width="1.6" stroke-linecap="round" stroke-linejoin="round"/>
</g>
<defs>
<clipPath id="clip0_1253_387">
<rect width="16.156" height="16.156" fill="white" transform="translate(0 0.378906)"/>
</clipPath>
</defs>
</svg>
