<svg width="24" height="24" viewBox="0 0 24 24" fill="none" xmlns="http://www.w3.org/2000/svg">
<g id="Mobile Development">
<path id="Vector" fill-rule="evenodd" clip-rule="evenodd" d="M4.72986 7.03245C4.72986 4.80546 6.53508 3 8.76142 3H13.8529C16.0791 3 17.8844 4.80531 17.8844 7.03149C17.8844 7.03147 17.8844 7.03151 17.8844 7.03149L17.8853 16.9674C17.8853 19.1946 16.08 21 13.8529 21H8.76231C6.53613 21 4.73079 19.1947 4.73076 16.9686L4.72986 7.03245ZM6.11447 7.03245C6.11447 7.03242 6.11447 7.03247 6.11447 7.03245L6.11538 16.9684C6.11538 18.4299 7.3008 19.6154 8.76231 19.6154H13.8529C15.3153 19.6154 16.5007 18.43 16.5007 16.9676L16.4998 7.03161C16.4998 5.5701 15.3144 4.38462 13.8529 4.38462H8.76142C7.30005 4.38462 6.11451 5.56995 6.11447 7.03245Z" fill="#EC4702"/>
<path id="Vector_2" fill-rule="evenodd" clip-rule="evenodd" d="M9.33176 7.09709C9.33176 6.71474 9.64173 6.40479 10.0241 6.40479H12.5936C12.976 6.40479 13.2859 6.71474 13.2859 7.09709C13.2859 7.47944 12.976 7.7894 12.5936 7.7894H10.0241C9.64173 7.7894 9.33176 7.47944 9.33176 7.09709Z" fill="#EC4702"/>
<path id="Vector_3" fill-rule="evenodd" clip-rule="evenodd" d="M10.3846 16.8731C10.3846 16.3627 10.7988 15.9502 11.3079 15.9502C11.817 15.9502 12.2312 16.3627 12.2312 16.8731C12.2312 17.383 11.8179 17.7963 11.3079 17.7963C10.798 17.7963 10.3846 17.383 10.3846 16.8731Z" fill="#EC4702"/>
</g>
</svg>
