<svg width="29" height="29" viewBox="0 0 29 29" fill="none" xmlns="http://www.w3.org/2000/svg">
<path d="M14.7701 0.652344L15.5206 2.062C15.6893 2.32214 15.8721 2.55239 16.0875 2.76683C16.7187 3.39021 17.3071 4.05554 17.8487 4.75828C19.1204 6.42807 19.9781 8.28242 20.5907 10.2879C20.958 11.513 21.1575 12.7698 21.1725 14.0406C21.234 17.8398 19.9315 21.102 17.3055 23.8133C16.8784 24.2432 16.4169 24.6376 15.9258 24.9927C15.6656 24.9927 15.5426 24.7932 15.4354 24.6095C15.2401 24.2689 15.1102 23.8948 15.0522 23.5065C14.9599 23.0469 14.8993 22.5873 14.9291 22.1127V21.8983C14.9081 21.8526 14.6787 0.760441 14.7701 0.652344Z" fill="#599636"/>
<path d="M14.7701 0.604453C14.7393 0.542935 14.7085 0.589513 14.6778 0.619394C14.6927 0.926987 14.5855 1.20119 14.4176 1.46308C14.2331 1.72322 13.9888 1.92271 13.7436 2.13715C12.3814 3.31655 11.3092 4.74115 10.4505 6.33449C9.30804 8.47885 8.71922 10.777 8.55224 13.1965C8.47578 14.0692 8.8282 17.1486 9.10327 18.0371C9.85381 20.3959 11.2019 22.3724 12.9482 24.0879C13.3771 24.501 13.8358 24.8841 14.3104 25.2524C14.4484 25.2524 14.4633 25.1293 14.495 25.0379C14.5555 24.8424 14.6016 24.6426 14.633 24.4403L14.9405 22.143L14.7701 0.604453Z" fill="#6CAC48"/>
<path d="M15.5206 25.9262C15.5514 25.5747 15.7201 25.2829 15.9038 24.992C15.7192 24.9156 15.5821 24.7635 15.4749 24.5939C15.3824 24.4333 15.3059 24.2641 15.2464 24.0886C15.032 23.4453 14.9863 22.7703 14.9247 22.113V21.7148C14.8483 21.7764 14.8325 22.2966 14.8325 22.374C14.7877 23.0688 14.6955 23.7597 14.5565 24.4419C14.5108 24.7178 14.48 24.9929 14.3104 25.2381C14.3104 25.2689 14.3104 25.2996 14.3254 25.3453C14.6013 26.1574 14.6769 26.9843 14.7235 27.8271V28.1347C14.7235 28.5021 14.7085 28.4247 15.0135 28.5478C15.1365 28.5935 15.2736 28.6093 15.3967 28.7007C15.489 28.7007 15.5039 28.6242 15.5039 28.5627L15.4582 28.0574V26.6477C15.4433 26.4017 15.489 26.1574 15.5197 25.9271L15.5206 25.9262Z" fill="#C2BFBF"/>
</svg>
