<svg width="29" height="29" viewBox="0 0 29 29" fill="none" xmlns="http://www.w3.org/2000/svg">
<path d="M26.1243 22.1528C24.6009 22.1142 23.4201 22.2689 22.4299 22.6941C22.1442 22.81 21.6871 22.8101 21.649 23.1774C21.8014 23.3321 21.8204 23.5834 21.9537 23.796C22.1825 24.1825 22.5821 24.7045 22.944 24.9753C23.3438 25.2845 23.7439 25.5937 24.1627 25.8644C24.9055 26.3283 25.7435 26.5989 26.4671 27.0629C26.8862 27.3333 27.3049 27.6815 27.7239 27.9714C27.9334 28.1259 28.0666 28.3774 28.3334 28.474V28.4161C28.1999 28.242 28.1619 27.9907 28.0286 27.7974C27.8384 27.6041 27.6477 27.4301 27.4573 27.2368C26.9051 26.483 26.2195 25.8257 25.4768 25.2845C24.8675 24.8592 23.5343 24.2793 23.2868 23.564C23.2868 23.564 23.2677 23.5447 23.2487 23.5254C23.6676 23.4867 24.1627 23.3321 24.5628 23.2161C25.2102 23.042 25.8005 23.0808 26.4671 22.9068C26.7717 22.8294 27.0765 22.7328 27.3811 22.6361V22.4622C27.0385 22.1142 26.7909 21.6504 26.429 21.3217C25.4578 20.4709 24.3912 19.6398 23.2868 18.944C22.6964 18.5573 21.9346 18.306 21.3062 17.9774C21.0778 17.8613 20.6968 17.8034 20.5636 17.6101C20.2207 17.1849 20.0302 16.6244 19.7827 16.1217C19.2306 15.0584 18.6972 13.8793 18.2211 12.7582C17.8785 12.0043 17.669 11.2503 17.25 10.5545C15.2885 7.26827 13.1556 5.2772 9.88016 3.3247C9.17547 2.91882 8.33757 2.74482 7.44253 2.53227C6.9666 2.51283 6.49035 2.47427 6.01432 2.45483C5.70959 2.3195 5.40486 1.95229 5.13822 1.77829C4.05294 1.08231 1.25333 -0.425321 0.453519 1.56574C-0.0607152 2.82215 1.21535 4.05923 1.65318 4.69733C1.97718 5.14187 2.39596 5.64442 2.62451 6.14707C2.75783 6.47551 2.79581 6.82372 2.92913 7.1716C3.23397 8.02191 3.51944 8.96933 3.91951 9.76198C4.12901 10.1679 4.35745 10.5931 4.62409 10.9604C4.77646 11.1729 5.04299 11.2697 5.10023 11.6176C4.8337 12.0043 4.81455 12.5842 4.66207 13.0675C3.97654 15.2518 4.24329 17.9581 5.2144 19.5625C5.51902 20.0456 6.24276 21.1091 7.21398 20.703C8.07104 20.3552 7.88058 19.2533 8.12795 18.2868C8.18531 18.0546 8.14722 17.9001 8.26138 17.7454V17.7842C8.52802 18.3253 8.79455 18.8474 9.04215 19.3886C9.63257 20.3357 10.6608 21.3217 11.5178 21.979C11.975 22.3268 12.3367 22.9261 12.9081 23.1388V23.0807H12.8699C12.7556 22.9067 12.5842 22.8294 12.432 22.694C12.0892 22.3462 11.7082 21.9209 11.4417 21.5342C10.642 20.4516 9.93719 19.2532 9.30879 18.016C9.00417 17.4169 8.73742 16.7596 8.48993 16.1604C8.37555 15.9282 8.37555 15.5804 8.1852 15.4645C7.89952 15.8897 7.48062 16.257 7.27112 16.7789C6.90947 17.6101 6.87127 18.6346 6.73795 19.6977C6.66176 19.7173 6.69975 19.6977 6.66165 19.7366C6.05241 19.5817 5.84291 18.944 5.61425 18.4027C5.04288 17.0302 4.94765 14.8265 5.44295 13.2415C5.57627 12.8355 6.14764 11.5597 5.91909 11.1731C5.80482 10.8057 5.42379 10.5931 5.2144 10.3032C4.96691 9.93587 4.70017 9.4721 4.52886 9.066C4.07177 7.98347 3.84322 6.78494 3.34814 5.70241C3.11959 5.19976 2.71985 4.678 2.39596 4.21401C2.0342 3.69213 1.63424 3.3247 1.34856 2.70616C1.25344 2.49361 1.12001 2.14562 1.27237 1.91362C1.31047 1.75896 1.38654 1.70107 1.53901 1.66241C1.78661 1.44963 2.4913 1.72029 2.73868 1.83629C3.44337 2.12606 4.03367 2.39694 4.62409 2.80282C4.89062 2.99615 5.17631 3.36347 5.51902 3.46014H5.91898C6.52844 3.59536 7.21387 3.4988 7.78524 3.67269C8.79466 4.00124 9.70864 4.48456 10.5276 5.00654C13.0224 6.61095 15.0789 8.892 16.4692 11.6176C16.6978 12.062 16.7929 12.4682 17.0024 12.932C17.4025 13.8793 17.8975 14.8459 18.2973 15.7737C18.6972 16.6821 19.078 17.6101 19.6494 18.3641C19.9351 18.7699 21.0776 18.9826 21.5919 19.1953C21.9728 19.3692 22.5632 19.524 22.9059 19.7365C23.5533 20.1423 24.2008 20.6065 24.8102 21.0509C25.115 21.2829 26.067 21.7662 26.1243 22.1528Z" fill="#00546B"/>
<path d="M6.6996 5.35547C6.37593 5.35547 6.14749 5.39436 5.91895 5.45224V5.49091H5.95704C6.10951 5.80024 6.37593 6.0129 6.56628 6.28345C6.71875 6.59266 6.85196 6.9021 7.00444 7.21142C7.02338 7.19198 7.04242 7.17276 7.04242 7.17276C7.30917 6.97932 7.44238 6.6701 7.44238 6.20611C7.32811 6.0709 7.30906 5.93557 7.21383 5.80024C7.09967 5.6068 6.85196 5.51024 6.6996 5.35547Z" fill="#00546B"/>
</svg>
