<?xml version="1.0" encoding="UTF-8"?>
<svg id="Layer_2" xmlns="http://www.w3.org/2000/svg" viewBox="0 0 54.1 47.54">
  <defs>
    <style>
      .cls-1 {
        fill: #fff;
      }
    </style>
  </defs>
  <g id="Layer_1-2" data-name="Layer_1">
    <g id="_x30_8-no_fee">
      <path class="cls-1" d="M27.05,15.85h-4.27l-3.66-9.75v9.75h-3.17V0h4.27l3.66,9.75V0h3.17v15.85Z"/>
      <path class="cls-1" d="M33.39,15.85c-2.62,0-4.75-2.13-4.75-4.75v-6.34c0-2.62,2.13-4.75,4.75-4.75s4.75,2.13,4.75,4.75v6.34c0,2.62-2.13,4.75-4.75,4.75ZM33.39,3.17c-.87,0-1.58.71-1.58,1.58v6.34c0,.87.71,1.58,1.58,1.58s1.58-.71,1.58-1.58v-6.34c0-.87-.71-1.58-1.58-1.58Z"/>
      <path class="cls-1" d="M49.34,19.02H4.75c-2.62,0-4.75,2.13-4.75,4.75v19.02c0,2.62,2.13,4.75,4.75,4.75h44.59c2.62,0,4.75-2.13,4.75-4.75v-19.02c0-2.62-2.13-4.75-4.75-4.75ZM17.54,28.53h-6.34v3.17h3.17v3.17h-3.17v6.34h-3.17c0-1.22,0-16.64,0-15.85h9.51v3.17ZM27.05,28.53h-4.75v3.17h3.17v3.17h-3.17v3.17h4.75v3.17h-7.92c0-1.22,0-16.64,0-15.85h7.92v3.17ZM36.56,28.53h-4.75v3.17h3.17v3.17h-3.17v3.17h4.75v3.17h-7.92c0-1.22,0-16.64,0-15.85h7.92v3.17ZM42.9,41.21c-1.27,0-2.47-.5-3.36-1.39l-1.12-1.12,2.24-2.24,1.12,1.12c.91.92,2.7.18,2.7-1.12,0-.87-.71-1.58-1.58-1.58-2.62,0-4.75-2.13-4.75-4.75s2.13-4.75,4.75-4.75c1.27,0,2.47.5,3.36,1.39l1.12,1.12-2.24,2.24-1.12-1.12c-.91-.91-2.7-.17-2.7,1.12,0,.87.71,1.58,1.58,1.58,2.62,0,4.75,2.13,4.75,4.75s-2.13,4.75-4.75,4.75Z"/>
    </g>
  </g>
</svg>