<?xml version="1.0" encoding="UTF-8"?>
<svg id="Layer_2" xmlns="http://www.w3.org/2000/svg" viewBox="0 0 45.52 56.13">
  <defs>
    <style>
      .cls-1 {
        fill: #fff;
      }
    </style>
  </defs>
  <g id="Layer_1-2" data-name="Layer_1">
    <g>
      <path class="cls-1" d="M26.05,46.34c-1.49-.46-2.9-1.13-4.23-2.03-2.69-1.82-4.68-4.29-5.96-7.39h12.52c1.22-1.45,2.8-2.58,4.62-3.24l.48-2.27c.08-.39,0-.75-.24-1.07-.26-.32-.6-.48-.99-.48H13.95c-.08-1.81-.08-3.2,0-4.19h19.45c.72,0,1.15-.34,1.28-1.03l.96-4.55c.07-.37-.02-.71-.28-1.03-.24-.32-.57-.48-1-.48H15.7c1.33-2.98,3.33-5.32,5.98-7.02,2.66-1.7,5.66-2.55,9.01-2.55.11-.05.5-.04,1.18.04s1.06.11,1.15.1c.1,0,.44.03,1.04.12.6.09.9.14.9.14l.7.14c.2.04.35.07.45.1l.16.04c.35.1.67.07.96-.1.29-.18.48-.43.56-.78l1.71-6.34c.08-.34.04-.66-.12-.95-.24-.32-.5-.52-.79-.6-2.45-.61-5.03-.92-7.74-.92-5.95,0-11.27,1.7-15.96,5.1-4.69,3.4-7.93,7.9-9.71,13.48H1.27c-.37,0-.67.12-.91.36-.24.23-.36.54-.36.91v4.55c0,.37.12.67.36.91s.54.36.91.36h2.67c-.08,1.28-.09,2.67-.04,4.19H1.27c-.34,0-.64.12-.89.38-.26.25-.38.55-.38.89v4.51c0,.34.12.64.38.9s.55.37.89.37h3.79c1.67,5.88,4.84,10.55,9.49,14.02,4.65,3.46,10.08,5.2,16.3,5.2.51,0,1.02-.01,1.54-.04.52-.03,1-.07,1.45-.12.45-.05.9-.11,1.34-.18s.84-.13,1.19-.2c.36-.07.7-.13,1.02-.2.32-.07.61-.14.86-.22s.46-.14.64-.18c.17-.04.31-.08.41-.14l.2-.04c.17-.06.31-.14.43-.26-.99.29-2.04.45-3.13.45-5.28,0-9.68-3.71-10.75-8.66Z"/>
      <path class="cls-1" d="M36.8,35.28c-4.82,0-8.72,3.9-8.72,8.72,0,1.01.17,1.98.49,2.88,1.19,3.4,4.42,5.84,8.23,5.84,1.14,0,2.23-.22,3.23-.62,3.22-1.28,5.49-4.42,5.49-8.1,0-4.82-3.9-8.72-8.72-8.72ZM40.51,46.29c.39.39.39,1.03,0,1.42-.2.19-.45.29-.71.29s-.51-.1-.71-.29l-2.29-2.3-2.29,2.3c-.2.19-.45.29-.71.29s-.51-.1-.71-.29c-.39-.39-.39-1.03,0-1.42l2.3-2.29-2.3-2.29c-.39-.39-.39-1.03,0-1.42.39-.39,1.03-.39,1.42,0l2.29,2.3,2.29-2.3c.39-.39,1.03-.39,1.42,0s.39,1.03,0,1.42l-2.3,2.29,2.3,2.29Z"/>
    </g>
  </g>
</svg>