<svg width="29" height="29" viewBox="0 0 29 29" fill="none" xmlns="http://www.w3.org/2000/svg">
<path d="M13.6201 0.874272C14.3174 0.475103 15.2258 0.4733 15.9225 0.874272C19.4279 2.85499 22.9344 4.83261 26.4392 6.81453C27.0984 7.18585 27.5393 7.91948 27.5326 8.67906V20.5958C27.5375 21.3869 27.053 22.138 26.3576 22.5009C22.8637 24.4707 19.3716 26.4429 15.8784 28.4127C15.1666 28.8197 14.24 28.7884 13.5505 28.348C12.503 27.7408 11.4537 27.1366 10.4062 26.53C10.1921 26.4024 9.95082 26.3008 9.79966 26.0933C9.93329 25.9131 10.1722 25.8907 10.3663 25.8121C10.8035 25.673 11.2051 25.4499 11.6068 25.2333C11.7084 25.1638 11.8324 25.1904 11.9297 25.2526C12.8254 25.7662 13.7132 26.2947 14.6119 26.8033C14.8037 26.914 14.9978 26.7671 15.1617 26.6757C18.5902 24.738 22.023 22.8075 25.4509 20.8692C25.578 20.8081 25.6482 20.6733 25.6379 20.5341C25.6403 16.603 25.6385 12.6712 25.6391 8.74016C25.6536 8.58229 25.5622 8.43715 25.4195 8.37254C21.9377 6.41176 18.4578 4.44796 14.9767 2.48668C14.9163 2.44521 14.8449 2.42296 14.7717 2.42286C14.6985 2.42275 14.627 2.44479 14.5666 2.48607C11.0854 4.44796 7.60608 6.41356 4.12493 8.37425C3.9827 8.43895 3.88724 8.58169 3.90416 8.74016C3.90476 12.6712 3.90416 16.603 3.90416 20.5347C3.89813 20.6026 3.91304 20.6707 3.94689 20.7299C3.98073 20.789 4.0319 20.8364 4.09348 20.8656C5.02244 21.3924 5.9526 21.9154 6.88216 22.4404C7.40584 22.7223 8.04882 22.8898 8.62579 22.6738C9.13495 22.4912 9.49185 21.9716 9.48213 21.431C9.48694 17.5229 9.47972 13.6141 9.48574 9.70658C9.47301 9.53309 9.63759 9.38975 9.80627 9.40608C10.2526 9.40307 10.6996 9.40007 11.1459 9.40728C11.3322 9.40307 11.4605 9.58988 11.4374 9.76468C11.4356 13.6976 11.4422 17.6306 11.4344 21.5635C11.4356 22.6116 11.005 23.7521 10.0355 24.265C8.84105 24.8837 7.36477 24.7525 6.18479 24.1592C5.16328 23.6494 4.18844 23.0476 3.18506 22.5014C2.48779 22.1405 2.00568 21.3864 2.01058 20.5959V8.67906C2.00327 7.90376 2.46174 7.1568 3.14148 6.79089C6.63475 4.81949 10.1274 2.84658 13.6201 0.874272Z" fill="#8CC84B"/>
<path d="M16.6676 9.12869C18.1911 9.03062 19.8222 9.07059 21.1932 9.82115C22.2546 10.3963 22.8431 11.6034 22.8619 12.7827C22.8322 12.9418 22.6659 13.0295 22.5141 13.0186C22.072 13.018 21.6299 13.0246 21.1878 13.0156C21.0003 13.0228 20.8913 12.8499 20.8678 12.6841C20.7408 12.1199 20.4331 11.5611 19.902 11.2889C19.0867 10.8807 18.1414 10.9013 17.2524 10.9098C16.6034 10.9442 15.9056 11.0004 15.3558 11.3821C14.9336 11.6711 14.8054 12.2547 14.9561 12.7247C15.0981 13.0622 15.4877 13.1711 15.8064 13.2714C17.6425 13.7516 19.5882 13.7039 21.3892 14.3358C22.1348 14.5934 22.8643 15.0943 23.1195 15.875C23.4534 16.9214 23.307 18.172 22.5626 19.0121C21.9588 19.7033 21.0796 20.0795 20.2026 20.2839C19.0359 20.544 17.8252 20.5506 16.6404 20.4351C15.5263 20.3081 14.367 20.0154 13.507 19.2564C12.7715 18.6178 12.4123 17.6228 12.448 16.6625C12.4565 16.5003 12.618 16.3873 12.7733 16.4006C13.2185 16.397 13.6636 16.3958 14.1088 16.4012C14.2866 16.3885 14.4184 16.5421 14.4275 16.7097C14.5096 17.2473 14.7117 17.8115 15.1805 18.1303C16.0852 18.714 17.2204 18.674 18.2563 18.6903C19.1146 18.6523 20.078 18.6407 20.7784 18.0735C21.1479 17.7499 21.2574 17.2086 21.1575 16.743C21.0493 16.3498 20.638 16.1666 20.2848 16.0468C18.4723 15.4734 16.5049 15.6815 14.7099 15.0331C13.9811 14.7756 13.2765 14.2886 12.9965 13.54C12.6058 12.4804 12.7848 11.1698 13.6073 10.3581C14.4093 9.55079 15.5669 9.23987 16.6676 9.12859V9.12869Z" fill="#8CC84B"/>
</svg>
