<svg width="28" height="29" viewBox="0 0 28 29" fill="none" xmlns="http://www.w3.org/2000/svg">
<path d="M12.958 0.372939C13.6523 -0.0244568 14.5566 -0.0262518 15.2502 0.372939C18.74 2.34486 22.2309 4.31369 25.7202 6.28681C26.3764 6.65648 26.8154 7.38686 26.8087 8.14305V20.0069C26.8136 20.7944 26.3313 21.5422 25.6389 21.9035C22.1605 23.8646 18.684 25.828 15.2063 27.7891C14.4976 28.1943 13.5752 28.163 12.8887 27.7247C11.8459 27.1201 10.8013 26.5186 9.75839 25.9147C9.54528 25.7876 9.30505 25.6865 9.15457 25.4799C9.2876 25.3006 9.52544 25.2783 9.7187 25.2C10.154 25.0616 10.5538 24.8394 10.9537 24.6238C11.0548 24.5546 11.1782 24.5811 11.2752 24.643C12.1669 25.1543 13.0507 25.6804 13.9455 26.1868C14.1363 26.297 14.3296 26.1507 14.4927 26.0598C17.9061 24.1306 21.3236 22.2088 24.7363 20.279C24.8627 20.2182 24.9326 20.084 24.9224 19.9455C24.9248 16.0318 24.923 12.1175 24.9236 8.20389C24.938 8.04672 24.8471 7.90222 24.705 7.8379C21.2387 5.88582 17.7742 3.93076 14.3086 1.97818C14.2485 1.9369 14.1774 1.91475 14.1045 1.91464C14.0316 1.91454 13.9605 1.93648 13.9003 1.97758C10.4346 3.93076 6.97074 5.88762 3.50506 7.8396C3.36346 7.90402 3.26842 8.04612 3.28527 8.20389C3.28587 12.1175 3.28527 16.0318 3.28527 19.9461C3.27926 20.0137 3.29411 20.0815 3.32781 20.1403C3.3615 20.1992 3.41244 20.2464 3.47375 20.2755C4.39858 20.7999 5.32461 21.3206 6.25004 21.8433C6.77139 22.1239 7.41151 22.2907 7.98592 22.0757C8.49281 21.8939 8.84812 21.3766 8.83845 20.8384C8.84323 16.9476 8.83605 13.0562 8.84204 9.16601C8.82937 8.99329 8.99322 8.85059 9.16115 8.86684C9.60552 8.86385 10.0505 8.86086 10.4948 8.86804C10.6803 8.86385 10.808 9.04984 10.785 9.22385C10.7832 13.1393 10.7898 17.0548 10.782 20.9702C10.7832 22.0137 10.3545 23.1492 9.38932 23.6597C8.20022 24.2757 6.7305 24.1451 5.55577 23.5544C4.53879 23.0469 3.56829 22.4478 2.56936 21.904C1.87519 21.5447 1.39522 20.7939 1.40011 20.007V8.14305C1.39283 7.3712 1.84926 6.62756 2.52598 6.26328C6.00372 4.30063 9.48086 2.33648 12.958 0.372939Z" fill="#8CC84B"/>
<path d="M15.9919 8.58945C17.5087 8.49182 19.1325 8.53161 20.4974 9.27884C21.5542 9.85145 22.1401 11.0532 22.1587 12.2272C22.1292 12.3856 21.9636 12.473 21.8125 12.4621C21.3724 12.4615 20.9322 12.4681 20.4921 12.4591C20.3055 12.4663 20.197 12.2942 20.1735 12.1291C20.0471 11.5674 19.7407 11.011 19.212 10.7401C18.4003 10.3337 17.4593 10.3542 16.5742 10.3626C15.9281 10.3969 15.2333 10.4529 14.686 10.8328C14.2657 11.1206 14.1381 11.7016 14.2881 12.1695C14.4295 12.5055 14.8173 12.6139 15.1346 12.7138C16.9625 13.1919 18.8996 13.1443 20.6926 13.7735C21.4349 14.0299 22.1611 14.5286 22.4152 15.3058C22.7476 16.3475 22.6019 17.5926 21.8607 18.4289C21.2597 19.1171 20.3843 19.4917 19.5113 19.6951C18.3498 19.9541 17.1444 19.9607 15.9649 19.8457C14.8558 19.7192 13.7016 19.4278 12.8454 18.6721C12.1132 18.0364 11.7556 17.0459 11.7911 16.0898C11.7996 15.9284 11.9603 15.8158 12.115 15.829C12.5582 15.8255 13.0013 15.8243 13.4445 15.8296C13.6215 15.817 13.7528 15.97 13.7618 16.1368C13.8436 16.672 14.0447 17.2337 14.5114 17.5511C15.4121 18.1321 16.5423 18.0924 17.5736 18.1086C18.4281 18.0707 19.3872 18.0592 20.0845 17.4945C20.4523 17.1724 20.5613 16.6335 20.4619 16.1699C20.3542 15.7785 19.9448 15.5961 19.5931 15.4768C17.7886 14.906 15.83 15.1131 14.0429 14.4676C13.3175 14.2112 12.6159 13.7265 12.3372 12.9812C11.9483 11.9263 12.1265 10.6215 12.9453 9.81345C13.7437 9.00968 14.8962 8.70014 15.9919 8.58935V8.58945Z" fill="#8CC84B"/>
</svg>
