<svg width="366" height="54" viewBox="0 0 366 54" fill="none" xmlns="http://www.w3.org/2000/svg">
<path d="M3.048 4.878V15H1.676V4.878H3.048ZM6.50042 15H5.18442V8.154H6.37442L6.51442 9.204C6.94842 8.42 7.81642 7.958 8.78242 7.958C10.5884 7.958 11.4144 9.064 11.4144 10.814V15H10.0984V11.108C10.0984 9.722 9.45442 9.162 8.44642 9.162C7.21442 9.162 6.50042 10.044 6.50042 11.374V15ZM15.1692 15H13.8532V9.26H12.5092V8.154H13.8532V6.012H15.1692V8.154H16.5132V9.26H15.1692V15ZM20.5798 15.168C18.5638 15.168 17.1778 13.712 17.1778 11.584C17.1778 9.442 18.5358 7.958 20.5238 7.958C22.4698 7.958 23.7438 9.302 23.7438 11.332V11.822L18.4518 11.836C18.5498 13.278 19.3058 14.076 20.6078 14.076C21.6298 14.076 22.3018 13.656 22.5258 12.872H23.7578C23.4218 14.342 22.2738 15.168 20.5798 15.168ZM20.5238 9.064C19.3758 9.064 18.6478 9.75 18.4798 10.954H22.4278C22.4278 9.82 21.6858 9.064 20.5238 9.064ZM29.1337 8.098V9.302H28.5457C27.2997 9.302 26.5297 10.058 26.5297 11.374V15H25.2137V8.168H26.4457L26.5297 9.204C26.8097 8.49 27.4957 8.014 28.4337 8.014C28.6717 8.014 28.8677 8.042 29.1337 8.098ZM32.4911 15L29.7331 8.154H31.1331L32.6311 11.976C32.8691 12.62 33.0651 13.194 33.1771 13.614C33.2891 13.166 33.5131 12.578 33.7511 11.976L35.2771 8.154H36.6491L33.7931 15H32.4911ZM38.3401 6.53C37.8641 6.53 37.4721 6.138 37.4721 5.662C37.4721 5.172 37.8641 4.794 38.3401 4.794C38.8161 4.794 39.2081 5.172 39.2081 5.662C39.2081 6.138 38.8161 6.53 38.3401 6.53ZM37.6961 15V8.154H39.0121V15H37.6961ZM43.8767 15.168C41.8607 15.168 40.4747 13.712 40.4747 11.584C40.4747 9.442 41.8327 7.958 43.8207 7.958C45.7667 7.958 47.0407 9.302 47.0407 11.332V11.822L41.7487 11.836C41.8467 13.278 42.6027 14.076 43.9047 14.076C44.9267 14.076 45.5987 13.656 45.8227 12.872H47.0547C46.7187 14.342 45.5707 15.168 43.8767 15.168ZM43.8207 9.064C42.6727 9.064 41.9447 9.75 41.7767 10.954H45.7247C45.7247 9.82 44.9827 9.064 43.8207 9.064ZM49.7482 15L47.5082 8.154H48.8662L50.0002 11.71C50.1542 12.214 50.2942 12.732 50.4202 13.334C50.5322 12.732 50.7142 12.158 50.8682 11.71L52.0162 8.154H53.3602L54.4942 11.71C54.6062 12.046 54.8302 12.844 54.9422 13.334C55.0542 12.788 55.1802 12.312 55.3762 11.71L56.5242 8.154H57.8962L55.5582 15H54.3122L53.1222 11.332C52.8982 10.646 52.7582 10.114 52.6882 9.736C52.6182 10.072 52.4922 10.52 52.2402 11.346L51.0502 15H49.7482ZM62.4884 7.608C62.4884 5.872 63.8884 4.696 65.9744 4.696C67.9064 4.696 69.1524 5.774 69.2644 7.524H67.8784C67.8084 6.516 67.0944 5.928 65.9604 5.928C64.6864 5.928 63.8604 6.572 63.8604 7.566C63.8604 8.378 64.3224 8.868 65.2744 9.092L66.9404 9.484C68.5924 9.862 69.4324 10.758 69.4324 12.186C69.4324 14.006 68.0184 15.168 65.8624 15.168C63.8044 15.168 62.4324 14.09 62.3484 12.354H63.7484C63.7764 13.32 64.5884 13.936 65.8624 13.936C67.2064 13.936 68.0604 13.306 68.0604 12.298C68.0604 11.5 67.6264 10.996 66.6604 10.772L64.9944 10.394C63.3424 10.016 62.4884 9.064 62.4884 7.608ZM70.4845 11.584C70.4845 9.442 71.8425 7.958 73.8445 7.958C75.5665 7.958 76.7705 8.938 77.0085 10.464H75.6925C75.4685 9.596 74.7685 9.134 73.8865 9.134C72.6405 9.134 71.7865 10.086 71.7865 11.57C71.7865 13.04 72.5845 13.992 73.8305 13.992C74.7685 13.992 75.4685 13.502 75.7065 12.69H77.0225C76.7565 14.174 75.4825 15.168 73.8305 15.168C71.8145 15.168 70.4845 13.74 70.4845 11.584ZM82.331 8.098V9.302H81.743C80.497 9.302 79.727 10.058 79.727 11.374V15H78.411V8.168H79.643L79.727 9.204C80.007 8.49 80.693 8.014 81.631 8.014C81.869 8.014 82.065 8.042 82.331 8.098ZM86.2732 15.168C84.2572 15.168 82.8712 13.712 82.8712 11.584C82.8712 9.442 84.2292 7.958 86.2172 7.958C88.1632 7.958 89.4372 9.302 89.4372 11.332V11.822L84.1452 11.836C84.2432 13.278 84.9992 14.076 86.3012 14.076C87.3232 14.076 87.9952 13.656 88.2192 12.872H89.4512C89.1152 14.342 87.9672 15.168 86.2732 15.168ZM86.2172 9.064C85.0692 9.064 84.3412 9.75 84.1732 10.954H88.1212C88.1212 9.82 87.3792 9.064 86.2172 9.064ZM93.8611 15.168C91.8451 15.168 90.4591 13.712 90.4591 11.584C90.4591 9.442 91.8171 7.958 93.8051 7.958C95.7511 7.958 97.0251 9.302 97.0251 11.332V11.822L91.7331 11.836C91.8311 13.278 92.5871 14.076 93.8891 14.076C94.9111 14.076 95.5831 13.656 95.8071 12.872H97.0391C96.7031 14.342 95.5551 15.168 93.8611 15.168ZM93.8051 9.064C92.6571 9.064 91.9291 9.75 91.7611 10.954H95.7091C95.7091 9.82 94.9671 9.064 93.8051 9.064ZM99.811 15H98.495V8.154H99.685L99.825 9.204C100.259 8.42 101.127 7.958 102.093 7.958C103.899 7.958 104.725 9.064 104.725 10.814V15H103.409V11.108C103.409 9.722 102.765 9.162 101.757 9.162C100.525 9.162 99.811 10.044 99.811 11.374V15ZM107.192 6.53C106.716 6.53 106.324 6.138 106.324 5.662C106.324 5.172 106.716 4.794 107.192 4.794C107.668 4.794 108.06 5.172 108.06 5.662C108.06 6.138 107.668 6.53 107.192 6.53ZM106.548 15V8.154H107.864V15H106.548ZM111.09 15H109.774V8.154H110.964L111.104 9.204C111.538 8.42 112.406 7.958 113.372 7.958C115.178 7.958 116.004 9.064 116.004 10.814V15H114.688V11.108C114.688 9.722 114.044 9.162 113.036 9.162C111.804 9.162 111.09 10.044 111.09 11.374V15ZM117.393 11.402C117.393 9.47 118.639 7.958 120.627 7.958C121.733 7.958 122.587 8.462 123.021 9.316L123.119 8.154H124.295V14.72C124.295 16.876 122.965 18.248 120.865 18.248C119.003 18.248 117.729 17.198 117.477 15.462H118.793C118.961 16.47 119.717 17.058 120.865 17.058C122.153 17.058 122.993 16.218 122.993 14.916V13.544C122.545 14.342 121.649 14.818 120.571 14.818C118.625 14.818 117.393 13.32 117.393 11.402ZM118.709 11.374C118.709 12.662 119.507 13.67 120.795 13.67C122.125 13.67 122.937 12.718 122.937 11.374C122.937 10.058 122.153 9.106 120.809 9.106C119.493 9.106 118.709 10.114 118.709 11.374Z" fill="white"/>
<path d="M1.088 46.668C1.088 43.98 2.48 42.156 4.664 42.156C6.836 42.156 8.228 43.98 8.228 46.668C8.228 49.368 6.896 51.156 4.664 51.156C2.42 51.156 1.088 49.368 1.088 46.668ZM2.252 46.668C2.252 48.804 3.14 50.1 4.664 50.1C6.188 50.1 7.064 48.804 7.064 46.668C7.064 44.508 6.188 43.212 4.664 43.212C3.14 43.212 2.252 44.508 2.252 46.668Z" fill="white"/>
<path d="M354.744 43.38H352.92V42.324H355.872V51H354.744V43.38ZM357.459 46.668C357.459 43.98 358.851 42.156 361.035 42.156C363.207 42.156 364.599 43.98 364.599 46.668C364.599 49.368 363.267 51.156 361.035 51.156C358.791 51.156 357.459 49.368 357.459 46.668ZM358.623 46.668C358.623 48.804 359.511 50.1 361.035 50.1C362.559 50.1 363.435 48.804 363.435 46.668C363.435 44.508 362.559 43.212 361.035 43.212C359.511 43.212 358.623 44.508 358.623 46.668Z" fill="white"/>
<rect x="0.5" y="28" width="365" height="6" rx="3" fill="#D9D9D9"/>
<rect x="0.5" y="28" width="300" height="6" rx="3" fill="#F26829"/>
<rect x="280.5" width="32" height="20" rx="3" fill="#F26829"/>
<path d="M295.244 23.1271C295.643 23.5876 296.357 23.5876 296.756 23.1271L299.897 19.5H292.103L295.244 23.1271Z" fill="#F26829"/>
<path d="M286.485 12.102C286.485 10.884 287.171 9.904 288.235 9.498C287.339 9.092 286.849 8.322 286.849 7.328C286.849 5.704 288.291 4.584 290.405 4.584C292.505 4.584 293.919 5.69 293.919 7.356C293.919 8.35 293.415 9.12 292.505 9.498C293.583 9.876 294.283 10.87 294.283 12.102C294.283 13.95 292.757 15.168 290.377 15.168C288.011 15.168 286.485 13.964 286.485 12.102ZM288.473 7.482C288.473 8.336 289.215 8.882 290.377 8.882C291.525 8.882 292.253 8.35 292.253 7.496C292.253 6.642 291.525 6.11 290.377 6.11C289.215 6.11 288.473 6.642 288.473 7.482ZM288.235 11.976C288.235 12.97 289.061 13.586 290.391 13.586C291.693 13.586 292.519 12.97 292.519 11.976C292.519 10.982 291.693 10.366 290.377 10.366C289.061 10.366 288.235 10.982 288.235 11.976ZM296.814 15.168C296.198 15.168 295.68 14.664 295.68 14.062C295.68 13.446 296.198 12.942 296.814 12.942C297.43 12.942 297.948 13.446 297.948 14.062C297.948 14.664 297.43 15.168 296.814 15.168ZM306.6 14.986L299.502 15V13.656L302.848 10.828C304.234 9.652 304.696 8.98 304.696 8C304.696 6.838 304.066 6.18 302.988 6.18C301.868 6.18 301.168 6.964 301.154 8.28H299.376C299.39 6.04 300.818 4.584 302.988 4.584C305.172 4.584 306.53 5.83 306.53 7.902C306.53 9.33 305.746 10.408 304.192 11.738L302.344 13.32H306.6V14.986Z" fill="white"/>
</svg>
