<svg width="180" height="45" viewBox="0 0 180 45" fill="none" xmlns="http://www.w3.org/2000/svg">
<g clip-path="url(#clip0_559_36841)">
<path d="M47.4862 16.168H65.6273V19.553H58.4948V38.5797H54.5722V19.553H47.4707V16.168H47.4862ZM64.8526 22.3517H68.2055V25.483H68.2686C68.3904 25.0195 68.6015 24.5842 68.8901 24.2017C69.1995 23.7731 69.5669 23.3897 69.9819 23.0623C70.414 22.7167 70.8932 22.4345 71.4051 22.2243C71.9128 22.0194 72.4547 21.9123 73.0023 21.9084C73.4166 21.9084 73.7139 21.9239 73.8723 21.9405C74.0308 21.9571 74.1883 21.9882 74.3623 22.0037V25.4519C74.1096 25.4043 73.8558 25.3732 73.5875 25.3411C73.3304 25.3099 73.0717 25.294 72.8127 25.2934C72.2242 25.2934 71.6422 25.4172 71.1047 25.657C70.567 25.9013 70.0912 26.2634 69.7126 26.7166C69.2914 27.233 68.9697 27.823 68.7638 28.4568C68.5173 29.2284 68.3997 30.0354 68.4157 30.8453V38.5631H64.8412V22.3517H64.8526ZM90.7912 38.5787H87.2798V36.3175H87.2166C86.7666 37.1471 86.0855 37.8282 85.2559 38.2783C84.4502 38.7535 83.5343 39.0099 82.599 39.022C80.4642 39.022 78.9136 38.5041 77.9648 37.4403C76.9163 36.0726 76.4095 34.366 76.5416 32.6476V22.3517H80.1162V32.2955C80.008 33.3693 80.3009 34.4452 80.9386 35.3159C81.2358 35.6182 81.5941 35.8536 81.9896 36.0064C82.3851 36.1591 82.8086 36.2256 83.2319 36.2015C83.8772 36.2251 84.5198 36.1063 85.1139 35.8535C85.5901 35.647 86.0083 35.3269 86.3321 34.9212C86.6578 34.5124 86.89 34.0372 87.0126 33.5291C87.1571 32.9553 87.2268 32.3651 87.2198 31.7734V22.3631H90.7943L90.7912 38.5787ZM96.8807 33.3748C96.8911 33.8087 97.004 34.234 97.2101 34.616C97.4162 34.998 97.7098 35.3258 98.0667 35.5728C98.8223 36.006 99.6818 36.2248 100.553 36.2056C100.934 36.1998 101.314 36.1736 101.692 36.1269C102.104 36.0793 102.508 35.9783 102.894 35.8265C103.253 35.6913 103.574 35.4684 103.826 35.1781C104.073 34.8646 104.192 34.4688 104.158 34.0708C104.156 33.8588 104.11 33.6494 104.023 33.4561C103.936 33.2628 103.809 33.0898 103.652 32.948C103.302 32.6339 102.894 32.392 102.45 32.2364C101.903 32.0433 101.343 31.89 100.773 31.7776C100.14 31.6512 99.5075 31.5083 98.8591 31.3632C98.2065 31.2197 97.5623 31.0402 96.9294 30.8257C96.3351 30.6306 95.7757 30.3421 95.2721 29.9711C94.7778 29.619 94.3762 29.1523 94.1016 28.6111C93.7841 27.9737 93.6317 27.2667 93.6583 26.555C93.6333 25.7667 93.8604 24.9909 94.3067 24.3405C94.7356 23.745 95.2923 23.253 95.9361 22.9007C96.6242 22.5302 97.3657 22.2689 98.134 22.1259C98.8958 21.9854 99.6683 21.9112 100.443 21.9043C101.252 21.9034 102.058 21.9938 102.847 22.1736C103.585 22.3349 104.287 22.6298 104.919 23.0436C105.536 23.4453 106.059 23.9752 106.453 24.5974C106.883 25.2979 107.148 26.0876 107.227 26.9062H103.498C103.459 26.5452 103.331 26.1994 103.127 25.899C102.923 25.5986 102.649 25.3526 102.328 25.1826C101.665 24.8751 100.94 24.7235 100.209 24.7393C99.9073 24.7399 99.6062 24.761 99.3076 24.8024C98.9734 24.8478 98.6447 24.9273 98.3267 25.0396C98.0344 25.1495 97.7699 25.3225 97.5519 25.5462C97.3367 25.7836 97.2233 26.096 97.236 26.4162C97.2295 26.6158 97.2673 26.8143 97.3467 26.9975C97.426 27.1807 97.5449 27.344 97.6949 27.4759C98.0462 27.772 98.4479 28.0025 98.8809 28.1564C99.4281 28.3495 99.9885 28.5028 100.558 28.6152C101.191 28.7416 101.839 28.8846 102.503 29.0296C103.151 29.1715 103.784 29.3621 104.417 29.5672C105.019 29.7584 105.586 30.0471 106.094 30.4217C106.582 30.7801 106.986 31.2394 107.28 31.7682C107.602 32.3878 107.76 33.079 107.739 33.7767C107.765 34.6416 107.534 35.4949 107.075 36.2284C106.637 36.894 106.053 37.4511 105.367 37.8577C104.64 38.2847 103.85 38.5944 103.026 38.7755C102.19 38.963 101.337 39.0585 100.48 39.0603C99.5201 39.0713 98.5629 38.9543 97.6337 38.7123C96.8228 38.5038 96.0563 38.15 95.3715 37.6682C94.7447 37.2036 94.2309 36.6035 93.8686 35.9125C93.4881 35.134 93.2881 34.2796 93.2834 33.4131H96.8786L96.8807 33.3748ZM108.68 22.3507H111.38V17.4824H114.954V22.3507H118.181V25.0231H114.954V33.6907C114.952 34.0183 114.968 34.3458 115.002 34.6716C115.028 34.9163 115.103 35.1532 115.224 35.3677C115.343 35.5646 115.526 35.7151 115.742 35.7944C116.046 35.9013 116.368 35.9495 116.691 35.9363C116.943 35.9363 117.197 35.9363 117.45 35.9208C117.706 35.9072 117.96 35.8701 118.209 35.81V38.5776C117.813 38.6253 117.419 38.6564 117.054 38.704C116.671 38.7491 116.285 38.7702 115.899 38.7672C115.131 38.7874 114.363 38.6967 113.62 38.4979C113.109 38.3599 112.644 38.0869 112.274 37.7075C111.94 37.343 111.71 36.8949 111.61 36.4107C111.486 35.8228 111.417 35.2247 111.403 34.624V25.0552H108.698V22.3517L108.68 22.3507ZM120.716 22.3507H124.101V24.5487H124.164C124.615 23.655 125.357 22.9413 126.268 22.5247C127.186 22.107 128.185 21.8949 129.194 21.9032C130.343 21.8737 131.485 22.1065 132.531 22.5838C133.455 23.0073 134.267 23.6407 134.903 24.4337C135.545 25.2522 136.023 26.1866 136.311 27.1858C136.633 28.274 136.793 29.4038 136.785 30.5387C136.789 31.6078 136.645 32.6722 136.358 33.7021C136.097 34.678 135.663 35.5992 135.077 36.4221C134.505 37.2099 133.758 37.8542 132.895 38.3042C131.932 38.798 130.861 39.0427 129.779 39.0158C129.254 39.0156 128.73 38.9682 128.213 38.8739C127.696 38.7787 127.192 38.6248 126.71 38.415C126.23 38.2112 125.783 37.9395 125.381 37.6081C124.982 37.2833 124.635 36.899 124.353 36.4687H124.29V44.5667H120.716V22.3507ZM133.211 30.4797C133.211 29.7586 133.116 29.0406 132.926 28.3449C132.751 27.6878 132.462 27.0667 132.071 26.5105C131.702 25.9847 131.222 25.5471 130.664 25.2292C129.784 24.7711 128.773 24.628 127.801 24.8236C126.828 25.0192 125.952 25.5417 125.318 26.3044C124.503 27.5393 124.104 29.0021 124.178 30.4797C124.168 31.2498 124.27 32.0173 124.479 32.7585C124.656 33.4137 124.962 34.0269 125.38 34.5618C125.762 35.0566 126.248 35.4614 126.803 35.7478C127.429 36.0497 128.117 36.2011 128.811 36.1902C129.506 36.1792 130.188 36.0061 130.804 35.6846C131.358 35.3597 131.833 34.917 132.197 34.3878C132.57 33.8356 132.838 33.2189 132.987 32.5689C133.133 31.8824 133.207 31.1826 133.208 30.4807L133.211 30.4797ZM139.52 16.168H143.094V19.553H139.52V16.168ZM139.52 22.3517H143.094V38.5787H139.52V22.3517ZM146.287 16.168H149.861V38.5787H146.287V16.168ZM160.821 39.022C159.635 39.0405 158.457 38.82 157.357 38.3736C156.377 37.9766 155.496 37.3704 154.775 36.5973C154.054 35.8242 153.51 34.9029 153.182 33.8979C152.805 32.7877 152.618 31.622 152.629 30.4497C152.619 29.2873 152.806 28.1316 153.182 27.0315C153.523 26.03 154.067 25.1094 154.779 24.327C155.5 23.5569 156.38 22.9525 157.357 22.5558C159.585 21.6912 162.057 21.6912 164.285 22.5558C165.265 22.9527 166.146 23.5589 166.867 24.332C167.588 25.1051 168.132 26.0264 168.46 27.0315C168.836 28.1316 169.023 29.2873 169.013 30.4497C169.024 31.622 168.837 32.7877 168.46 33.8979C168.119 34.8994 167.575 35.8199 166.863 36.6024C166.142 37.3725 165.262 37.9768 164.285 38.3736C163.186 38.8197 162.009 39.0402 160.823 39.022H160.821ZM160.821 36.1911C161.544 36.206 162.258 36.0313 162.893 35.6846C163.464 35.3599 163.956 34.9115 164.331 34.3723C164.714 33.8135 164.998 33.1929 165.169 32.5378C165.528 31.1744 165.528 29.7415 165.169 28.378C165.007 27.7195 164.723 27.0972 164.331 26.5436C163.955 26.009 163.463 25.5658 162.893 25.2468C162.253 24.9144 161.542 24.7409 160.821 24.7409C160.1 24.7409 159.389 24.9144 158.749 25.2468C158.182 25.5706 157.691 26.0129 157.311 26.5436C156.925 27.1008 156.641 27.7219 156.473 28.378C156.114 29.7415 156.114 31.1744 156.473 32.5378C156.638 33.1953 156.922 33.8171 157.311 34.3723C157.686 34.9115 158.178 35.3599 158.749 35.6846C159.382 36.0389 160.099 36.214 160.823 36.1911H160.821ZM170.057 22.3517H172.762V17.4834H176.336V22.3517H179.563V25.0241H176.336V33.6917C176.334 34.0193 176.35 34.3468 176.384 34.6726C176.41 34.9174 176.485 35.1542 176.606 35.3687C176.725 35.5656 176.908 35.7161 177.124 35.7955C177.428 35.9024 177.75 35.9505 178.072 35.9374C178.325 35.9374 178.579 35.9374 178.832 35.9218C179.088 35.9082 179.342 35.8711 179.591 35.811V38.5787C179.195 38.6263 178.801 38.6574 178.436 38.705C178.053 38.7502 177.667 38.7713 177.281 38.7682C176.512 38.7884 175.745 38.6977 175.002 38.4989C174.491 38.3609 174.026 38.088 173.656 37.7086C173.322 37.344 173.092 36.896 172.992 36.4118C172.868 35.8238 172.798 35.2257 172.785 34.625V25.0562H170.08V22.3517H170.057Z" fill="white"/>
<path d="M43.3111 16.1683H26.9257L21.8647 0.574219L16.7893 16.1683L0.402832 16.1527L13.6725 25.8002L8.59709 41.3788L21.8647 31.752L35.123 41.385L30.058 25.8002L43.3111 16.1683Z" fill="#00B67A"/>
<path d="M31.1963 29.3316L30.0569 25.8047L21.8647 31.7512L31.1963 29.3316Z" fill="#005128"/>
</g>
<defs>
<clipPath id="clip0_559_36841">
<rect width="179.194" height="44" fill="white" transform="translate(0.402832 0.574219)"/>
</clipPath>
</defs>
</svg>
