<svg width="247" height="201" viewBox="0 0 247 201" fill="none" xmlns="http://www.w3.org/2000/svg">
<path d="M194.46 155.932C194.41 155.833 194.328 155.768 194.23 155.751C194.115 155.718 194.017 155.735 193.918 155.784L192.622 156.555L191.851 155.259C191.785 155.16 191.703 155.095 191.604 155.078C191.506 155.046 191.391 155.062 191.309 155.111C191.211 155.16 191.145 155.259 191.129 155.357C191.096 155.456 191.112 155.554 191.161 155.653L191.933 156.965L190.636 157.737C190.538 157.786 190.472 157.868 190.456 157.966C190.423 158.081 190.439 158.18 190.489 158.278C190.538 158.36 190.636 158.426 190.735 158.459C190.833 158.475 190.948 158.459 191.03 158.41L192.343 157.638L193.114 158.951C193.196 159.099 193.36 159.164 193.524 159.132C193.568 159.121 193.612 159.104 193.656 159.082C193.836 158.967 193.902 158.738 193.787 158.541L193.016 157.244L194.328 156.457C194.509 156.358 194.575 156.112 194.46 155.932Z" fill="#FFD1BD"/>
<path fill-rule="evenodd" clip-rule="evenodd" d="M197.774 164.579C196.823 164.579 196.068 163.808 196.068 162.856C196.068 161.921 196.823 161.15 197.774 161.15C198.726 161.15 199.497 161.921 199.497 162.856C199.497 163.808 198.726 164.579 197.774 164.579ZM197.774 162.069C197.331 162.069 196.97 162.413 196.97 162.856C196.97 163.3 197.331 163.661 197.774 163.661C198.217 163.661 198.578 163.3 198.578 162.856C198.578 162.413 198.217 162.069 197.774 162.069Z" fill="#FFD1BD"/>
<path fill-rule="evenodd" clip-rule="evenodd" d="M24.4564 189.768C23.5046 189.768 22.7334 188.997 22.7334 188.045C22.7334 187.093 23.5046 186.339 24.4564 186.339C25.3917 186.339 26.163 187.093 26.163 188.045C26.163 188.997 25.3917 189.768 24.4564 189.768ZM24.4564 187.241C24.0133 187.241 23.6523 187.602 23.6523 188.045C23.6523 188.488 24.0133 188.849 24.4564 188.849C24.8994 188.849 25.244 188.488 25.244 188.045C25.244 187.602 24.8994 187.241 24.4564 187.241Z" fill="#FFD1BD"/>
<path fill-rule="evenodd" clip-rule="evenodd" d="M214.479 5.22599C213.544 5.22599 212.773 4.45474 212.773 3.51939C212.773 2.56764 213.544 1.79639 214.479 1.79639C215.431 1.79639 216.202 2.56764 216.202 3.51939C216.202 4.45474 215.431 5.22599 214.479 5.22599ZM214.479 2.71533C214.036 2.71533 213.692 3.07633 213.692 3.51939C213.692 3.96245 214.036 4.30706 214.479 4.30706C214.922 4.30706 215.283 3.96245 215.283 3.51939C215.283 3.07633 214.922 2.71533 214.479 2.71533Z" fill="#FFD1BD"/>
<path d="M243.852 48.695C243.77 48.7443 243.688 48.8099 243.656 48.9248C243.623 49.0232 243.623 49.1217 243.672 49.2201L244.345 50.5821L242.983 51.2549C242.884 51.2878 242.819 51.3698 242.769 51.4683C242.737 51.5667 242.753 51.6816 242.802 51.78C242.835 51.8621 242.917 51.9441 243.016 51.977C243.114 52.0098 243.229 52.0098 243.327 51.9605L244.689 51.2878L245.346 52.6497C245.395 52.7482 245.477 52.8138 245.575 52.8631C245.674 52.8959 245.789 52.8795 245.871 52.8302C245.969 52.7974 246.051 52.7154 246.084 52.6169C246.117 52.5185 246.101 52.4036 246.051 52.3051L245.395 50.9431L246.757 50.2868C246.921 50.2047 247.003 50.0406 246.97 49.8765C246.97 49.8328 246.959 49.7945 246.937 49.7617C246.839 49.5647 246.609 49.4827 246.412 49.5812L245.05 50.2375L244.378 48.8755C244.296 48.6786 244.049 48.5966 243.852 48.695Z" fill="#FFD1BD"/>
<path fill-rule="evenodd" clip-rule="evenodd" d="M219.058 81.35C218.122 81.35 217.351 80.5788 217.351 79.627C217.351 78.6917 218.122 77.9204 219.058 77.9204C220.009 77.9204 220.781 78.6917 220.781 79.627C220.781 80.5788 220.009 81.35 219.058 81.35ZM219.058 78.8393C218.631 78.8393 218.27 79.2004 218.27 79.627C218.27 80.0701 218.631 80.4311 219.058 80.4311C219.501 80.4311 219.862 80.0701 219.862 79.627C219.862 79.2004 219.501 78.8393 219.058 78.8393Z" fill="#FFD1BD"/>
<path d="M0.235832 105.275C0.170193 105.341 0.120953 105.439 0.120953 105.554C0.104543 105.653 0.153768 105.751 0.219406 105.833L1.25322 106.933L0.153784 107.983C0.0717358 108.049 0.0389087 108.147 0.0224991 108.245C0.0224991 108.36 0.0553102 108.459 0.137358 108.541C0.202996 108.606 0.301466 108.656 0.416333 108.656C0.514791 108.656 0.61324 108.623 0.695288 108.557L1.79474 107.507L2.84494 108.623C2.91058 108.688 3.00905 108.738 3.10751 108.738C3.22238 108.754 3.32082 108.705 3.40287 108.639C3.46851 108.557 3.51775 108.475 3.51775 108.36C3.51775 108.262 3.48491 108.163 3.41927 108.081L2.36908 106.965L3.48492 105.932C3.59978 105.817 3.6326 105.636 3.56697 105.489C3.55603 105.445 3.53414 105.407 3.50132 105.374C3.35364 105.226 3.10751 105.21 2.94341 105.357L1.82755 106.391L0.793741 105.292C0.646055 105.128 0.399928 105.128 0.235832 105.275Z" fill="#FFD1BD"/>
<path fill-rule="evenodd" clip-rule="evenodd" d="M17.1541 124.146C16.2024 124.146 15.4311 123.375 15.4311 122.423C15.4311 121.471 16.2024 120.717 17.1541 120.717C18.0895 120.717 18.8607 121.471 18.8607 122.423C18.8607 123.375 18.0895 124.146 17.1541 124.146ZM17.1541 121.619C16.7111 121.619 16.35 121.98 16.35 122.423C16.35 122.866 16.7111 123.227 17.1541 123.227C17.5972 123.227 17.9418 122.866 17.9418 122.423C17.9418 121.98 17.5972 121.619 17.1541 121.619Z" fill="#FFD1BD"/>
<path d="M46.6914 178.085C46.5109 178.085 46.3632 177.937 46.3468 177.756C46.3303 177.56 46.478 177.395 46.6749 177.379C47.8236 177.313 48.9887 177.199 50.1373 177.034C50.3343 177.018 50.4984 177.149 50.5312 177.33C50.564 177.527 50.4327 177.707 50.2358 177.74C49.0707 177.904 47.8893 178.019 46.7078 178.085C46.7078 178.085 46.7023 178.085 46.6914 178.085ZM41.7849 178.068C41.7739 178.068 41.763 178.068 41.7521 178.068C40.587 177.986 39.4055 177.871 38.2404 177.691C38.0435 177.658 37.9122 177.494 37.945 177.297C37.9779 177.1 38.1584 176.969 38.3389 177.002C39.4875 177.166 40.6526 177.297 41.8013 177.363C41.9982 177.379 42.1459 177.543 42.1295 177.74C42.1131 177.921 41.9654 178.068 41.7849 178.068ZM55.011 176.772C54.8469 176.772 54.6992 176.657 54.6664 176.509C54.6172 176.312 54.732 176.132 54.9126 176.083C56.0284 175.787 57.1607 175.443 58.2437 175.049C58.4242 175 58.6211 175.082 58.6868 175.262C58.7524 175.443 58.6539 175.656 58.4734 175.722C57.374 176.099 56.2253 176.46 55.0931 176.755C55.0603 176.766 55.0329 176.772 55.011 176.772ZM33.4816 176.69C33.4488 176.69 33.416 176.684 33.3832 176.673C32.2509 176.362 31.1187 176.001 30.0192 175.59C29.8387 175.525 29.7403 175.328 29.8059 175.147C29.8715 174.967 30.0685 174.868 30.2654 174.934C31.3484 175.344 32.4642 175.689 33.5801 176.001C33.7606 176.05 33.8755 176.247 33.8098 176.427C33.777 176.591 33.6293 176.69 33.4816 176.69ZM62.8876 173.818C62.7564 173.818 62.625 173.752 62.5758 173.621C62.4774 173.457 62.5594 173.244 62.7235 173.162C63.7573 172.653 64.7911 172.079 65.7757 171.488C65.9398 171.39 66.1531 171.439 66.2516 171.603C66.35 171.767 66.3008 171.98 66.1367 172.079C65.1357 172.686 64.0855 173.26 63.0353 173.785C62.9806 173.807 62.9314 173.818 62.8876 173.818ZM25.6379 173.654C25.5832 173.654 25.5285 173.643 25.4738 173.621C24.4235 173.096 23.3898 172.505 22.3888 171.882C22.2247 171.783 22.1754 171.57 22.2739 171.406C22.3723 171.242 22.5857 171.193 22.7498 171.291C23.7343 171.898 24.7517 172.473 25.7855 172.998C25.9661 173.08 26.0317 173.293 25.9496 173.474C25.884 173.588 25.7527 173.654 25.6379 173.654ZM69.9929 169.338C69.8945 169.338 69.796 169.289 69.714 169.207C69.5991 169.059 69.632 168.83 69.7797 168.715C70.6986 168.009 71.5847 167.254 72.4216 166.467C72.5693 166.335 72.799 166.335 72.9303 166.483C73.0616 166.614 73.0452 166.844 72.8975 166.975C72.0442 167.779 71.1416 168.551 70.2063 169.273C70.1406 169.322 70.075 169.338 69.9929 169.338ZM18.5489 169.125C18.4669 169.125 18.4012 169.092 18.3356 169.043C17.4167 168.321 16.5141 167.533 15.6608 166.729C15.5132 166.598 15.5131 166.368 15.6444 166.237C15.7757 166.089 15.989 166.089 16.1367 166.22C16.9736 167.008 17.8597 167.779 18.7622 168.501C18.9099 168.616 18.9427 168.83 18.8279 168.994C18.7622 169.076 18.6474 169.125 18.5489 169.125ZM76.0645 163.513C75.9824 163.513 75.9004 163.497 75.8348 163.431C75.6871 163.316 75.6707 163.086 75.802 162.939C76.5404 162.069 77.2624 161.134 77.9352 160.198C78.0501 160.034 78.2634 160.001 78.4275 160.116C78.5752 160.231 78.6244 160.444 78.5095 160.608C77.8203 161.56 77.0983 162.496 76.3271 163.398C76.2614 163.48 76.1629 163.513 76.0645 163.513ZM12.5266 163.25C12.4281 163.25 12.3297 163.218 12.2476 163.136C11.4928 162.233 10.7708 161.281 10.098 160.329C9.98312 160.165 10.0323 159.952 10.18 159.837C10.3441 159.722 10.5575 159.772 10.6723 159.919C11.3287 160.871 12.0507 161.79 12.7892 162.676C12.9204 162.824 12.8876 163.053 12.7399 163.168C12.6743 163.234 12.6086 163.25 12.5266 163.25ZM80.8397 156.588C80.785 156.588 80.7303 156.577 80.6756 156.555C80.5115 156.457 80.4459 156.243 80.5279 156.079C81.0859 155.062 81.611 154.012 82.0868 152.962C82.1689 152.781 82.3658 152.699 82.5463 152.781C82.7268 152.863 82.7924 153.06 82.7268 153.241C82.2509 154.324 81.7094 155.39 81.1515 156.408C81.0858 156.522 80.971 156.588 80.8397 156.588ZM7.80065 156.293C7.66937 156.293 7.5545 156.227 7.48886 156.112C6.93093 155.078 6.42223 154.012 5.94635 152.929C5.86431 152.748 5.94635 152.535 6.12686 152.469C6.30736 152.387 6.52069 152.469 6.58633 152.65C7.0458 153.716 7.55451 154.767 8.11243 155.784C8.19448 155.948 8.12884 156.161 7.96474 156.26C7.91004 156.282 7.85534 156.293 7.80065 156.293ZM84.138 148.859C84.1052 148.859 84.0669 148.854 84.0231 148.843C83.8426 148.777 83.7442 148.58 83.7934 148.4C84.138 147.3 84.4498 146.168 84.6959 145.036C84.7288 144.839 84.9257 144.724 85.1062 144.773C85.2867 144.806 85.418 145.003 85.3688 145.183C85.1226 146.332 84.8108 147.481 84.4662 148.613C84.417 148.761 84.2857 148.859 84.138 148.859ZM4.58437 148.515C4.43668 148.515 4.289 148.416 4.25618 148.268C3.91158 147.153 3.6162 145.987 3.38646 144.839C3.33723 144.658 3.46851 144.461 3.64901 144.429C3.84593 144.396 4.02643 144.511 4.05925 144.691C4.3054 145.84 4.58437 146.972 4.91256 148.072C4.9782 148.252 4.86333 148.449 4.68282 148.515C4.65001 148.515 4.61719 148.515 4.58437 148.515ZM85.7954 140.605C85.7844 140.605 85.7735 140.605 85.7626 140.605C85.5657 140.589 85.4344 140.408 85.4508 140.228C85.5657 139.079 85.6313 137.898 85.6313 136.749C85.6477 136.552 85.7954 136.388 85.9923 136.404C86.1892 136.404 86.3369 136.568 86.3369 136.749C86.3205 137.93 86.2549 139.112 86.14 140.293C86.1236 140.474 85.9759 140.605 85.7954 140.605ZM2.99263 140.261C2.81212 140.261 2.66444 140.129 2.64803 139.949C2.53317 138.767 2.48394 137.586 2.48394 136.404C2.46753 136.207 2.63162 136.06 2.82853 136.06C3.02545 136.06 3.17313 136.207 3.17313 136.404C3.18954 137.553 3.23877 138.734 3.33723 139.883C3.35364 140.08 3.22238 140.244 3.02546 140.261C3.01452 140.261 3.00357 140.261 2.99263 140.261ZM85.7626 132.187C85.5821 132.187 85.4344 132.056 85.4016 131.875C85.2867 130.727 85.1062 129.578 84.8929 128.429V128.396C84.8436 128.199 84.9749 128.019 85.1554 127.986C85.3523 127.953 85.5328 128.068 85.5657 128.265L85.582 128.298C85.7954 129.463 85.9759 130.645 86.1072 131.81C86.1236 131.99 85.9759 132.171 85.7954 132.187C85.7844 132.187 85.7735 132.187 85.7626 132.187ZM3.09108 131.842C3.08014 131.842 3.06921 131.842 3.05827 131.842C2.86136 131.826 2.71367 131.646 2.74649 131.465C2.87776 130.284 3.05828 129.118 3.28801 127.953C3.33724 127.773 3.51774 127.642 3.69825 127.691C3.89516 127.724 4.01002 127.904 3.9772 128.101C3.74747 129.233 3.56698 130.382 3.4357 131.531C3.41929 131.711 3.27159 131.842 3.09108 131.842ZM84.0231 123.917C83.8755 123.917 83.7278 123.818 83.6786 123.67C83.334 122.571 82.9237 121.472 82.4971 120.405C82.415 120.224 82.4971 120.028 82.6776 119.945C82.8581 119.88 83.055 119.962 83.137 120.142C83.5801 121.225 83.9903 122.341 84.3513 123.457C84.4006 123.638 84.3021 123.835 84.1216 123.9C84.0888 123.911 84.056 123.917 84.0231 123.917ZM4.89614 123.621C4.85238 123.621 4.8141 123.616 4.78128 123.605C4.60077 123.556 4.50231 123.359 4.55154 123.162C4.92896 122.046 5.3392 120.93 5.79866 119.863C5.88071 119.683 6.07764 119.601 6.25814 119.667C6.43865 119.749 6.52069 119.945 6.43864 120.126C5.99558 121.193 5.58534 122.292 5.22433 123.391C5.1751 123.539 5.02741 123.621 4.89614 123.621ZM80.6756 116.204C80.5443 116.204 80.4295 116.138 80.3638 116.024C79.7895 115.006 79.1823 114.022 78.5259 113.07C78.4275 112.906 78.4603 112.692 78.6244 112.578C78.7885 112.463 79.0018 112.512 79.1167 112.676C79.7731 113.644 80.3966 114.662 80.971 115.679C81.0694 115.843 81.0038 116.056 80.8397 116.155C80.785 116.188 80.7303 116.204 80.6756 116.204ZM8.30934 115.942C8.2437 115.942 8.18354 115.925 8.12884 115.892C7.96474 115.794 7.9155 115.581 7.99755 115.416C8.5883 114.399 9.22827 113.382 9.88465 112.413C9.99952 112.266 10.2128 112.217 10.3769 112.331C10.541 112.446 10.5739 112.66 10.459 112.824C9.80261 113.775 9.17905 114.76 8.60472 115.761C8.53908 115.876 8.42421 115.942 8.30934 115.942ZM75.8348 109.328C75.7363 109.328 75.6379 109.279 75.5558 109.197C74.801 108.327 73.9969 107.474 73.1764 106.67C73.0287 106.539 73.0287 106.326 73.16 106.178C73.2913 106.047 73.521 106.047 73.6523 106.178C74.5056 106.998 75.3261 107.852 76.0973 108.754C76.2122 108.885 76.1958 109.115 76.0481 109.246C75.9825 109.296 75.9004 109.328 75.8348 109.328ZM13.1994 109.099C13.1174 109.099 13.0353 109.066 12.9697 109C12.822 108.885 12.8056 108.656 12.9368 108.508C13.7081 107.638 14.5286 106.769 15.3819 105.965C15.5131 105.817 15.7429 105.833 15.8742 105.965C16.0054 106.112 16.0054 106.326 15.8577 106.457C15.0373 107.261 14.2168 108.114 13.462 108.984C13.3963 109.05 13.2979 109.099 13.1994 109.099ZM69.6976 103.569C69.632 103.569 69.5499 103.536 69.4843 103.487C68.5653 102.781 67.6136 102.125 66.629 101.501C66.4813 101.386 66.4321 101.173 66.5305 101.009C66.629 100.845 66.8423 100.795 67.0064 100.91C68.0074 101.534 68.9755 102.223 69.9109 102.945C70.0586 103.06 70.0914 103.273 69.9766 103.421C69.9109 103.519 69.7961 103.569 69.6976 103.569ZM19.353 103.372C19.2545 103.372 19.1397 103.323 19.074 103.241C18.9592 103.076 18.992 102.863 19.1397 102.748C20.0914 102.026 21.0596 101.353 22.0606 100.73C22.2247 100.631 22.438 100.681 22.5364 100.845C22.6349 101.009 22.5857 101.222 22.438 101.321C21.4534 101.944 20.4852 102.601 19.5663 103.306C19.5007 103.355 19.435 103.372 19.353 103.372ZM62.543 99.1545C62.4883 99.1545 62.4336 99.1381 62.3789 99.1053C61.3451 98.613 60.2785 98.1371 59.1955 97.7269C59.015 97.6613 58.9165 97.4479 58.9985 97.2674C59.0642 97.0869 59.2611 97.0049 59.4416 97.0705C60.5411 97.4972 61.6405 97.9731 62.6907 98.4818C62.8712 98.5638 62.9368 98.7771 62.8548 98.9576C62.7891 99.0725 62.6743 99.1545 62.543 99.1545ZM26.5404 99.0069C26.4255 99.0069 26.2942 98.9412 26.2286 98.8099C26.1465 98.6294 26.2286 98.4325 26.3927 98.3505C27.4593 97.8418 28.5588 97.3823 29.6582 96.9557C29.8387 96.89 30.0356 96.9885 30.1013 97.169C30.1669 97.3495 30.0849 97.5464 29.9043 97.612C28.8213 98.0223 27.7383 98.4818 26.7045 98.974C26.6498 98.9959 26.5951 99.0069 26.5404 99.0069ZM54.6336 96.25C54.6117 96.25 54.5844 96.25 54.5516 96.25C53.4357 95.9547 52.287 95.7249 51.1384 95.528C50.9578 95.4952 50.8266 95.3147 50.8594 95.1342C50.8922 94.9373 51.0727 94.806 51.2532 94.8388C52.4183 95.0357 53.5834 95.2819 54.7156 95.5608C54.9126 95.6101 55.0274 95.807 54.9782 95.9875C54.9289 96.1516 54.7977 96.25 54.6336 96.25ZM34.4662 96.1844C34.3185 96.1844 34.1708 96.0859 34.138 95.9218C34.0888 95.7413 34.2037 95.5444 34.3842 95.4952C35.0898 95.3311 35.7954 95.1834 36.501 95.0357C36.9441 94.9537 37.4035 94.8716 37.863 94.806C38.0435 94.7732 38.224 94.9044 38.2568 95.1014C38.2896 95.2819 38.1584 95.4624 37.9614 95.4952C37.5184 95.5608 37.0753 95.6429 36.6323 95.7249C35.9431 95.8562 35.2375 96.0203 34.5483 96.1844C34.5264 96.1844 34.499 96.1844 34.4662 96.1844ZM46.3139 95.0193C46.303 95.0193 46.2975 95.0193 46.2975 95.0193C45.6904 94.9865 45.0668 94.9865 44.4597 94.9865C43.9181 94.9865 43.3602 94.9865 42.8187 95.0193C42.6218 95.0193 42.4577 94.8716 42.4577 94.6747C42.4413 94.4778 42.589 94.3301 42.7859 94.3137C43.3438 94.2973 43.9017 94.2809 44.4597 94.2809C45.0832 94.2809 45.7068 94.2973 46.3303 94.3301C46.5272 94.3301 46.6749 94.4942 46.6585 94.6911C46.6585 94.8716 46.4944 95.0193 46.3139 95.0193Z" fill="#FFD1BD"/>
<path d="M172.225 146.348C172.028 146.37 171.825 146.387 171.617 146.398C171.421 146.398 171.256 146.25 171.256 146.07C171.24 145.873 171.388 145.709 171.585 145.692C172.717 145.626 173.882 145.544 175.014 145.413C175.211 145.397 175.375 145.544 175.408 145.725C175.425 145.922 175.277 146.102 175.096 146.119C174.145 146.217 173.176 146.299 172.225 146.348ZM166.777 146.513C166.766 146.513 166.755 146.513 166.744 146.513C165.595 146.496 164.43 146.447 163.265 146.381C163.085 146.381 162.937 146.217 162.937 146.02C162.953 145.823 163.117 145.676 163.314 145.692C164.447 145.758 165.612 145.791 166.76 145.807C166.957 145.807 167.105 145.971 167.105 146.168C167.105 146.348 166.957 146.496 166.777 146.513ZM179.888 145.462C179.707 145.462 179.543 145.348 179.511 145.167C179.478 144.97 179.609 144.79 179.806 144.757C180.938 144.576 182.07 144.347 183.186 144.1C183.367 144.068 183.564 144.182 183.596 144.379C183.646 144.56 183.514 144.74 183.334 144.79C182.202 145.036 181.053 145.265 179.921 145.446C179.91 145.457 179.899 145.462 179.888 145.462ZM158.49 145.955C158.468 145.955 158.446 145.949 158.424 145.938C157.276 145.807 156.11 145.626 154.978 145.43C154.798 145.397 154.666 145.216 154.699 145.019C154.732 144.839 154.913 144.708 155.093 144.74C156.225 144.937 157.374 145.101 158.506 145.249C158.703 145.282 158.834 145.446 158.818 145.643C158.785 145.807 158.654 145.938 158.49 145.955ZM187.978 143.592C187.814 143.608 187.666 143.51 187.617 143.346C187.568 143.165 187.666 142.968 187.863 142.919C188.962 142.591 190.062 142.246 191.145 141.869C191.325 141.819 191.522 141.918 191.588 142.098C191.654 142.279 191.555 142.476 191.375 142.541C190.275 142.902 189.159 143.263 188.06 143.592C188.027 143.592 188 143.592 187.978 143.592ZM150.318 144.445C150.274 144.445 150.236 144.44 150.203 144.429C149.087 144.15 147.955 143.854 146.839 143.526C146.659 143.46 146.544 143.263 146.609 143.083C146.659 142.902 146.855 142.788 147.036 142.853C148.135 143.181 149.251 143.477 150.367 143.756C150.564 143.789 150.679 143.985 150.63 144.166C150.597 144.33 150.466 144.429 150.318 144.445ZM195.805 140.835C195.674 140.835 195.526 140.753 195.461 140.622C195.395 140.441 195.477 140.228 195.658 140.162C196.708 139.719 197.774 139.243 198.792 138.751C198.972 138.669 199.186 138.734 199.268 138.915C199.35 139.079 199.268 139.292 199.104 139.374C198.053 139.883 196.987 140.359 195.92 140.802C195.887 140.813 195.849 140.824 195.805 140.835ZM142.359 142C142.305 142 142.255 141.994 142.212 141.984C141.128 141.573 140.045 141.147 138.979 140.687C138.798 140.622 138.716 140.408 138.782 140.228C138.864 140.047 139.077 139.965 139.241 140.047C140.308 140.49 141.375 140.933 142.458 141.327C142.638 141.393 142.72 141.59 142.655 141.77C142.605 141.901 142.49 141.984 142.359 142ZM203.272 137.176C203.14 137.192 203.009 137.126 202.943 137.011C202.845 136.831 202.911 136.618 203.075 136.536C204.076 135.961 205.06 135.37 206.028 134.763C206.192 134.665 206.406 134.714 206.521 134.878C206.619 135.042 206.57 135.256 206.406 135.354C205.421 135.978 204.42 136.568 203.419 137.143C203.376 137.165 203.326 137.176 203.272 137.176ZM134.729 138.669C134.674 138.669 134.614 138.658 134.548 138.636C133.531 138.111 132.497 137.553 131.48 136.979C131.316 136.88 131.266 136.683 131.365 136.503C131.447 136.339 131.66 136.273 131.841 136.371C132.825 136.946 133.843 137.487 134.876 138.012C135.041 138.094 135.106 138.308 135.024 138.472C134.975 138.587 134.86 138.669 134.729 138.669ZM210.262 132.712C210.147 132.712 210.016 132.663 209.95 132.564C209.835 132.4 209.868 132.187 210.032 132.072C210.951 131.399 211.87 130.694 212.773 129.988C212.92 129.873 213.134 129.89 213.265 130.037C213.38 130.185 213.347 130.415 213.199 130.53C212.297 131.252 211.378 131.957 210.443 132.646C210.388 132.679 210.328 132.701 210.262 132.712ZM127.541 134.501C127.476 134.501 127.394 134.484 127.328 134.435C126.376 133.795 125.408 133.139 124.473 132.45C124.325 132.335 124.276 132.121 124.391 131.957C124.506 131.81 124.735 131.777 124.883 131.892C125.802 132.564 126.754 133.221 127.722 133.861C127.886 133.959 127.919 134.173 127.82 134.337C127.755 134.435 127.656 134.484 127.541 134.501ZM216.695 127.461C216.596 127.461 216.481 127.428 216.416 127.346C216.284 127.198 216.284 126.985 216.432 126.854C217.269 126.083 218.106 125.279 218.91 124.475C219.058 124.327 219.271 124.327 219.419 124.458C219.55 124.606 219.55 124.819 219.419 124.967C218.598 125.771 217.761 126.591 216.908 127.363C216.842 127.428 216.76 127.445 216.695 127.461ZM120.879 129.529C120.797 129.545 120.699 129.512 120.633 129.447C119.747 128.708 118.877 127.937 118.024 127.149C117.876 127.018 117.876 126.805 118.007 126.657C118.122 126.526 118.352 126.509 118.5 126.641C119.337 127.412 120.206 128.183 121.076 128.922C121.224 129.036 121.256 129.266 121.125 129.414C121.06 129.479 120.978 129.529 120.879 129.529ZM222.487 121.504C222.405 121.521 222.307 121.488 222.241 121.422C222.093 121.307 222.077 121.078 222.208 120.93C222.947 120.077 223.701 119.174 224.407 118.288C224.522 118.124 224.735 118.108 224.899 118.222C225.047 118.337 225.063 118.567 224.949 118.715C224.227 119.617 223.488 120.52 222.733 121.39C222.668 121.472 222.586 121.504 222.487 121.504ZM114.824 123.851C114.725 123.851 114.627 123.818 114.545 123.736C113.757 122.899 112.97 122.046 112.215 121.16C112.084 121.012 112.1 120.799 112.248 120.667C112.395 120.553 112.609 120.569 112.74 120.717C113.478 121.57 114.266 122.423 115.054 123.26C115.185 123.391 115.185 123.621 115.037 123.752C114.972 123.818 114.906 123.851 114.824 123.851ZM227.574 114.941C227.509 114.941 227.426 114.924 227.361 114.875C227.197 114.776 227.164 114.563 227.262 114.399C227.919 113.447 228.559 112.479 229.149 111.511C229.248 111.347 229.478 111.298 229.642 111.396C229.806 111.495 229.855 111.708 229.74 111.872C229.133 112.857 228.493 113.841 227.837 114.793C227.788 114.891 227.673 114.941 227.574 114.941ZM109.458 117.517C109.343 117.517 109.228 117.484 109.146 117.386C108.457 116.467 107.768 115.515 107.128 114.563C107.013 114.399 107.062 114.186 107.21 114.071C107.374 113.956 107.587 114.005 107.702 114.169C108.342 115.105 109.015 116.04 109.704 116.959C109.819 117.107 109.786 117.336 109.639 117.451C109.584 117.495 109.524 117.517 109.458 117.517ZM231.89 107.835C231.824 107.846 231.764 107.835 231.709 107.802C231.529 107.704 231.463 107.491 231.562 107.326C232.103 106.309 232.612 105.275 233.104 104.241C233.186 104.061 233.4 103.995 233.58 104.077C233.744 104.159 233.826 104.373 233.744 104.537C233.252 105.587 232.727 106.637 232.169 107.655C232.12 107.77 232.005 107.835 231.89 107.835ZM104.847 110.625C104.716 110.625 104.584 110.559 104.519 110.444C103.928 109.46 103.37 108.426 102.829 107.409C102.73 107.244 102.796 107.031 102.976 106.949C103.14 106.851 103.354 106.916 103.452 107.08C103.977 108.098 104.535 109.115 105.109 110.1C105.208 110.264 105.159 110.477 104.995 110.576C104.94 110.597 104.891 110.614 104.847 110.625ZM235.369 100.287C235.314 100.287 235.265 100.276 235.221 100.254C235.041 100.188 234.959 99.9914 235.024 99.8109C235.434 98.7443 235.845 97.6448 236.206 96.5618C236.271 96.3813 236.468 96.2829 236.649 96.3485C236.829 96.4141 236.928 96.611 236.862 96.7915C236.501 97.891 236.091 98.9904 235.681 100.057C235.615 100.188 235.5 100.27 235.369 100.287ZM101.04 103.241C100.909 103.241 100.761 103.158 100.712 103.027C100.236 101.977 99.7927 100.894 99.3661 99.8109C99.3005 99.6304 99.3989 99.4335 99.563 99.3678C99.7435 99.2858 99.9568 99.3843 100.022 99.5648C100.433 100.631 100.876 101.698 101.335 102.748C101.417 102.929 101.335 103.126 101.171 103.208C101.127 103.219 101.084 103.23 101.04 103.241ZM237.961 92.3774C237.929 92.3774 237.89 92.3774 237.847 92.3774C237.666 92.3281 237.551 92.1312 237.6 91.9507C237.896 90.8349 238.175 89.7026 238.404 88.5867C238.454 88.3898 238.634 88.275 238.831 88.3242C239.012 88.357 239.127 88.5375 239.094 88.7344C238.848 89.8667 238.569 90.999 238.273 92.1148C238.24 92.2789 238.109 92.3774 237.961 92.3774ZM98.119 95.4624C97.9713 95.4624 97.8236 95.3639 97.7744 95.2162C97.4298 94.1168 97.1016 92.9845 96.8062 91.8687C96.757 91.6882 96.8718 91.4912 97.0688 91.442C97.2493 91.3928 97.4462 91.5077 97.4954 91.6882C97.7744 92.804 98.0862 93.9199 98.4308 95.0029C98.4964 95.1834 98.3815 95.3803 98.201 95.446C98.1792 95.4569 98.1518 95.4624 98.119 95.4624ZM239.635 84.2382C239.613 84.2382 239.586 84.2382 239.553 84.2382C239.373 84.2054 239.241 84.0249 239.258 83.828C239.422 82.7121 239.57 81.547 239.684 80.4148C239.701 80.2179 239.865 80.0866 240.062 80.103C240.259 80.1194 240.39 80.2835 240.374 80.4804C240.259 81.6291 240.127 82.7942 239.963 83.9428C239.931 84.1069 239.799 84.2218 239.635 84.2382ZM96.1006 87.4053C95.9365 87.4053 95.7724 87.2904 95.7396 87.1099C95.5263 85.9776 95.3294 84.8289 95.1653 83.6803C95.1489 83.4834 95.2801 83.3193 95.4606 83.2864C95.6576 83.2536 95.8381 83.3849 95.8709 83.5818C96.0186 84.7141 96.2155 85.8627 96.4288 86.9786C96.4616 87.1755 96.3468 87.356 96.1498 87.3888C96.1389 87.3888 96.1225 87.3943 96.1006 87.4053ZM240.357 75.9514C240.346 75.9514 240.335 75.9514 240.324 75.9514C240.127 75.9514 239.98 75.7873 239.98 75.6068C240.013 74.4581 240.029 73.293 239.996 72.1444C239.996 71.9639 240.16 71.7997 240.341 71.7997C240.538 71.7997 240.702 71.9474 240.702 72.1444C240.718 73.293 240.718 74.4581 240.685 75.6232C240.669 75.8037 240.538 75.9514 240.357 75.9514ZM95.0176 79.1512C94.8206 79.1676 94.6566 79.02 94.6402 78.8395C94.6183 78.566 94.6019 78.2925 94.5909 78.019C94.5253 77.1329 94.4925 76.2467 94.4596 75.3606C94.4596 75.1637 94.6074 75.016 94.8043 74.9996C95.0012 74.9996 95.1489 75.1473 95.1653 75.3442C95.1817 76.2139 95.2309 77.1001 95.2801 77.9698C95.302 78.2432 95.3239 78.5167 95.3457 78.7902C95.3622 78.9707 95.2145 79.1512 95.0176 79.1512ZM240.127 67.6481C239.931 67.6645 239.766 67.5168 239.75 67.3363C239.652 66.1877 239.537 65.039 239.389 63.9067L239.373 63.7919C239.34 63.6114 239.471 63.4309 239.668 63.398C239.865 63.3816 240.029 63.5129 240.062 63.7098L240.078 63.8083C240.226 64.9569 240.357 66.122 240.456 67.2707C240.472 67.4676 240.324 67.6317 240.127 67.6481ZM94.8535 70.848C94.8425 70.848 94.8316 70.848 94.8207 70.848C94.6237 70.848 94.476 70.6839 94.4925 70.487C94.5253 69.3383 94.6073 68.1732 94.7058 67.0246C94.7222 66.8276 94.8863 66.68 95.0832 66.6964C95.2801 66.7128 95.4114 66.8769 95.395 67.0738C95.2965 68.2225 95.2309 69.3711 95.1817 70.5198C95.1817 70.7003 95.034 70.848 94.8535 70.848ZM238.946 59.312C238.766 59.3285 238.618 59.2136 238.569 59.0331C238.355 57.9172 238.093 56.785 237.814 55.6691C237.765 55.4886 237.879 55.2917 238.076 55.2425C238.257 55.2097 238.454 55.3081 238.487 55.505C238.782 56.6209 239.028 57.7695 239.258 58.9018C239.291 59.0823 239.176 59.2628 238.979 59.312C238.968 59.312 238.957 59.312 238.946 59.312ZM95.6576 62.5776C95.6247 62.5776 95.5974 62.5776 95.5755 62.5776C95.3786 62.5447 95.2473 62.3642 95.2801 62.1837C95.4606 61.0351 95.674 59.8864 95.9037 58.7377C95.9365 58.5572 96.117 58.4423 96.3139 58.4752C96.4944 58.508 96.6257 58.6885 96.5765 58.8854C96.3467 60.0013 96.1498 61.1499 95.9693 62.2822C95.9529 62.4463 95.8052 62.5776 95.6576 62.5776ZM236.846 51.2714C236.681 51.2878 236.534 51.1893 236.485 51.0416C236.14 49.9422 235.763 48.8427 235.352 47.7761C235.287 47.5956 235.369 47.3987 235.549 47.3331C235.73 47.2674 235.943 47.3495 236.009 47.53C236.419 48.613 236.796 49.7124 237.157 50.8119C237.207 51.0088 237.108 51.2057 236.928 51.2549C236.895 51.2659 236.867 51.2714 236.846 51.2714ZM97.3969 54.4384C97.3532 54.4494 97.3149 54.4494 97.2821 54.4384C97.0852 54.3728 96.9867 54.1923 97.0359 53.9953C97.3477 52.8795 97.6759 51.7636 98.0369 50.6642C98.1026 50.4837 98.2995 50.3852 98.48 50.4345C98.6605 50.5001 98.7589 50.697 98.7097 50.8775C98.3487 51.977 98.0041 53.0764 97.7088 54.1923C97.6595 54.34 97.5446 54.4384 97.3969 54.4384ZM233.843 43.526C233.695 43.5424 233.564 43.4604 233.498 43.3291C233.022 42.2789 232.513 41.2451 232.005 40.2277C231.906 40.0472 231.972 39.8339 232.152 39.7518C232.317 39.6698 232.53 39.7354 232.612 39.8995C233.153 40.9333 233.662 41.9835 234.138 43.0337C234.22 43.2143 234.138 43.4112 233.958 43.4932C233.925 43.5151 233.886 43.526 233.843 43.526ZM100.055 46.5618C100.001 46.5618 99.9514 46.5509 99.9076 46.529C99.7271 46.4634 99.6451 46.2664 99.7107 46.0859C100.137 45.0029 100.613 43.9363 101.089 42.8861C101.171 42.7056 101.384 42.6235 101.549 42.7056C101.729 42.7876 101.811 43.0009 101.729 43.1814C101.237 44.2152 100.777 45.2819 100.351 46.3485C100.301 46.4798 100.187 46.5454 100.055 46.5618ZM229.97 36.1745C229.839 36.1909 229.724 36.1253 229.658 36.0104C229.067 35.0423 228.444 34.0577 227.804 33.106C227.705 32.9583 227.738 32.7285 227.902 32.6301C228.066 32.5152 228.28 32.5644 228.378 32.7285C229.035 33.6803 229.658 34.6649 230.249 35.6494C230.347 35.8135 230.298 36.0269 230.134 36.1253C230.079 36.1581 230.025 36.1745 229.97 36.1745ZM103.6 39.0462C103.534 39.0462 103.474 39.0298 103.419 38.997C103.239 38.8985 103.173 38.7016 103.272 38.5211C103.83 37.5037 104.404 36.4863 105.011 35.5017C105.109 35.3377 105.323 35.2884 105.487 35.3869C105.651 35.4853 105.7 35.6987 105.602 35.8628C105.011 36.8473 104.437 37.8483 103.879 38.8657C103.83 38.9642 103.715 39.0298 103.6 39.0462ZM225.293 29.3317C225.178 29.3317 225.064 29.2989 224.998 29.2005C224.292 28.2979 223.57 27.3954 222.832 26.5257C222.701 26.378 222.717 26.1483 222.865 26.0334C223.012 25.9021 223.226 25.9186 223.357 26.0662C224.112 26.9524 224.834 27.8549 225.539 28.7738C225.654 28.9215 225.638 29.1348 225.474 29.2661C225.419 29.3099 225.359 29.3317 225.293 29.3317ZM107.981 31.9737C107.899 31.9737 107.817 31.9573 107.751 31.908C107.587 31.7932 107.554 31.5799 107.669 31.4158C108.326 30.4804 109.031 29.5287 109.737 28.6261C109.852 28.462 110.065 28.4456 110.229 28.5605C110.377 28.6754 110.41 28.8887 110.278 29.0528C109.589 29.9553 108.9 30.8906 108.244 31.826C108.178 31.908 108.08 31.9737 107.981 31.9737ZM219.862 23.0469C219.763 23.0633 219.648 23.0305 219.583 22.9484C218.779 22.1279 217.958 21.3239 217.121 20.5362C216.99 20.4049 216.974 20.1752 217.105 20.0439C217.236 19.8962 217.466 19.8962 217.597 20.0275C218.45 20.8152 219.271 21.6356 220.075 22.4561C220.223 22.6038 220.206 22.8171 220.075 22.9484C220.009 23.0141 219.927 23.0469 219.862 23.0469ZM113.117 25.4427C113.035 25.4591 112.937 25.4263 112.871 25.3606C112.724 25.2294 112.707 25.016 112.838 24.8683C113.61 23.9986 114.397 23.1453 115.201 22.3249C115.333 22.1772 115.562 22.1772 115.694 22.3084C115.841 22.4397 115.841 22.6694 115.71 22.8007C114.906 23.6212 114.118 24.4745 113.363 25.3278C113.298 25.4099 113.216 25.4427 113.117 25.4427ZM213.741 17.4348C213.659 17.4348 213.56 17.4184 213.495 17.3528C212.609 16.6307 211.69 15.9087 210.771 15.2359C210.623 15.121 210.59 14.9077 210.705 14.7436C210.82 14.5959 211.033 14.5631 211.197 14.678C212.116 15.3672 213.052 16.0892 213.938 16.8112C214.086 16.9425 214.102 17.1558 213.987 17.3035C213.921 17.3856 213.839 17.4348 213.741 17.4348ZM118.976 19.5516C118.877 19.5516 118.762 19.5188 118.697 19.4368C118.565 19.2891 118.565 19.0758 118.713 18.9445C119.583 18.1732 120.469 17.4184 121.355 16.68C121.503 16.5651 121.732 16.5815 121.847 16.7292C121.962 16.8769 121.946 17.1066 121.798 17.2215C120.912 17.9435 120.026 18.6983 119.189 19.4696C119.123 19.5188 119.041 19.5516 118.976 19.5516ZM207.029 12.5447C206.947 12.5447 206.882 12.5283 206.816 12.4791C205.848 11.8719 204.863 11.2648 203.862 10.6905C203.698 10.592 203.649 10.3787 203.747 10.2146C203.846 10.0341 204.059 9.98484 204.223 10.0833C205.224 10.6576 206.225 11.2648 207.193 11.9048C207.358 12.0032 207.39 12.2165 207.292 12.3806C207.226 12.4791 207.128 12.5283 207.029 12.5447ZM125.457 14.3662C125.342 14.3662 125.211 14.317 125.146 14.2185C125.031 14.0544 125.064 13.8411 125.228 13.7262C126.163 13.0534 127.131 12.4135 128.099 11.7899C128.263 11.675 128.477 11.7243 128.592 11.8884C128.69 12.0524 128.641 12.2658 128.477 12.3642C127.525 12.9878 126.557 13.6278 125.638 14.3006C125.583 14.3334 125.523 14.3553 125.457 14.3662ZM199.793 8.44234C199.727 8.44234 199.667 8.43141 199.612 8.40953C198.595 7.90083 197.528 7.40854 196.494 6.94907C196.314 6.86702 196.232 6.67011 196.314 6.48961C196.38 6.3091 196.593 6.22705 196.773 6.30909C197.824 6.76856 198.89 7.26085 199.924 7.76955C200.105 7.86801 200.17 8.06493 200.088 8.24543C200.022 8.3603 199.908 8.42593 199.793 8.44234ZM132.481 9.95202C132.349 9.95202 132.218 9.88639 132.152 9.77152C132.054 9.59102 132.12 9.3941 132.284 9.29564C133.301 8.73771 134.335 8.1962 135.369 7.6875C135.549 7.60546 135.763 7.67109 135.845 7.8516C135.927 8.0157 135.861 8.22902 135.681 8.31107C134.663 8.81976 133.629 9.34487 132.628 9.9028C132.574 9.92468 132.524 9.94108 132.481 9.95202ZM192.146 5.17684C192.091 5.18778 192.042 5.1823 191.998 5.16042C190.915 4.783 189.816 4.40559 188.716 4.0774C188.536 4.01176 188.437 3.83125 188.487 3.63433C188.552 3.45383 188.749 3.35538 188.93 3.40461C190.029 3.74921 191.145 4.11021 192.228 4.50404C192.408 4.56968 192.507 4.7666 192.441 4.9471C192.392 5.09479 192.277 5.17684 192.146 5.17684ZM139.98 6.35833C139.832 6.37474 139.684 6.29269 139.635 6.145C139.553 5.96449 139.635 5.76758 139.816 5.68553C140.882 5.25888 141.982 4.83223 143.065 4.45481C143.245 4.38918 143.459 4.48763 143.524 4.66814C143.574 4.84864 143.491 5.04556 143.311 5.1112C142.228 5.48862 141.145 5.89886 140.078 6.34192C140.045 6.35286 140.013 6.35833 139.98 6.35833ZM184.154 2.83027C184.122 2.83027 184.089 2.8248 184.056 2.81386C182.94 2.5513 181.808 2.32157 180.676 2.10825C180.495 2.07543 180.364 1.89492 180.397 1.71441C180.429 1.5175 180.61 1.38622 180.807 1.41904C181.939 1.63237 183.088 1.87851 184.22 2.14107C184.401 2.1903 184.515 2.3708 184.483 2.55131C184.45 2.7154 184.302 2.81386 184.154 2.83027ZM147.824 3.66716C147.676 3.66716 147.512 3.5687 147.479 3.40461C147.413 3.2241 147.528 3.02718 147.709 2.97795C148.825 2.66617 149.957 2.37079 151.089 2.12465C151.27 2.07542 151.467 2.19029 151.499 2.37079C151.549 2.56771 151.434 2.74822 151.237 2.79745C150.121 3.06 149.005 3.33897 147.906 3.65075C147.884 3.66169 147.856 3.66716 147.824 3.66716ZM175.966 1.40264C175.944 1.40264 175.922 1.40264 175.9 1.40264C174.768 1.27136 173.619 1.1729 172.471 1.09085C172.274 1.07444 172.126 0.910346 172.143 0.713431C172.159 0.532925 172.323 0.385239 172.52 0.385239C173.669 0.467287 174.834 0.582154 175.982 0.713431C176.179 0.72984 176.311 0.910344 176.294 1.09085C176.278 1.27135 176.13 1.38623 175.966 1.40264ZM155.946 1.87851C155.766 1.87851 155.602 1.76364 155.569 1.58314C155.553 1.38622 155.667 1.20572 155.864 1.18931C156.57 1.07445 157.292 0.959579 158.014 0.861121C158.441 0.811892 158.884 0.762659 159.31 0.713431C159.507 0.680612 159.671 0.828296 159.704 1.0088C159.721 1.20572 159.589 1.38623 159.392 1.40264C158.966 1.45186 158.539 1.50109 158.112 1.56673C157.39 1.64878 156.685 1.76364 155.979 1.87851C155.968 1.87851 155.957 1.87851 155.946 1.87851ZM167.679 0.926753C167.668 0.926753 167.657 0.926753 167.646 0.926753C166.514 0.926753 165.349 0.959572 164.2 1.0088C164.003 1.02521 163.856 0.877525 163.839 0.68061C163.823 0.483695 163.971 0.319597 164.168 0.319597C165.333 0.253958 166.498 0.237549 167.646 0.237549C167.843 0.237549 167.991 0.385241 167.991 0.582156C167.991 0.762662 167.86 0.910344 167.679 0.926753Z" fill="#FFD1BD"/>
<path d="M179.15 43.6572V163.792H178.821L169.73 154.947L160.64 163.792H159.688L150.597 154.947L141.49 163.792H140.554L131.48 154.963L122.405 163.792H121.47L112.379 154.947L103.288 163.792H102.336L93.2454 154.947L84.1544 163.792H83.2027L74.1282 154.963L65.0537 163.792H64.4629V10.2637H145.756L179.15 43.6572Z" fill="#FFE2D5"/>
<path d="M179.15 43.6572H145.756V10.2637L179.15 43.6572Z" fill="#FF4D02"/>
<path fill-rule="evenodd" clip-rule="evenodd" d="M95.3294 106.145V101.665H83.2027C81.6711 101.665 80.5224 101.315 79.7566 100.615C78.9909 99.9256 78.608 98.9848 78.608 97.7923C78.608 97.486 78.6627 97.1742 78.7721 96.857C78.8815 96.5507 79.051 96.2225 79.2808 95.8724C79.5105 95.5223 79.7457 95.1887 79.9864 94.8714C80.2271 94.5542 80.5224 94.1603 80.8725 93.6899L93.672 76.5583C94.5143 75.4315 95.2036 74.6165 95.7396 74.1133C96.2866 73.5991 96.9375 73.342 97.6923 73.342C100.143 73.342 101.368 74.7478 101.368 77.5593V96.2498H102.402C103.638 96.2498 104.634 96.4194 105.388 96.7585C106.132 97.0977 106.504 97.8361 106.504 98.9738C106.504 99.9146 106.198 100.598 105.585 101.025C104.973 101.452 104.054 101.665 102.829 101.665H101.368V106.145C101.368 107.392 101.089 108.316 100.531 108.918C99.9842 109.52 99.2567 109.821 98.3487 109.821C97.4407 109.821 96.7078 109.514 96.1498 108.902C95.6029 108.278 95.3294 107.359 95.3294 106.145ZM84.9421 96.2498H95.3294V82.2196L84.9421 96.2498Z" fill="#FF4D02"/>
<path fill-rule="evenodd" clip-rule="evenodd" d="M134.45 91.852C134.45 94.4885 134.291 96.7585 133.974 98.662C133.646 100.566 133.049 102.289 132.185 103.831C131.091 105.735 129.675 107.2 127.935 108.229C126.196 109.257 124.265 109.771 122.143 109.771C119.692 109.771 117.493 109.082 115.546 107.704C113.61 106.314 112.149 104.394 111.165 101.944C110.672 100.609 110.306 99.1324 110.065 97.5133C109.835 95.8943 109.721 94.1439 109.721 92.2623C109.721 89.8337 109.846 87.6457 110.098 85.6984C110.361 83.7512 110.765 82.0719 111.312 80.6607C112.264 78.3524 113.642 76.5856 115.447 75.3604C117.263 74.1461 119.43 73.5389 121.946 73.5389C123.598 73.5389 125.102 73.8124 126.458 74.3594C127.815 74.8955 129.002 75.6831 130.019 76.7224C131.048 77.7617 131.912 79.0471 132.612 80.5786C133.837 83.226 134.45 86.9839 134.45 91.852ZM127.837 91.3761C127.837 88.4224 127.662 86.0102 127.312 84.1395C126.951 82.2579 126.354 80.8412 125.523 79.8894C124.681 78.9267 123.521 78.4454 122.044 78.4454C119.911 78.4454 118.429 79.5175 117.597 81.6617C116.777 83.8059 116.366 87.1042 116.366 91.5567C116.366 94.587 116.541 97.0703 116.892 99.0066C117.242 100.932 117.838 102.392 118.68 103.388C119.523 104.373 120.66 104.865 122.093 104.865C123.57 104.865 124.73 104.351 125.572 103.322C126.404 102.294 126.989 100.823 127.328 98.9081C127.667 96.9937 127.837 94.483 127.837 91.3761Z" fill="#FF4D02"/>
<path fill-rule="evenodd" clip-rule="evenodd" d="M154.108 106.145V101.665H141.998C140.467 101.665 139.318 101.315 138.552 100.615C137.786 99.9256 137.404 98.9848 137.404 97.7923C137.404 97.486 137.458 97.1742 137.568 96.857C137.677 96.5507 137.847 96.2225 138.076 95.8724C138.306 95.5223 138.541 95.1887 138.782 94.8714C139.023 94.5542 139.318 94.1603 139.668 93.6899L152.468 76.5583C153.31 75.4315 153.999 74.6165 154.535 74.1133C155.082 73.5991 155.733 73.342 156.488 73.342C158.938 73.342 160.164 74.7478 160.164 77.5593V96.2498H161.197C162.434 96.2498 163.429 96.4194 164.184 96.7585C164.928 97.0977 165.3 97.8361 165.3 98.9738C165.3 99.9146 164.994 100.598 164.381 101.025C163.768 101.452 162.849 101.665 161.624 101.665H160.164V106.145C160.153 107.392 159.874 108.316 159.327 108.918C158.78 109.52 158.047 109.821 157.128 109.821C156.231 109.821 155.503 109.514 154.945 108.902C154.387 108.278 154.108 107.359 154.108 106.145ZM143.738 96.2498H154.108V82.2196L143.738 96.2498Z" fill="#FF4D02"/>
<path d="M120.912 199.056C119.337 200.631 116.76 200.631 115.185 199.056L90.6198 174.491L87.502 171.373C89.7829 169.88 91.7357 167.927 93.2289 165.662L120.912 193.345C122.487 194.921 122.487 197.481 120.912 199.056Z" fill="#FF4D02"/>
<path d="M94.4761 166.893L100.876 173.293C99.3661 175.574 97.4298 177.527 95.1488 179.02L91.8669 175.738L88.7491 172.62C91.03 171.127 92.9664 169.174 94.4761 166.893Z" fill="#FFB494"/>
<path fill-rule="evenodd" clip-rule="evenodd" d="M100.876 154.619C100.876 156.965 100.548 159.23 99.924 161.38C99.1528 164.054 97.9385 166.565 96.3467 168.78C94.7714 170.996 92.8351 172.916 90.6198 174.491C86.6323 177.346 81.7422 179.02 76.4747 179.02C71.7488 179.02 67.3182 177.674 63.5768 175.344C63.0408 175.005 62.5156 174.649 62.0015 174.278C58.8673 171.947 56.3073 168.912 54.5679 165.367C53.3536 162.906 52.5496 160.214 52.2378 157.376C52.1284 156.479 52.0737 155.56 52.0737 154.619C52.0737 141.147 63.0025 130.218 76.4747 130.218C82.5955 130.218 88.1912 132.482 92.4741 136.207C96.6421 139.834 99.563 144.839 100.531 150.516C100.695 151.512 100.799 152.529 100.843 153.569C100.865 153.919 100.876 154.269 100.876 154.619ZM81.7422 173.982C83.1534 173.605 84.5155 173.063 85.779 172.39C86.3697 172.084 86.9441 171.745 87.502 171.373C89.7829 169.88 91.7192 167.927 93.2289 165.662C94.394 163.89 95.2965 161.921 95.8545 159.804C96.2155 158.442 96.4452 157.015 96.5108 155.538C96.5218 155.231 96.5273 154.925 96.5273 154.619C96.5273 148.646 93.9181 143.28 89.7665 139.604C86.8456 137.011 83.1535 135.272 79.0839 134.73C78.2306 134.621 77.3608 134.566 76.4747 134.566C74.0133 134.566 71.6667 135.009 69.5007 135.813C62.6743 138.341 57.5873 144.494 56.6027 151.928C56.4824 152.814 56.4222 153.711 56.4222 154.619C56.4222 157.047 56.8489 159.378 57.6366 161.527C59.0314 165.318 61.5092 168.567 64.7255 170.881C68.0238 173.277 72.077 174.688 76.4747 174.688C78.2962 174.688 80.0684 174.442 81.7422 173.982Z" fill="#FF4D02"/>
<path d="M61.2795 156.834C60.2457 156.834 59.4088 155.997 59.4088 154.963C59.4088 150.303 61.2138 145.938 64.5122 142.656C67.7941 139.374 72.159 137.569 76.8029 137.569C77.8367 137.569 78.6736 138.406 78.6736 139.44C78.6736 140.474 77.8367 141.311 76.8029 141.311C73.16 141.311 69.7304 142.722 67.1541 145.298C64.5778 147.891 63.1502 151.304 63.1502 154.963C63.1502 155.997 62.3133 156.834 61.2795 156.834Z" fill="#FFB494"/>
</svg>
