<svg width="17" height="17" viewBox="0 0 17 17" fill="none" xmlns="http://www.w3.org/2000/svg">
<path d="M9.38492 3.72843L9.38492 3.72844C9.37169 3.77786 9.36833 3.8294 9.37503 3.88011C9.38174 3.93082 9.39837 3.97972 9.42399 4.024C9.44961 4.06828 9.48371 4.10707 9.52433 4.13816C9.56495 4.16925 9.61131 4.19202 9.66074 4.20518L9.65264 4.23563L9.66059 4.20514C10.3027 4.37253 10.8886 4.70813 11.3578 5.17737C11.8271 5.64659 12.1627 6.23245 12.3301 6.87456M9.38492 3.72843L12.2995 6.88258M9.38492 3.72843C9.39813 3.67904 9.42094 3.63274 9.45205 3.59217C9.48317 3.5516 9.52197 3.51756 9.56624 3.49199C9.61051 3.46642 9.65939 3.44982 9.71008 3.44315C9.76077 3.43647 9.81227 3.43985 9.86166 3.45309L9.86186 3.45315C10.6364 3.65523 11.3431 4.06013 11.9091 4.62614C12.4751 5.19215 12.88 5.89882 13.0821 6.67335L13.0821 6.67355C13.0954 6.72294 13.0987 6.77444 13.0921 6.82513C13.0854 6.87582 13.0688 6.9247 13.0432 6.96897C13.0177 7.01325 12.9836 7.05205 12.943 7.08316C12.9025 7.11427 12.8562 7.13708 12.8068 7.15029L12.8149 7.18078M9.38492 3.72843L12.8149 7.18078M12.3301 6.87456C12.3301 6.87458 12.3301 6.8746 12.3301 6.87462L12.2995 6.88258M12.3301 6.87456C12.33 6.87453 12.33 6.87449 12.33 6.87446L12.2995 6.88258M12.3301 6.87456C12.3522 6.95739 12.401 7.0306 12.4689 7.08283C12.5369 7.13507 12.6203 7.1634 12.706 7.16342M12.2995 6.88258C12.3234 6.97217 12.3762 7.05136 12.4497 7.10785C12.5232 7.16435 12.6134 7.19497 12.7061 7.19498M12.706 7.16342L12.7061 7.19498M12.706 7.16342C12.7401 7.16333 12.774 7.15891 12.8069 7.15026L12.8149 7.18078M12.706 7.16342C12.706 7.16342 12.706 7.16342 12.7061 7.16342L12.7061 7.19498M12.7061 7.19498L12.8149 7.18078M7.52006 6.77425L7.4938 6.75674C7.4851 6.76979 7.4758 6.78207 7.46569 6.79472L6.37101 8.09234L6.35771 8.10811L6.36682 8.12662C6.76387 8.93343 7.60626 9.76836 8.42343 10.1663L8.44198 10.1754L8.45769 10.162L9.73762 9.07297C9.73765 9.07294 9.73768 9.07291 9.73771 9.07289C9.74933 9.06313 9.76149 9.05405 9.77415 9.04569L9.77427 9.04561C9.88628 8.9709 10.0152 8.92529 10.1492 8.91292C10.2833 8.90055 10.4184 8.9218 10.5422 8.97475L10.5482 8.97754L10.5485 8.97768L13.0261 10.0879L13.0265 10.0881C13.1871 10.1573 13.321 10.2767 13.4081 10.4283C13.4952 10.5799 13.5309 10.7556 13.5099 10.9292C13.4171 11.6342 13.0709 12.2812 12.5359 12.7496C12.0008 13.218 11.3136 13.4756 10.6025 13.4744H10.6024C6.44411 13.4744 3.06086 10.0911 3.06086 5.93279L3.06086 5.93273C3.05958 5.22163 3.3172 4.53438 3.7856 3.99934C4.25397 3.46433 4.90106 3.1181 5.60603 3.0253C5.77943 3.00416 5.95502 3.03965 6.1066 3.12648C6.25822 3.21333 6.37769 3.34688 6.44717 3.50721L6.44717 3.50721L6.44733 3.50756L7.5551 5.98065H7.55246L7.5579 5.9932C7.61109 6.11592 7.63306 6.24991 7.62184 6.3832C7.61062 6.51649 7.56657 6.64493 7.49361 6.75704L7.52006 6.77425ZM7.52006 6.77425C7.59586 6.65777 7.64163 6.52433 7.65328 6.38585C7.66494 6.24737 7.64211 6.10816 7.58685 5.98065M7.52006 6.77425C7.51059 6.78845 7.5006 6.80159 7.49008 6.81474L7.58685 5.98065M7.58685 5.98065V5.97434V5.98065ZM12.7061 10.8254L12.7376 10.8274V10.828V10.8595H12.7335C12.6596 11.3658 12.4073 11.8294 12.0214 12.1664C11.6285 12.5095 11.124 12.6978 10.6023 12.696M12.7061 10.8254L3.87076 5.93279M12.7061 10.8254V10.8151M12.7061 10.8254V10.8151M10.6023 12.696L10.6024 12.6644L10.6024 12.696C10.6024 12.696 10.6023 12.696 10.6023 12.696ZM10.6023 12.696C8.80923 12.694 7.09016 11.9809 5.82226 10.713C4.55434 9.44503 3.84116 7.72593 3.8392 5.93282M3.8392 5.93282L3.87076 5.93279M3.8392 5.93282C3.8392 5.93284 3.8392 5.93286 3.8392 5.93287L3.87076 5.93279M3.8392 5.93282C3.83782 5.41085 4.02675 4.90626 4.37062 4.51356C4.71451 4.12084 5.18975 3.86695 5.70737 3.79943L5.74676 3.79429L5.74316 3.83066M3.87076 5.93279C3.86938 5.41847 4.05554 4.92129 4.39436 4.53435C4.72616 4.15544 5.18207 3.90769 5.67975 3.8351C5.6797 3.8326 5.6798 3.83011 5.68005 3.82762L5.71145 3.83072L5.71223 3.83669L5.72301 3.83187L5.74026 3.82416L5.74316 3.83066M5.74316 3.83066L6.84467 6.29594L6.85275 6.31402L6.83998 6.32916L5.74398 7.62868L5.74368 7.62904C5.73373 7.64049 5.72468 7.65271 5.71664 7.66557L5.71633 7.66607L5.71632 7.66606C5.64015 7.78295 5.59546 7.91754 5.58659 8.05677C5.57773 8.19599 5.60497 8.33514 5.66568 8.46073C6.13902 9.42878 7.11564 10.3981 8.0943 10.871C8.22081 10.9312 8.36076 10.9575 8.50047 10.9473C8.64018 10.9372 8.77489 10.8911 8.89142 10.8133L5.74316 3.83066ZM12.7061 10.8151L12.7132 10.7992L10.2414 9.69213L10.2232 9.68399L10.2081 9.69689L8.92751 10.786L12.7061 10.8151ZM10.6471 7.29519L10.6471 7.29518L9.24003 5.8881C9.19065 5.87491 9.14436 5.85212 9.10378 5.82104C9.06321 5.78995 9.02915 5.75118 9.00356 5.70693C8.97797 5.66268 8.96135 5.61383 8.95464 5.56316C8.94793 5.51248 8.95126 5.46099 8.96445 5.4116C8.97765 5.36222 9.00044 5.31592 9.03152 5.27534C9.06261 5.23477 9.10138 5.20071 9.14563 5.17512C9.18988 5.14953 9.23873 5.13291 9.2894 5.1262C9.34007 5.11949 9.39157 5.12282 9.44095 5.13602C10.4377 5.40237 11.1328 6.09752 11.3992 7.09426L11.3992 7.09428C11.4124 7.14367 11.4158 7.19517 11.4091 7.24586C11.4025 7.29655 11.3859 7.34543 11.3603 7.3897C11.3347 7.43397 11.3007 7.47277 11.2601 7.50389C11.2196 7.535 11.1733 7.55781 11.1239 7.57102L11.132 7.60149L11.124 7.57099C11.0911 7.57964 11.0571 7.58406 11.0231 7.58415C10.9373 7.58413 10.854 7.5558 10.786 7.50356C10.718 7.45131 10.6692 7.37806 10.6471 7.29519Z" fill="#FF4D04" stroke="#FF4D04" stroke-width="0.0631093"/>
</svg>
