<svg width="16" height="16" viewBox="0 0 16 16" fill="none" xmlns="http://www.w3.org/2000/svg">
<path d="M9.82313 6.17673C9.79989 6.15351 9.78145 6.12594 9.76887 6.09559C9.75629 6.06524 9.74981 6.03271 9.74981 5.99986C9.74981 5.967 9.75629 5.93447 9.76887 5.90412C9.78145 5.87377 9.79989 5.8462 9.82313 5.82298L12.3963 3.24986H10.5C10.4337 3.24986 10.3701 3.22352 10.3232 3.17663C10.2763 3.12975 10.25 3.06616 10.25 2.99986C10.25 2.93355 10.2763 2.86997 10.3232 2.82308C10.3701 2.7762 10.4337 2.74986 10.5 2.74986H13C13.0663 2.74986 13.1299 2.7762 13.1768 2.82308C13.2237 2.86997 13.25 2.93355 13.25 2.99986V5.49986C13.25 5.56616 13.2237 5.62975 13.1768 5.67663C13.1299 5.72352 13.0663 5.74986 13 5.74986C12.9337 5.74986 12.8701 5.72352 12.8232 5.67663C12.7763 5.62975 12.75 5.56616 12.75 5.49986V3.60361L10.1769 6.17673C10.1537 6.19998 10.1261 6.21842 10.0957 6.231C10.0654 6.24358 10.0329 6.25005 10 6.25005C9.96715 6.25005 9.93462 6.24358 9.90427 6.231C9.87392 6.21842 9.84635 6.19998 9.82313 6.17673ZM14.2444 10.9111C14.1407 11.6976 13.7542 12.4195 13.1572 12.9419C12.5601 13.4643 11.7933 13.7515 11 13.7499C6.17501 13.7499 2.25001 9.82486 2.25001 4.99986C2.24836 4.20653 2.53556 3.43974 3.05796 2.84269C3.58036 2.24565 4.30224 1.85918 5.08876 1.75548C5.24989 1.73589 5.41303 1.76911 5.55367 1.85014C5.69432 1.93117 5.80488 2.05564 5.86876 2.20486L7.18751 5.15111C7.2368 5.26535 7.2569 5.39006 7.24599 5.51401C7.23508 5.63795 7.1935 5.75723 7.12501 5.86111C7.11938 5.86923 7.11376 5.87736 7.10751 5.88486L5.78251 7.46048C5.76172 7.495 5.7498 7.53413 5.74784 7.57438C5.74588 7.61463 5.75392 7.65473 5.77126 7.69111C6.26126 8.69423 7.31188 9.73673 8.32688 10.2267C8.36349 10.2439 8.4038 10.2517 8.44417 10.2494C8.48453 10.2471 8.5237 10.2348 8.55813 10.2136L10.1125 8.89361C10.12 8.88723 10.1279 8.88138 10.1363 8.87611C10.2402 8.8072 10.3596 8.76528 10.4838 8.75415C10.608 8.74302 10.733 8.76303 10.8475 8.81236L13.7988 10.1349C13.9466 10.1992 14.0698 10.3094 14.1501 10.4492C14.2303 10.589 14.2634 10.751 14.2444 10.9111ZM13.5975 10.5911L10.6469 9.26861C10.611 9.25355 10.5721 9.24723 10.5333 9.25016C10.4945 9.2531 10.457 9.2652 10.4238 9.28548L8.87501 10.6055L8.85188 10.623C8.7442 10.6949 8.61973 10.7377 8.4906 10.7472C8.36147 10.7567 8.23208 10.7327 8.11501 10.6774C6.99001 10.1342 5.87063 9.02236 5.32751 7.91048C5.27165 7.79431 5.24667 7.6657 5.25499 7.53707C5.26331 7.40843 5.30465 7.28412 5.37501 7.17611C5.38063 7.16736 5.38688 7.15986 5.39313 7.15173L6.71751 5.57673C6.73736 5.54298 6.749 5.50503 6.7515 5.46595C6.754 5.42686 6.74728 5.38774 6.73188 5.35173L5.41063 2.40548C5.39201 2.35981 5.3603 2.32066 5.31949 2.29297C5.27867 2.26528 5.23058 2.25028 5.18126 2.24986C5.17127 2.24924 5.16125 2.24924 5.15126 2.24986C4.48517 2.33812 3.87402 2.66595 3.43209 3.17207C2.99015 3.67819 2.74768 4.32795 2.75001 4.99986C2.75001 9.54861 6.45126 13.2499 11 13.2499C11.6719 13.2522 12.3217 13.0097 12.8278 12.5678C13.3339 12.1258 13.6617 11.5147 13.75 10.8486C13.7558 10.795 13.744 10.7409 13.7165 10.6945C13.6891 10.6481 13.6473 10.6118 13.5975 10.5911Z" fill="#FF4D04"/>
</svg>
