<svg width="29" height="29" viewBox="0 0 29 29" fill="none" xmlns="http://www.w3.org/2000/svg">
<path fill-rule="evenodd" clip-rule="evenodd" d="M14.7292 21.8584C22.4958 21.8584 28.7917 18.6677 28.7917 14.7319C28.7917 10.7962 22.4958 7.60547 14.7292 7.60547C6.96289 7.60547 0.666748 10.7962 0.666748 14.7319C0.666748 18.6677 6.96289 21.8584 14.7292 21.8584Z" fill="#6E81B6"/>
<path fill-rule="evenodd" clip-rule="evenodd" d="M17.5792 17.0338L18.2768 13.4438C18.4342 12.6335 18.3033 12.0291 17.8879 11.6472C17.4854 11.2777 16.8021 11.098 15.7992 11.098H14.5912L14.9367 9.31929C14.9432 9.28618 14.9422 9.25206 14.934 9.21936C14.9257 9.18666 14.9103 9.15619 14.8888 9.13015C14.8674 9.10411 14.8405 9.08314 14.81 9.06874C14.7795 9.05434 14.7461 9.04688 14.7124 9.04688H13.0451C12.9356 9.04688 12.8416 9.12459 12.8206 9.23205L12.0798 13.0433C12.0124 12.6144 11.8465 12.2458 11.5808 11.9416C11.0918 11.3818 10.3182 11.098 9.28147 11.098H6.04991C5.9404 11.098 5.84636 11.1757 5.82545 11.283L4.32615 18.9976C4.31305 19.0648 4.33057 19.1338 4.3741 19.1866C4.41746 19.2394 4.48208 19.2699 4.55061 19.2699H6.23101C6.34052 19.2699 6.43455 19.1922 6.45547 19.0845L6.81818 17.2186H8.06904C8.72542 17.2186 9.27705 17.1475 9.70761 17.0074C10.1479 16.8642 10.5531 16.6214 10.9102 16.2871C11.1987 16.022 11.4371 15.7251 11.6206 15.4049L11.3212 16.9462C11.3081 17.0134 11.3256 17.0827 11.3691 17.1351C11.4125 17.188 11.4773 17.2184 11.5456 17.2184H13.2129C13.3225 17.2184 13.4165 17.1407 13.4374 17.0334L14.2603 12.7988H15.4043C15.8919 12.7988 16.0347 12.8959 16.0736 12.9375C16.1088 12.9756 16.182 13.1098 16.0998 13.5327L15.4366 16.946C15.4303 16.9791 15.4313 17.0132 15.4396 17.0459C15.448 17.0785 15.4634 17.1089 15.4849 17.1349C15.5063 17.1609 15.5332 17.1819 15.5637 17.1963C15.5941 17.2107 15.6274 17.2182 15.6611 17.2183H17.3549C17.4079 17.2184 17.4593 17.2 17.5003 17.1664C17.5412 17.1327 17.5691 17.0858 17.5792 17.0338ZM9.84925 14.0675C9.74451 14.6057 9.54725 14.9895 9.26259 15.2083C8.97352 15.4313 8.51116 15.5442 7.88828 15.5442H7.14348L7.68201 12.7728H8.64499C9.35238 12.7728 9.63738 12.9239 9.75182 13.0506C9.91047 13.2264 9.94414 13.5783 9.84925 14.0675ZM24.6023 11.9416C24.1134 11.3818 23.3399 11.098 22.3031 11.098H19.0716C18.9619 11.098 18.868 11.1757 18.8471 11.283L17.348 18.9976C17.3347 19.0648 17.3522 19.1338 17.3957 19.1866C17.4393 19.2393 17.5041 19.2699 17.5721 19.2699H19.2527C19.3623 19.2699 19.4562 19.1922 19.4771 19.0845L19.8398 17.2186H21.0909C21.7474 17.2186 22.2985 17.1475 22.7293 17.0074C23.1697 16.8642 23.5749 16.6214 23.9318 16.2871C24.2297 16.0135 24.4748 15.7059 24.6605 15.3738C24.8462 15.0417 24.9793 14.6713 25.057 14.2727C25.248 13.2897 25.0951 12.5054 24.6023 11.9416ZM22.9663 14.0675C22.8614 14.6057 22.6641 14.9895 22.3798 15.2083C22.0906 15.4313 21.6282 15.5442 21.0055 15.5442H20.2605L20.7989 12.7728H21.762C22.4694 12.7728 22.7544 12.9239 22.869 13.0506C23.0273 13.2264 23.0612 13.5783 22.9663 14.0675Z" fill="white"/>
<path fill-rule="evenodd" clip-rule="evenodd" d="M8.59724 12.5458C9.2356 12.5458 9.66123 12.6636 9.87396 12.8993C10.0865 13.135 10.1372 13.5397 10.026 14.1129C9.90967 14.71 9.68588 15.1361 9.35429 15.3915C9.0227 15.6469 8.518 15.7745 7.84054 15.7745H6.81821L7.44569 12.5458H8.59724ZM4.50269 19.0429H6.18309L6.58185 16.992H8.0213C8.65642 16.992 9.17898 16.9252 9.58913 16.7917C9.99928 16.6582 10.3722 16.4346 10.7077 16.1205C10.9893 15.8619 11.2172 15.5762 11.3916 15.264C11.5659 14.9518 11.6897 14.6074 11.763 14.2308C11.9409 13.3163 11.8067 12.604 11.3608 12.0938C10.9152 11.5835 10.2059 11.3284 9.23373 11.3284H6.00216L4.50269 19.0429ZM12.9972 9.27734H14.6645L14.2659 11.3284H15.7515C16.6857 11.3284 17.3307 11.4913 17.6854 11.8173C18.0401 12.1433 18.1464 12.6716 18.0046 13.402L17.307 16.992H15.6132L16.2764 13.5785C16.3517 13.1901 16.3242 12.9253 16.1931 12.784C16.062 12.6429 15.7829 12.5722 15.3564 12.5722H14.0239L13.165 16.992H11.4977L12.9972 9.27734ZM21.7143 12.5458C22.3527 12.5458 22.7781 12.6636 22.991 12.8993C23.2036 13.135 23.2541 13.5397 23.1429 14.1129C23.0269 14.71 22.8031 15.1361 22.4714 15.3915C22.1399 15.6469 21.6351 15.7745 20.958 15.7745H19.9356L20.5629 12.5458H21.7143ZM17.6194 19.0429H19.3L19.6986 16.992H21.138C21.7733 16.992 22.2959 16.9252 22.706 16.7917C23.1162 16.6582 23.4891 16.4346 23.8246 16.1205C24.1062 15.8619 24.3341 15.5762 24.5084 15.264C24.6827 14.9518 24.8066 14.6074 24.8801 14.2308C25.0578 13.3163 24.9236 12.604 24.4779 12.0938C24.0319 11.5835 23.3228 11.3284 22.3506 11.3284H19.1191L17.6194 19.0429Z" fill="black"/>
</svg>
