<svg width="24" height="24" viewBox="0 0 24 24" fill="none" xmlns="http://www.w3.org/2000/svg">
<g id="svgviewer-output (24) 1">
<path id="Vector" fill-rule="evenodd" clip-rule="evenodd" d="M13.52 7.57989C13.6745 7.70564 13.8722 7.76563 14.0705 7.74692C14.2688 7.72821 14.4518 7.63231 14.58 7.47989C14.84 7.15989 14.8 6.68989 14.48 6.41989L13.072 5.24989H17C17.69 5.24989 18.25 5.80989 18.25 6.49989V15.3249C17.3406 15.512 16.5329 16.0299 15.9832 16.7782C15.4334 17.5265 15.1808 18.4521 15.2741 19.3759C15.3674 20.2997 15.8001 21.156 16.4883 21.7793C17.1766 22.4025 18.0715 22.7484 19 22.7499C19.9285 22.7484 20.8235 22.4025 21.5117 21.7793C22.2 21.156 22.6326 20.2997 22.7259 19.3759C22.8193 18.4521 22.5666 17.5265 22.0169 16.7782C21.4672 16.0299 20.6595 15.512 19.75 15.3249V6.49989C19.75 4.97989 18.52 3.74989 17 3.74989H13.072L14.48 2.57989C14.5565 2.51708 14.6198 2.43975 14.6663 2.35236C14.7128 2.26497 14.7415 2.16924 14.7508 2.07071C14.7601 1.97217 14.7498 1.87277 14.7205 1.77823C14.6912 1.6837 14.6434 1.59589 14.58 1.51989C14.5172 1.4434 14.4399 1.3801 14.3525 1.33363C14.2651 1.28717 14.1694 1.25846 14.0709 1.24917C13.9723 1.23987 13.8729 1.25017 13.7784 1.27947C13.6838 1.30877 13.596 1.35649 13.52 1.41989L10.52 3.91989C10.4359 3.99133 10.3684 4.0802 10.322 4.18035C10.2757 4.28051 10.2517 4.38954 10.2517 4.49989C10.2517 4.61024 10.2757 4.71927 10.322 4.81942C10.3684 4.91957 10.4359 5.00845 10.52 5.07989L13.52 7.57989ZM16.75 18.9999C16.75 17.7599 17.76 16.7499 19 16.7499C20.24 16.7499 21.25 17.7599 21.25 18.9999C21.25 20.2399 20.24 21.2499 19 21.2499C17.76 21.2499 16.75 20.2399 16.75 18.9999ZM7.00003 20.2499H10.928L9.52003 21.4199C9.40014 21.5182 9.31365 21.6512 9.27247 21.8007C9.23128 21.9501 9.23743 22.1087 9.29006 22.2545C9.34268 22.4003 9.43921 22.5263 9.56635 22.615C9.69349 22.7037 9.84501 22.7508 10 22.7499C10.17 22.7499 10.34 22.6899 10.48 22.5799L13.48 20.0799C13.65 19.9299 13.75 19.7299 13.75 19.4999C13.75 19.2699 13.65 19.0599 13.48 18.9199L10.48 16.4199C10.3257 16.2939 10.1279 16.2337 9.92952 16.2524C9.73114 16.2712 9.54811 16.3672 9.42003 16.5199C9.16003 16.8399 9.20003 17.3099 9.52003 17.5799L10.928 18.7499H7.00003C6.31003 18.7499 5.75003 18.1899 5.75003 17.4999V8.67489C6.65949 8.48772 7.4672 7.9699 8.01691 7.22161C8.56662 6.47331 8.81926 5.54772 8.72594 4.62391C8.63263 3.7001 8.2 2.84373 7.51175 2.22048C6.82349 1.59723 5.92854 1.2514 5.00003 1.24989C4.07153 1.2514 3.17657 1.59723 2.48832 2.22048C1.80007 2.84373 1.36744 3.7001 1.27413 4.62391C1.18081 5.54772 1.43345 6.47331 1.98316 7.22161C2.53287 7.9699 3.34058 8.48772 4.25003 8.67489V17.4999C4.25003 19.0199 5.48003 20.2499 7.00003 20.2499ZM5.00003 7.24989C6.24003 7.24989 7.25003 6.23989 7.25003 4.99989C7.25003 3.75989 6.24003 2.74989 5.00003 2.74989C3.76003 2.74989 2.75003 3.75989 2.75003 4.99989C2.75003 6.23989 3.76003 7.24989 5.00003 7.24989Z" fill="#D0511B"/>
</g>
</svg>
