<svg width="20" height="22" viewBox="0 0 20 22" fill="none" xmlns="http://www.w3.org/2000/svg">
<g id="svgviewer-output (25) 1">
<path id="Vector" fill-rule="evenodd" clip-rule="evenodd" d="M4.96002 19.5849C4.22102 19.5849 3.52302 19.1299 3.04302 18.3339L2.37702 17.2289C2.13302 16.8229 1.94702 16.1559 1.94702 15.6849V5.14689C1.94781 4.34998 2.2646 3.5859 2.82792 3.02221C3.39124 2.45851 4.15511 2.14122 4.95202 2.13989C5.74894 2.14095 6.51291 2.45799 7.07642 3.0215C7.63992 3.585 7.95696 4.34898 7.95802 5.14589V6.71189C7.96914 6.77776 7.96914 6.84502 7.95802 6.91089V15.6759C7.95802 16.1469 7.77102 16.8129 7.52802 17.2199L6.86102 18.3249C6.39802 19.1289 5.69902 19.5849 4.96002 19.5849ZM6.74902 7.42189V15.6769C6.74902 15.9289 6.62702 16.3759 6.49702 16.5949L5.83002 17.6999C5.57802 18.1139 5.26102 18.3579 4.96002 18.3579C4.66002 18.3579 4.34302 18.1219 4.09102 17.6999L3.42502 16.5949C3.27736 16.31 3.19149 15.9972 3.17302 15.6769V7.42189H6.74902ZM6.74902 6.20289H3.17302V5.14689C3.17302 4.16389 3.97802 3.35889 4.96102 3.35889C5.94402 3.35889 6.74802 4.16389 6.74802 5.14689L6.74902 6.20289ZM15.509 19.6089H12.259C10.292 19.6089 9.21202 18.5289 9.21202 16.5619V12.4959C9.21058 12.4716 9.21058 12.4472 9.21202 12.4229V5.18689C9.21202 3.22089 10.292 2.14089 12.258 2.14089H15.508C17.475 2.14089 18.555 3.22089 18.555 5.18689V16.5619C18.555 18.5289 17.468 19.6089 15.509 19.6089ZM10.428 8.64089V6.60889H13.881C14.215 6.60889 14.491 6.33289 14.491 5.99989C14.49 5.83843 14.4254 5.68389 14.3112 5.56972C14.197 5.45555 14.0425 5.39094 13.881 5.38989H10.43V5.18789C10.43 3.90389 10.975 3.35889 12.258 3.35889H15.508C16.792 3.35889 17.337 3.90389 17.337 5.18789V16.5629C17.337 17.8459 16.792 18.3909 15.508 18.3909H12.258C10.975 18.3909 10.43 17.8459 10.43 16.5629V16.3589H13.07C13.404 16.3589 13.68 16.0829 13.68 15.7499C13.679 15.5884 13.6144 15.4339 13.5002 15.3197C13.386 15.2055 13.2315 15.1409 13.07 15.1399H10.43V13.0739L13.883 13.1089C14.0431 13.1084 14.1966 13.0452 14.3106 12.9328C14.4247 12.8205 14.4901 12.6679 14.493 12.5079C14.4949 12.4276 14.4807 12.3477 14.4513 12.2729C14.4219 12.1981 14.3779 12.13 14.3218 12.0724C14.2658 12.0149 14.1988 11.9691 14.1248 11.9378C14.0508 11.9064 13.9714 11.8901 13.891 11.8899L10.431 11.8549V9.85989H12.258C12.592 9.85989 12.868 9.58389 12.868 9.25089C12.867 9.08943 12.8024 8.93489 12.6882 8.82072C12.574 8.70655 12.4195 8.64194 12.258 8.64089H10.43H10.428Z" fill="#D0511B"/>
</g>
</svg>
