<svg width="24" height="24" viewBox="0 0 24 24" fill="none" xmlns="http://www.w3.org/2000/svg">
<g id="SVG">
<path id="Vector" d="M10.7893 15.1694C10.6908 15.1695 10.5931 15.15 10.5021 15.1123C10.411 15.0745 10.3283 15.0192 10.2587 14.9494L7.84001 12.5321C7.70028 12.3908 7.62192 12.2001 7.62192 12.0014C7.62192 11.8027 7.70028 11.612 7.84001 11.4708C7.98123 11.3314 8.17163 11.2533 8.37001 11.2533C8.56839 11.2533 8.75879 11.3314 8.90001 11.4708L10.7907 13.3614L15.0907 9.06143C15.2319 8.92211 15.4223 8.84399 15.6207 8.84399C15.8191 8.84399 16.0095 8.92211 16.1507 9.06143C16.29 9.20265 16.3681 9.39305 16.3681 9.59143C16.3681 9.7898 16.29 9.9802 16.1507 10.1214L11.32 14.9521C11.1797 15.0927 10.9893 15.1718 10.7907 15.1721L10.7893 15.1694Z" fill="#D0511B"/>
<path id="Vector_2" d="M12 22.7507C11.3693 22.7507 10.7387 22.54 10.2493 22.12L8.66933 20.76C8.50933 20.62 8.10933 20.48 7.89867 20.48H6.17867C4.69867 20.48 3.49867 19.28 3.49867 17.8V16.0907C3.49867 15.88 3.35867 15.4907 3.21867 15.3307L1.86933 13.74C1.04933 12.7707 1.04933 11.24 1.86933 10.2693L3.21867 8.68C3.35867 8.52 3.49867 8.13067 3.49867 7.92V6.2C3.49867 4.72 4.69867 3.52 6.17867 3.52H7.90933C8.11867 3.52 8.51867 3.36933 8.67867 3.24L10.2587 1.88C11.2387 1.04 12.7693 1.04 13.7493 1.88L15.3293 3.24C15.4893 3.38 15.8893 3.52 16.0987 3.52H17.7987C19.2787 3.52 20.4787 4.72 20.4787 6.2V7.9C20.4787 8.10933 20.6293 8.51067 20.7693 8.67067L22.1293 10.2493C22.9693 11.2293 22.9693 12.76 22.1293 13.74L20.7693 15.32C20.6046 15.5459 20.5041 15.8122 20.4787 16.0907V17.7893C20.4787 19.2693 19.2787 20.4693 17.7987 20.4693H16.0987C15.8893 20.4693 15.4893 20.62 15.3293 20.7493L13.7493 22.1093C13.2587 22.54 12.6293 22.7493 11.9987 22.7493L12 22.7507ZM6.17733 5.01867C5.86459 5.01937 5.56487 5.14392 5.34373 5.36506C5.12259 5.5862 4.99804 5.88593 4.99733 6.19867V7.908C4.99733 8.47867 4.728 9.208 4.35733 9.63867L3.00933 11.2293C2.65867 11.64 2.65867 12.3493 3.00933 12.76L4.35867 14.3493C4.72933 14.7893 4.99867 15.5093 4.99867 16.08V17.7893C4.99867 18.44 5.52933 18.9693 6.17867 18.9693H7.90933C8.48933 18.9693 9.21867 19.24 9.65867 19.62L11.2387 20.98C11.6493 21.3307 12.3693 21.3307 12.7787 20.98L14.3587 19.62C14.7987 19.2507 15.5293 18.9693 16.1093 18.9693H17.8093C18.1221 18.9686 18.4218 18.8441 18.6429 18.6229C18.8641 18.4018 18.9886 18.1021 18.9893 17.7893V16.0907C18.9893 15.5107 19.2587 14.78 19.6387 14.34L20.9987 12.76C21.3493 12.3493 21.3493 11.6293 20.9987 11.22L19.64 9.64C19.2393 9.14236 19.0114 8.52789 18.9907 7.88933V6.2C18.99 5.88726 18.8654 5.58753 18.6443 5.36639C18.4231 5.14525 18.1234 5.0207 17.8107 5.02H16.1107C15.5307 5.02 14.8 4.74933 14.36 4.36933L12.78 3.00933C12.3707 2.66 11.6507 2.66 11.24 3.00933L9.65867 4.38C9.21867 4.74933 8.47867 5.02 7.90933 5.02H6.17867L6.17733 5.01867Z" fill="#D0511B"/>
</g>
</svg>
