<?xml version="1.0" encoding="UTF-8"?>
<svg xmlns="http://www.w3.org/2000/svg" width="28" height="29" viewBox="0 0 28 29" fill="none">
  <path d="M13.8992 0.648438C6.79109 0.648438 7.23491 3.73094 7.23491 3.73094L7.2428 6.92452H14.026V7.88331H4.54863C4.54863 7.88331 0.00012207 7.36746 0.00012207 14.5395C0.00012207 21.7118 3.97017 21.4574 3.97017 21.4574H6.33948V18.1292C6.33948 18.1292 6.21175 14.1592 10.2462 14.1592H16.9739C16.9739 14.1592 20.7537 14.2202 20.7537 10.5061V4.36499C20.7537 4.36499 21.3278 0.648438 13.8992 0.648438ZM10.159 2.79605C10.3193 2.79591 10.478 2.82737 10.6262 2.88865C10.7743 2.94992 10.9088 3.0398 11.0222 3.15314C11.1355 3.26649 11.2254 3.40107 11.2867 3.54918C11.348 3.6973 11.3794 3.85605 11.3793 4.01634C11.3794 4.17663 11.348 4.33537 11.2867 4.48349C11.2254 4.63161 11.1355 4.76619 11.0222 4.87953C10.9088 4.99287 10.7743 5.08275 10.6262 5.14403C10.478 5.2053 10.3193 5.23676 10.159 5.23662C9.99871 5.23676 9.83996 5.2053 9.69184 5.14403C9.54372 5.08275 9.40914 4.99287 9.2958 4.87953C9.18246 4.76619 9.09258 4.63161 9.0313 4.48349C8.97003 4.33537 8.93856 4.17663 8.93871 4.01634C8.93856 3.85605 8.97003 3.6973 9.0313 3.54918C9.09258 3.40107 9.18246 3.26649 9.2958 3.15314C9.40914 3.0398 9.54372 2.94992 9.69184 2.88865C9.83996 2.82737 9.99871 2.79591 10.159 2.79605Z" fill="url(#paint0_linear_550_2745)"></path>
  <path d="M14.1012 28.5015C21.2093 28.5015 20.7655 25.419 20.7655 25.419L20.7576 22.2256H13.9743V21.2668H23.4517C23.4517 21.2668 28.0002 21.7826 28.0002 14.6103C28.0002 7.43816 24.0301 7.69252 24.0301 7.69252H21.6608V11.0206C21.6608 11.0206 21.7885 14.9907 17.7541 14.9907H11.0264C11.0264 14.9907 7.24661 14.9296 7.24661 18.6439V24.7851C7.24661 24.7851 6.67265 28.5015 14.1011 28.5015H14.1012ZM17.8414 26.3541C17.6811 26.3543 17.5224 26.3228 17.3743 26.2615C17.2261 26.2003 17.0916 26.1104 16.9782 25.997C16.8649 25.8837 16.775 25.7491 16.7137 25.601C16.6524 25.4529 16.621 25.2941 16.6211 25.1339C16.621 24.9736 16.6524 24.8148 16.7137 24.6667C16.775 24.5185 16.8648 24.3839 16.9782 24.2706C17.0915 24.1572 17.2261 24.0673 17.3742 24.0061C17.5224 23.9448 17.6811 23.9133 17.8414 23.9135C18.0017 23.9133 18.1605 23.9448 18.3086 24.0061C18.4567 24.0673 18.5913 24.1572 18.7046 24.2705C18.818 24.3839 18.9078 24.5185 18.9691 24.6666C19.0304 24.8147 19.0618 24.9735 19.0617 25.1337C19.0618 25.294 19.0304 25.4528 18.9691 25.6009C18.9078 25.749 18.818 25.8836 18.7046 25.9969C18.5913 26.1103 18.4567 26.2002 18.3086 26.2614C18.1605 26.3227 18.0017 26.3542 17.8414 26.354V26.3541Z" fill="url(#paint1_linear_550_2745)"></path>
  <defs>
    <linearGradient id="paint0_linear_550_2745" x1="2.69091" y1="3.15376" x2="16.5668" y2="16.8913" gradientUnits="userSpaceOnUse">
      <stop stop-color="#387EB8"></stop>
      <stop offset="1" stop-color="#366994"></stop>
    </linearGradient>
    <linearGradient id="paint1_linear_550_2745" x1="11.208" y1="11.9739" x2="26.1092" y2="26.0605" gradientUnits="userSpaceOnUse">
      <stop stop-color="#FFE052"></stop>
      <stop offset="1" stop-color="#FFC331"></stop>
    </linearGradient>
  </defs>
</svg>
