<svg width="32" height="28" viewBox="0 0 32 28" fill="none" xmlns="http://www.w3.org/2000/svg">
<path id="&#226;&#128;&#156;" opacity="0.6" d="M12.5923 21.6795C12.5923 23.4104 11.9865 24.86 10.7748 26.0284C9.56322 27.1968 8.04868 27.7809 6.23124 27.7809C4.50034 27.7809 3.02907 27.1102 1.81744 25.7688C0.605815 24.4273 0 22.7397 0 20.7059C0 19.2346 0.324544 17.6119 0.973631 15.8377C1.66599 14.0636 2.55308 12.2677 3.63489 10.4503C4.75997 8.63286 6.01487 6.83705 7.39959 5.06288C8.82759 3.24544 10.2556 1.55781 11.6836 0L13.4361 1.42799C11.4888 3.72143 9.86613 6.03651 8.56795 8.37322C7.26978 10.7099 6.49087 13.0034 6.23124 15.2535C7.96214 15.3834 9.45504 16.0325 10.7099 17.2008C11.9648 18.3692 12.5923 19.8621 12.5923 21.6795ZM31.2211 21.6795C31.2211 23.4104 30.6153 24.86 29.4037 26.0284C28.192 27.1968 26.6775 27.7809 24.86 27.7809C23.1291 27.7809 21.6579 27.1102 20.4462 25.7688C19.2346 24.4273 18.6288 22.7397 18.6288 20.7059C18.6288 19.2346 18.9533 17.6119 19.6024 15.8377C20.2948 14.0636 21.1819 12.2677 22.2637 10.4503C23.3888 8.63286 24.6437 6.83705 26.0284 5.06288C27.4564 3.24544 28.8844 1.55781 30.3124 0L32 1.42799C30.0527 3.72143 28.43 6.03651 27.1318 8.37322C25.8769 10.7099 25.1197 13.0034 24.86 15.2535C26.5909 15.3834 28.0838 16.0325 29.3387 17.2008C30.5936 18.3692 31.2211 19.8621 31.2211 21.6795Z" fill="#787878"/>
</svg>
