<?xml version="1.0" encoding="UTF-8"?>
<svg xmlns="http://www.w3.org/2000/svg" width="141" height="25" viewBox="0 0 141 25" fill="none">
  <g clip-path="url(#clip0_550_2079)">
    <path d="M22 0.9375H2C0.89543 0.9375 0 1.83293 0 2.9375V22.9375C0 24.0421 0.89543 24.9375 2 24.9375H22C23.1046 24.9375 24 24.0421 24 22.9375V2.9375C24 1.83293 23.1046 0.9375 22 0.9375Z" fill="#00B67A"></path>
    <path d="M11.5 3.9375L13.7426 10.8129H21L15.1287 15.0621L17.3713 21.9375L11.5 17.6883L5.62868 21.9375L7.87132 15.0621L2 10.8129H9.25735L11.5 3.9375Z" fill="white"></path>
    <path d="M51 0.9375H31C29.8954 0.9375 29 1.83293 29 2.9375V22.9375C29 24.0421 29.8954 24.9375 31 24.9375H51C52.1046 24.9375 53 24.0421 53 22.9375V2.9375C53 1.83293 52.1046 0.9375 51 0.9375Z" fill="#00B67A"></path>
    <path d="M41.5 3.9375L43.7426 10.8129H51L45.1287 15.0621L47.3713 21.9375L41.5 17.6883L35.6287 21.9375L37.8713 15.0621L32 10.8129H39.2574L41.5 3.9375Z" fill="white"></path>
    <path d="M81 0.9375H60C58.8954 0.9375 58 1.83293 58 2.9375V22.9375C58 24.0421 58.8954 24.9375 60 24.9375H81C82.1046 24.9375 83 24.0421 83 22.9375V2.9375C83 1.83293 82.1046 0.9375 81 0.9375Z" fill="#00B67A"></path>
    <path d="M70.5 3.9375L72.7426 10.8129H80L74.1287 15.0621L76.3713 21.9375L70.5 17.6883L64.6287 21.9375L66.8713 15.0621L61 10.8129H68.2574L70.5 3.9375Z" fill="white"></path>
    <path d="M110 0.9375H90C88.8954 0.9375 88 1.83293 88 2.9375V22.9375C88 24.0421 88.8954 24.9375 90 24.9375H110C111.105 24.9375 112 24.0421 112 22.9375V2.9375C112 1.83293 111.105 0.9375 110 0.9375Z" fill="#00B67A"></path>
    <path d="M100.5 3.9375L102.743 10.8129H110L104.129 15.0621L106.371 21.9375L100.5 17.6883L94.6287 21.9375L96.8713 15.0621L91 10.8129H98.2574L100.5 3.9375Z" fill="white"></path>
    <path d="M139 0.9375H119C117.895 0.9375 117 1.83293 117 2.9375V22.9375C117 24.0421 117.895 24.9375 119 24.9375H139C140.105 24.9375 141 24.0421 141 22.9375V2.9375C141 1.83293 140.105 0.9375 139 0.9375Z" fill="#00B67A"></path>
    <path d="M129.5 3.9375L131.743 10.8129H139L133.129 15.0621L135.371 21.9375L129.5 17.6883L123.629 21.9375L125.871 15.0621L120 10.8129H127.257L129.5 3.9375Z" fill="white"></path>
  </g>
  <defs>
    <clipPath id="clip0_550_2079">
      <rect width="141" height="24" fill="white" transform="translate(0 0.9375)"></rect>
    </clipPath>
  </defs>
</svg>
