<svg width="28" height="29" viewBox="0 0 28 29" fill="none" xmlns="http://www.w3.org/2000/svg">
<path d="M14.0002 17.0426C15.3635 17.0426 16.4687 15.9374 16.4687 14.574C16.4687 13.2107 15.3635 12.1055 14.0002 12.1055C12.6368 12.1055 11.5316 13.2107 11.5316 14.574C11.5316 15.9374 12.6368 17.0426 14.0002 17.0426Z" fill="#61DAFB"/>
<path d="M14 19.6306C21.3155 19.6306 27.2459 17.3663 27.2459 14.5731C27.2459 11.7799 21.3155 9.51562 14 9.51562C6.68453 9.51562 0.75415 11.7799 0.75415 14.5731C0.75415 17.3663 6.68453 19.6306 14 19.6306Z" stroke="#61DAFB" stroke-width="1.40625"/>
<path d="M9.62014 17.103C13.2779 23.4384 18.204 27.442 20.623 26.0455C23.042 24.6489 22.0378 18.3809 18.38 12.0455C14.7223 5.71007 9.79611 1.70638 7.37714 3.10297C4.95817 4.49956 5.96239 10.7676 9.62014 17.103Z" stroke="#61DAFB" stroke-width="1.40625"/>
<path d="M9.62011 12.0465C5.96236 18.3819 4.95813 24.65 7.37711 26.0465C9.79608 27.4431 14.7222 23.4394 18.38 17.1041C22.0377 10.7687 23.042 4.50065 20.623 3.10406C18.204 1.70747 13.2779 5.71116 9.62011 12.0465Z" stroke="#61DAFB" stroke-width="1.40625"/>
</svg>
