<svg width="1800" height="630" viewBox="0 0 1800 630" fill="none" xmlns="http://www.w3.org/2000/svg">
<g clip-path="url(#clip0_12_711)">
<rect y="-68" width="1800" height="698" rx="24" fill="url(#paint0_linear_12_711)"/>
<rect x="-7.5" y="-75.5" width="1815" height="713" rx="31.5" stroke="url(#paint1_linear_12_711)" stroke-opacity="0.1" stroke-width="15"/>
<g clip-path="url(#clip1_12_711)">
<rect opacity="0.03" x="756" y="54" width="114" height="114" fill="url(#paint2_linear_12_711)"/>
<path fill-rule="evenodd" clip-rule="evenodd" d="M870.5 282V169H983.5V282H870.5ZM869.5 282V169H379V168H869.5V55H379V54H869.5L869.5 -59H379V-60H869.5V-153H870.5V-60H983.5V-153H984.5V-60H1097.5V-153H1098.5V-60H1211.5V-153H1212.5V-60H1325.5V-153H1326.5V-60H1439.5V-153H1440.5V-60H1553.5V-153H1554.5V-60H1667.5V-153H1668.5V-60H1781.5V-153H1782.5V-60H2100.5V-59H1782.5V54H2100.5V55H1782.5V168H2100.5V169H1782.5V282H2100.5V283H1782.5V396H2100.5V397H1782.5V510H2100.5V511H1782.5V624H2100.5V625H1782.5V715H1781.5V625H1668.5V715H1667.5V625H1554.5V715H1553.5V625H1440.5V715H1439.5V625H1326.5V715H1325.5V625H1212.5V715H1211.5V625H1098.5V715H1097.5V625H984.5V715H983.5V625H870.5V715H869.5V625H379V624H869.5V511H379V510H869.5V397H379V396H869.5V283H379V282H869.5ZM870.5 624H983.5V511H870.5V624ZM984.5 624H1097.5V511H984.5V624ZM1098.5 624H1211.5V511H1098.5V624ZM1212.5 624H1325.5V511H1212.5V624ZM1326.5 624H1439.5V511H1326.5V624ZM1440.5 624H1553.5V511H1440.5V624ZM1554.5 624H1667.5V511H1554.5V624ZM1668.5 624H1781.5V511H1668.5V624ZM1781.5 397V510H1668.5V397H1781.5ZM1667.5 397V510H1554.5V397H1667.5ZM1553.5 397V510H1440.5V397H1553.5ZM1439.5 397V510H1326.5V397H1439.5ZM1325.5 397V510H1212.5V397H1325.5ZM1211.5 397V510H1098.5V397H1211.5ZM1097.5 397V510H984.5V397H1097.5ZM983.5 397V510H870.5V397H983.5ZM870.5 396H983.5V283H870.5V396ZM984.5 396H1097.5V283H984.5V396ZM1098.5 396H1211.5V283H1098.5V396ZM1212.5 396H1325.5V283H1212.5V396ZM1326.5 396H1439.5V283H1326.5V396ZM1440.5 396H1553.5V283H1440.5V396ZM1554.5 396H1667.5V283H1554.5V396ZM1668.5 396H1781.5V283H1668.5V396ZM870.5 54L870.5 -59H983.5L983.5 54H870.5ZM984.5 54L984.5 -59H1097.5L1097.5 54H984.5ZM1098.5 54L1098.5 -59H1211.5L1211.5 54H1098.5ZM1212.5 54L1212.5 -59H1325.5L1325.5 54H1212.5ZM1326.5 54L1326.5 -59H1439.5V54H1326.5ZM1440.5 54V-59H1553.5V54H1440.5ZM1554.5 54V-59H1667.5V54H1554.5ZM1668.5 54V-59H1781.5V54H1668.5ZM1781.5 55H1668.5V168H1781.5V55ZM1667.5 55H1554.5V168H1667.5V55ZM1553.5 55H1440.5V168H1553.5V55ZM1439.5 55H1326.5V168H1439.5V55ZM1325.5 55H1212.5V168H1325.5V55ZM1211.5 55H1098.5V168H1211.5V55ZM1097.5 55H984.5V168H1097.5V55ZM983.5 55H870.5V168H983.5V55ZM984.5 282V169H1097.5V282H984.5ZM1098.5 282V169H1211.5V282H1098.5ZM1212.5 282V169H1325.5V282H1212.5ZM1326.5 282V169H1439.5V282H1326.5ZM1440.5 282V169H1553.5V282H1440.5ZM1554.5 282V169H1667.5V282H1554.5ZM1668.5 282V169H1781.5V282H1668.5Z" fill="url(#paint3_radial_12_711)"/>
</g>
</g>
<defs>
<linearGradient id="paint0_linear_12_711" x1="24.0247" y1="-53.194" x2="1107.51" y2="1219.53" gradientUnits="userSpaceOnUse">
<stop stop-color="#FF4D02"/>
<stop offset="1" stop-color="#7F2B07"/>
</linearGradient>
<linearGradient id="paint1_linear_12_711" x1="115.729" y1="-12.4153" x2="367.778" y2="483.644" gradientUnits="userSpaceOnUse">
<stop stop-color="#4F6FDA"/>
<stop offset="1" stop-color="#101526"/>
</linearGradient>
<linearGradient id="paint2_linear_12_711" x1="870" y1="113" x2="756" y2="111" gradientUnits="userSpaceOnUse">
<stop stop-color="white"/>
<stop offset="1" stop-color="white" stop-opacity="0"/>
</linearGradient>
<radialGradient id="paint3_radial_12_711" cx="0" cy="0" r="1" gradientUnits="userSpaceOnUse" gradientTransform="translate(1239.75 281) rotate(88.6726) scale(485.63 963.148)">
<stop stop-color="white" stop-opacity="0.2"/>
<stop offset="1" stop-color="white" stop-opacity="0"/>
</radialGradient>
<clipPath id="clip0_12_711">
<rect width="1800" height="630" rx="60" fill="white"/>
</clipPath>
<clipPath id="clip1_12_711">
<rect width="1288" height="868" fill="white" transform="translate(625 -153)"/>
</clipPath>
</defs>
</svg>
