<?xml version="1.0" encoding="UTF-8"?>
<svg id="Layer_2" xmlns="http://www.w3.org/2000/svg" viewBox="0 0 47.58 47.54">
  <defs>
    <style>
      .cls-1 {
        fill: #fff;
      }
    </style>
  </defs>
  <g id="Layer_1-2" data-name="Layer_1">
    <g>
      <path class="cls-1" d="M34.7,21.77c-7.11,0-12.89,5.78-12.89,12.89s5.78,12.89,12.89,12.89,12.89-5.78,12.89-12.89-5.78-12.89-12.89-12.89ZM41,40.65c-.39.49-.97.74-1.55.74-.43,0-.87-.14-1.24-.43l-4.75-3.8c-.47-.37-.74-.95-.74-1.55v-6.65c0-1.09.89-1.98,1.98-1.98s1.98.89,1.98,1.98v5.7l4.01,3.21c.85.68.99,1.93.31,2.79h0Z"/>
      <path class="cls-1" d="M21.23,24.53c-.85,1.11-1.57,2.36-2.1,3.69h-7.63c-1.09,0-1.98-.89-1.98-1.98s.89-1.98,1.98-1.98h8.74c.36,0,.69.1.99.28h0Z"/>
      <path class="cls-1" d="M30.35,18.3v.08c-1.59.42-3.07,1.05-4.44,1.9h-14.41c-1.09,0-1.98-.89-1.98-1.98s.89-1.98,1.98-1.98h16.87c1.09,0,1.98.89,1.98,1.98h0Z"/>
      <path class="cls-1" d="M30.24,12.35H11.51c-1.09,0-1.98-.89-1.98-1.98s.89-1.98,1.98-1.98h18.73c1.09,0,1.98.89,1.98,1.98s-.89,1.98-1.98,1.98Z"/>
      <path class="cls-1" d="M42.61.32c-.3-.18-.61-.32-.97-.32H9.91C6.64,0,3.97,2.68,3.97,5.95v27.76h-1.98c-1.09,0-1.98.89-1.98,1.98v5.87c0,3.27,2.68,5.95,5.95,5.95h17.84c-3.63-3.09-5.95-7.71-5.95-12.85,0-.32,0-.63.02-.95H7.93V5.95c0-1.09.89-1.98,1.98-1.98h24.49c-.44.91-.69,1.9-.69,2.97v10.88c.34-.02.65-.02.99-.02,1.01,0,2,.1,2.97.28v-6.19h7.93c1.09,0,1.98-.89,1.98-1.98v-2.97c0-3.13-2.1-5.77-4.98-6.62h0Z"/>
    </g>
  </g>
</svg>