<svg width="120" height="119" viewBox="0 0 120 119" fill="none" xmlns="http://www.w3.org/2000/svg">
<g id="Group 76">
<g id="Group">
<g id="Group_2">
<g id="Group_3">
<path id="Vector" d="M0.584417 105.127C6.48602 112.012 15.1745 116.438 24.0269 117.914C28.1252 118.57 32.2236 118.733 36.3219 117.996C40.1744 117.34 44.0268 115.619 47.4694 113.733C49.1087 112.832 50.6661 111.766 52.1415 110.701C54.0267 109.307 55.912 107.914 57.6333 106.356C60.9119 103.324 63.0431 99.1434 64.4365 94.9631C65.9119 90.5369 66.5676 85.8648 66.8135 81.2747C67.0594 76.1927 66.8955 70.8649 65.9119 65.8649C64.8463 60.701 62.3053 55.783 57.7972 52.8322C53.8628 50.2912 48.9448 49.9634 44.8464 52.3404C41.1579 54.4716 38.535 58.324 37.3875 62.3403C36.158 66.7665 36.8957 71.3567 39.1088 75.3731C43.7809 83.8156 53.8628 88.8156 63.0431 90.373C67.7971 91.1926 72.8791 91.1926 77.5512 89.7172C82.5511 88.0779 86.5675 84.7992 89.4363 80.373C92.4691 75.6189 94.3543 70.1272 96.1576 64.8813C98.1248 59.2256 99.8461 53.488 101.158 47.6683C103.862 36.111 105.42 24.2258 105.83 12.3406C105.912 9.38983 105.912 6.52103 105.83 3.57023C105.748 0.947294 101.649 0.947294 101.731 3.57023C102.223 25.7012 98.3707 47.8322 90.5019 68.4878C88.7806 72.996 86.8954 77.8321 83.5347 81.3566C80.5839 84.4714 76.5676 86.1927 72.3873 86.6845C67.9611 87.1763 63.4529 86.6025 59.2726 85.291C55.2562 84.0615 51.2398 82.1763 47.9612 79.4714C44.7645 76.8485 42.1415 73.4878 41.1579 69.3895C40.3383 66.0289 41.3219 62.2584 43.2071 59.3076C45.0923 56.5207 47.9612 54.5535 51.2398 54.7174C55.3382 54.9633 58.5349 58.324 60.2562 61.8486C62.4693 66.3567 62.5512 71.8485 62.7152 76.7665C62.7971 80.7829 62.4693 84.8812 61.7316 88.8976C60.9119 92.832 59.6824 96.7664 57.4693 100.209C55.3382 103.488 51.9775 105.783 48.8628 108.078C45.912 110.209 42.6334 111.766 39.1908 112.996C35.994 114.225 32.9613 114.471 29.5187 114.389C21.8958 114.143 13.945 111.356 7.87945 106.52C6.24012 105.209 4.84669 103.816 3.45325 102.258C2.71555 101.438 1.32212 101.52 0.584417 102.258C-0.23525 103.078 -0.153284 104.307 0.584417 105.127Z" fill="#FF4E03"/>
</g>
</g>
<g id="Group_4">
<g id="Group_5">
<path id="Vector_2" d="M81.8955 39.1439C86.2397 29.9636 91.3217 21.1932 96.9774 12.7506C98.3708 10.7014 99.8462 8.57031 101.322 6.60311C101.895 5.86541 102.469 4.88182 103.289 4.30805C103.863 3.89822 104.027 4.06217 104.436 4.63594C105.092 5.45561 105.584 6.35725 106.076 7.25889C106.731 8.32445 107.305 9.47197 107.879 10.6195C109.026 12.7506 110.01 14.9637 110.912 17.2588C112.879 22.3407 114.354 27.6686 115.256 32.9964C115.42 34.062 116.813 34.7177 117.797 34.3899C118.944 34.062 119.436 32.9964 119.19 31.8489C118.289 26.603 116.895 21.4391 114.928 16.4391C113.944 13.8982 112.879 11.3572 111.649 8.98017C110.502 6.76707 109.354 4.39003 107.879 2.42283C106.24 0.209728 103.699 -0.773852 101.24 0.701549C99.0265 2.09498 97.5511 4.71789 96.0757 6.76706C92.879 11.2752 89.8462 15.9473 87.0594 20.7014C83.9446 26.0292 80.9938 31.4391 78.3709 37.0128C77.8791 37.9964 78.125 39.2259 79.1086 39.7996C80.0102 40.4554 81.4857 40.1275 81.8955 39.1439Z" fill="#FF4E03"/>
</g>
</g>
</g>
</g>
</svg>
