<svg width="24" height="24" viewBox="0 0 24 24" fill="none" xmlns="http://www.w3.org/2000/svg">
<g id="Specialized Development">
<path id="Vector" fill-rule="evenodd" clip-rule="evenodd" d="M5.73636 7.66454C6.42474 6.92617 7.40072 6.51904 8.53764 6.51904H14.0781C15.2173 6.51904 16.1936 6.9259 16.8817 7.66486C17.5646 8.39824 17.912 9.40258 17.912 10.5128V14.0137C17.912 15.1242 17.5646 16.1287 16.8815 16.862C16.1932 17.601 15.2167 18.0075 14.0772 18.0075H8.53764C7.39858 18.0075 6.42223 17.6009 5.73409 16.862C5.05114 16.1286 4.70374 15.1242 4.70374 14.0137V10.5128C4.70374 9.40177 5.05301 8.39753 5.73636 7.66454ZM6.74913 8.60872C6.34441 9.04283 6.08835 9.68933 6.08835 10.5128V14.0137C6.08835 14.8385 6.34359 15.4848 6.74734 15.9184C7.14593 16.3463 7.74038 16.6229 8.53764 16.6229H14.0772C14.875 16.6229 15.4697 16.3463 15.8684 15.9183C16.2722 15.4848 16.5274 14.8385 16.5274 14.0137V10.5128C16.5274 9.68852 16.2722 9.04213 15.8684 8.60841C15.4697 8.18027 14.8752 7.90366 14.0781 7.90366H8.53764C7.74363 7.90366 7.14881 8.18 6.74913 8.60872Z" fill="#EC4702"/>
<path id="Vector_2" fill-rule="evenodd" clip-rule="evenodd" d="M16.527 10.4965C16.527 10.1142 16.837 9.8042 17.2193 9.8042H17.3595C18.7181 9.8042 19.8193 10.9054 19.8193 12.264C19.8193 13.6215 18.7182 14.7237 17.3595 14.7237H17.2193C16.837 14.7237 16.527 14.4139 16.527 14.0314C16.527 13.6491 16.837 13.3391 17.2193 13.3391H17.3595C17.9531 13.3391 18.4347 12.8572 18.4347 12.264C18.4347 11.6701 17.9534 11.1888 17.3595 11.1888H17.2193C16.837 11.1888 16.527 10.8789 16.527 10.4965Z" fill="#EC4702"/>
<path id="Vector_3" fill-rule="evenodd" clip-rule="evenodd" d="M9.18208 9.87988C9.56445 9.87988 9.87442 10.1898 9.87442 10.5722V10.5814C9.87442 10.9637 9.56445 11.2737 9.18208 11.2737C8.79973 11.2737 8.48978 10.9637 8.48978 10.5814V10.5722C8.48978 10.1898 8.79973 9.87988 9.18208 9.87988ZM13.4315 9.87988C13.8138 9.87988 14.1238 10.1898 14.1238 10.5722V10.5814C14.1238 10.9637 13.8138 11.2737 13.4315 11.2737C13.0491 11.2737 12.7392 10.9637 12.7392 10.5814V10.5722C12.7392 10.1898 13.0491 9.87988 13.4315 9.87988Z" fill="#EC4702"/>
<path id="Vector_4" fill-rule="evenodd" clip-rule="evenodd" d="M9.49845 13.3816C9.75913 13.1018 10.1971 13.0863 10.4769 13.3469C10.995 13.8293 11.7543 13.7392 12.1154 13.3696C12.3826 13.0961 12.821 13.0911 13.0944 13.3583C13.3679 13.6255 13.3729 14.0639 13.1057 14.3373C12.2292 15.2341 10.6121 15.3648 9.53325 14.36C9.25347 14.0994 9.23787 13.6614 9.49845 13.3816Z" fill="#EC4702"/>
<path id="Vector_5" fill-rule="evenodd" clip-rule="evenodd" d="M2.79626 12.264C2.79626 10.9054 3.89746 9.8042 5.25605 9.8042H5.39617C5.77851 9.8042 6.08847 10.1142 6.08847 10.4965C6.08847 10.8789 5.77851 11.1888 5.39617 11.1888H5.25605C4.66215 11.1888 4.18088 11.6701 4.18088 12.264C4.18088 12.8572 4.66238 13.3391 5.25605 13.3391H5.39617C5.77851 13.3391 6.08847 13.6491 6.08847 14.0314C6.08847 14.4139 5.77851 14.7237 5.39617 14.7237H5.25605C3.89723 14.7237 2.79626 13.6215 2.79626 12.264Z" fill="#EC4702"/>
<path id="Vector_6" fill-rule="evenodd" clip-rule="evenodd" d="M9.183 4.55762C9.56539 4.55762 9.87527 4.86758 9.87527 5.24992V7.2141C9.87527 7.59645 9.56539 7.90641 9.183 7.90641C8.80065 7.90641 8.49069 7.59645 8.49069 7.2141V5.24992C8.49069 4.86758 8.80065 4.55762 9.183 4.55762Z" fill="#EC4702"/>
<path id="Vector_7" fill-rule="evenodd" clip-rule="evenodd" d="M13.4324 3C13.8148 3 14.1247 3.30996 14.1247 3.69231V7.21291C14.1247 7.59526 13.8148 7.90522 13.4324 7.90522C13.05 7.90522 12.7401 7.59526 12.7401 7.21291V3.69231C12.7401 3.30996 13.05 3 13.4324 3Z" fill="#EC4702"/>
<path id="Vector_8" fill-rule="evenodd" clip-rule="evenodd" d="M11.312 20.1527C9.89494 20.1527 8.67433 20.4685 7.9177 20.9071C7.58692 21.0989 7.1633 20.9862 6.97153 20.6555C6.77974 20.3247 6.89242 19.9011 7.22319 19.7093C8.24482 19.117 9.72214 18.7681 11.312 18.7681C12.9016 18.7681 14.3716 19.1172 15.392 19.7094C15.7228 19.9014 15.8352 20.325 15.6433 20.6558C15.4514 20.9864 15.0277 21.0989 14.6971 20.907C13.941 20.4682 12.7275 20.1527 11.312 20.1527Z" fill="#EC4702"/>
</g>
</svg>
