<svg width="24" height="25" viewBox="0 0 24 25" fill="none" xmlns="http://www.w3.org/2000/svg">
<path d="M22.4248 9.60513C22.334 9.32517 22.1628 9.07813 21.9326 8.89476C21.7024 8.71139 21.4233 8.59979 21.1301 8.57388L15.5623 8.09387L13.3798 2.90388C13.2662 2.63155 13.0745 2.39893 12.829 2.2353C12.5834 2.07168 12.2949 1.98438 11.9998 1.98438C11.7047 1.98438 11.4163 2.07168 11.1707 2.2353C10.9251 2.39893 10.7335 2.63155 10.6198 2.90388L8.44389 8.09387L2.86951 8.57669C2.57517 8.60142 2.29468 8.71251 2.06322 8.89602C1.83176 9.07952 1.65964 9.32728 1.56842 9.60823C1.47721 9.88917 1.47098 10.1908 1.5505 10.4753C1.63003 10.7597 1.79177 11.0144 2.01545 11.2073L6.24451 14.9029L4.97701 20.3911C4.90999 20.6783 4.92911 20.9788 5.03199 21.2552C5.13488 21.5316 5.31695 21.7715 5.55545 21.945C5.79394 22.1185 6.07829 22.2178 6.37293 22.2306C6.66756 22.2433 6.95942 22.1689 7.21201 22.0167L11.9933 19.1104L16.7848 22.0167C17.0374 22.1689 17.3293 22.2433 17.6239 22.2306C17.9186 22.2178 18.2029 22.1185 18.4414 21.945C18.6799 21.7715 18.862 21.5316 18.9648 21.2552C19.0677 20.9788 19.0868 20.6783 19.0198 20.3911L17.7533 14.8973L21.9814 11.2073C22.205 11.0137 22.3665 10.7583 22.4454 10.4733C22.5243 10.1882 22.5171 9.88615 22.4248 9.60513ZM20.9979 10.0739L16.7698 13.7639C16.564 13.9429 16.411 14.1746 16.327 14.4341C16.2431 14.6936 16.2316 14.9711 16.2936 15.2367L17.5639 20.7342L12.7761 17.8279C12.5425 17.6857 12.2743 17.6104 12.0008 17.6104C11.7273 17.6104 11.459 17.6857 11.2255 17.8279L6.4442 20.7342L7.70608 15.2404C7.76809 14.9748 7.75652 14.6974 7.6726 14.4379C7.58869 14.1783 7.43561 13.9466 7.22983 13.7676L2.99983 10.0795C2.99948 10.0767 2.99948 10.0739 2.99983 10.0711L8.57233 9.58919C8.84439 9.56521 9.10474 9.4674 9.3253 9.30632C9.54586 9.14524 9.71826 8.92699 9.82389 8.67513L11.9998 3.49169L14.1748 8.67513C14.2805 8.92699 14.4529 9.14524 14.6734 9.30632C14.894 9.4674 15.1543 9.56521 15.4264 9.58919L20.9998 10.0711C20.9998 10.0711 20.9998 10.0767 20.9998 10.0776L20.9979 10.0739Z" fill="white"/>
</svg>
