<svg width="24" height="24" viewBox="0 0 24 24" fill="none" xmlns="http://www.w3.org/2000/svg">
<path d="M1.92004 7.8641H9.84004M9.84004 7.8641C9.84004 9.05704 10.8071 10.0241 12 10.0241C13.1929 10.0241 14.16 9.05704 14.16 7.8641M9.84004 7.8641C9.84004 6.67117 10.8071 5.7041 12 5.7041C13.1929 5.7041 14.16 6.67117 14.16 7.8641M14.16 7.8641H22.08M14.1403 8.15659C15.5664 8.55793 16.8516 9.35072 17.8503 10.4451C18.8489 11.5395 19.521 12.8918 19.7904 14.3486M4.20964 14.3486C4.47917 12.8918 5.15133 11.5396 6.14995 10.4452C7.14857 9.35084 8.43374 8.55803 9.85985 8.15659M6.24004 16.5041C6.24004 17.697 5.27298 18.6641 4.08004 18.6641C2.88711 18.6641 1.92004 17.697 1.92004 16.5041C1.92004 15.3112 2.88711 14.3441 4.08004 14.3441C5.27298 14.3441 6.24004 15.3112 6.24004 16.5041ZM22.08 16.5041C22.08 17.697 21.1129 18.6641 19.92 18.6641C18.7271 18.6641 17.76 17.697 17.76 16.5041C17.76 15.3112 18.7271 14.3441 19.92 14.3441C21.1129 14.3441 22.08 15.3112 22.08 16.5041Z" stroke="white" stroke-width="1.92" stroke-linecap="round" stroke-linejoin="round"/>
</svg>
