<svg width="24" height="24" viewBox="0 0 24 24" fill="none" xmlns="http://www.w3.org/2000/svg">
<path d="M9.11966 17.2237C9.11966 17.2237 8.39966 20.1037 4.07966 20.1037C4.07966 15.7837 6.95966 15.0637 6.95966 15.0637M7.67966 12.1837L13.3596 6.50373C15.5214 4.34193 18.0891 4.20873 19.2348 4.27623C19.4094 4.28746 19.5739 4.3619 19.6977 4.48563C19.8214 4.60936 19.8958 4.77391 19.907 4.94853C19.9745 6.09423 19.8396 8.66373 17.6796 10.8237L11.9997 16.5037M7.67966 12.1837L11.9997 16.5037M7.67966 12.1837L3.97886 11.667C3.84658 11.6481 3.72217 11.5927 3.61956 11.5072C3.51696 11.4215 3.44021 11.309 3.39789 11.1823C3.35557 11.0555 3.34937 10.9194 3.37998 10.7894C3.41057 10.6593 3.47677 10.5403 3.57117 10.4458L6.66267 7.35423C6.79759 7.21946 6.98047 7.14372 7.17117 7.14363H12.7197M11.9997 16.5037L12.5163 20.2045C12.5352 20.3368 12.5906 20.4612 12.6761 20.5637C12.7618 20.6663 12.8743 20.7431 13.001 20.7854C13.1278 20.8277 13.2638 20.8339 13.3939 20.8033C13.524 20.7727 13.6429 20.7065 13.7376 20.6122L16.8291 17.5206C16.9639 17.3857 17.0396 17.2028 17.0397 17.0122V11.4637" stroke="white" stroke-width="1.92" stroke-linecap="round" stroke-linejoin="round"/>
</svg>
