<svg width="29" height="29" viewBox="0 0 29 29" fill="none" xmlns="http://www.w3.org/2000/svg">
<path d="M6.58223 0.574219H22.1548C22.9125 0.574219 23.6483 0.695068 24.3622 0.947753C25.3945 1.32129 26.3279 1.98047 27.0308 2.8374C27.7446 3.69433 28.2168 4.74901 28.3816 5.84764C28.4475 6.25414 28.4585 6.66063 28.4585 7.06712V22.2612C28.4585 22.7446 28.4365 23.239 28.3376 23.7114C28.118 24.799 27.6019 25.8207 26.8551 26.6447C26.1193 27.4687 25.1529 28.0839 24.1096 28.4135C23.4726 28.6113 22.8137 28.6992 22.1438 28.6992C21.8473 28.6992 6.5383 28.6992 6.30768 28.6882C5.18751 28.6332 4.07833 28.2707 3.14485 27.6445C2.23335 27.0292 1.48657 26.1723 1.00336 25.1835C0.58604 24.3376 0.377381 23.3928 0.377381 22.4479V6.82542C0.355417 5.89159 0.553094 4.96874 0.959429 4.13378C1.43166 3.14501 2.16745 2.2771 3.07896 1.66186C4.01244 1.02466 5.11064 0.651123 6.23081 0.596191C6.34063 0.574219 6.46143 0.574219 6.58223 0.574219Z" fill="url(#paint0_linear_550_2763)"/>
<path d="M24.0546 23.5795C23.9557 23.4257 23.8459 23.2719 23.7251 23.1291C23.4505 22.7995 23.1321 22.5139 22.7806 22.2722C22.3414 21.9755 21.8252 21.7888 21.2981 21.7668C20.9247 21.7448 20.5513 21.8107 20.1999 21.9426C19.8484 22.0634 19.508 22.2392 19.1785 22.415C18.7942 22.6127 18.4098 22.8105 18.0035 22.9753C17.5202 23.173 17.0151 23.3269 16.4989 23.4367C15.851 23.5576 15.1921 23.6015 14.5441 23.5905C13.369 23.5685 12.194 23.3928 11.0738 23.0632C10.0854 22.7665 9.14096 22.3601 8.25141 21.8437C7.47169 21.3933 6.74688 20.8769 6.06599 20.2946C5.50591 19.8112 4.98975 19.2949 4.50654 18.7456C4.17708 18.361 3.8586 17.9545 3.56209 17.5371C3.44129 17.3723 3.33147 17.1965 3.23263 17.0207L0.333374 13.8896V6.80345C0.333374 3.36474 3.11183 0.574219 6.5492 0.574219H12.0951L16.2024 4.74901C25.4712 11.0552 22.4731 18.0095 22.4731 18.0095C22.4731 18.0095 25.1088 20.9758 24.0546 23.5795Z" fill="url(#paint1_linear_550_2763)"/>
<path d="M16.2244 4.75C25.4932 11.0561 22.4951 18.0105 22.4951 18.0105C22.4951 18.0105 25.1308 20.9878 24.0655 23.5915C24.0655 23.5915 22.9783 21.7678 21.1553 21.7678C19.3982 21.7678 18.3659 23.5915 14.8297 23.5915C6.95557 23.5915 3.23267 17.0107 3.23267 17.0107C10.327 21.6799 15.1701 18.373 15.1701 18.373C11.9743 16.5163 5.17648 7.6394 5.17648 7.6394C11.0958 12.6821 13.6546 14.0115 13.6546 14.0115C12.1281 12.748 7.84511 6.57373 7.84511 6.57373C11.2715 10.0454 18.0803 14.8904 18.0803 14.8904C20.0132 9.52904 16.2244 4.75 16.2244 4.75Z" fill="white"/>
<defs>
<linearGradient id="paint0_linear_550_2763" x1="17.0581" y1="-0.42938" x2="11.7424" y2="29.7054" gradientUnits="userSpaceOnUse">
<stop stop-color="#FAAE42"/>
<stop offset="1" stop-color="#EF3E31"/>
</linearGradient>
<linearGradient id="paint1_linear_550_2763" x1="14.6772" y1="1.02861" x2="10.7868" y2="23.0839" gradientUnits="userSpaceOnUse">
<stop stop-color="#E39F3A"/>
<stop offset="1" stop-color="#D33929"/>
</linearGradient>
</defs>
</svg>
