<svg width="56" height="56" viewBox="0 0 56 56" fill="none" xmlns="http://www.w3.org/2000/svg">
<g clip-path="url(#clip0_130_358)">
<rect width="56" height="56" rx="10" fill="url(#paint0_linear_130_358)"/>
<rect x="0.5" y="0.5" width="55" height="55" rx="9.5" stroke="white" stroke-opacity="0.1"/>
<path d="M28 20.5364V19.1397C28 17.479 26.6628 16.1328 25.0136 16.1328C23.4317 16.1328 22.1374 17.3711 22.0342 18.9374C21.6689 18.8216 21.2804 18.7591 20.8779 18.7591C18.7544 18.7591 17.0333 20.4921 17.0333 22.6297C17.0333 23.5995 17.3871 24.4859 17.9727 25.1651C16.8269 25.5421 16 26.6268 16 27.9063C16 29.1929 16.8373 30.2825 17.9925 30.6536C17.3952 31.3356 17.0333 32.2309 17.0333 33.2113C17.0333 35.3489 18.7544 37.0819 20.8779 37.0819C21.2781 37.0819 21.6643 37.0201 22.0273 36.9057C22.0516 38.5449 23.3795 39.8661 25.0136 39.8661C26.6628 39.8661 28 38.52 28 36.8593V35.5065" stroke="white" stroke-width="2" stroke-linecap="round" stroke-linejoin="round"/>
<path d="M28 36.8602C28 38.521 29.3372 39.8671 30.9864 39.8671C32.5683 39.8671 33.8625 38.6289 33.9657 37.0626C34.3311 37.1783 34.7196 37.2409 35.122 37.2409C37.2456 37.2409 38.9667 35.5078 38.9667 33.3702C38.9667 32.4003 38.6129 31.5141 38.0272 30.8349C39.1731 30.4578 40 29.3731 40 28.0937C40 26.807 39.1627 25.7174 38.0076 25.3463C38.6048 24.6643 38.9667 23.769 38.9667 22.7886C38.9667 20.651 37.2456 18.918 35.122 18.918C34.722 18.918 34.3357 18.9798 33.9728 19.0942C33.9484 17.455 32.6205 16.1338 30.9864 16.1338C29.3372 16.1338 28 17.4799 28 19.1407" stroke="white" stroke-width="2" stroke-linecap="round" stroke-linejoin="round"/>
<path d="M23.2598 31.328L26.1718 24.6719L29.1676 31.328" stroke="white" stroke-width="2" stroke-linecap="round" stroke-linejoin="round"/>
<path d="M24.0391 29.6143H28.3863" stroke="white" stroke-width="2"/>
<path d="M32.3809 31.3282V24.917" stroke="white" stroke-width="2" stroke-linecap="round" stroke-linejoin="round"/>
</g>
<defs>
<linearGradient id="paint0_linear_130_358" x1="28" y1="0" x2="28" y2="56" gradientUnits="userSpaceOnUse">
<stop stop-color="white" stop-opacity="0.05"/>
<stop offset="1" stop-color="white" stop-opacity="0"/>
</linearGradient>
<clipPath id="clip0_130_358">
<rect width="56" height="56" rx="10" fill="white"/>
</clipPath>
</defs>
</svg>
