<svg width="230" height="244" viewBox="0 0 230 244" fill="none" xmlns="http://www.w3.org/2000/svg">
<g id="Group 1410098111">
<g id="&#60;Group&#62;">
<g id="&#60;Group&#62;_2">
<path id="&#60;Path&#62;" d="M41.7307 121.852V139.785L30.175 130.192L41.7307 121.852Z" fill="#FF4D02"/>
</g>
<g id="&#60;Group&#62;_3">
<path id="&#60;Path&#62;_2" d="M194.979 130.192L180.153 142.483V119.508L194.979 130.192Z" fill="#FF4D02"/>
</g>
<g id="&#60;Group&#62;_4">
<path id="&#60;Path&#62;_3" d="M180.153 90.3193V142.483L122.075 190.695L117.251 187.179C114.444 185.163 110.656 185.19 107.848 187.207L103.079 190.695L41.7307 139.785V90.3193C41.7307 84.4597 46.5001 79.7175 52.3597 79.7175H169.551C175.411 79.7175 180.153 84.4597 180.153 90.3193Z" fill="white"/>
</g>
<g id="&#60;Group&#62;_5">
<path id="&#60;Path&#62;_4" d="M194.979 243.785H30.175L68.3576 215.987L103.079 190.695L107.848 187.207C110.656 185.19 114.444 185.163 117.251 187.179L122.075 190.695L156.796 215.987L194.979 243.785Z" fill="#FF4D02"/>
</g>
<g id="&#60;Group&#62;_6">
<g id="&#60;Group&#62;_7">
<path id="&#60;Path&#62;_5" d="M108.066 98.0048H51.9236V94.0258H108.066V98.0048Z" fill="#FF4D02"/>
</g>
<g id="&#60;Group&#62;_8" opacity="0.1">
<path id="&#60;Path&#62;_6" d="M169.987 106.781H51.9236V102.802H169.987V106.781Z" fill="#FF4D02"/>
</g>
<g id="&#60;Group&#62;_9">
<path id="&#60;Path&#62;_7" opacity="0.1" d="M169.987 115.556H51.9236V111.577H169.987V115.556Z" fill="#FF4D02"/>
</g>
<g id="&#60;Group&#62;_10">
<path id="&#60;Path&#62;_8" opacity="0.1" d="M169.987 124.332H51.9236V120.353H169.987V124.332Z" fill="#FF4D02"/>
</g>
<g id="&#60;Group&#62;_11">
<path id="&#60;Path&#62;_9" opacity="0.1" d="M169.987 133.108H51.9236V129.129H169.987V133.108Z" fill="#FF4D02"/>
</g>
<g id="&#60;Group&#62;_12">
<path id="&#60;Path&#62;_10" opacity="0.1" d="M169.987 141.883H51.9236V137.904H169.987V141.883Z" fill="#FF4D02"/>
</g>
<g id="&#60;Group&#62;_13">
<path id="&#60;Path&#62;_11" opacity="0.1" d="M169.987 150.659H51.9236V146.68H169.987V150.659Z" fill="#FF4D02"/>
</g>
<g id="&#60;Group&#62;_14">
<path id="&#60;Path&#62;_12" opacity="0.1" d="M169.987 159.408H51.9236V155.456H169.987V159.408Z" fill="#FF4D02"/>
</g>
<g id="&#60;Group&#62;_15">
<path id="&#60;Path&#62;_13" opacity="0.1" d="M169.987 168.183H51.9236V164.204H169.987V168.183Z" fill="#FF4D02"/>
</g>
<g id="&#60;Group&#62;_16">
<path id="&#60;Path&#62;_14" opacity="0.1" d="M169.987 176.959H51.9236V172.98H169.987V176.959Z" fill="#FF4D02"/>
</g>
<g id="&#60;Group&#62;_17">
<path id="&#60;Path&#62;_15" opacity="0.1" d="M169.987 185.735H51.9236V181.756H169.987V185.735Z" fill="#FF4D02"/>
</g>
</g>
<g id="&#60;Group&#62;_18">
<path id="&#60;Path&#62;_16" d="M194.979 130.192V243.785L156.796 215.987L122.075 190.695L180.153 142.483L194.979 130.192Z" fill="#D33F02"/>
</g>
<g id="&#60;Group&#62;_19">
<path id="&#60;Path&#62;_17" d="M103.079 190.695L68.3576 215.987L30.175 243.785V130.192L41.7307 139.785L103.079 190.695Z" fill="#D33F02"/>
</g>
</g>
<g id="&#60;Group&#62;_20">
<g id="&#60;Group&#62;_21">
<g id="&#60;Group&#62;_22">
<g id="&#60;Group&#62;_23">
<path id="&#60;Compound Path&#62;" d="M30.0473 169.246C28.3895 168.568 26.7506 167.777 25.1681 166.91L25.7333 165.893C27.278 166.741 28.8605 167.513 30.4806 168.154L30.0473 169.246ZM20.6092 164.028C19.1775 162.973 17.7646 161.843 16.4271 160.618L17.2183 159.752C18.5182 160.939 19.8934 162.05 21.3063 163.067L20.6092 164.028ZM12.6217 156.775C11.4538 155.438 10.3235 154.006 9.28734 152.537L10.2481 151.877C11.2654 153.309 12.358 154.703 13.5071 156.003L12.6217 156.775ZM6.4239 147.978C5.53849 146.414 4.74728 144.775 4.05026 143.136L5.12404 142.665C5.80223 144.285 6.59345 145.868 7.44118 147.413L6.4239 147.978ZM2.20409 138.05C1.67661 136.336 1.24333 134.584 0.904242 132.832L2.05338 132.606C2.37364 134.32 2.80692 136.034 3.31556 137.711L2.20409 138.05ZM0.169539 127.481C0.0565084 126.125 0 124.769 0 123.412C0 122.979 0.0188338 122.527 0.0188338 122.075L1.18682 122.113C1.18682 122.546 1.16797 122.979 1.16797 123.412C1.16797 124.731 1.22449 126.069 1.33752 127.387L0.169539 127.481ZM116.798 119.758C115.122 119.758 113.426 119.682 111.768 119.551L111.863 118.383C113.502 118.514 115.159 118.59 116.798 118.59H117.156V119.758H116.798ZM122.525 119.475L122.412 118.326C124.145 118.156 125.916 117.893 127.649 117.572L127.856 118.722C126.086 119.061 124.296 119.306 122.525 119.475ZM106.418 118.835C105.684 118.703 104.949 118.552 104.214 118.383C103.197 118.156 102.18 117.893 101.181 117.61L101.501 116.499C102.481 116.762 103.48 117.026 104.459 117.233C105.175 117.403 105.91 117.554 106.626 117.685L106.418 118.835ZM133.112 117.516L132.792 116.386C134.469 115.934 136.164 115.387 137.841 114.784L138.236 115.877C136.541 116.499 134.827 117.045 133.112 117.516ZM1.6201 116.857L0.452115 116.706C0.697015 114.897 1.01727 113.108 1.43172 111.393L2.56202 111.676C2.16642 113.353 1.84616 115.086 1.6201 116.857ZM96.076 115.896C94.4371 115.255 92.7793 114.521 91.1403 113.711L91.6678 112.674C93.2691 113.466 94.8892 114.182 96.4904 114.803L96.076 115.896ZM143.229 113.861L142.739 112.788C144.34 112.072 145.923 111.28 147.486 110.433L148.051 111.469C146.469 112.317 144.849 113.127 143.229 113.861ZM86.4307 111.149C84.9425 110.282 83.4166 109.321 81.8907 108.285L82.55 107.324C84.0571 108.342 85.5642 109.284 87.0147 110.15L86.4307 111.149ZM152.686 108.737L152.064 107.758C153.533 106.816 155.003 105.817 156.434 104.762L157.131 105.704C155.681 106.778 154.174 107.795 152.686 108.737ZM4.08793 106.609L2.9953 106.213C3.61697 104.499 4.33284 102.822 5.14289 101.258L6.179 101.786C5.40663 103.312 4.69076 104.932 4.08793 106.609ZM77.5201 105.177C76.3145 104.273 75.09 103.331 73.7901 102.295L73.2815 101.899L74.0162 100.976L74.5248 101.39C75.8058 102.408 77.0303 103.349 78.2172 104.235L77.5201 105.177ZM161.37 102.408L160.616 101.522C161.954 100.392 163.292 99.205 164.573 97.9993L165.383 98.8471C164.083 100.072 162.726 101.277 161.37 102.408ZM69.1182 98.5833C67.4793 97.3023 66.1417 96.2662 64.8984 95.3431L65.5954 94.4012C66.8576 95.3431 68.1951 96.3792 69.8341 97.6602L69.1182 98.5833ZM8.89173 97.3023L7.93098 96.6241C9.00477 95.1359 10.1539 93.723 11.3973 92.4608L12.245 93.2709C11.0393 94.4954 9.90901 95.8518 8.89173 97.3023ZM169.169 95.0417L168.321 94.2505C169.471 93.0072 170.62 91.7073 171.825 90.2756L172.73 91.0103C171.505 92.4797 170.337 93.7984 169.169 95.0417ZM60.5844 92.2913C59.002 91.2363 57.5326 90.3321 56.0632 89.522L56.6283 88.5048C58.1354 89.3337 59.6236 90.2567 61.2249 91.3117L60.5844 92.2913ZM16.2011 89.88L15.5229 88.9192C16.9734 87.8831 18.5559 86.96 20.2136 86.1688L20.7223 87.2238C19.121 87.9773 17.6139 88.8815 16.2011 89.88ZM51.3347 87.2049C50.3551 86.7905 49.3567 86.4137 48.3959 86.0935C47.7177 85.8674 47.0584 85.6602 46.3802 85.4718L46.6816 84.3415C47.3787 84.5487 48.0757 84.7559 48.7539 84.982C49.7711 85.3211 50.7884 85.7167 51.7868 86.1311L51.3347 87.2049ZM176.064 86.8093L175.122 86.1123C176.177 84.6994 177.194 83.2489 178.155 81.7606L179.135 82.4011C178.155 83.8894 177.119 85.3776 176.064 86.8093ZM25.6203 85.3776L25.3 84.2661C26.9955 83.7763 28.7851 83.3996 30.5936 83.1735L30.7443 84.3226C28.9923 84.5487 27.278 84.9066 25.6203 85.3776ZM41.2373 84.398C39.5042 84.1531 37.7334 84.0212 36.0002 84.0024V82.8344C37.7899 82.8532 39.6172 82.9851 41.388 83.2489L41.2373 84.398ZM181.942 77.8045L180.924 77.2206C181.772 75.6946 182.601 74.1122 183.373 72.5298L184.428 73.0384C183.656 74.6585 182.808 76.241 181.942 77.8045Z" fill="#FF4D02"/>
</g>
<g id="&#60;Group&#62;_24">
<path id="&#60;Path&#62;_18" d="M186.613 68.0839L185.521 67.6506C185.86 66.8217 186.199 65.9928 186.5 65.1639L187.593 65.5784C187.292 66.4073 186.952 67.255 186.613 68.0839Z" fill="#FF4D02"/>
</g>
</g>
</g>
</g>
<g id="&#60;Group&#62;_25">
<g id="&#60;Group&#62;_26">
<path id="&#60;Path&#62;_19" d="M230 0.00012207L189.228 47.231L191.408 62.7656L183.341 45.3505L230 0.00012207Z" fill="#D33F02"/>
</g>
<g id="&#60;Group&#62;_27">
<path id="&#60;Path&#62;_20" d="M230 0.00012207L183.341 45.3505L166.935 37.9374L230 0.00012207Z" fill="#FF4D02"/>
</g>
<g id="&#60;Group&#62;_28">
<path id="&#60;Path&#62;_21" d="M230 0.00012207L213.239 56.4973L195.387 49.6021L189.228 47.231L230 0.00012207Z" fill="#FF4D02"/>
</g>
<g id="&#60;Group&#62;_29">
<path id="&#60;Path&#62;_22" d="M195.387 49.602L191.408 62.7656L189.228 47.231L195.387 49.602Z" fill="#FF824E"/>
</g>
</g>
</g>
</svg>
