<svg width="111" height="113" viewBox="0 0 111 113" fill="none" xmlns="http://www.w3.org/2000/svg">
<g id="Group 1410098121" opacity="0.7">
<path id="Vector" d="M75.4202 43.2343L74.883 42.8719L74.8817 42.871C74.1572 42.3823 73.7961 42.1386 73.4006 41.8752C72.3095 43.068 71.2289 44.2635 70.1511 45.456C67.4119 48.4866 64.6903 51.4977 61.8584 54.395C56.6377 59.7442 51.3143 64.9928 45.9891 70.2431C44.6665 71.547 43.3438 72.8511 42.0225 74.1569C41.0793 75.0994 39.9505 75.8251 38.8217 76.5507C38.7275 76.6112 38.6334 76.6717 38.5393 76.7324C38.1282 77.0106 37.4811 77.013 36.8971 76.9981C35.9035 76.9294 34.4718 75.104 34.8505 74.3023C35.3098 73.3214 35.9411 72.4507 36.6481 71.6989C39.129 69.1155 41.6235 66.5441 44.1185 63.9722C48.584 59.369 53.0512 54.7641 57.445 50.0859C60.0936 47.2694 62.6468 44.3515 65.2007 41.4328C67.0782 39.2871 68.956 37.1411 70.8724 35.0346C72.3701 33.3859 74.0462 31.9153 75.7767 30.5084C76.4246 29.9909 77.5792 30.3996 78.3597 31.3121C78.9043 31.9487 79.3329 32.9049 79.4142 33.6071C79.5169 34.3645 79.2281 35.0892 78.963 35.7203C78.2354 37.3528 77.4638 38.96 76.6765 40.6001C76.2608 41.4659 75.8405 42.3415 75.4202 43.2343Z" fill="white"/>
<path id="Vector_2" d="M64.6017 88.3716C65.8292 87.8814 67.0293 87.4022 68.1938 86.9434C70.6349 85.7417 73.0349 84.5732 75.4019 83.4208C80.7337 80.8249 85.8981 78.3105 90.9869 75.682C94.3238 73.9395 97.5017 71.8788 100.677 69.82C101.066 69.5673 101.456 69.3147 101.846 69.0627C102.71 68.512 103.421 67.5715 103.952 66.5518C104.537 65.4512 103.585 63.5749 102.395 63.0835C101.01 62.5215 100.001 63.1254 98.9739 63.7395L98.9655 63.7445C98.1352 64.2466 97.3079 64.7617 96.4796 65.2774C94.6084 66.4424 92.7315 67.6109 90.8005 68.6422C77.6589 75.7107 64.2636 82.189 50.553 87.9211C50.3259 88.0187 50.0901 88.1064 49.8533 88.1945C49.2201 88.4301 48.5788 88.6687 48.0729 89.1083C47.6489 89.4854 47.3827 90.3707 47.3735 91.1546C47.3766 92.0238 48.5578 93.2992 49.3189 93.2395C49.5331 93.2195 49.7482 93.2009 49.9636 93.1822C51.3528 93.0617 52.7553 92.9401 54.0198 92.4679C57.6389 91.152 61.2238 89.7205 64.6017 88.3716Z" fill="white"/>
<path id="Vector_3" d="M47.3259 8.29451C47.3826 8.3584 47.4755 8.44204 47.5839 8.5396C47.8846 8.81027 48.3043 9.18808 48.4013 9.54858C48.4475 9.71685 48.4951 9.88568 48.5428 10.0545C49.154 12.2177 49.7645 14.3784 47.1178 15.3446C46.3945 15.608 46.0062 16.3944 45.6789 17.0572L45.6511 17.1135C44.1711 20.0895 42.7043 23.0733 41.2375 26.0571C39.282 30.0348 37.3265 34.0128 35.3397 37.972C31.5091 45.6091 27.6544 53.232 23.7758 60.8407C23.3622 61.6505 22.8424 62.4205 22.2124 63.1026C21.5624 63.8186 20.1332 63.8222 19.0352 63.2652C17.9131 62.694 17.0261 61.5054 17.1853 60.5223C17.3383 59.6044 17.6417 58.7065 18.0553 57.8967C23.4297 47.207 28.8182 36.5486 34.2167 25.8732L34.5396 25.2365C36.9889 20.4069 39.4307 15.5921 41.9038 10.7747C42.3876 9.84596 43.0257 8.9854 43.7639 8.22985C44.424 7.49687 45.9253 7.53588 47.3259 8.29451Z" fill="white"/>
</g>
</svg>
