<svg width="126" height="126" viewBox="0 0 126 126" fill="none" xmlns="http://www.w3.org/2000/svg">
<g clip-path="url(#clip0_1322_4027)">
<path d="M50 83.6245C48.5 85.8245 49 88.7745 51.125 90.1995C53.25 91.6495 56.2 91.0245 57.7 88.8245C59.2 86.6245 58.7 83.6745 56.575 82.2495C54.45 80.7995 51.5 81.4245 50 83.6245Z" fill="#FF4D02"/>
<path d="M10.9249 105.2H39.2999C39.8499 105.2 40.3749 105.025 40.7749 104.725C41.1749 104.55 41.5749 104.3 41.9249 103.975L50.3749 95.9002C51.9249 94.4252 51.9249 92.0252 50.3749 90.5252C48.8249 89.0502 46.2999 89.0502 44.7499 90.5252L36.2999 98.6002C36.2249 98.6752 36.1499 98.7502 36.0999 98.8252L29.7249 90.9502C29.2749 90.4002 28.6249 90.0752 27.8999 90.0252C27.1749 89.9752 26.4749 90.2252 25.9499 90.7002L15.4999 100.375H10.9249C9.5249 100.375 8.3999 101.45 8.3999 102.8C8.3999 104.1 9.5249 105.2 10.9249 105.2ZM27.4749 96.0252L30.9749 100.35H22.7999L27.4749 96.0252Z" fill="#FF4D02"/>
<path opacity="0.6" d="M29.35 60.025C31.475 60.025 33.5 59.35 35.175 58.05C36.15 57.3 37.5 57.3 38.475 58.05C40.175 59.35 42.175 60.025 44.3 60.025C47.425 60.025 50.35 58.5 52.15 55.925C52.7 55.125 53.675 54.7 54.65 54.775C54.975 54.8 55.3 54.825 55.625 54.825C58.75 54.825 61.675 53.3 63.475 50.75C64.2 49.725 65.525 49.325 66.7 49.8C68.95 50.675 71.5 50.675 73.75 49.8C74.925 49.35 76.25 49.725 76.975 50.75C78.95 53.575 82.35 55.125 85.8 54.775C86.775 54.675 87.725 55.125 88.3 55.925C90.1 58.5 93.025 60.025 96.15 60.025C98.275 60.025 100.3 59.35 101.975 58.05C102.45 57.7 103.025 57.5 103.625 57.5C104.225 57.5 104.8 57.7 105.275 58.05C106.975 59.35 108.975 60.025 111.1 60.025C116.4 60.025 120.7 55.725 120.7 50.45C120.7 45.65 117.1 41.55 112.35 40.95C111.575 40.85 110.875 40.425 110.425 39.75C110 39.1 109.875 38.275 110.075 37.525C110.325 36.675 110.45 35.775 110.45 34.9C110.45 29.625 106.15 25.325 100.85 25.325C100.2 25.325 99.55 25.4 98.925 25.525C98.1 25.7 97.275 25.475 96.65 24.95C96.025 24.425 95.65 23.65 95.675 22.825V22.6C95.675 17.35 91.375 13.05 86.075 13.05C84.8 13.05 83.575 13.3 82.425 13.775C81.075 14.325 79.525 13.725 78.925 12.4C77.425 8.95 74 6.75 70.25 6.75C66.5 6.75 63.075 8.95 61.525 12.375C60.925 13.7 59.375 14.325 58.025 13.75C56.875 13.275 55.625 13.025 54.375 13.025C49.075 13.025 44.775 17.325 44.775 22.6V22.775C44.8 23.6 44.425 24.375 43.8 24.9C43.175 25.425 42.325 25.65 41.525 25.475C40.9 25.35 40.25 25.275 39.6 25.275C34.3 25.275 30 29.575 30 34.85C30 35.75 30.125 36.625 30.375 37.5C30.6 38.25 30.475 39.075 30.025 39.725C29.6 40.375 28.9 40.825 28.1 40.925C23.325 41.525 19.75 45.625 19.75 50.425C19.75 55.725 24.05 60.025 29.35 60.025Z" fill="#FF4D02"/>
<path opacity="0.6" d="M124.05 116.35H79.0749C75.1749 100.175 74.4999 68.6746 74.1999 54.6996C74.1749 53.8496 74.1749 53.0746 74.1499 52.3496C71.6499 53.1996 68.8499 53.1996 66.3249 52.3496C66.2999 53.0746 66.2999 53.8496 66.2749 54.6996C65.9749 68.6746 65.2999 100.175 61.3999 116.35H47.2749C47.2749 116.175 47.2249 115.975 47.1499 115.8L43.7249 108.125L59.7499 92.8996C60.3499 92.3496 60.3499 91.4246 59.7499 90.8746C59.1749 90.3246 58.1999 90.2996 57.6249 90.8746L41.3749 106.325H6.7749C5.9499 106.325 5.2749 106.975 5.2749 107.75C5.2749 108.525 5.9499 109.175 6.7749 109.175H9.7999L6.8499 115.8C6.7749 115.975 6.7249 116.175 6.7249 116.35H1.9749C1.1749 116.35 0.524902 117 0.524902 117.8C0.524902 118.6 1.1749 119.25 1.9749 119.25H124.05C124.85 119.25 125.5 118.6 125.5 117.8C125.5 117 124.85 116.35 124.05 116.35ZM13.0499 109.175H40.9249L44.1249 116.35H9.8499L13.0499 109.175Z" fill="#FF4D02"/>
</g>
<defs>
<clipPath id="clip0_1322_4027">
<rect width="125" height="125" fill="white" transform="translate(0.5 0.5)"/>
</clipPath>
</defs>
</svg>
