<svg width="20" height="20" viewBox="0 0 20 20" fill="none" xmlns="http://www.w3.org/2000/svg">
<path d="M18.7494 4.375V9.375C18.7494 9.54076 18.6835 9.69973 18.5663 9.81694C18.4491 9.93415 18.2901 10 18.1244 10C17.9586 10 17.7996 9.93415 17.6824 9.81694C17.5652 9.69973 17.4994 9.54076 17.4994 9.375V5.88359L11.0666 12.3172C11.0085 12.3753 10.9396 12.4214 10.8637 12.4529C10.7878 12.4843 10.7065 12.5005 10.6244 12.5005C10.5422 12.5005 10.4609 12.4843 10.385 12.4529C10.3092 12.4214 10.2402 12.3753 10.1822 12.3172L7.49937 9.63359L2.31656 14.8172C2.19928 14.9345 2.04022 15.0003 1.87437 15.0003C1.70852 15.0003 1.54946 14.9345 1.43218 14.8172C1.31491 14.6999 1.24902 14.5409 1.24902 14.375C1.24902 14.2091 1.31491 14.0501 1.43218 13.9328L7.05718 8.30781C7.11523 8.2497 7.18416 8.2036 7.26003 8.17215C7.33591 8.1407 7.41724 8.12451 7.49937 8.12451C7.5815 8.12451 7.66283 8.1407 7.73871 8.17215C7.81458 8.2036 7.88351 8.2497 7.94156 8.30781L10.6244 10.9914L16.6158 5H13.1244C12.9586 5 12.7996 4.93415 12.6824 4.81694C12.5652 4.69973 12.4994 4.54076 12.4994 4.375C12.4994 4.20924 12.5652 4.05027 12.6824 3.93306C12.7996 3.81585 12.9586 3.75 13.1244 3.75H18.1244C18.2901 3.75 18.4491 3.81585 18.5663 3.93306C18.6835 4.05027 18.7494 4.20924 18.7494 4.375Z" fill="white"/>
</svg>
