<svg width="82" height="19" viewBox="0 0 82 19" fill="none" xmlns="http://www.w3.org/2000/svg">
<g clip-path="url(#clip0_1204_947)">
<path d="M21.993 5.68872H30.1596V7.20908H26.9442V15.7796H25.1817V7.20908H21.9795L21.993 5.68872ZM29.81 8.47379H31.317V9.88652H31.3438C31.3977 9.68471 31.4921 9.49632 31.6263 9.30798C31.761 9.11959 31.9224 8.94471 32.1242 8.79669C32.3125 8.63524 32.5279 8.51415 32.7701 8.41995C32.9986 8.3258 33.2408 8.27197 33.483 8.27197C33.6716 8.27197 33.8059 8.28544 33.8735 8.28544C33.9406 8.29887 34.0213 8.31234 34.0884 8.31234V9.85958C33.9809 9.83269 33.8598 9.81922 33.7388 9.8058C33.6177 9.79233 33.5102 9.77886 33.3891 9.77886C33.1197 9.77886 32.8644 9.83269 32.6222 9.94031C32.38 10.048 32.1778 10.2094 31.9896 10.4112C31.8145 10.6265 31.6667 10.8821 31.5592 11.1916C31.4512 11.501 31.3977 11.8643 31.3977 12.268V15.7392H29.7831L29.81 8.47379ZM41.502 15.7796H39.9011V14.757H39.8739C39.6721 15.1338 39.3764 15.4163 38.9859 15.645C38.5959 15.8737 38.1922 15.9814 37.7886 15.9814C36.8331 15.9814 36.1338 15.7527 35.7029 15.2683C35.2725 14.7974 35.0571 14.0709 35.0571 13.1156V8.47379H36.6716V12.9541C36.6716 13.6 36.7927 14.0574 37.0485 14.313C37.2907 14.5821 37.6408 14.7167 38.0843 14.7167C38.4208 14.7167 38.7034 14.6629 38.9324 14.5552C39.1609 14.4476 39.3492 14.313 39.4839 14.1381C39.6317 13.9632 39.726 13.748 39.7931 13.5058C39.8607 13.2636 39.8875 12.9945 39.8875 12.712V8.47379H41.502V15.7796ZM44.2335 13.4385C44.287 13.9094 44.4621 14.2323 44.7714 14.4341C45.0806 14.6225 45.4575 14.7167 45.8884 14.7167C46.0362 14.7167 46.2113 14.7032 46.3995 14.6763C46.5877 14.6494 46.7763 14.609 46.9378 14.5418C47.1124 14.4745 47.2471 14.3803 47.3546 14.2458C47.4625 14.1112 47.516 13.9498 47.5029 13.748C47.4893 13.5461 47.4221 13.3712 47.2738 13.2367C47.126 13.1022 46.9509 13.008 46.736 12.9138C46.5206 12.833 46.2648 12.7658 45.9822 12.712C45.6997 12.6581 45.4172 12.5909 45.1215 12.5236C44.8253 12.4563 44.5292 12.3756 44.2466 12.2814C43.9641 12.1872 43.7219 12.0661 43.4934 11.8912C43.2779 11.7298 43.0897 11.528 42.9686 11.2723C42.8339 11.0167 42.7668 10.7207 42.7668 10.344C42.7668 9.94031 42.8607 9.61741 43.0625 9.34834C43.2512 9.07923 43.5065 8.86394 43.8027 8.70249C44.0988 8.54104 44.4348 8.41995 44.7981 8.3527C45.1614 8.28544 45.5115 8.2585 45.8344 8.2585C46.2113 8.2585 46.5745 8.29887 46.9106 8.37959C47.2471 8.46032 47.57 8.5814 47.8389 8.76979C48.1215 8.94471 48.3505 9.18689 48.5251 9.46943C48.7137 9.75197 48.8212 10.1018 48.8752 10.5054H47.1931C47.1124 10.1152 46.9378 9.85958 46.6684 9.72507C46.3859 9.59051 46.0766 9.52321 45.7133 9.52321C45.6058 9.52321 45.4575 9.53668 45.3097 9.55015C45.1482 9.57705 45.0135 9.60398 44.8657 9.65777C44.731 9.7116 44.6099 9.79233 44.5156 9.88652C44.4217 9.98067 44.3677 10.1152 44.3677 10.2767C44.3677 10.4785 44.4348 10.6265 44.5695 10.7476C44.7042 10.8687 44.8793 10.9629 45.1079 11.057C45.3233 11.1378 45.5786 11.2051 45.8611 11.2589C46.1437 11.3127 46.4398 11.3799 46.736 11.4472C47.0317 11.5145 47.3142 11.5952 47.5967 11.6894C47.8793 11.7836 48.1351 11.9047 48.3505 12.0796C48.5654 12.2411 48.7541 12.4429 48.8883 12.6851C49.023 12.9272 49.0902 13.2367 49.0902 13.5865C49.0902 14.017 48.9963 14.3803 48.7945 14.6898C48.5927 14.9858 48.3369 15.2414 48.0276 15.4298C47.7178 15.6181 47.3546 15.7527 46.9781 15.8469C46.5877 15.9276 46.2113 15.9814 45.8344 15.9814C45.3768 15.9814 44.9464 15.9276 44.5564 15.82C44.1659 15.7123 43.8163 15.5508 43.5337 15.349C43.2512 15.1338 43.0222 14.8782 42.8607 14.5552C42.6993 14.2458 42.6054 13.869 42.5918 13.4251H44.2199V13.4385H44.2335ZM49.5478 8.47379H50.7722V6.26727H52.3867V8.46032H53.8398V9.65777H52.3867V13.5596C52.3867 13.7345 52.4003 13.869 52.4135 14.0036C52.4271 14.1247 52.4675 14.2323 52.5078 14.313C52.5618 14.3938 52.6425 14.4611 52.7364 14.5014C52.8443 14.5418 52.9786 14.5687 53.1672 14.5687C53.2747 14.5687 53.3958 14.5687 53.5033 14.5552C53.6112 14.5418 53.7323 14.5283 53.8398 14.5014V15.7527C53.6647 15.7796 53.4901 15.793 53.3151 15.8065C53.14 15.8334 52.9786 15.8334 52.7904 15.8334C52.36 15.8334 52.0235 15.793 51.7677 15.7123C51.5124 15.6316 51.3106 15.5105 51.1623 15.3625C51.0144 15.2011 50.9201 15.0127 50.8666 14.784C50.8126 14.5552 50.7854 14.2727 50.7722 13.9767V9.67124H49.5478V8.44689V8.47379ZM54.9699 8.47379H56.4901V9.46943H56.5173C56.7459 9.03886 57.0556 8.74285 57.4593 8.55451C57.8629 8.36617 58.2933 8.27197 58.7776 8.27197C59.3563 8.27197 59.8538 8.36617 60.2847 8.5814C60.715 8.78322 61.0647 9.05233 61.3472 9.4156C61.6298 9.76544 61.8452 10.1825 61.9799 10.6534C62.1141 11.1243 62.1949 11.6356 62.1949 12.1603C62.1949 12.6581 62.1277 13.129 62.0066 13.5865C61.872 14.044 61.6837 14.4611 61.428 14.8109C61.1726 15.1607 60.8497 15.4432 60.4461 15.6585C60.0425 15.8737 59.5849 15.9814 59.0466 15.9814C58.818 15.9814 58.5758 15.9545 58.3468 15.9141C58.1182 15.8737 57.8897 15.8065 57.6742 15.7123C57.4593 15.6181 57.257 15.497 57.0824 15.349C56.8937 15.2011 56.7459 15.0261 56.6248 14.8377H56.5981V18.4839H54.9836V8.47379H54.9699ZM60.6076 12.1334C60.6076 11.8105 60.5672 11.4876 60.4729 11.1781C60.3921 10.8687 60.2574 10.5996 60.0828 10.3574C59.9078 10.1152 59.6924 9.92689 59.4502 9.77886C59.1949 9.63088 58.8987 9.56358 58.5758 9.56358C57.9028 9.56358 57.3917 9.79233 57.042 10.2633C56.7055 10.7341 56.5305 11.3665 56.5305 12.1469C56.5305 12.5236 56.5708 12.8599 56.6652 13.1694C56.7595 13.4788 56.8806 13.748 57.0688 13.9767C57.2439 14.2054 57.4593 14.3803 57.7146 14.5148C57.9704 14.6494 58.2529 14.7167 58.5894 14.7167C58.9658 14.7167 59.262 14.6359 59.5178 14.488C59.7731 14.34 59.9749 14.1381 60.15 13.9094C60.3114 13.6672 60.4325 13.3981 60.4996 13.0887C60.5672 12.7658 60.6076 12.4563 60.6076 12.1334ZM63.4461 5.68872H65.0611V7.20908H63.4461V5.68872ZM63.4461 8.47379H65.0611V15.7796H63.4461V8.47379ZM66.5005 5.68872H68.115V15.7796H66.5005V5.68872ZM73.0392 15.9814C72.461 15.9814 71.9363 15.8872 71.4787 15.6854C71.0211 15.4836 70.6447 15.2279 70.3218 14.8916C70.012 14.5552 69.7699 14.1381 69.6084 13.6672C69.447 13.1963 69.3526 12.6716 69.3526 12.1199C69.3526 11.5683 69.4334 11.057 69.6084 10.5862C69.7699 10.1152 70.012 9.7116 70.3218 9.36176C70.6311 9.02544 71.0211 8.75632 71.4787 8.56798C71.9363 8.37959 72.461 8.27197 73.0392 8.27197C73.6179 8.27197 74.1426 8.36617 74.6002 8.56798C75.0574 8.75632 75.4342 9.02544 75.7571 9.36176C76.0664 9.69813 76.3086 10.1152 76.4701 10.5862C76.6315 11.057 76.7258 11.5683 76.7258 12.1199C76.7258 12.6851 76.6451 13.1963 76.4701 13.6672C76.2955 14.1381 76.0664 14.5418 75.7571 14.8916C75.4478 15.2279 75.0574 15.497 74.6002 15.6854C74.1426 15.8737 73.6315 15.9814 73.0392 15.9814ZM73.0392 14.7032C73.3894 14.7032 73.7123 14.6225 73.9676 14.4745C74.237 14.3265 74.4388 14.1247 74.6134 13.8825C74.7884 13.6403 74.9095 13.3578 74.9903 13.0618C75.071 12.7523 75.1113 12.4429 75.1113 12.1199C75.1113 11.8105 75.071 11.501 74.9903 11.1916C74.9095 10.8821 74.7884 10.613 74.6134 10.3709C74.4388 10.1287 74.2234 9.94031 73.9676 9.79233C73.6987 9.64435 73.3894 9.56358 73.0392 9.56358C72.6896 9.56358 72.3667 9.64435 72.1109 9.79233C71.842 9.94031 71.6402 10.1421 71.4651 10.3709C71.2905 10.613 71.169 10.8821 71.0882 11.1916C71.008 11.501 70.9676 11.8105 70.9676 12.1199C70.9676 12.4429 71.008 12.7523 71.0882 13.0618C71.169 13.3712 71.2905 13.6403 71.4651 13.8825C71.6402 14.1247 71.8556 14.3265 72.1109 14.4745C72.3803 14.6359 72.6896 14.7032 73.0392 14.7032ZM77.2102 8.47379H78.4347V6.26727H80.0492V8.46032H81.5022V9.65777H80.0492V13.5596C80.0492 13.7345 80.0628 13.869 80.0759 14.0036C80.0896 14.1247 80.1299 14.2323 80.1703 14.313C80.2242 14.3938 80.305 14.4611 80.3988 14.5014C80.5068 14.5418 80.641 14.5687 80.8297 14.5687C80.9372 14.5687 81.0583 14.5687 81.1657 14.5552C81.2737 14.5418 81.3948 14.5283 81.5022 14.5014V15.7527C81.3272 15.7796 81.1526 15.793 80.9775 15.8065C80.8025 15.8334 80.641 15.8334 80.4528 15.8334C80.0224 15.8334 79.6859 15.793 79.4301 15.7123C79.1748 15.6316 78.973 15.5105 78.8247 15.3625C78.6769 15.2011 78.5825 15.0127 78.529 14.784C78.475 14.5552 78.4483 14.2727 78.4347 13.9767V9.67124H77.2102V8.44689V8.47379Z" fill="white"/>
<path d="M19.838 7.02304H12.4515L10.1777 -0.000244141L7.8904 7.02304L0.503906 7.00957L6.4777 11.3554L4.19042 18.3786L10.1642 14.0328L16.138 18.3786L13.8642 11.3554L19.838 7.02304Z" fill="#00B67A"/>
<path d="M14.3755 12.9431L13.8642 11.3555L10.1777 14.0329L14.3755 12.9431Z" fill="#005128"/>
</g>
<defs>
<clipPath id="clip0_1204_947">
<rect width="81" height="18.4841" fill="white" transform="translate(0.5)"/>
</clipPath>
</defs>
</svg>
