<svg width="28" height="29" viewBox="0 0 28 29" fill="none" xmlns="http://www.w3.org/2000/svg">
<path d="M0 0.574219H28V28.5742H0V0.574219Z" fill="#017ACB"/>
<path d="M13.4444 10.9441H14.7875V13.2628H11.1563V23.5791L11.06 23.6053C10.9288 23.6403 9.20066 23.6403 8.82878 23.6009L8.53128 23.5747V13.2628H4.90002V10.9441L6.05065 10.9309C6.68065 10.9222 8.29941 10.9222 9.64691 10.9309C10.9944 10.9397 12.7007 10.9441 13.4444 10.9441ZM23.6951 22.4853C23.1613 23.0497 22.5882 23.3647 21.6344 23.6228C21.2188 23.7366 21.1488 23.7409 20.2126 23.7366C19.2763 23.7322 19.2019 23.7322 18.7469 23.6141C17.57 23.3122 16.6207 22.7216 15.9732 21.8859C15.7894 21.6497 15.4875 21.1597 15.4875 21.0984C15.4875 21.0809 15.5313 21.0416 15.5882 21.0153C15.645 20.9891 15.7632 20.9147 15.8594 20.8578C15.9557 20.8009 16.1307 20.6959 16.2488 20.6347C16.3669 20.5734 16.7082 20.3722 17.0057 20.1928C17.3032 20.0134 17.5744 19.8691 17.605 19.8691C17.6357 19.8691 17.6925 19.9303 17.7363 20.0047C17.9988 20.4466 18.6113 21.0109 19.0444 21.2034C19.3113 21.3172 19.9019 21.4441 20.1863 21.4441C20.4488 21.4441 20.9301 21.3303 21.1882 21.2122C21.4638 21.0853 21.6038 20.9584 21.7701 20.7047C21.8838 20.5253 21.8969 20.4772 21.8926 20.1359C21.8926 19.8209 21.8751 19.7334 21.7876 19.5891C21.5426 19.1866 21.2101 18.9766 19.8625 18.3816C18.4713 17.7647 17.8457 17.3972 17.3382 16.9028C16.9619 16.5353 16.8875 16.4347 16.6513 15.9753C16.345 15.3847 16.3057 15.1922 16.3013 14.3128C16.2969 13.6959 16.31 13.4947 16.3757 13.2847C16.4675 12.9697 16.765 12.3616 16.9007 12.2084C17.1807 11.8803 17.2813 11.7797 17.4782 11.6178C18.0732 11.1278 19.0007 10.8041 19.8888 10.7734C19.9894 10.7734 20.3219 10.7909 20.6326 10.8128C21.5251 10.8872 22.1332 11.1059 22.7194 11.5741C23.1613 11.9241 23.8307 12.7466 23.7651 12.8559C23.7213 12.9216 21.9757 14.0853 21.8619 14.1203C21.7919 14.1422 21.7438 14.1159 21.6476 14.0022C21.0526 13.2891 20.8119 13.1359 20.2344 13.1009C19.8232 13.0747 19.6044 13.1228 19.3288 13.3066C19.04 13.4991 18.9 13.7922 18.9 14.1991C18.9044 14.7941 19.1319 15.0741 19.9719 15.4897C20.5144 15.7566 20.9782 15.9753 21.0132 15.9753C21.0657 15.9753 22.1901 16.5353 22.4832 16.7103C23.8482 17.5109 24.4038 18.3334 24.5482 19.7509C24.6532 20.8184 24.3513 21.7941 23.6951 22.4853Z" fill="white"/>
</svg>
