<svg width="250" height="332" viewBox="0 0 250 332" fill="none" xmlns="http://www.w3.org/2000/svg">
<g opacity="0.2">
<g clip-path="url(#clip0_883_6032)">
<rect width="332" height="332" rx="166" fill="white"/>
<path fill-rule="evenodd" clip-rule="evenodd" d="M0 0H199.2V154.933H0V0Z" fill="#1A47B8"/>
<path fill-rule="evenodd" clip-rule="evenodd" d="M199.2 0V22.1333H464.8V0H199.2ZM199.2 44.2667V66.4H464.8V44.2667H199.2ZM199.2 88.5333V110.667H464.8V88.5333H199.2ZM199.2 132.8V154.933H464.8V132.8H199.2ZM0 177.067V199.2H464.8V177.067H0ZM0 221.333V243.467H464.8V221.333H0ZM0 265.6V287.733H464.8V265.6H0ZM0 309.867V332H464.8V309.867H0Z" fill="#F93939"/>
<path fill-rule="evenodd" clip-rule="evenodd" d="M22.1338 22.1333V44.2666H44.2671V22.1333H22.1338ZM66.4005 22.1333V44.2666H88.5338V22.1333H66.4005ZM110.667 22.1333V44.2666H132.8V22.1333H110.667ZM154.934 22.1333V44.2666H177.067V22.1333H154.934ZM132.8 44.2666V66.4H154.934V44.2666H132.8ZM88.5338 44.2666V66.4H110.667V44.2666H88.5338ZM44.2671 44.2666V66.4H66.4005V44.2666H44.2671ZM22.1338 66.4V88.5333H44.2671V66.4H22.1338ZM66.4005 66.4V88.5333H88.5338V66.4H66.4005ZM110.667 66.4V88.5333H132.8V66.4H110.667ZM154.934 66.4V88.5333H177.067V66.4H154.934ZM22.1338 110.667V132.8H44.2671V110.667H22.1338ZM66.4005 110.667V132.8H88.5338V110.667H66.4005ZM110.667 110.667V132.8H132.8V110.667H110.667ZM154.934 110.667V132.8H177.067V110.667H154.934ZM132.8 88.5333V110.667H154.934V88.5333H132.8ZM88.5338 88.5333V110.667H110.667V88.5333H88.5338ZM44.2671 88.5333V110.667H66.4005V88.5333H44.2671Z" fill="white"/>
</g>
</g>
<defs>
<clipPath id="clip0_883_6032">
<rect width="332" height="332" rx="166" fill="white"/>
</clipPath>
</defs>
</svg>
