<svg width="64" height="65" viewBox="0 0 64 65" fill="none" xmlns="http://www.w3.org/2000/svg">
<path opacity="0.4" fill-rule="evenodd" clip-rule="evenodd" d="M30.0318 8.62402C16.7395 8.62402 5.90869 19.4548 5.90869 32.7471C5.90869 37.1779 6.89331 40.8702 8.61638 44.0702C9.10869 45.0548 10.3395 45.301 11.0779 44.8087C12.0625 44.3164 12.3087 43.0856 11.8164 42.3471C10.3395 39.8856 9.601 36.6856 9.601 32.9933C9.601 21.9163 18.7087 12.8086 29.7856 12.8086C40.8626 12.8086 49.9703 21.9163 49.9703 32.9933C49.9703 36.1933 49.2318 39.1471 47.7549 42.5933C47.2626 43.5779 47.7549 44.5625 48.7395 45.0548C48.9856 45.0548 49.2318 45.301 49.478 45.301C50.2164 45.301 50.9549 44.8087 51.201 44.3164C52.9241 40.3779 53.9087 36.9318 53.9087 33.2395C53.9087 19.4548 43.3241 8.62402 30.0318 8.62402Z" fill="#12433D"/>
<path fill-rule="evenodd" clip-rule="evenodd" d="M39.1362 28.809C39.1362 23.6397 34.9516 19.4551 29.7824 19.4551C24.6131 19.4551 20.4285 23.6397 20.4285 28.809C20.4285 33.9782 24.6131 38.1628 29.7824 38.1628C34.9516 38.1628 39.1362 33.9782 39.1362 28.809Z" fill="#12433D"/>
<path fill-rule="evenodd" clip-rule="evenodd" d="M30.031 41.8568C20.6771 41.8568 16.7386 46.5337 16.2463 50.9645C16.2463 51.4568 16.4925 51.9491 16.7386 52.1953C20.431 54.903 25.1079 56.3799 30.031 56.3799C34.7079 56.3799 39.1386 54.903 43.3233 52.1953C43.8156 51.9491 43.8156 51.4568 43.8156 50.9645C43.5694 48.7491 41.8463 41.6106 30.031 41.8568Z" fill="#12433D"/>
</svg>
