<svg width="1920" height="1385" viewBox="0 0 1920 1385" fill="none" xmlns="http://www.w3.org/2000/svg">
<g clip-path="url(#clip0_3319_2233)">
<rect width="1920" height="1385" fill="#050403"/>
<g opacity="0.4">
<g filter="url(#filter0_f_3319_2233)">
<ellipse cx="1103" cy="202" rx="659" ry="516" fill="#FF4D02" fill-opacity="0.4"/>
</g>
<g opacity="0.2" clip-path="url(#clip1_3319_2233)">
<rect opacity="0.03" x="449" y="33" width="114" height="114" fill="url(#paint0_linear_3319_2233)"/>
<rect opacity="0.03" x="449" y="262" width="114" height="114" fill="url(#paint1_linear_3319_2233)"/>
<rect opacity="0.03" x="449" y="491" width="114" height="114" fill="url(#paint2_linear_3319_2233)"/>
<rect opacity="0.03" x="1361" y="148" width="114" height="114" fill="url(#paint3_linear_3319_2233)"/>
<path fill-rule="evenodd" clip-rule="evenodd" d="M563.5 261V148H676.5V261H563.5ZM562.5 261V148H72V147H562.5V34H72V33H562.5L562.5 -80H72V-81H562.5V-174H563.5V-81H676.5V-174H677.5V-81H790.5V-174H791.5V-81H904.5V-174H905.5V-81H1018.5V-174H1019.5V-81H1132.5V-174H1133.5V-81H1246.5V-174H1247.5V-81H1360.5V-174H1361.5V-81H1474.5V-174H1475.5V-81H1793.5V-80H1475.5V33H1793.5V34H1475.5V147H1793.5V148H1475.5V261H1793.5V262H1475.5V375H1793.5V376H1475.5V489H1793.5V490H1475.5V603H1793.5V604H1475.5V694H1474.5V604H1361.5V694H1360.5V604H1247.5V694H1246.5V604H1133.5V694H1132.5V604H1019.5V694H1018.5V604H905.5V694H904.5V604H791.5V694H790.5V604H677.5V694H676.5V604H563.5V694H562.5V604H72V603H562.5V490H72V489H562.5V376H72V375H562.5V262H72V261H562.5ZM563.5 603H676.5V490H563.5V603ZM677.5 603H790.5V490H677.5V603ZM791.5 603H904.5V490H791.5V603ZM905.5 603H1018.5V490H905.5V603ZM1019.5 603H1132.5V490H1019.5V603ZM1133.5 603H1246.5V490H1133.5V603ZM1247.5 603H1360.5V490H1247.5V603ZM1361.5 603H1474.5V490H1361.5V603ZM1474.5 376V489H1361.5V376H1474.5ZM1360.5 376V489H1247.5V376H1360.5ZM1246.5 376V489H1133.5V376H1246.5ZM1132.5 376V489H1019.5V376H1132.5ZM1018.5 376V489H905.5V376H1018.5ZM904.5 376V489H791.5V376H904.5ZM790.5 376V489H677.5V376H790.5ZM676.5 376V489H563.5V376H676.5ZM563.5 375H676.5V262H563.5V375ZM677.5 375H790.5V262H677.5V375ZM791.5 375H904.5V262H791.5V375ZM905.5 375H1018.5V262H905.5V375ZM1019.5 375H1132.5V262H1019.5V375ZM1133.5 375H1246.5V262H1133.5V375ZM1247.5 375H1360.5V262H1247.5V375ZM1361.5 375H1474.5V262H1361.5V375ZM563.5 33L563.5 -80H676.5L676.5 33H563.5ZM677.5 33L677.5 -80H790.5L790.5 33H677.5ZM791.5 33L791.5 -80H904.5L904.5 33H791.5ZM905.5 33L905.5 -80H1018.5L1018.5 33H905.5ZM1019.5 33L1019.5 -80H1132.5V33H1019.5ZM1133.5 33V-80H1246.5V33H1133.5ZM1247.5 33V-80H1360.5V33H1247.5ZM1361.5 33V-80H1474.5V33H1361.5ZM1474.5 34H1361.5V147H1474.5V34ZM1360.5 34H1247.5V147H1360.5V34ZM1246.5 34H1133.5V147H1246.5V34ZM1132.5 34H1019.5V147H1132.5V34ZM1018.5 34H905.5V147H1018.5V34ZM904.5 34H791.5V147H904.5V34ZM790.5 34H677.5V147H790.5V34ZM676.5 34H563.5V147H676.5V34ZM677.5 261V148H790.5V261H677.5ZM791.5 261V148H904.5V261H791.5ZM905.5 261V148H1018.5V261H905.5ZM1019.5 261V148H1132.5V261H1019.5ZM1133.5 261V148H1246.5V261H1133.5ZM1247.5 261V148H1360.5V261H1247.5ZM1361.5 261V148H1474.5V261H1361.5Z" fill="url(#paint4_radial_3319_2233)"/>
<rect opacity="0.5" x="677" y="146" width="114" height="2" fill="url(#paint5_linear_3319_2233)"/>
<rect opacity="0.5" x="1133" y="374" width="114" height="2" fill="url(#paint6_linear_3319_2233)"/>
<rect x="904" y="372" width="114" height="2" transform="rotate(-90 904 372)" fill="url(#paint7_linear_3319_2233)"/>
<rect opacity="0.3" x="1132" y="148" width="114" height="2" transform="rotate(-90 1132 148)" fill="url(#paint8_linear_3319_2233)"/>
</g>
</g>
<g opacity="0.2">
<path d="M659 196L665.55 588.298C665.849 606.214 664.221 624.11 660.694 641.678L626 814.5" stroke="url(#paint9_linear_3319_2233)"/>
<path d="M851 196V814.5" stroke="url(#paint10_linear_3319_2233)"/>
<path d="M1031 196L1024.45 588.298C1024.15 606.214 1025.78 624.11 1029.31 641.678L1064 814.5" stroke="url(#paint11_linear_3319_2233)"/>
<path d="M1231 196L1213.85 533.744C1210.66 596.486 1222.68 659.068 1248.88 716.166L1294 814.5" stroke="url(#paint12_linear_3319_2233)"/>
</g>
<path d="M1025.25 529L1023.79 567.018C1022.44 602.119 1026.64 637.212 1036.25 671V671" stroke="url(#paint13_linear_3319_2233)"/>
</g>
<defs>
<filter id="filter0_f_3319_2233" x="-496" y="-1254" width="3198" height="2912" filterUnits="userSpaceOnUse" color-interpolation-filters="sRGB">
<feFlood flood-opacity="0" result="BackgroundImageFix"/>
<feBlend mode="normal" in="SourceGraphic" in2="BackgroundImageFix" result="shape"/>
<feGaussianBlur stdDeviation="470" result="effect1_foregroundBlur_3319_2233"/>
</filter>
<linearGradient id="paint0_linear_3319_2233" x1="563" y1="92" x2="449" y2="90" gradientUnits="userSpaceOnUse">
<stop stop-color="white"/>
<stop offset="1" stop-color="white" stop-opacity="0"/>
</linearGradient>
<linearGradient id="paint1_linear_3319_2233" x1="563" y1="321" x2="449" y2="319" gradientUnits="userSpaceOnUse">
<stop stop-color="white"/>
<stop offset="1" stop-color="white" stop-opacity="0"/>
</linearGradient>
<linearGradient id="paint2_linear_3319_2233" x1="563" y1="550" x2="449" y2="548" gradientUnits="userSpaceOnUse">
<stop stop-color="white"/>
<stop offset="1" stop-color="white" stop-opacity="0"/>
</linearGradient>
<linearGradient id="paint3_linear_3319_2233" x1="1475" y1="207" x2="1361" y2="205" gradientUnits="userSpaceOnUse">
<stop stop-color="white" stop-opacity="0"/>
<stop offset="1" stop-color="white"/>
</linearGradient>
<radialGradient id="paint4_radial_3319_2233" cx="0" cy="0" r="1" gradientUnits="userSpaceOnUse" gradientTransform="translate(932.75 260) rotate(89.9536) scale(309 612.838)">
<stop stop-color="white" stop-opacity="0.2"/>
<stop offset="1" stop-color="white" stop-opacity="0"/>
</radialGradient>
<linearGradient id="paint5_linear_3319_2233" x1="677" y1="147" x2="791" y2="147" gradientUnits="userSpaceOnUse">
<stop stop-color="white" stop-opacity="0"/>
<stop offset="0.5027" stop-color="white"/>
<stop offset="1" stop-color="white" stop-opacity="0"/>
</linearGradient>
<linearGradient id="paint6_linear_3319_2233" x1="1133" y1="375" x2="1247" y2="375" gradientUnits="userSpaceOnUse">
<stop stop-color="white" stop-opacity="0"/>
<stop offset="0.5027" stop-color="white"/>
<stop offset="1" stop-color="white" stop-opacity="0"/>
</linearGradient>
<linearGradient id="paint7_linear_3319_2233" x1="904" y1="373" x2="1018" y2="373" gradientUnits="userSpaceOnUse">
<stop stop-color="white" stop-opacity="0"/>
<stop offset="0.5027" stop-color="white"/>
<stop offset="1" stop-color="white" stop-opacity="0"/>
</linearGradient>
<linearGradient id="paint8_linear_3319_2233" x1="1132" y1="149" x2="1246" y2="149" gradientUnits="userSpaceOnUse">
<stop stop-color="white" stop-opacity="0"/>
<stop offset="0.5027" stop-color="white"/>
<stop offset="1" stop-color="white" stop-opacity="0"/>
</linearGradient>
<linearGradient id="paint9_linear_3319_2233" x1="646" y1="196" x2="646" y2="814.5" gradientUnits="userSpaceOnUse">
<stop stop-color="white" stop-opacity="0"/>
<stop offset="0.250645" stop-color="white" stop-opacity="0.5"/>
<stop offset="0.749283" stop-color="white" stop-opacity="0.5"/>
<stop offset="1" stop-color="white" stop-opacity="0"/>
</linearGradient>
<linearGradient id="paint10_linear_3319_2233" x1="851.5" y1="196" x2="851.5" y2="814.5" gradientUnits="userSpaceOnUse">
<stop stop-color="white" stop-opacity="0"/>
<stop offset="0.250645" stop-color="white" stop-opacity="0.5"/>
<stop offset="0.749283" stop-color="white" stop-opacity="0.5"/>
<stop offset="1" stop-color="white" stop-opacity="0"/>
</linearGradient>
<linearGradient id="paint11_linear_3319_2233" x1="1044" y1="196" x2="1044" y2="814.5" gradientUnits="userSpaceOnUse">
<stop stop-color="white" stop-opacity="0"/>
<stop offset="0.250645" stop-color="white" stop-opacity="0.5"/>
<stop offset="0.749283" stop-color="white" stop-opacity="0.5"/>
<stop offset="1" stop-color="white" stop-opacity="0"/>
</linearGradient>
<linearGradient id="paint12_linear_3319_2233" x1="1251.5" y1="196" x2="1251.5" y2="814.5" gradientUnits="userSpaceOnUse">
<stop stop-color="white" stop-opacity="0"/>
<stop offset="0.367348" stop-color="white" stop-opacity="0.5"/>
<stop offset="0.749283" stop-color="white" stop-opacity="0.5"/>
<stop offset="1" stop-color="white" stop-opacity="0"/>
</linearGradient>
<linearGradient id="paint13_linear_3319_2233" x1="1029" y1="529" x2="1029" y2="671" gradientUnits="userSpaceOnUse">
<stop stop-color="#FF4D02" stop-opacity="0"/>
<stop offset="0.29568" stop-color="#FF4D02" stop-opacity="0.3"/>
<stop offset="0.700736" stop-color="#FF4D02" stop-opacity="0.6"/>
<stop offset="1" stop-color="#FF4D02" stop-opacity="0"/>
</linearGradient>
<clipPath id="clip0_3319_2233">
<rect width="1920" height="1385" fill="white"/>
</clipPath>
<clipPath id="clip1_3319_2233">
<rect width="1288" height="868" fill="white" transform="translate(318 -174)"/>
</clipPath>
</defs>
</svg>
