<svg width="17" height="17" viewBox="0 0 17 17" fill="none" xmlns="http://www.w3.org/2000/svg">
<path d="M15.2278 5.34207C15.1508 5.30083 15.0641 5.28124 14.9769 5.28539C14.8898 5.28953 14.8053 5.31725 14.7327 5.36559L12.5882 6.79239V5.28177C12.5882 5.02587 12.4866 4.78045 12.3056 4.5995C12.1247 4.41855 11.8793 4.31689 11.6234 4.31689H1.97464C1.71874 4.31689 1.47332 4.41855 1.29237 4.5995C1.11142 4.78045 1.00977 5.02587 1.00977 5.28177V12.0359C1.00977 12.2918 1.11142 12.5372 1.29237 12.7181C1.47332 12.8991 1.71874 13.0007 1.97464 13.0007H11.6234C11.8793 13.0007 12.1247 12.8991 12.3056 12.7181C12.4866 12.5372 12.5882 12.2918 12.5882 12.0359V10.5283L14.7327 11.9581C14.8123 12.0098 14.9054 12.0369 15.0004 12.0359C15.1284 12.0359 15.2511 11.985 15.3415 11.8946C15.432 11.8041 15.4828 11.6814 15.4828 11.5534V5.7642C15.4822 5.6774 15.4582 5.59237 15.4133 5.51807C15.3684 5.44378 15.3043 5.38298 15.2278 5.34207ZM11.6234 12.0359H1.97464V5.28177H11.6234V12.0359ZM14.518 10.6519L12.5882 9.36559V7.95205L14.518 6.66877V10.6519Z" fill="#FF4D04"/>
</svg>
