<svg width="24" height="24" viewBox="0 0 24 24" fill="none" xmlns="http://www.w3.org/2000/svg">
<g id="Web Development">
<path id="Vector" fill-rule="evenodd" clip-rule="evenodd" d="M3.68376 4.52058C4.59273 3.54568 5.88707 3 7.41518 3H15.201C16.7328 3 18.0273 3.54541 18.9354 4.52098C19.8384 5.49095 20.3077 6.82984 20.3077 8.33204V15.6679C20.3077 17.1705 19.8384 18.5095 18.9352 19.4794C18.0269 20.4549 16.7321 21 15.2002 21H7.41518C5.88359 21 4.58884 20.4549 3.68045 19.4795C2.77725 18.5096 2.30768 17.1706 2.30768 15.6679V8.33204C2.30768 6.82888 2.7798 5.49009 3.68376 4.52058ZM4.69647 5.4648C4.07114 6.13549 3.69229 7.11657 3.69229 8.33204V15.6679C3.69229 16.8848 4.06967 17.8657 4.69372 18.5358C5.31261 19.2004 6.22546 19.6154 7.41518 19.6154H15.2002C16.3904 19.6154 17.3032 19.2004 17.9219 18.5358C18.5459 17.8658 18.9231 16.8849 18.9231 15.6679V8.33204C18.9231 7.1156 18.5459 6.13463 17.922 5.46439C17.3032 4.79975 16.3907 4.38462 15.201 4.38462H7.41518C6.23005 4.38462 5.3168 4.79948 4.69647 5.4648Z" fill="#EC4702"/>
<path id="Vector_2" fill-rule="evenodd" clip-rule="evenodd" d="M10.0962 11.4206C10.3666 11.6909 10.3666 12.1293 10.0962 12.3997L8.39974 14.0962L10.0962 15.7926C10.3666 16.063 10.3666 16.5014 10.0962 16.7717C9.82587 17.0421 9.38751 17.0421 9.11718 16.7717L6.93113 14.5857C6.66077 14.3153 6.66077 13.877 6.93113 13.6066L9.11718 11.4206C9.38751 11.1502 9.82587 11.1502 10.0962 11.4206Z" fill="#EC4702"/>
<path id="Vector_3" fill-rule="evenodd" clip-rule="evenodd" d="M12.5201 11.4206C12.7904 11.1502 13.2288 11.1502 13.4992 11.4206L15.6852 13.6066C15.9556 13.877 15.9556 14.3153 15.6852 14.5857L13.4992 16.7717C13.2288 17.0421 12.7904 17.0421 12.5201 16.7717C12.2497 16.5014 12.2497 16.063 12.5201 15.7926L14.2166 14.0962L12.5201 12.3997C12.2497 12.1293 12.2497 11.6909 12.5201 11.4206Z" fill="#EC4702"/>
<path id="Vector_4" fill-rule="evenodd" clip-rule="evenodd" d="M2.33112 8.2426C2.33112 7.86024 2.64108 7.55029 3.02342 7.55029H19.5939C19.9763 7.55029 20.2862 7.86024 20.2862 8.2426C20.2862 8.62495 19.9763 8.93491 19.5939 8.93491H3.02342C2.64108 8.93491 2.33112 8.62495 2.33112 8.2426Z" fill="#EC4702"/>
</g>
</svg>
