<?xml version="1.0" encoding="UTF-8"?>
<svg id="Layer_2" xmlns="http://www.w3.org/2000/svg" viewBox="0 0 402.41 41.18">
  <defs>
    <style>
      .cls-1 {
        fill: #fbfbfb;
      }
    </style>
  </defs>
  <g id="Layer_3">
    <g>
      <g>
        <path d="M232.99,32.74c-.62,0-1.24,0-1.86,0-1.64-.01-2.4-.5-2.91-2.05-1.85-5.63-3.65-11.26-5.48-16.9-.19-.59-.38-1.17-.59-1.76-.08-.22-.09-.54-.43-.51-.31.02-.34.32-.42.54-.69,2.07-1.37,4.15-2.06,6.22-1.37,4.08-2.72,8.17-4.12,12.24-.61,1.77-1.31,2.23-3.17,2.22-1.33-.01-2.66.03-3.99-.06-1.34-.1-2.07-.82-2.44-2.02-1.07-3.45-2.15-6.89-3.21-10.34-1.31-4.25-2.61-8.49-3.9-12.75-.44-1.45-.4-1.48,1.15-1.48,1.15,0,2.29.04,3.44-.02.73-.04,1.04.27,1.23.93,1.27,4.35,2.57,8.7,3.86,13.05.63,2.13,1.24,4.27,1.9,6.39.09.3,0,.85.56.82.43-.03.42-.47.52-.78,1.93-6,3.86-12.01,5.79-18.01.65-2.02,1.35-2.53,3.52-2.53.93,0,1.86,0,2.79,0,1.96,0,2.7.54,3.32,2.42,1.96,5.94,3.92,11.89,5.87,17.84.06.18.13.35.18.53.07.25.17.49.47.49.34,0,.35-.31.42-.53.54-1.83,1.07-3.66,1.6-5.5,1.38-4.79,2.77-9.58,4.15-14.37.17-.58.5-.86,1.13-.85,1.33.03,2.66,0,4,0,1.02,0,1.15.17.84,1.15-1.06,3.38-2.13,6.75-3.19,10.12-1.34,4.25-2.66,8.52-4.02,12.76-.76,2.38-1.32,2.75-3.82,2.75-.37,0-.74,0-1.12,0Z"/>
        <path d="M385.62,41.16c-3.07,0-6.14-.03-9.2.02-.89.01-1.25-.27-1.19-1.17.06-.8.05-1.61,0-2.41-.05-.82.31-1.06,1.1-1.06,5.39.02,10.78.01,16.17.01.56,0,1.12,0,1.67-.05,1.84-.17,2.67-.95,2.95-2.74q.38-2.43-2.07-2.44c-4.43,0-8.86-.01-13.29-.03-1.18,0-2.36-.18-3.47-.54-2.6-.84-3.76-2.85-3.93-5.4-.18-2.86-.36-5.74.18-8.59.48-2.54,2.16-4.11,4.69-4.58,1.35-.25,2.7-.35,4.06-.35,3.93,0,7.87,0,11.8.07.98.02,1.98.18,2.93.41,2.66.66,4.26,2.65,4.3,5.65.08,5.65.1,11.31,0,16.97-.06,3.26-1.74,5.4-5.21,5.92-1.29.19-2.58.32-3.88.32-2.54,0-5.08,0-7.62,0ZM389.56,27.09s0,.03,0,.05c2.29,0,4.58-.02,6.88.01.56,0,.74-.17.74-.74-.03-2.19,0-4.39-.01-6.58,0-2.34-.93-3.43-3.24-3.48-3.71-.08-7.43-.09-11.15-.02-2.26.04-3.22,1.13-3.27,3.39-.03,1.27-.01,2.53,0,3.8.01,2.46.92,3.47,3.37,3.55,2.23.07,4.46.02,6.69.02Z"/>
        <path class="cls-1" d="M66.51,32.73c-3.99,0-7.27,0-10.56,0-1.4,0-1.49-.1-1.49-1.45,0-.87,0-1.73,0-2.6,0-1.17.07-1.24,1.29-1.24,6.19,0,12.39,0,18.58,0,2.1,0,2.63-.52,2.62-2.61,0-.61.07-1.23-.08-1.84-.2-.82-.68-1.29-1.53-1.34-.34-.02-.68-.04-1.02-.04-4.71-.02-9.41.02-14.12-.09-3.47-.08-5.59-2.27-5.7-5.75-.05-1.81-.26-3.64.17-5.43.57-2.36,2.28-3.89,4.71-4.2.83-.11,1.66-.16,2.5-.17,5.98-.01,11.96,0,17.93,0,.31,0,.62,0,.92.05.64.09.97.41.94,1.12-.04,1.02-.05,2.04,0,3.06.05.91-.35,1.17-1.22,1.17-5.98-.02-11.96-.01-17.93-.01-.43,0-.86,0-1.28.16-.71.28-1.1.8-1.14,1.54-.04.68-.04,1.36,0,2.04.1,1.28.67,1.81,1.97,1.82,2.17.02,4.34-.02,6.5.01,2.85.04,5.7-.14,8.54.11,3.06.27,4.87,1.82,5.3,4.81.31,2.13.4,4.32-.05,6.45-.55,2.63-2.58,4.21-5.26,4.36-3.78.2-7.55.02-10.62.09Z"/>
        <path class="cls-1" d="M105.26,11.86c3.41,0,6.81-.04,10.22.01,1.98.03,3.95.19,5.68,1.36,1.65,1.12,2.21,2.78,2.3,4.61.25,4.63.07,9.27.11,13.9,0,.72-.37.99-1.04.98-1.05,0-2.11-.02-3.16,0-.8.02-1.08-.34-1.08-1.12,0-3.92-.02-7.85-.06-11.77,0-.49-.05-.99-.17-1.47-.33-1.27-1.38-1.63-2.5-1.66-2.38-.07-4.77-.03-7.15-.07-.71-.01-.51.47-.51.82,0,4.54,0,9.08,0,13.63,0,1.6-.04,1.63-1.68,1.64-.84,0-1.67-.01-2.51,0-.76.01-1.1-.29-1.09-1.1.03-4.7,0-9.39.03-14.09,0-.75-.22-.93-.93-.89-2.38.12-4.76-.17-7.14.18-1.32.19-2.02.97-2.25,2.22-.1.54-.16,1.1-.17,1.65-.01,3.55,0,7.11,0,10.66,0,1.19-.15,1.35-1.31,1.37-.99.02-1.98,0-2.97,0-.69,0-1.06-.27-1.06-1.06.03-4.42-.04-8.84.07-13.25.06-2.57.98-4.82,3.62-5.84,1.84-.71,3.8-.74,5.75-.74,3,0,6.01,0,9.01,0v.03Z"/>
        <path class="cls-1" d="M141.6,32.73c-3.13,0-6.25,0-9.38,0-.37,0-.74-.07-1.1-.14-2.35-.46-3.21-1.34-3.59-3.69-.24-1.44-.2-2.9-.06-4.34.24-2.5,1.61-3.72,4.27-3.97.71-.07,1.42-.1,2.13-.1,4.58,0,9.17-.01,13.75,0,.59,0,.79-.13.77-.76-.1-2.48-1.06-3.42-3.68-3.42-5.08-.01-10.16,0-15.24,0-1.44,0-1.45,0-1.45-1.44,0-.71.04-1.42-.01-2.13-.06-.81.26-1.1,1.07-1.08,1.7.04,3.41.01,5.11.01,2.82,0,5.64,0,8.46,0,2.13,0,4.24.2,6.34.56,2.78.47,4.7,2.74,4.77,5.87.09,3.98.07,7.97.02,11.95-.03,2.19-.66,2.73-2.88,2.74-3.1.01-6.2,0-9.29,0,0-.02,0-.04,0-.06ZM141.13,23.91c-2.2,0-4.39-.01-6.59,0-1.3,0-1.93.65-1.96,1.92,0,.28,0,.56,0,.83.03,1.27.6,1.89,1.86,1.9,4.24.02,8.47,0,12.71.02.84,0,1.19-.42,1.21-1.17.03-.96-.02-1.91.03-2.87.03-.55-.18-.65-.68-.65-2.2.03-4.39.01-6.59.01Z"/>
        <path d="M260.03,32.75c-2.81-.06-5.64.15-8.44-.29-3.49-.55-4.97-1.81-5.44-5.28-.48-3.54-.57-7.14.14-10.69.48-2.39,2.24-3.86,4.63-4.31,2.37-.44,4.75-.34,7.12-.35,3,0,6.01-.02,9.01.07,1.48.04,2.97.23,4.31.97,1.98,1.1,2.72,2.97,2.89,5.08.23,2.86.22,5.74.02,8.61-.25,3.55-2.16,5.44-5.71,5.91-2.84.37-5.69.21-8.53.28ZM260.1,16.31c-1.77,0-3.53-.02-5.3,0-2.22.03-3.2.82-3.48,3-.25,1.96-.24,3.96-.01,5.92.26,2.25.96,2.91,3.24,3.01,3.9.17,7.8.24,11.69-.05,1.59-.12,2.42-.91,2.64-2.47.29-2.03.23-4.08.1-6.1-.16-2.42-1.2-3.26-3.67-3.29-1.73-.02-3.47,0-5.2,0Z"/>
        <path d="M301.56,18.5c0-4.23,0-8.47,0-12.7q0-1.57,1.53-1.58c.9,0,1.8.06,2.69-.02.94-.08,1.18.31,1.18,1.17-.02,4.54.01,9.08-.03,13.62,0,.85.21,1.1,1.07,1.07,1.95-.07,3.91-.09,5.85,0,1.88.09,3.15-.65,4.14-2.22,1.14-1.82,2.45-3.54,3.66-5.32.33-.48.74-.71,1.32-.7,1.27,0,2.54-.02,3.81,0,.86.02,1.11.51.58,1.2-2.18,2.86-3.98,6.01-6.54,8.58-.21.21-.53.41-.08.72,2.1,1.4,3.16,3.67,4.67,5.57.94,1.18,1.78,2.45,2.66,3.68.2.28.44.56.24.92-.19.36-.55.34-.9.33-1.18,0-2.35-.02-3.53,0-.74.01-1.28-.27-1.71-.89-1.29-1.85-2.67-3.64-3.9-5.53-1.05-1.61-2.54-2.14-4.34-2.12-2.08.01-4.15.03-6.23-.01-.65-.01-.76.25-.76.81.03,2.16.01,4.33,0,6.49,0,1.07-.17,1.23-1.24,1.24-.99,0-1.98-.03-2.97.01-.88.04-1.2-.31-1.19-1.2.03-4.39.01-8.77.01-13.16Z"/>
        <path d="M355.55,11.89c2.9.03,5.82-.23,8.71.19,3.48.51,5.39,2.55,5.57,6.05.23,4.51.04,9.02.12,13.52.01.77-.36,1.07-1.06,1.08-1.02.01-2.04-.02-3.07.01-.89.03-1.18-.38-1.18-1.24.02-3.83,0-7.66-.02-11.49,0-.65-.03-1.31-.32-1.9-.51-1.03-1.47-1.42-2.53-1.43-3.93-.03-7.87-.06-11.8,0-2.16.04-3.1,1.03-3.18,3.27-.09,2.59-.04,5.19-.05,7.78,0,1.3-.01,2.59,0,3.89,0,.73-.33,1.09-1.06,1.09-1.08,0-2.17,0-3.25,0-.74,0-1.11-.31-1.1-1.13.04-4.42-.05-8.84.07-13.25.08-3.19,1.5-5.64,5.25-6.22.49-.08.97-.23,1.46-.24,2.48-.02,4.95-.01,7.43-.01Z"/>
        <path class="cls-1" d="M183.87,22.09c0-1.86-.04-3.41.02-4.95.03-.73-.21-.89-.89-.84-.83.06-1.67,0-2.51.01-.61,0-.91-.23-.88-.89.04-.86.05-1.73,0-2.59-.05-.81.33-1.03,1.05-1,.77.03,1.55-.04,2.32.02.69.05.98-.11.94-.89-.08-1.23.01-2.47-.03-3.71-.03-.9.32-1.32,1.23-1.3,1.02.02,2.04,0,3.07,0,.75,0,1.12.33,1.09,1.14-.05,1.33.02,2.66-.03,3.98-.02.63.2.77.79.76,1.8-.03,3.59,0,5.39-.02.75-.01,1.08.26,1.04,1.03-.04.83-.03,1.67,0,2.5.02.72-.32.98-1,.97-1.83-.02-3.66.02-5.48-.02-.56-.01-.73.12-.73.71.03,2.84,0,5.69.02,8.53.01,1.78.83,2.61,2.59,2.67,1.27.04,2.54.02,3.81,0,.69,0,1.04.27,1.03.98,0,.87,0,1.73,0,2.6,0,.56-.21.96-.87.95-2.47-.04-4.95.17-7.4-.31-2.47-.49-4.05-1.86-4.36-4.44-.25-2.07-.14-4.13-.2-5.88Z"/>
        <path class="cls-1" d="M157.66,24.83c0-1.98-.07-3.95.01-5.93.18-4.53,1.99-6.4,6.53-6.87,2.47-.25,4.95-.12,7.42-.14,1.73-.02,3.47.04,5.2-.02.74-.03.92.29.91.92-.01.83-.03,1.67,0,2.5.03.86-.3,1.2-1.2,1.19-3.25-.04-6.5-.01-9.76-.02-.69,0-1.36.06-2,.3-.98.37-1.52,1.12-1.68,2.14-.21,1.32-.18,2.64-.18,3.97,0,2.94-.02,5.87.02,8.81.01.86-.31,1.16-1.15,1.11-.96-.05-1.92,0-2.88-.01-1.11,0-1.31-.17-1.32-1.28-.02-2.22,0-4.45,0-6.67.02,0,.04,0,.07,0Z"/>
        <path d="M283.9,25.73c0,1.88,0,3.77,0,5.65,0,1.24-.17,1.4-1.38,1.4-.99,0-1.98,0-2.97,0-.68,0-1.02-.29-1.01-1.01.02-4.39-.04-8.78.06-13.16.06-2.64.93-4.93,3.66-6,1.19-.47,2.47-.63,3.73-.65,3.96-.08,7.93-.06,11.89-.09.57,0,.76.27.75.8-.02.9-.06,1.8.01,2.69.07.89-.34,1.12-1.14,1.12-3.22-.02-6.44-.01-9.67,0-.52,0-1.04.05-1.56.14-1.32.23-1.98,1.04-2.22,2.28-.09.48-.13.98-.14,1.47-.02,1.79,0,3.58,0,5.38Z"/>
        <path d="M331.42,22.33c0-3.03,0-6.05,0-9.08,0-1.29.13-1.42,1.45-1.42.96,0,1.92,0,2.88,0,.61,0,.92.27.93.89,0,.28.03.55.03.83,0,5.9,0,11.8,0,17.69,0,1.41-.14,1.55-1.51,1.55-.9,0-1.8-.01-2.69,0-.78.02-1.1-.3-1.09-1.11.03-3.12.01-6.24.01-9.36Z"/>
        <path d="M331.34,6.76c.02-2.73-.38-2.68,2.63-2.66.59,0,1.18.01,1.76-.01.63-.03.94.28.95.87.02,1.17.03,2.35,0,3.52-.02.66-.37,1-1.07.99-1.02-.02-2.04-.02-3.06,0-.85.02-1.27-.33-1.23-1.21.03-.49,0-.99,0-1.48Z"/>
      </g>
      <path d="M38.66,32.54L22.53,1.82c-1.28-2.43-4.76-2.43-6.04,0C16.49,1.82.38,32.49.36,32.54c-1.23,2.35.86,5.67,3.6,4.82,3.15-.97,6.3-1.92,9.45-2.87,3.97-1.2,8.22-1.21,12.19,0,1.67.51,3.34,1.05,5.01,1.56,1.58.49,3.55,1.42,5.21,1.48,2.51.09,3.88-2.95,2.84-4.99ZM27.01,28.78l-3.83-1.16c-1.19-.36-2.43-.54-3.67-.54s-2.48.18-3.67.54l-3.83,1.16c-1.35.41-2.52-1.01-1.86-2.25l7.96-15.15c.59-1.13,2.21-1.13,2.81,0l7.96,15.15c.65,1.25-.52,2.66-1.86,2.25Z"/>
    </g>
  </g>
</svg>