<svg width="303" height="388" viewBox="0 0 303 388" fill="none" xmlns="http://www.w3.org/2000/svg">
<g opacity="0.8" clip-path="url(#clip0_1034_7322)">
<g filter="url(#filter0_f_1034_7322)">
<ellipse cx="295.983" cy="189.594" rx="260.016" ry="203.594" fill="#FF4D02" fill-opacity="0.4"/>
</g>
<g opacity="0.6" clip-path="url(#clip1_1034_7322)">
<rect opacity="0.03" x="214.529" y="168.288" width="44.9801" height="44.9801" fill="url(#paint0_linear_1034_7322)"/>
<path fill-rule="evenodd" clip-rule="evenodd" d="M-100.135 212.873V168.288H-55.5488V212.873H-100.135ZM-100.529 212.873V168.288H-294.062V167.893H-100.529V123.307H-294.062V122.913H-100.529L-100.529 78.3272H-294.062V77.9326H-100.529V41.2388H-100.135V77.9326H-55.5488V41.2388H-55.1543V77.9326H-10.5686V41.2388H-10.174V77.9326H34.4112V41.2388H34.8058V77.9326H79.3896V41.2388H79.7842V77.9326H124.37V41.2388H124.765V77.9326H169.351V41.2388H169.745V77.9326H214.331V41.2388H214.726V77.9326H259.311V41.2388H259.705V77.9326H385.176V78.3272H259.705V122.913H385.176V123.307H259.705V167.893H385.176V168.288H259.705V212.873H385.176V213.268H259.705V257.854H385.176V258.248H259.705V302.832H385.176V303.227H259.705V347.814H385.176V348.208H259.705V383.719H259.311V348.208H214.726V383.719H214.331V348.208H169.745V383.719H169.351V348.208H124.765V383.719H124.37V348.208H79.7842V383.719H79.3896V348.208H34.8058V383.719H34.4112V348.208H-10.174V383.719H-10.5686V348.208H-55.1543V383.719H-55.5488V348.208H-100.135V383.719H-100.529V348.208H-294.062V347.814H-100.529V303.227H-294.062V302.832H-100.529V258.248H-294.062V257.854H-100.529V213.268H-294.062V212.873H-100.529ZM-100.135 347.814H-55.5488V303.227H-100.135V347.814ZM-55.1543 347.814H-10.5686V303.227H-55.1543V347.814ZM-10.174 347.814H34.4112V303.227H-10.174V347.814ZM34.8058 347.814H79.3896V303.227H34.8058V347.814ZM79.7842 347.814H124.37V303.227H79.7842V347.814ZM124.765 347.814H169.351V303.227H124.765V347.814ZM169.745 347.814H214.331V303.227H169.745V347.814ZM214.726 347.814H259.311V303.227H214.726V347.814ZM259.311 258.248V302.832H214.726V258.248H259.311ZM214.331 258.248V302.832H169.745V258.248H214.331ZM169.351 258.248V302.832H124.765V258.248H169.351ZM124.37 258.248V302.832H79.7842V258.248H124.37ZM79.3896 258.248V302.832H34.8058V258.248H79.3896ZM34.4112 258.248V302.832H-10.174V258.248H34.4112ZM-10.5686 258.248V302.832H-55.1543V258.248H-10.5686ZM-55.5488 258.248V302.832H-100.135V258.248H-55.5488ZM-100.135 257.854H-55.5488V213.268H-100.135V257.854ZM-55.1543 257.854H-10.5686V213.268H-55.1543V257.854ZM-10.174 257.854H34.4112V213.268H-10.174V257.854ZM34.8058 257.854H79.3896V213.268H34.8058V257.854ZM79.7842 257.854H124.37V213.268H79.7842V257.854ZM124.765 257.854H169.351V213.268H124.765V257.854ZM169.745 257.854H214.331V213.268H169.745V257.854ZM214.726 257.854H259.311V213.268H214.726V257.854ZM-100.135 122.913L-100.135 78.3272H-55.5488L-55.5488 122.913H-100.135ZM-55.1543 122.913L-55.1543 78.3272H-10.5686L-10.5686 122.913H-55.1543ZM-10.174 122.913V78.3272H34.4112L34.4112 122.913H-10.174ZM34.8058 122.913V78.3272H79.3896L79.3896 122.913H34.8058ZM79.7842 122.913V78.3272H124.37L124.37 122.913H79.7842ZM124.765 122.913V78.3272H169.351L169.351 122.913H124.765ZM169.745 122.913V78.3272H214.331L214.331 122.913H169.745ZM214.726 122.913V78.3272H259.311V122.913H214.726ZM259.311 123.307H214.726V167.893H259.311V123.307ZM214.331 123.307H169.745V167.893H214.331V123.307ZM169.351 123.307H124.765V167.893H169.351V123.307ZM124.37 123.307H79.7842V167.893H124.37V123.307ZM79.3896 123.307H34.8058V167.893H79.3896V123.307ZM34.4112 123.307H-10.174V167.893H34.4112V123.307ZM-10.5686 123.307H-55.1543V167.893H-10.5686V123.307ZM-55.5488 123.307H-100.135V167.893H-55.5488V123.307ZM-55.1543 212.873V168.288H-10.5686V212.873H-55.1543ZM-10.174 212.873V168.288H34.4112V212.873H-10.174ZM34.8058 212.873V168.288H79.3896V212.873H34.8058ZM79.7842 212.873V168.288H124.37V212.873H79.7842ZM124.765 212.873V168.288H169.351V212.873H124.765ZM169.745 212.873V168.288H214.331V212.873H169.745ZM214.726 212.873V168.288H259.311V212.873H214.726Z" fill="url(#paint1_radial_1034_7322)"/>
<rect opacity="0.5" x="124.568" y="257.459" width="44.9801" height="0.789124" fill="url(#paint2_linear_1034_7322)"/>
<rect x="34.2139" y="256.67" width="44.9801" height="0.789124" transform="rotate(-90 34.2139 256.67)" fill="url(#paint3_linear_1034_7322)"/>
<rect opacity="0.3" x="124.173" y="168.288" width="44.9801" height="0.789124" transform="rotate(-90 124.173 168.288)" fill="url(#paint4_linear_1034_7322)"/>
<rect opacity="0.02" x="-10.3711" y="212.873" width="44.9801" height="44.9801" fill="white"/>
</g>
</g>
<defs>
<filter id="filter0_f_1034_7322" x="-334.922" y="-384.888" width="1261.81" height="1148.96" filterUnits="userSpaceOnUse" color-interpolation-filters="sRGB">
<feFlood flood-opacity="0" result="BackgroundImageFix"/>
<feBlend mode="normal" in="SourceGraphic" in2="BackgroundImageFix" result="shape"/>
<feGaussianBlur stdDeviation="185.444" result="effect1_foregroundBlur_1034_7322"/>
</filter>
<linearGradient id="paint0_linear_1034_7322" x1="259.509" y1="191.567" x2="214.529" y2="190.778" gradientUnits="userSpaceOnUse">
<stop stop-color="white" stop-opacity="0"/>
<stop offset="1" stop-color="white"/>
</linearGradient>
<radialGradient id="paint1_radial_1034_7322" cx="0" cy="0" r="1" gradientUnits="userSpaceOnUse" gradientTransform="translate(45.5569 212.479) rotate(89.9536) scale(121.92 241.803)">
<stop stop-color="white" stop-opacity="0.2"/>
<stop offset="1" stop-color="white" stop-opacity="0"/>
</radialGradient>
<linearGradient id="paint2_linear_1034_7322" x1="124.568" y1="257.853" x2="169.548" y2="257.853" gradientUnits="userSpaceOnUse">
<stop stop-color="white" stop-opacity="0"/>
<stop offset="0.5027" stop-color="white"/>
<stop offset="1" stop-color="white" stop-opacity="0"/>
</linearGradient>
<linearGradient id="paint3_linear_1034_7322" x1="34.2139" y1="257.064" x2="79.194" y2="257.064" gradientUnits="userSpaceOnUse">
<stop stop-color="white" stop-opacity="0"/>
<stop offset="0.5027" stop-color="white"/>
<stop offset="1" stop-color="white" stop-opacity="0"/>
</linearGradient>
<linearGradient id="paint4_linear_1034_7322" x1="124.173" y1="168.682" x2="169.153" y2="168.682" gradientUnits="userSpaceOnUse">
<stop stop-color="white" stop-opacity="0"/>
<stop offset="0.5027" stop-color="white"/>
<stop offset="1" stop-color="white" stop-opacity="0"/>
</linearGradient>
<clipPath id="clip0_1034_7322">
<rect width="753" height="412.318" fill="white" transform="translate(-197 -14)"/>
</clipPath>
<clipPath id="clip1_1034_7322">
<rect width="508.196" height="342.48" fill="white" transform="translate(-197 41.2388)"/>
</clipPath>
</defs>
</svg>
