<svg width="29" height="29" viewBox="0 0 29 29" fill="none" xmlns="http://www.w3.org/2000/svg">
<path d="M2.33228 14.6374C2.33228 19.4127 5.10729 23.5391 9.13128 25.4948L3.37673 9.72786C2.68688 11.2726 2.33097 12.9456 2.33228 14.6374ZM22.5399 14.0287C22.5399 12.5378 22.0044 11.5052 21.545 10.7016C20.9335 9.70789 20.3606 8.86636 20.3606 7.87265C20.3606 6.7637 21.2014 5.73142 22.3861 5.73142C22.4396 5.73142 22.4903 5.73808 22.5427 5.74106C20.3962 3.77476 17.5367 2.57422 14.396 2.57422C10.1815 2.57422 6.47357 4.73656 4.3165 8.01175C4.59953 8.02025 4.8665 8.02599 5.09283 8.02599C6.35466 8.02599 8.30789 7.87288 8.30789 7.87288C8.9582 7.83454 9.03487 8.78969 8.38548 8.86659C8.38548 8.86659 7.73172 8.94349 7.00451 8.9816L11.3976 22.0486L14.0379 14.1308L12.1581 8.98137C11.5085 8.94326 10.8931 8.86636 10.8931 8.86636C10.243 8.82826 10.3192 7.83431 10.9693 7.87265C10.9693 7.87265 12.9615 8.02576 14.1469 8.02576C15.4085 8.02576 17.362 7.87265 17.362 7.87265C18.0127 7.83431 18.0892 8.78946 17.4393 8.86636C17.4393 8.86636 16.7844 8.94326 16.0586 8.98137L20.4182 21.9495L21.6213 17.9285C22.143 16.2599 22.5399 15.0614 22.5399 14.0287Z" fill="#00749A"/>
<path d="M14.6077 15.6907L10.9882 26.2081C12.0947 26.5343 13.2424 26.6998 14.396 26.6998C15.8009 26.6998 17.1481 26.4567 18.4021 26.016C18.3685 25.9634 18.3398 25.9077 18.3163 25.8498L14.6077 15.6907ZM24.9815 8.84766C25.0333 9.23192 25.0627 9.64465 25.0627 10.0881C25.0627 11.3123 24.8341 12.6885 24.1454 14.4091L20.4605 25.0632C24.047 22.9717 26.4593 19.0862 26.4593 14.6355C26.4625 12.6125 25.9542 10.6215 24.9815 8.84766Z" fill="#00749A"/>
<path d="M14.396 0.574219C6.64207 0.574219 0.333374 6.88243 0.333374 14.6363C0.333374 22.3912 6.64184 28.6994 14.396 28.6994C22.1497 28.6994 28.4593 22.3914 28.4593 14.6363C28.4591 6.88243 22.1497 0.574219 14.396 0.574219ZM14.396 28.0546C6.99764 28.0546 0.978177 22.0351 0.978177 14.6363C0.978177 7.23823 6.99741 1.21925 14.396 1.21925C21.7941 1.21925 27.8131 7.23823 27.8131 14.6363C27.8131 22.0351 21.7939 28.0546 14.396 28.0546Z" fill="#00749A"/>
</svg>
