<svg width="41" height="41" viewBox="0 0 41 41" fill="none" xmlns="http://www.w3.org/2000/svg">
<path d="M2.8556 20.5907C2.8556 27.4126 6.81992 33.3074 12.5685 36.1013L4.34767 13.577C3.36218 15.7838 2.85373 18.1738 2.8556 20.5907ZM31.7238 19.721C31.7238 17.5911 30.9587 16.1161 30.3025 14.968C29.4289 13.5484 28.6104 12.3462 28.6104 10.9266C28.6104 9.34243 29.8116 7.86774 31.5041 7.86774C31.5805 7.86774 31.653 7.87725 31.7277 7.88151C28.6613 5.07248 24.5763 3.35742 20.0895 3.35742C14.0688 3.35742 8.77175 6.4465 5.69021 11.1254C6.09454 11.1375 6.47592 11.1457 6.79926 11.1457C8.60188 11.1457 11.3922 10.927 11.3922 10.927C12.3212 10.8722 12.4308 12.2367 11.5031 12.3466C11.5031 12.3466 10.5691 12.4564 9.53025 12.5109L15.8061 31.1781L19.578 19.8669L16.8926 12.5105C15.9645 12.4561 15.0854 12.3462 15.0854 12.3462C14.1567 12.2918 14.2655 10.8719 15.1942 10.9266C15.1942 10.9266 18.0403 11.1454 19.7337 11.1454C21.536 11.1454 24.3267 10.9266 24.3267 10.9266C25.2564 10.8719 25.3656 12.2364 24.4372 12.3462C24.4372 12.3462 23.5016 12.4561 22.4647 12.5105L28.6927 31.0365L30.4114 25.2922C31.1568 22.9085 31.7238 21.1964 31.7238 19.721Z" fill="#FF4D02"/>
<path d="M20.392 22.0942L15.2212 37.1192C16.802 37.5851 18.4416 37.8216 20.0896 37.8216C22.0965 37.8216 24.0212 37.4743 25.8126 36.8447C25.7646 36.7695 25.7235 36.69 25.69 36.6073L20.392 22.0942ZM35.2117 12.3184C35.2858 12.8673 35.3278 13.4569 35.3278 14.0905C35.3278 15.8393 35.0012 17.8052 34.0174 20.2634L28.7532 35.4835C33.8767 32.4957 37.3229 26.9449 37.3229 20.5867C37.3275 17.6967 36.6013 14.8524 35.2117 12.3184Z" fill="#FF4D02"/>
<path d="M20.0896 0.5C9.01247 0.5 0 9.51178 0 20.5888C0 31.6672 9.01214 40.679 20.0896 40.679C31.1664 40.679 40.1801 31.6675 40.1801 20.5888C40.1798 9.51178 31.1664 0.5 20.0896 0.5ZM20.0896 39.7578C9.52043 39.7578 0.921152 31.1586 0.921152 20.5888C0.921152 10.0201 9.52011 1.42148 20.0896 1.42148C30.6584 1.42148 39.257 10.0201 39.257 20.5888C39.257 31.1586 30.6581 39.7578 20.0896 39.7578Z" fill="#FF4D02"/>
</svg>
